# Exported by ZModeler 2.2.4 (Build 981) with WavefrontOBJ filter (Build 45)
# 

mtllib wheel_1.mtl

v -9.811 -1.953 0.997
v -9.453 -0.503 0.494
v -8.831 -1.757 0
v -9.982 -0.256 0.997
v -10.502 -0.503 0.494
v -9.999 -0.009 1.492
v -10.502 1.493 4.492
v -9.854 1.493 4.492
v -9.811 1.945 4.492
v -9.811 1.945 6.393
v -9.641 2.499 4.492
v -10.502 2.499 4.492
v -9.811 1.945 3.401
v -9.811 1.945 3.393
v -10.502 0.495 0.494
v -9.93 0.742 0.997
v -9.453 0.495 0.494
v -9.504 -0.009 0.494
v -9.001 -0.009 0
v -9.811 1.945 0.997
v -8.831 1.748 0
v -5.89 1.168 0
v -6.001 -0.009 0
v -4.91 0.972 0.997
v -5.004 -0.009 0.997
v -4.91 -0.981 0.997
v -6.001 -0.009 3.998
v -5.89 -1.177 3.998
v -5.549 -2.303 3.998
v -4.62 -1.919 0.997
v -5.549 -2.303 0
v -5.89 -1.177 0
v -8.319 -3.446 0
v -7.484 -5.006 0
v -8.541 -4.085 0.494
v -8.319 -5.561 0.997
v -9.121 -4.051 0.997
v -9.001 -4.273 3.495
v -8.464 -5.288 3.998
v -8.831 -4.597 4.224
v -8.584 -5.058 4.492
v -8.319 -5.561 6.393
v -9.513 -4.486 3.495
v -8.209 -5.697 6.725
v -8.115 -5.8 6.998
v -8.746 -6.337 7.493
v -9.129 -5.407 7.493
v -7.902 -5.288 7.493
v -8.072 -4.972 7.493
v -7.484 -5.006 7.996
v -8.319 -3.446 7.996
v -5.549 -2.303 7.996
v -5.89 -1.177 7.996
v -4.91 -0.981 6.998
v -6.001 -0.009 7.996
v -9.001 -0.009 7.996
v -8.831 -1.757 7.996
v -9.351 -1.501 7.493
v -9.3 -1.928 7.493
v -10.502 -1.501 7.493
v -10.502 -2.507 7.493
v -9.121 -2.507 7.493
v -9.717 -2.252 6.998
v -10.502 -0.503 3.495
v -9.76 -2.124 6.725
v -9.811 -1.953 6.393
v -9.956 -0.503 3.495
v -9.862 -1.382 4.492
v -9.811 -1.953 3.401
v -10.655 -1.714 4.492
v -9.811 -1.953 4.492
v -10.28 -2.635 4.492
v -9.675 -2.388 4.492
v -9.513 -4.486 0.494
v -9.24 -3.829 1.492
v -9.385 -3.352 3.495
v -9.24 -3.829 4.492
v -9.896 -3.565 3.495
v -8.652 -4.938 6.998
v -9.24 -3.829 6.998
v -9.24 -3.829 3.495
v -9.896 -3.565 0.494
v -8.78 -3.642 0.494
v -8.925 -3.164 0.494
v -9.462 -3.113 0.997
v -9.811 -1.962 3.384
v -9.999 -0.009 3.495
v -10.502 0.495 3.495
v -9.879 -1.254 6.998
v -9.999 -0.009 4.492
v -9.956 0.495 3.495
v -9.999 -0.009 6.998
v -8.831 1.748 7.996
v -5.89 1.168 7.996
v -8.319 3.437 7.996
v -9.214 2.192 7.493
v -9.317 1.851 7.493
v -10.28 2.627 7.493
v -10.655 1.706 7.493
v -9.385 1.177 7.493
v -9.837 1.638 6.998
v -9.896 3.557 3.495
v -9.385 3.343 3.495
v -9.24 3.821 3.495
v -9.513 4.478 3.495
v -9.001 4.264 3.495
v -9.24 3.821 4.492
v -9.607 2.618 6.998
v -9.24 3.821 6.998
v -8.532 5.151 4.492
v -8.464 5.279 6.998
v -8.319 5.552 4.492
v -8.319 5.552 6.393
v -8.311 5.561 6.384
v -7.953 5.996 4.492
v -7.39 6.678 3.495
v -8.319 5.552 3.393
v -8.746 6.328 4.492
v -8.319 5.552 3.384
v -8.882 4.486 0.997
v -9.513 4.478 0.494
v -9.129 5.399 4.492
v -9.896 3.557 0.494
v -8.78 3.633 0.494
v -8.925 3.156 0.494
v -8.319 3.437 0
v -9.317 3.582 0.997
v -8.541 4.077 0.494
v -7.484 4.998 0
v -8.319 5.552 0.997
v -7.237 6.874 0.997
v -7.041 6.328 0.494
v -6.717 6.712 0.494
v -6.367 6.362 0
v -4.245 4.239 0
v -4.995 3.326 0
v -5.549 2.294 0
v -4.62 1.91 0.997
v -5.549 2.294 3.998
v -4.995 3.326 3.998
v -4.16 2.772 0.997
v -4.245 4.239 3.998
v -3.537 3.531 0.997
v -2.779 4.154 0.997
v -3.333 4.989 0
v -1.918 4.614 0.997
v -2.301 5.544 0
v -0.98 4.904 0.997
v -2.301 5.544 3.998
v -1.176 5.885 3.998
v -0.008 5.996 3.998
v -0.008 4.998 0.997
v 0.972 4.904 0.997
v 1.168 5.885 3.998
v 0.972 4.904 6.998
v 2.293 5.544 3.998
v 1.909 4.614 6.998
v 3.324 4.989 3.998
v 2.77 4.154 6.998
v 4.236 4.239 3.998
v 2.77 4.154 0.997
v 3.529 3.531 0.997
v 4.151 2.772 0.997
v 4.236 4.239 0
v 4.987 3.326 0
v 4.612 1.91 0.997
v 5.541 2.294 0
v 4.901 0.972 0.997
v 5.882 1.168 0
v 5.992 -0.009 0
v 4.995 -0.009 0.997
v 5.992 -0.009 3.998
v 4.901 -0.981 0.997
v 5.882 -1.177 3.998
v 4.901 -0.981 6.998
v 4.995 -0.009 6.998
v 4.901 0.972 6.998
v 5.992 -0.009 7.996
v 5.882 1.168 7.996
v 5.541 2.294 7.996
v 4.612 1.91 6.998
v 5.541 2.294 3.998
v 5.882 1.168 3.998
v 4.987 3.326 3.998
v 4.151 2.772 6.998
v 3.529 3.531 6.998
v 4.236 4.239 7.996
v 4.987 3.326 7.996
v 7.476 4.998 7.996
v 6.359 6.362 7.996
v 7.467 5.8 7.493
v 7.893 5.279 7.493
v 8.737 6.328 7.493
v 8.106 5.791 6.998
v 7.066 7.07 6.998
v 7.066 7.07 4.492
v 6.095 7.864 6.998
v 5.549 7.676 7.493
v 4.995 7.48 7.996
v 3.324 4.989 7.996
v 2.293 5.544 7.996
v 3.435 8.316 7.996
v 1.168 5.885 7.996
v -0.008 5.996 7.996
v -0.008 8.998 7.996
v -1.176 5.885 7.996
v -1.756 8.827 7.996
v -1.5 9.348 7.493
v -1.926 9.296 7.493
v -1.5 10.499 7.493
v -2.506 10.499 7.493
v -0.503 10.499 3.495
v -2.25 9.714 6.998
v -2.506 9.117 7.493
v -3.827 9.237 6.998
v -2.122 9.757 6.725
v -3.827 9.237 4.492
v -1.952 9.808 6.393
v -2.387 9.672 4.492
v -3.35 9.382 3.495
v -5.404 9.126 7.493
v -3.563 9.893 3.495
v -3.827 9.237 3.495
v -4.484 9.51 3.495
v -4.27 8.998 3.495
v -6.333 8.742 7.493
v -5.558 8.316 6.393
v -5.694 8.205 6.725
v -6.998 7.13 4.313
v -7.075 7.07 4.492
v -8.49 6.362 7.493
v -7.868 6.098 6.998
v -7.075 7.07 6.998
v -7.68 5.552 7.493
v -6.367 6.362 7.996
v -5.805 7.471 7.493
v -5.796 8.111 6.998
v -5.285 7.898 7.493
v -4.969 8.068 7.493
v -5.004 7.48 7.996
v -3.444 8.316 7.996
v -4.935 8.648 6.998
v -2.301 5.544 7.996
v -0.98 4.904 6.998
v -1.918 4.614 6.998
v -3.333 4.989 3.998
v -2.779 4.154 6.998
v -3.537 3.531 6.998
v -4.16 2.772 6.998
v -4.245 4.239 7.996
v -4.995 3.326 7.996
v -4.62 1.91 6.998
v -5.549 2.294 7.996
v -7.484 4.998 7.996
v -8.217 4.682 7.493
v -7.902 5.279 7.493
v -9.197 5.655 7.493
v -7.782 7.07 3.495
v -7.075 7.778 3.495
v -7.075 7.07 3.495
v -7.075 7.07 1.492
v -6.683 7.386 3.495
v -6.282 7.719 3.537
v -7.782 7.07 0.494
v -6.367 8.486 4.492
v -7.075 7.778 0.494
v -6.333 7.036 0.494
v -6.495 7.548 0.997
v -5.558 8.316 0.997
v -5.558 8.316 3.393
v -4.049 9.117 0.997
v -4.083 8.537 0.494
v -5.004 7.48 0
v -3.444 8.316 0
v -3.64 8.776 0.494
v -3.162 8.921 0.494
v -1.952 9.808 0.997
v -1.756 8.827 0
v -1.176 5.885 0
v -0.008 8.998 0
v -0.008 5.996 0
v 1.168 5.885 0
v 1.747 8.827 0
v 3.435 8.316 0
v 2.293 5.544 0
v 4.995 7.48 0
v 4.075 8.537 0.494
v 4.484 8.878 0.997
v 5.549 8.316 0.997
v 6.87 7.232 0.997
v 6.956 7.156 1.21
v 7.066 7.778 0.494
v 6.325 7.036 0.494
v 6.743 6.678 0.494
v 7.774 7.07 0.494
v 8.481 6.362 4.492
v 6.99 7.13 1.313
v 7.066 7.07 1.492
v 6.674 7.386 3.495
v 7.066 7.07 3.495
v 7.382 6.678 3.495
v 8.021 5.902 4.492
v 8.2 5.689 6.725
v 7.774 7.07 3.495
v 8.311 5.552 6.393
v 8.311 5.552 4.492
v 9.189 5.655 4.492
v 8.575 5.049 4.492
v 8.388 5.399 3.725
v 8.311 5.552 3.401
v 7.544 6.49 0.997
v 7.032 6.328 0.494
v 8.311 5.552 0.997
v 6.359 6.362 0
v 7.476 4.998 0
v 3.324 4.989 0
v 1.909 4.614 0.997
v 8.533 4.077 0.494
v 9.112 4.043 0.997
v 9.504 4.478 0.494
v 9.232 3.821 1.492
v 9.517 2.883 3.452
v 9.376 3.343 3.495
v 9.232 3.821 4.492
v 9.888 3.557 3.495
v 8.643 4.93 6.998
v 9.121 5.399 7.493
v 8.064 4.964 7.493
v 8.311 3.437 7.996
v 9.232 3.821 6.998
v 8.822 1.748 7.996
v 9.112 2.499 7.493
v 9.709 2.243 6.998
v 9.751 2.115 6.725
v 10.493 0.495 3.495
v 10.493 2.499 7.493
v 10.493 1.493 7.493
v 10.493 -0.503 3.495
v 9.99 -0.009 4.492
v 9.948 -0.503 3.495
v 9.845 -1.501 4.492
v 9.99 -0.009 1.492
v 10.493 -1.501 4.492
v 10.493 0.495 0.494
v 10.493 -0.503 0.494
v 9.496 -0.009 0.494
v 9.445 0.495 0.494
v 8.993 -0.009 0
v 9.445 -0.503 0.494
v 9.803 -1.953 0.997
v 8.822 -1.757 0
v 5.882 -1.177 0
v 5.541 -2.303 0
v 4.612 -1.919 0.997
v 5.541 -2.303 3.998
v 4.987 -3.335 3.998
v 4.151 -2.78 0.997
v 4.236 -4.247 3.998
v 3.529 -3.539 0.997
v 4.236 -4.247 0
v 2.77 -4.162 0.997
v 3.324 -4.998 0
v 1.909 -4.623 0.997
v 3.324 -4.998 3.998
v 2.77 -4.162 6.998
v 3.529 -3.539 6.998
v 4.151 -2.78 6.998
v 4.236 -4.247 7.996
v 4.987 -3.335 7.996
v 6.359 -6.371 7.996
v 7.476 -5.006 7.996
v 7.672 -5.561 7.493
v 7.066 -7.079 6.998
v 7.859 -6.107 6.998
v 7.066 -7.079 4.492
v 7.066 -7.787 3.495
v 6.973 -7.151 4.262
v 6.674 -7.394 3.495
v 7.066 -7.079 3.495
v 7.774 -7.079 3.495
v 8.481 -6.371 7.493
v 9.189 -5.663 7.493
v 7.893 -5.288 7.493
v 8.209 -4.691 7.493
v 9.232 -3.829 6.998
v 8.311 -3.446 7.996
v 9.206 -2.2 7.493
v 9.598 -2.627 6.998
v 10.271 -2.635 7.493
v 9.308 -1.859 7.493
v 8.822 -1.757 7.996
v 9.376 -1.185 7.493
v 10.655 -1.714 7.493
v 9.828 -1.646 6.998
v 9.888 -3.565 3.495
v 9.803 -1.953 6.393
v 9.564 -2.751 4.744
v 9.803 -1.953 4.492
v 9.632 -2.507 4.492
v 10.493 -2.507 4.492
v 9.803 -1.953 3.393
v 9.922 -0.751 0.997
v 9.308 -3.591 0.997
v 9.376 -3.352 3.495
v 9.232 -3.829 1.492
v 9.888 -3.565 0.494
v 8.916 -3.164 0.494
v 8.311 -3.446 0
v 8.771 -3.642 0.494
v 8.533 -4.085 0.494
v 9.504 -4.486 0.494
v 8.874 -4.495 0.997
v 8.311 -5.561 3.401
v 8.311 -5.561 0.997
v 7.476 -5.006 0
v 7.228 -6.883 0.997
v 7.032 -6.337 0.494
v 6.359 -6.371 0
v 4.987 -3.335 0
v 6.674 -6.755 0.494
v 6.325 -7.045 0.494
v 5.549 -8.324 0.997
v 4.995 -7.488 0
v 2.293 -5.552 0
v 3.435 -8.324 0
v 4.075 -8.546 0.494
v 3.631 -8.785 0.494
v 3.154 -8.93 0.494
v 1.944 -9.817 0.997
v 3.103 -9.467 0.997
v 3.555 -9.902 0.494
v 1.952 -9.817 3.393
v 1.705 -10.661 4.492
v 1.944 -9.817 3.393
v 1.372 -9.868 4.492
v 1.944 -9.817 4.492
v 1.944 -9.817 6.393
v 0.494 -9.962 3.495
v 0.494 -10.507 3.495
v -0.008 -10.004 3.495
v 0.247 -9.987 0.997
v -0.008 -10.004 1.492
v 0.494 -10.507 0.494
v 0.494 -9.458 0.494
v 1.747 -8.836 0
v -0.008 -9.006 0
v 1.168 -5.893 0
v -0.008 -6.004 0
v 0.972 -4.913 0.997
v -0.008 -5.006 0.997
v -0.008 -6.004 3.998
v 1.168 -5.893 3.998
v 2.293 -5.552 3.998
v 0.972 -4.913 6.998
v 1.909 -4.623 6.998
v 2.293 -5.552 7.996
v 1.168 -5.893 7.996
v -0.008 -6.004 7.996
v -0.008 -9.006 7.996
v 1.747 -8.836 7.996
v 1.492 -9.356 7.493
v 1.245 -9.885 6.998
v 1.492 -10.507 7.493
v 1.918 -9.305 7.493
v 2.498 -10.507 7.493
v -0.503 -10.507 3.495
v -0.008 -10.004 4.492
v -0.503 -9.962 3.495
v -1.5 -9.859 4.492
v -1.5 -10.507 4.492
v -1.952 -9.817 4.492
v -1.952 -9.817 6.393
v -2.804 -9.561 4.631
v -3.563 -9.902 3.495
v -3.35 -9.39 3.495
v -3.827 -9.245 3.495
v -3.827 -9.245 1.492
v -3.589 -9.322 0.997
v -3.563 -9.902 0.494
v -3.162 -8.93 0.494
v -1.952 -9.817 0.997
v -1.756 -8.836 0
v -1.176 -5.893 0
v -3.444 -8.324 0
v -2.301 -5.552 0
v -5.004 -7.488 0
v -3.333 -4.998 0
v -6.367 -6.371 0
v -4.245 -4.247 0
v -4.995 -3.335 0
v -4.16 -2.78 0.997
v -3.537 -3.539 0.997
v -2.779 -4.162 0.997
v -4.245 -4.247 3.998
v -3.333 -4.998 3.998
v -1.918 -4.623 0.997
v -2.301 -5.552 3.998
v -1.918 -4.623 6.998
v -2.779 -4.162 6.998
v -3.333 -4.998 7.996
v -4.245 -4.247 7.996
v -6.367 -6.371 7.996
v -5.004 -7.488 7.996
v -5.558 -7.684 7.493
v -6.103 -7.872 6.998
v -6.367 -8.495 7.493
v -7.782 -7.079 3.495
v -7.075 -7.079 4.492
v -7.16 -6.968 4.211
v -7.39 -6.687 3.495
v -7.075 -7.079 3.495
v -7.075 -7.787 3.495
v -6.683 -7.394 3.495
v -6.964 -7.164 1.21
v -7.075 -7.079 1.492
v -7.075 -7.787 0.494
v -6.879 -7.241 0.997
v -6.333 -7.045 0.494
v -5.558 -8.324 0.997
v -4.492 -8.887 0.997
v -5.558 -8.324 3.384
v -6.333 -8.751 4.492
v -5.558 -8.324 3.401
v -6.001 -7.957 4.492
v -5.566 -8.316 6.384
v -5.558 -8.324 4.492
v -5.404 -9.134 4.492
v -5.157 -8.537 4.492
v -5.558 -8.324 6.393
v -3.827 -9.245 4.492
v -5.285 -8.469 6.998
v -3.827 -9.245 6.998
v -4.688 -8.222 7.493
v -5.66 -9.203 7.493
v -5.285 -7.906 7.493
v -3.444 -8.324 7.996
v -2.301 -5.552 7.996
v -1.176 -5.893 7.996
v -0.98 -4.913 6.998
v -0.008 -5.006 6.998
v -1.176 -5.893 3.998
v -0.98 -4.913 0.997
v -1.756 -8.836 7.996
v -2.199 -9.22 7.493
v -1.858 -9.322 7.493
v -2.634 -10.286 7.493
v -1.713 -10.661 7.493
v -4.484 -9.518 3.495
v -2.625 -9.612 6.998
v -4.27 -9.006 3.495
v -4.594 -8.836 3.222
v -1.645 -9.842 6.998
v -1.185 -9.39 7.493
v -0.008 -10.004 6.998
v -4.484 -9.518 0.494
v -3.64 -8.785 0.494
v -4.083 -8.546 0.494
v -6.751 -6.687 0.494
v -7.041 -6.337 0.494
v -7.782 -7.079 0.494
v -7.552 -6.499 0.997
v -8.319 -5.561 3.393
v -9.197 -5.663 4.492
v -8.49 -6.371 4.492
v -8.319 -5.561 4.492
v -8.03 -5.91 4.492
v -7.723 -6.286 3.537
v -7.075 -7.079 6.998
v -7.476 -5.808 7.493
v -4.995 -3.335 7.996
v -4.16 -2.78 6.998
v -4.62 -1.919 6.998
v -4.995 -3.335 3.998
v -3.537 -3.539 6.998
v -0.503 -9.458 0.494
v -0.75 -9.936 0.997
v -0.503 -10.507 0.494
v -0.008 -9.51 0.494
v -2.506 -10.507 4.492
v -1.952 -9.817 3.393
v -2.506 -9.646 4.492
v 2.498 -9.126 7.493
v 3.819 -9.245 6.998
v 3.435 -8.324 7.996
v 4.927 -8.657 6.998
v 4.961 -8.077 7.493
v 4.995 -7.488 7.996
v 3.324 -4.998 7.996
v 5.796 -7.48 7.493
v 5.276 -7.906 7.493
v 6.325 -8.751 7.493
v 5.788 -8.119 6.998
v 5.549 -8.324 6.393
v 5.899 -8.034 4.492
v 5.549 -8.324 4.492
v 6.359 -8.495 4.492
v 6.512 -7.531 2.907
v 7.774 -7.079 0.494
v 7.066 -7.787 0.494
v 5.651 -9.203 4.492
v 6.487 -7.557 0.997
v 5.549 -8.324 3.393
v 4.262 -9.006 3.495
v 3.819 -9.245 1.492
v 3.819 -9.245 3.495
v 3.341 -9.39 3.495
v 2.378 -9.68 4.492
v 3.819 -9.245 4.492
v 3.555 -9.902 3.495
v 5.396 -9.134 7.493
v 4.475 -9.518 3.495
v 2.242 -9.723 6.998
v 4.475 -9.518 0.494
v 4.04 -9.126 0.997
v 2.625 -10.286 4.492
v 5.046 -8.588 4.492
v 7.066 -7.079 1.492
v 7.152 -6.968 1.21
v 7.382 -6.687 3.495
v 7.544 -6.499 3.998
v 8.302 -5.569 6.384
v 7.944 -6.004 4.492
v 8.106 -5.8 3.998
v 8.2 -5.697 3.725
v 8.737 -6.337 4.492
v 8.311 -5.561 4.492
v 9.121 -5.407 4.492
v 8.524 -5.16 4.492
v 8.311 -5.561 6.393
v 8.456 -5.288 6.998
v 9.232 -3.829 4.492
v 8.797 -4.648 3.337
v 8.993 -4.273 3.495
v 9.504 -4.486 3.495
v 9.232 -3.829 3.495
v 9.99 -0.009 6.998
v 9.871 1.245 6.998
v 8.993 -0.009 7.996
v 9.342 1.493 7.493
v 9.291 1.919 7.493
v 5.882 -1.177 7.996
v 5.541 -2.303 7.996
v 4.612 -1.919 6.998
v 8.822 1.748 0
v 9.803 1.945 0.997
v 9.973 0.247 0.997
v 9.803 1.945 3.393
v 9.948 0.495 3.495
v 9.99 -0.009 3.495
v 9.803 1.945 6.393
v 9.854 1.373 4.492
v 9.803 1.945 4.492
v 10.655 1.706 4.492
v 10.271 2.627 4.492
v 9.666 2.38 4.492
v 9.888 3.557 0.494
v 8.771 3.633 0.494
v 8.916 3.156 0.494
v 9.453 3.104 0.997
v 9.803 1.953 3.393
v 8.311 3.437 0
v 9.504 4.478 3.495
v 9.232 3.821 3.495
v 8.993 4.264 3.495
v 7.066 7.778 3.495
v 6.359 8.486 7.493
v 5.651 9.194 7.493
v 5.558 8.307 6.384
v 5.549 8.316 6.393
v 5.276 8.461 6.998
v 3.819 9.237 4.492
v 3.819 9.237 6.998
v 4.68 8.213 7.493
v 5.276 7.898 7.493
v 2.617 9.603 6.998
v 2.191 9.211 7.493
v 2.625 10.277 7.493
v 1.85 9.313 7.493
v 1.747 8.827 7.996
v 1.176 9.382 7.493
v -0.008 9.996 6.998
v -1.253 9.876 6.998
v -0.008 9.996 4.492
v 0.494 10.499 3.495
v 0.494 9.953 3.495
v -0.008 9.996 3.495
v -0.503 9.953 3.495
v -0.008 9.996 1.492
v -0.145 9.987 1.21
v -0.503 10.499 0.494
v 1.492 10.499 4.492
v 0.494 10.499 0.494
v -0.008 9.501 0.494
v -0.503 9.45 0.494
v 0.494 9.45 0.494
v 1.944 9.808 0.997
v 0.742 9.928 0.997
v 1.944 9.808 3.393
v 2.498 10.499 4.492
v 1.944 9.808 3.401
v 3.58 9.313 0.997
v 3.819 9.237 1.492
v 5.396 9.126 4.492
v 3.555 9.893 0.494
v 4.475 9.51 0.494
v 3.631 8.776 0.494
v 3.154 8.921 0.494
v 6.325 8.742 4.492
v 5.549 8.316 3.393
v 5.992 7.949 4.492
v 6.282 7.714 4.518
v 5.549 8.316 4.492
v 5.149 8.529 4.492
v 4.637 8.802 3.337
v 4.262 8.998 3.495
v 4.475 9.51 3.495
v 3.819 9.237 3.495
v 3.555 9.893 3.495
v 3.341 9.382 3.495
v 2.796 9.552 4.631
v 1.944 9.808 6.393
v 1.773 9.825 6.725
v 1.637 9.834 6.998
v 1.705 10.661 7.493
v 1.492 9.851 4.492
v 1.944 9.808 4.492
v 2.498 9.638 4.492
v -0.256 9.979 0.997
v -1.952 9.808 3.401
v -1.381 9.859 4.492
v -1.713 10.661 4.492
v -1.952 9.808 4.492
v -2.634 10.277 4.492
v -4.484 9.51 0.494
v -3.563 9.893 0.494
v -3.827 9.237 1.492
v -5.285 8.461 3.998
v -5.055 8.58 4.492
v -5.66 9.194 4.492
v -5.558 8.316 4.492
v -5.907 8.026 4.492
v -1.96 9.808 3.384
v -3.111 9.458 0.997
v -4.91 0.972 6.998
v -5.89 1.168 3.998
v -5.004 -0.009 6.998
v -3.333 4.989 7.996
v -0.008 4.998 6.998
v -9.24 3.821 1.492


vn -0.864503 -0.153679 -0.478561
vn -0.615971 -0.25878 -0.744052
vn -0.449736 -0.0744194 -0.89006
vn -0.864955 -0.499998 0.0431465
vn -0.343983 -0.91138 -0.225973
vn -0.802647 -0.532551 0.268604
vn -0.508161 -0.452803 0.73263
vn -0.957302 -0.0777944 0.278475
vn -0.54211 0.1078 0.833374
vn -0.981973 -0.121382 -0.144938
vn -0.840814 0.517091 0.160195
vn -0.131556 0.911229 0.390348
vn -0.488578 0.855531 -0.171386
vn -0.728178 0.667608 -0.155197
vn -0.420758 0.568607 -0.706862
vn -0.556658 0.644423 -0.524279
vn -0.48976 0.259687 -0.832296
vn -0.301326 -0.00030684 -0.953522
vn -0.42037 0.0089503 -0.907318
vn -0.849384 0.144488 -0.507618
vn -0.490012 0.121243 -0.86325
vn 0.247202 -0.0485754 -0.967746
vn 0.504865 0.000201913 -0.863205
vn 0.954319 -0.189283 -0.231216
vn 0.973003 0.000428769 -0.230793
vn 0.954241 0.189665 -0.231206
vn 1.00001 0.000399976 -5.02401e-005
vn 0.98117 0.193182 -5.01142e-005
vn 0.935162 0.35423 -4.99914e-005
vn 0.885177 0.40365 -0.231399
vn 0.356227 0.134918 -0.924609
vn 0.247188 0.0486657 -0.967751
vn -0.439524 -0.171291 -0.881757
vn -0.276459 -0.172131 -0.94549
vn -0.472415 -0.47473 -0.742602
vn -0.762035 -0.487333 -0.426392
vn -0.504505 -0.861422 0.0585613
vn -0.758778 -0.5927 -0.27014
vn -0.972712 -0.0100649 -0.231834
vn -0.523123 -0.818034 -0.239108
vn -0.960339 -0.226791 0.162239
vn -0.592016 -0.789744 -0.160747
vn -0.0598779 -0.765423 -0.640755
vn -0.334445 -0.910335 -0.24383
vn -0.29796 -0.946886 -0.120967
vn -0.100735 -0.874731 0.474034
vn -0.641176 0.223584 0.734107
vn -0.2528 -0.169243 0.952609
vn -0.525377 -0.042638 0.849802
vn -0.31726 -0.212103 0.924319
vn -0.394272 -0.186279 0.899918
vn 0.356444 0.135 0.924517
vn 0.247334 0.0486944 0.96771
vn 0.954308 0.189678 0.230911
vn 0.505161 0.000202069 0.863026
vn -0.382289 -0.0194841 0.923838
vn -0.530625 -0.117168 0.839478
vn -0.507097 0.158744 0.847148
vn -0.301215 -0.0638192 0.951425
vn -0.50678 0.453478 0.733166
vn -0.428554 -0.770115 0.472521
vn -0.558077 -0.409098 0.721949
vn -0.64964 -0.751401 -0.115686
vn -0.400549 -0.63036 -0.664989
vn -0.751626 -0.630112 -0.195005
vn -0.809565 -0.551752 -0.20044
vn -0.928386 -0.255629 -0.269773
vn -0.9751 0.152479 0.161064
vn -0.944676 0.275049 -0.178734
vn -0.662179 0.714809 0.22489
vn -0.541921 -0.107625 0.833519
vn -0.459986 -0.483474 0.744768
vn -0.747991 -0.566921 0.345129
vn 0.119056 -0.991363 -0.0550176
vn -0.671433 -0.713142 0.201558
vn -0.985394 -0.0124476 -0.169883
vn -0.986416 0.0024718 0.164259
vn -0.666504 0.710837 -0.224718
vn -0.718203 0.303809 0.626024
vn -0.808549 -0.304057 0.503785
vn -0.510351 -0.212447 -0.833313
vn -0.607725 0.362627 -0.706525
vn -0.278882 -0.116138 -0.953285
vn -0.551256 0.0515998 -0.83275
vn -0.760869 0.380568 -0.525593
vn -0.756841 0.558196 -0.340031
vn -0.553286 -0.000474249 -0.833007
vn -0.335176 0.915045 -0.224414
vn -0.543451 0.557652 0.62746
vn -0.81789 0.519116 0.248201
vn -0.916636 0.362483 -0.168487
vn -0.922869 0.046333 0.382336
vn -0.533223 0.0963774 0.840469
vn 0.247349 -0.0486044 0.967713
vn -0.358849 0.134504 0.923654
vn -0.461396 0.320287 0.827373
vn -0.301003 0.0600424 0.951732
vn -0.296586 0.612359 0.732848
vn -0.691332 -0.547154 0.4719
vn -0.672437 -0.164264 0.721713
vn -0.780403 -0.604471 -0.160033
vn -0.636428 -0.344383 -0.690191
vn -0.955739 0.117174 -0.269908
vn -0.510289 0.212528 -0.83334
vn 0.0382807 0.973955 -0.223489
vn -0.707485 0.686164 -0.169253
vn -0.557974 0.792654 0.245743
vn -0.163734 0.812383 0.559681
vn -0.803117 0.357743 0.476482
vn -0.930143 0.126368 0.344788
vn -0.994042 0.101605 -0.0397382
vn -0.659627 0.449474 0.602385
vn -0.929687 0.170108 -0.326739
vn -0.905163 0.3342 -0.262704
vn -0.576553 0.800878 0.161841
vn -0.881326 0.378927 -0.28228
vn -0.12182 0.977892 -0.16997
vn 0.277074 0.942836 0.185199
vn -0.472195 0.875089 -0.10609
vn -0.236976 0.773754 -0.587511
vn -0.294086 0.61352 -0.73288
vn -0.666852 -0.0186197 0.744965
vn -0.62084 -0.78176 -0.0585926
vn -0.278908 0.11609 -0.953281
vn -0.660965 -0.0617284 -0.747888
vn -0.399541 0.165921 -0.901576
vn -0.978495 -0.162479 -0.127095
vn -0.355349 0.428126 -0.830934
vn -0.396395 0.273109 -0.876518
vn -0.769222 0.510482 -0.384338
vn -0.945033 0.310652 -0.102035
vn -0.651636 0.097109 -0.752301
vn -0.275938 0.258452 -0.925785
vn -0.291844 0.321435 -0.900838
vn 0.307679 -0.307496 -0.900436
vn 0.386937 -0.24087 -0.890094
vn 0.356227 -0.134918 -0.924611
vn 0.885243 -0.403511 -0.23138
vn 0.935162 -0.35423 -4.99862e-005
vn 0.848974 -0.52845 -4.99853e-005
vn 0.790791 -0.56675 -0.231179
vn 0.70732 -0.706902 -5.0052e-005
vn 0.688172 -0.687726 -0.231236
vn 0.56719 -0.790477 -0.231182
vn 0.201539 -0.323325 -0.924586
vn 0.403876 -0.885063 -0.231418
vn 0.134984 -0.356034 -0.924673
vn 0.189723 -0.954215 -0.231299
vn 0.354543 -0.935043 -4.98279e-005
vn 0.193303 -0.981147 -5.02066e-005
vn 0.000355625 -1.00001 -5.03162e-005
vn 0.000381327 -0.972987 -0.230895
vn -0.189451 -0.954258 -0.231313
vn -0.192988 -0.981207 -4.91191e-005
vn -0.189465 -0.954331 0.231021
vn -0.354761 -0.934961 -5.0103e-005
vn -0.404112 -0.885027 0.231149
vn -0.529066 -0.848587 -5.03485e-005
vn -0.567068 -0.79066 0.230862
vn -0.70723 -0.706994 -5.03754e-005
vn -0.567031 -0.790608 -0.231157
vn -0.688231 -0.687685 -0.231175
vn -0.790639 -0.56696 -0.231198
vn -0.307672 -0.307573 -0.900415
vn -0.386681 -0.240986 -0.890175
vn -0.885242 -0.403481 -0.231422
vn -0.356201 -0.13478 -0.924642
vn -0.954395 -0.188849 -0.23126
vn -0.247077 -0.0484425 -0.96779
vn -0.504744 0.000201127 -0.863275
vn -0.973003 0.000428742 -0.230793
vn -1 0.000398343 -5.02795e-005
vn -0.954318 0.189229 -0.231251
vn -0.981253 0.192766 -5.01763e-005
vn -0.954384 0.189242 0.230956
vn -0.973072 0.000428914 0.230499
vn -0.954459 -0.188862 0.230966
vn -0.505041 0.000201273 0.863097
vn -0.247222 -0.048471 0.967748
vn -0.356418 -0.134862 0.92455
vn -0.885303 -0.403509 0.231128
vn -0.935277 -0.353928 -5.00203e-005
vn -0.981316 -0.192414 -4.9791e-005
vn -0.848698 -0.528888 -5.04615e-005
vn -0.790695 -0.567 0.230902
vn -0.688276 -0.68773 0.23088
vn -0.307859 -0.307759 0.900291
vn -0.386913 -0.241131 0.890032
vn 0.317413 0.212552 0.924167
vn 0.329242 0.342268 0.880031
vn 0.39896 0.562776 0.723973
vn 0.252992 0.169895 0.952442
vn 0.100742 0.875049 0.473452
vn 0.309638 0.94387 -0.115128
vn 0.639996 0.616899 0.458089
vn 0.928219 0.313195 0.200848
vn 0.778773 -0.00578607 0.627289
vn 0.469503 0.241132 0.849373
vn 0.256897 0.40106 0.879302
vn -0.201688 -0.323464 0.924496
vn -0.135126 -0.356162 0.924606
vn 0.146513 0.411258 0.899675
vn -0.0486168 -0.247197 0.96775
vn 0.000179736 -0.504864 0.863204
vn -0.0194657 0.382188 0.923882
vn 0.0486968 -0.247184 0.967749
vn -0.117319 0.530635 0.839448
vn 0.158233 0.506895 0.847368
vn -0.0641583 0.301207 0.951406
vn 0.453524 0.506869 0.733077
vn -0.770375 0.428302 0.472322
vn -0.630566 0.403088 -0.663259
vn -0.833762 0.534182 -0.139703
vn -0.408798 0.558485 0.721808
vn -0.313169 0.821435 0.47663
vn -0.627622 0.754555 -0.191676
vn 0.00309063 0.986809 0.161886
vn -0.508922 0.844793 -0.165314
vn -0.609292 0.679104 0.409375
vn 0.213205 0.976558 -0.0297097
vn 0.452708 0.578599 0.678448
vn 0.215285 0.617443 -0.756584
vn -0.212682 0.51024 -0.833336
vn -0.484677 0.457789 -0.745341
vn -0.718924 0.578529 -0.385296
vn -0.983051 -0.176048 -0.0513697
vn -0.787623 0.595441 -0.158456
vn -0.853577 0.490237 -0.176323
vn -0.190148 0.953658 0.233198
vn -0.177438 0.94632 0.270199
vn 0.235841 0.673026 0.701016
vn -0.0242863 0.825433 0.563993
vn -0.623692 0.645464 0.440894
vn -0.303248 0.469385 0.829291
vn -0.30787 0.30785 0.900254
vn -0.563 0.398451 0.724076
vn -0.973458 0.22215 -0.0550814
vn -0.169499 0.252862 0.95254
vn -0.0991725 0.549671 0.829477
vn -0.242456 0.362106 0.900055
vn -0.157869 0.348171 0.924044
vn 0.29778 0.769833 0.564534
vn 0.135067 -0.356251 0.924581
vn 0.189735 -0.954279 0.231004
vn 0.403907 -0.88513 0.231127
vn 0.528949 -0.848655 -5.0306e-005
vn 0.567236 -0.79054 0.230891
vn 0.688218 -0.687772 0.230941
vn 0.790854 -0.566794 0.230888
vn 0.307864 -0.307682 0.900307
vn 0.38717 -0.241015 0.889953
vn 0.885304 -0.403539 0.231086
vn 0.356444 -0.135 0.924518
vn -0.358095 0.22912 0.905144
vn -0.681675 0.101297 0.724615
vn -0.253941 0.16786 0.952545
vn -0.909981 -0.403984 -0.0935223
vn -0.623112 0.237854 -0.745095
vn 0.236103 0.847659 -0.475126
vn -0.390961 0.390356 -0.833547
vn -0.91541 0.347669 0.202872
vn -0.38973 0.904859 -0.171298
vn -0.938079 0.102459 0.330943
vn -0.872357 -0.485598 -0.0564977
vn -0.678738 0.0389675 0.733348
vn 0.185384 0.718314 -0.670573
vn -0.165556 0.529588 -0.831953
vn 0.0619329 0.849092 -0.524608
vn -0.474657 0.694938 -0.540166
vn -0.0970711 0.971312 -0.21713
vn -0.793224 0.607226 0.045836
vn -0.474857 0.472598 -0.742405
vn -0.20139 0.323098 -0.92469
vn -0.171667 0.439865 -0.881504
vn -0.116265 0.27919 -0.953173
vn 0.0510019 0.551734 -0.832469
vn -0.145592 0.912055 -0.383352
vn -0.0744747 0.449488 -0.890183
vn 0.0486681 -0.247039 -0.967791
vn 0.00899247 0.420302 -0.907341
vn 0.000179672 -0.504564 -0.863376
vn -0.0485878 -0.24705 -0.967784
vn 0.121406 0.489938 -0.86327
vn 0.166113 0.399902 -0.901384
vn -0.135044 -0.355945 -0.924698
vn 0.27972 0.419812 -0.863439
vn 0.428298 0.355655 -0.830709
vn 0.773768 0.235898 -0.587911
vn 0.56629 0.785237 -0.250462
vn 0.0927043 0.984646 -0.147954
vn 0.151827 0.959863 0.235846
vn -0.504555 0.860656 -0.0686095
vn 0.200532 0.634632 -0.746351
vn 0.216992 0.21326 -0.952596
vn 0.699883 -0.104029 -0.706645
vn -0.139943 0.667138 0.731681
vn -0.258659 0.894097 0.365632
vn 0.327202 0.919172 0.219238
vn 0.496519 0.837108 -0.229637
vn 0.39068 0.39068 -0.833526
vn 0.883266 0.450267 -0.13078
vn 0.575374 0.744198 0.339295
vn 0.525064 0.836678 -0.155844
vn 0.886331 -0.405235 -0.224071
vn 0.544258 0.815734 -0.195902
vn 0.459918 0.306362 0.833446
vn 0.885102 -0.407534 0.224745
vn 0.950673 0.283128 0.126784
vn 0.975969 0.120609 -0.181539
vn 0.914265 -0.211125 -0.345759
vn 0.84947 -0.0622715 -0.52397
vn 0.530065 0.163464 -0.832055
vn 0.735752 0.480376 -0.477401
vn 0.34257 0.325458 -0.881324
vn 0.276461 0.172173 -0.945485
vn -0.201567 -0.323271 -0.924597
vn -0.404085 -0.884967 -0.231444
vn 0.472814 0.474482 -0.742523
vn 0.504696 0.861315 0.0584874
vn -0.169584 0.984086 0.0530953
vn 0.747999 0.648434 0.141578
vn 0.729988 0.651585 0.20635
vn 0.985286 0.014957 -0.170261
vn 0.986501 -0.00168823 0.163761
vn 0.666735 -0.710598 -0.224774
vn 0.718272 -0.30376 0.625954
vn 0.641231 -0.223314 0.734138
vn 0.525604 0.0431352 0.849646
vn 0.394337 0.186208 0.899907
vn 0.808515 0.303984 0.503897
vn 0.53071 0.116986 0.839447
vn 0.558369 0.408723 0.721925
vn 0.646688 0.753547 -0.118168
vn 0.80421 0.572256 -0.16055
vn 0.400457 0.631119 -0.664328
vn 0.428377 0.770372 0.472262
vn 0.424108 -0.566933 0.706204
vn 0.431186 -0.76701 -0.475175
vn 0.781804 -0.565023 0.26371
vn 0.915763 -0.363752 -0.170515
vn 0.957093 0.0800237 0.278544
vn 0.720679 0.6133 0.323252
vn 0.504967 0.454276 0.733923
vn 0.343811 0.912396 -0.222113
vn 0.421059 -0.568345 -0.706898
vn 0.301326 -0.000307073 -0.953529
vn 0.616095 0.258366 -0.74411
vn 0.420377 -0.00929791 -0.907311
vn 0.489907 -0.259655 -0.832209
vn 0.849422 -0.144616 -0.507528
vn 0.489941 -0.121426 -0.863263
vn -0.247062 0.0485316 -0.967785
vn -0.356201 0.13478 -0.924641
vn -0.885177 0.403621 -0.231442
vn -0.935277 0.353928 -5.00098e-005
vn -0.848521 0.529176 -4.93179e-005
vn -0.790444 0.56723 -0.231233
vn -0.707249 0.706972 -4.96812e-005
vn -0.688231 0.687685 -0.231175
vn -0.35626 0.356123 -0.86387
vn -0.567435 0.790295 -0.231205
vn -0.20161 0.323156 -0.924626
vn -0.404121 0.884956 -0.231418
vn -0.529289 0.848444 -5.00672e-005
vn -0.567478 0.790356 0.230913
vn -0.688276 0.68773 0.23088
vn -0.790495 0.567267 0.230937
vn -0.356469 0.356332 0.863691
vn -0.323302 0.201637 0.924566
vn 0.26972 -0.269835 0.924366
vn 0.401222 -0.25643 0.879356
vn 0.303504 -0.469114 0.829354
vn 0.60972 -0.610431 0.505601
vn -0.155769 -0.813084 0.560933
vn 0.209737 -0.946808 0.2441
vn -0.488353 -0.87086 -0.0558196
vn 0.275386 -0.941729 0.193172
vn 0.38875 -0.906133 -0.166758
vn 0.568295 -0.56162 -0.601372
vn 0.699712 0.10475 -0.706709
vn 0.0398348 -0.677777 0.734193
vn 0.954291 0.298712 0.0103716
vn 0.254119 -0.167809 0.95251
vn 0.681525 -0.101091 0.724792
vn 0.773845 -0.332575 0.539036
vn 0.358843 -0.134458 0.92367
vn 0.461597 -0.319601 0.827519
vn 0.163867 -0.812154 0.559981
vn 0.29544 -0.613257 0.732557
vn 0.301169 -0.0596555 0.951705
vn 0.533485 -0.0963826 0.840307
vn 0.672617 0.16387 0.72162
vn 0.690475 0.546586 0.473809
vn 0.916088 0.385075 -0.111859
vn 0.602895 0.438094 -0.666779
vn 0.938597 0.274219 -0.209418
vn 0.974277 0.115741 -0.193364
vn 0.690426 -0.160037 0.705486
vn 0.782965 -0.580062 0.224732
vn 0.428633 -0.769057 0.474169
vn 0.761372 -0.614071 -0.207964
vn 0.557017 -0.643999 -0.524413
vn 0.991822 0.0737349 -0.104283
vn 0.941743 -0.0784122 -0.327097
vn 0.979119 0.026277 0.201648
vn 0.620183 0.782266 -0.0586844
vn 0.661431 0.0616065 -0.747476
vn 0.399998 -0.165907 -0.901381
vn 0.279303 -0.116024 -0.953176
vn 0.355482 -0.427888 -0.830997
vn -0.0225198 -0.773578 -0.633313
vn 0.371545 -0.716687 -0.590199
vn 0.418655 -0.873923 -0.246961
vn 0.769062 -0.510626 -0.384468
vn 0.419882 -0.279525 -0.863462
vn 0.943409 -0.317007 -0.097532
vn 0.634883 -0.200653 -0.7461
vn 0.290691 -0.305573 -0.906714
vn -0.323106 0.201515 -0.92466
vn 0.213805 -0.216873 -0.952505
vn 0.163596 -0.529806 -0.8322
vn 0.503655 -0.773218 -0.385335
vn 0.225238 -0.373661 -0.899809
vn -0.135032 0.356187 -0.924614
vn 0.171354 -0.439362 -0.88182
vn 0.512974 -0.426224 -0.745117
vn 0.11609 -0.278908 -0.953279
vn -0.0512397 -0.55123 -0.83279
vn 0.153847 -0.864408 -0.478679
vn -0.380314 -0.761267 -0.525202
vn -0.363125 -0.607268 -0.706661
vn -0.342102 -0.86065 -0.377172
vn -0.460605 -0.869278 0.179468
vn -0.100103 -0.974777 -0.199494
vn -0.152532 -0.975006 0.161588
vn 0.108316 -0.541717 0.833555
vn 0.600613 -0.770279 -0.214364
vn 0.291938 -0.898807 -0.327001
vn 0.453222 -0.506018 -0.733856
vn 0.0154285 -0.706131 -0.707918
vn 0.423994 -0.904909 0.0372271
vn 0.613282 -0.720966 0.322649
vn 0.911982 -0.344347 -0.222968
vn 0.258597 -0.61563 -0.744405
vn 0.0742828 -0.449424 -0.890225
vn -0.0091699 -0.42025 -0.907371
vn -0.048616 0.247194 -0.967753
vn 0.000178625 0.504718 -0.86329
vn -0.189219 0.954319 -0.231249
vn 0.000377334 0.972985 -0.230881
vn 0.000353661 1.00001 -5.01578e-005
vn -0.192989 0.98121 -5.05581e-005
vn -0.354528 0.935052 -4.9361e-005
vn -0.189233 0.954392 0.230958
vn -0.404148 0.885015 0.231126
vn -0.135114 0.356401 0.924515
vn -0.0486447 0.247341 0.967712
vn 0.000178553 0.505015 0.863112
vn 0.0192608 -0.382159 0.923897
vn 0.117179 -0.530453 0.839579
vn -0.158757 -0.506854 0.84729
vn -0.422506 -0.653088 0.628465
vn -0.567412 -0.423605 0.706129
vn 0.0637896 -0.301225 0.951418
vn 0.915293 -0.33623 0.221817
vn -0.767364 -0.430492 -0.475226
vn -0.499248 -0.836367 0.226426
vn -0.363683 -0.915827 -0.170309
vn 0.117428 -0.933527 0.338752
vn 0.454191 -0.50549 0.733615
vn -0.160752 -0.692629 0.703161
vn 0.203098 -0.964226 -0.170412
vn 0.109528 -0.973408 -0.201209
vn 0.439111 -0.602661 -0.666323
vn -0.0795873 -0.941653 -0.327047
vn -0.212679 -0.510233 -0.833325
vn 0.187868 -0.944347 0.270054
vn 0.131282 -0.990379 0.0439855
vn 0.709886 -0.667089 -0.225959
vn 0.00297679 -0.668308 -0.743882
vn -0.154203 -0.82743 -0.53999
vn -0.102746 -0.443869 -0.890184
vn 0.0486959 0.24718 -0.96775
vn -0.166071 -0.399543 -0.901556
vn 0.134972 0.356273 -0.924583
vn -0.255396 -0.399153 -0.8806
vn 0.201581 0.32321 -0.924617
vn -0.342416 -0.325301 -0.881437
vn 0.307636 0.307436 -0.900474
vn 0.386768 0.240943 -0.890146
vn 0.790594 0.567019 -0.231213
vn 0.688173 0.687726 -0.231236
vn 0.5676 0.790171 -0.231232
vn 0.707339 0.706878 -4.97049e-005
vn 0.529177 0.848521 -5.05351e-005
vn 0.403915 0.885059 -0.231397
vn 0.35431 0.935137 -5.05054e-005
vn 0.40394 0.885113 0.2311
vn 0.567639 0.790225 0.230937
vn 0.201703 0.323405 0.924517
vn 0.307821 0.30762 0.900344
vn -0.329158 -0.342245 0.88008
vn -0.25669 -0.400984 0.879388
vn -0.469746 -0.241341 0.84918
vn -0.778924 0.00494686 0.627118
vn -0.678277 -0.0399818 0.733718
vn -0.868449 0.492482 -0.0572955
vn -0.948546 -0.0360921 0.314583
vn -0.897087 -0.424922 0.121174
vn -0.905033 -0.390588 -0.168404
vn -0.475952 -0.519903 -0.70935
vn -0.036659 -0.677972 -0.734184
vn -0.502882 -0.833484 -0.228984
vn -0.270792 -0.9413 0.201578
vn -0.246831 -0.935726 0.252032
vn 0.530853 -0.845734 0.0543247
vn 0.0556969 -0.994348 0.0904825
vn -0.25673 -0.618086 -0.74301
vn -0.558486 -0.763482 -0.324345
vn -0.773772 -0.237061 -0.587441
vn -0.920705 -0.365999 -0.135487
vn -0.9431 0.276508 0.1847
vn -0.977831 -0.121713 -0.170426
vn -0.801189 -0.576265 0.161336
vn -0.169566 -0.928759 -0.329653
vn -0.429214 -0.558418 0.709895
vn 0.361952 -0.608257 0.706413
vn -0.172658 -0.886737 0.428828
vn -0.301702 -0.930301 -0.208656
vn -0.668104 -0.731102 0.138298
vn 0.00198411 -0.998759 -0.0498423
vn -0.354365 -0.786861 0.505263
vn -0.101061 -0.681336 0.724969
vn 0.319996 -0.947382 0.00962143
vn -0.168031 -0.253836 0.952545
vn -0.146708 -0.411244 0.899645
vn 0.135055 0.356491 0.924492
vn 0.0487246 0.247326 0.967709
vn 0.189502 0.954342 0.230939
vn 0.00037767 0.973059 0.230589
vn 0.193302 0.981142 -5.01699e-005
vn 0.189489 0.954276 -0.231235
vn -0.0963531 -0.533339 0.840403
vn -0.343091 -0.40551 0.847271
vn -0.0596782 -0.301164 0.951706
vn -0.612428 -0.296592 0.732786
vn 0.547538 -0.69085 0.472168
vn -0.973952 0.0384369 -0.223493
vn -0.723036 -0.291519 0.626309
vn -0.683459 -0.709566 -0.171478
vn 0.0747014 -0.963808 0.255946
vn 0.478566 -0.868075 -0.132032
vn 0.163965 -0.672469 0.721751
vn -0.0277709 -0.863246 0.504029
vn -0.613705 -0.293996 -0.732765
vn -0.116138 -0.278882 -0.953285
vn -0.428426 -0.355149 -0.830856
vn -0.216828 -0.213459 -0.952596
vn -0.530104 -0.163445 -0.832042
vn -0.718422 0.185717 -0.67036
vn -0.849413 0.0622548 -0.524056
vn -0.960325 0.0259581 -0.277718
vn -0.845379 0.243933 0.475218
vn -0.0393652 -0.678365 0.73367
vn -0.459752 -0.306672 0.833421
vn -0.498798 -0.752309 0.430405
vn -0.10179 -0.937853 0.331787
vn -0.678887 -0.626343 0.383165
vn -0.398383 -0.562502 0.7245
vn 0.387 0.241088 0.890004
vn 0.790654 0.567062 0.230923
vn 0.885235 0.403677 0.231106
vn 0.848789 0.528733 -4.93566e-005
vn 0.688218 0.687772 0.230941
vn -0.259985 -0.4897 -0.832233
vn -0.732697 -0.433864 -0.524327
vn -0.454744 -0.505635 -0.733184
vn -0.000219326 -0.300943 -0.953646
vn -0.914585 -0.337401 0.222923
vn -0.525097 -0.837074 -0.153587
vn -0.591068 -0.778842 0.209882
vn 0.409137 -0.557951 0.722027
vn 0.304417 -0.808263 0.504034
vn 0.186317 -0.394094 0.89999
vn -0.303948 -0.718037 0.626143
vn 0.0432422 -0.525037 0.849984
vn 0.242524 -0.361826 0.900152
vn -0.201731 0.323351 0.924526
vn 0.562758 -0.398467 0.724257
vn 0.169845 -0.252656 0.952533
vn 0.990797 0.123536 0.055477
vn 0.876555 -0.479372 -0.0431013
vn 0.789965 -0.592949 -0.15613
vn 0.745178 -0.574517 0.338619
vn 0.306362 -0.459918 0.833447
vn 0.678563 -0.0368912 0.73362
vn 0.936538 -0.104817 0.334553
vn 0.845487 0.531166 0.0549661
vn 0.0358611 -0.678973 -0.733294
vn -0.408285 -0.884783 0.224643
vn -0.210073 -0.82559 -0.523726
vn 0.0770508 -0.970785 -0.227253
vn 0.69218 -0.643153 -0.327488
vn 0.675621 -0.718344 0.165926
vn 0.212528 -0.510289 -0.833338
vn 0.0126337 -0.98543 -0.169663
vn 0.609592 -0.679054 0.409013
vn -0.00363287 -0.986607 0.163149
vn -0.710803 -0.66648 -0.224865
vn -0.223252 -0.641214 0.734175
vn 0.484756 -0.457982 -0.745165
vn 0.705988 -0.706299 -0.0523719
vn 0.991403 0.118764 -0.055069
vn 0.875953 -0.455343 -0.159324
vn 0.48387 -0.459786 0.744635
vn 0.224902 -0.960682 0.162858
vn 0.948005 -0.0405807 0.315657
vn 0.905735 -0.398397 0.144664
vn 0.807642 -0.244599 -0.536554
vn 0.941779 -0.274952 -0.193568
vn 0.922913 -0.195039 -0.331981
vn 0.408147 -0.912642 0.0223819
vn 0.447855 -0.872118 -0.197074
vn 0.426882 -0.881698 -0.200976
vn 0.282152 -0.588505 0.757675
vn 0.549077 -0.439349 0.710977
vn 0.641749 0.224539 0.733312
vn 0.907888 -0.246296 0.339269
vn 0.922062 -0.289414 -0.257017
vn 0.99404 -0.101516 -0.0398777
vn 0.696628 -0.698677 0.163017
vn 0.906501 0.265435 0.328353
vn 0.70996 -0.683265 -0.170636
vn -0.0382553 -0.974021 -0.22321
vn 0.510525 -0.211944 -0.833346
vn 0.863352 -0.0279139 0.503843
vn 0.653283 -0.422058 0.628578
vn 0.38231 0.019284 0.92384
vn 0.506794 -0.158405 0.847397
vn 0.301227 0.06379 0.951425
vn -0.24721 0.0485607 0.967752
vn -0.356418 0.134862 0.924548
vn -0.885244 0.403651 0.23115
vn 0.449349 0.0743488 -0.890265
vn 0.864558 0.153941 -0.478388
vn 0.905068 0.423601 0.0379144
vn 0.974554 -0.100406 -0.200448
vn 0.898825 0.291867 -0.327012
vn 0.706139 0.0152507 -0.707916
vn 0.810143 0.551611 -0.198542
vn 0.974933 -0.152967 0.161604
vn 0.541772 0.108141 0.833557
vn 0.869243 -0.460695 0.179407
vn 0.458267 0.485403 0.744574
vn 0.571569 0.657127 0.491423
vn 0.607096 -0.361958 -0.707408
vn 0.279329 0.115977 -0.953168
vn 0.551499 -0.0508629 -0.832624
vn 0.761429 -0.379777 -0.525355
vn 0.860044 -0.342266 -0.378399
vn 0.439825 0.171277 -0.881604
vn 0.133906 0.738107 -0.661264
vn 0.510457 0.212024 -0.833362
vn 0.652902 0.636062 -0.411285
vn -0.103928 0.699528 -0.70701
vn 0.678015 0.0398881 0.733972
vn -0.303032 0.952927 0.010413
vn 0.055214 0.916115 -0.397104
vn 0.314959 0.926082 -0.207783
vn -0.00198985 0.99879 -0.0492576
vn 0.6682 0.730964 0.13857
vn 0.354502 0.786859 0.505162
vn 0.101191 0.681289 0.725005
vn 0.16795 0.253884 0.952542
vn 0.722762 0.292324 0.62625
vn 0.342857 0.405618 0.847304
vn 0.613444 0.295817 0.732248
vn 0.0598627 0.301062 0.951729
vn 0.0960947 0.532953 0.840673
vn -0.164332 0.671966 0.722123
vn 0.0379141 0.898355 0.437643
vn 0.557393 0.544142 0.627088
vn 0.380879 0.909854 0.164642
vn 0.914527 0.336337 -0.224763
vn 0.362739 0.916466 -0.168892
vn -0.000332455 0.553284 -0.833006
vn -0.23223 0.945328 -0.228988
vn -0.535359 0.800999 0.267981
vn -0.549031 0.799246 0.244524
vn -0.960597 0.271974 -0.0574793
vn -0.453056 0.507785 0.732736
vn 0.568341 0.421055 -0.706896
vn -0.000215151 0.301323 -0.953523
vn -0.25889 0.6158 -0.744156
vn 0.259599 0.489428 -0.832513
vn 0.145012 0.849122 -0.50791
vn 0.644273 0.55656 -0.524553
vn 0.799011 0.559356 -0.220719
vn 0.911228 0.131555 0.390347
vn 0.596728 0.798004 -0.0842936
vn -0.225568 0.974148 -0.0130519
vn -0.0704148 0.977166 0.200502
vn -0.457014 0.572597 0.680648
vn -0.542674 0.691296 -0.4771
vn 0.613576 0.294506 -0.732662
vn 0.116219 0.279221 -0.953176
vn -0.0616624 0.661296 -0.747601
vn 0.973795 -0.0386534 0.224131
vn 0.833512 0.520588 -0.18511
vn 0.855992 0.489583 0.166103
vn 0.272225 0.935708 -0.224391
vn 0.500319 0.639907 0.583272
vn 0.172949 0.886511 0.429188
vn 0.0512492 0.975663 0.213229
vn 0.7574 0.61276 -0.225555
vn 0.974012 -0.0369896 -0.223481
vn 0.293315 0.646217 -0.704541
vn -0.486553 0.60272 -0.632452
vn 0.0138665 0.911491 -0.411098
vn -0.108916 0.973863 -0.199363
vn -0.21535 0.959638 -0.180933
vn -0.274488 0.944581 -0.180076
vn -0.572063 0.807838 -0.141942
vn -0.54654 0.690479 0.473856
vn -0.117285 0.933359 0.339271
vn 0.160621 0.691473 0.704321
vn 0.591301 0.778187 0.211652
vn -0.747678 0.659153 0.0806023
vn 0.37377 0.902789 -0.212808
vn 0.152889 0.975029 0.161081
vn 0.727984 0.643277 0.237163
vn -0.107625 0.541921 0.83352
vn -0.485315 0.458507 0.744483
vn -0.991399 -0.11882 -0.0550928
vn 0.361806 0.607313 -0.707301
vn -0.675427 0.718399 0.166487
vn -0.00976896 0.972849 -0.231273
vn -0.224637 0.960852 0.162195
vn 0.24391 0.845028 0.475865
vn -0.306666 0.459675 0.83346
vn -0.752593 0.498915 0.429759
vn 0.572238 0.748598 -0.334885
vn 0.380368 0.76086 -0.525769
vn 0.954383 -0.189296 0.230922
vn 0.981241 -0.192829 -4.97452e-005
vn 0.973072 0.000428914 0.230499
vn 0.20166 -0.32352 0.924486
vn 0.00038134 -0.973055 0.230599
vn -0.985378 0.0324756 0.167324


vt 0 1
vt 0 1
vt 0 1
vt 0 1
vt 0 1
vt 0 1
vt 0 1
vt 0 1
vt 0 1
vt 0 1
vt 0 1
vt 0 1
vt 0 1
vt 0 1
vt 0 1
vt 0 1
vt 0 1
vt 0 1
vt 0 1
vt 0 1
vt 0 1
vt 0 1
vt 0 1
vt 0 1
vt 0 1
vt 0 1
vt 0 1
vt 0 1
vt 0 1
vt 0 1
vt 0 1
vt 0 1
vt 0 1
vt 0 1
vt 0 1
vt 0 1
vt 0 1
vt 0 1
vt 0 1
vt 0 1
vt 0 1
vt 0 1
vt 0 1
vt 0 1
vt 0 1
vt 0 1
vt 0 1
vt 0 1
vt 0 1
vt 0 1
vt 0 1
vt 0 1
vt 0 1
vt 0 1
vt 0 1
vt 0 1
vt 0 1
vt 0 1
vt 0 1
vt 0 1
vt 0 1
vt 0 1
vt 0 1
vt 0 1
vt 0 1
vt 0 1
vt 0 1
vt 0 1
vt 0 1
vt 0 1
vt 0 1
vt 0 1
vt 0 1
vt 0 1
vt 0 1
vt 0 1
vt 0 1
vt 0 1
vt 0 1
vt 0 1
vt 0 1
vt 0 1
vt 0 1
vt 0 1
vt 0 1
vt 0 1
vt 0 1
vt 0 1
vt 0 1
vt 0 1
vt 0 1
vt 0 1
vt 0 1
vt 0 1
vt 0 1
vt 0 1
vt 0 1
vt 0 1
vt 0 1
vt 0 1
vt 0 1
vt 0 1
vt 0 1
vt 0 1
vt 0 1
vt 0 1
vt 0 1
vt 0 1
vt 0 1
vt 0 1
vt 0 1
vt 0 1
vt 0 1
vt 0 1
vt 0 1
vt 0 1
vt 0 1
vt 0 1
vt 0 1
vt 0 1
vt 0 1
vt 0 1
vt 0 1
vt 0 1
vt 0 1
vt 0 1
vt 0 1
vt 0 1
vt 0 1
vt 0 1
vt 0 1
vt 0 1
vt 0 1
vt 0 1
vt 0 1
vt 0 1
vt 0 1
vt 0 1
vt 0 1
vt 0 1
vt 0 1
vt 0 1
vt 0 1
vt 0 1
vt 0 1
vt 0 1
vt 0 1
vt 0 1
vt 0 1
vt 0 1
vt 0 1
vt 0 1
vt 0 1
vt 0 1
vt 0 1
vt 0 1
vt 0 1
vt 0 1
vt 0 1
vt 0 1
vt 0 1
vt 0 1
vt 0 1
vt 0 1
vt 0 1
vt 0 1
vt 0 1
vt 0 1
vt 0 1
vt 0 1
vt 0 1
vt 0 1
vt 0 1
vt 0 1
vt 0 1
vt 0 1
vt 0 1
vt 0 1
vt 0 1
vt 0 1
vt 0 1
vt 0 1
vt 0 1
vt 0 1
vt 0 1
vt 0 1
vt 0 1
vt 0 1
vt 0 1
vt 0 1
vt 0 1
vt 0 1
vt 0 1
vt 0 1
vt 0 1
vt 0 1
vt 0 1
vt 0 1
vt 0 1
vt 0 1
vt 0 1
vt 0 1
vt 0 1
vt 0 1
vt 0 1
vt 0 1
vt 0 1
vt 0 1
vt 0 1
vt 0 1
vt 0 1
vt 0 1
vt 0 1
vt 0 1
vt 0 1
vt 0 1
vt 0 1
vt 0 1
vt 0 1
vt 0 1
vt 0 1
vt 0 1
vt 0 1
vt 0 1
vt 0 1
vt 0 1
vt 0 1
vt 0 1
vt 0 1
vt 0 1
vt 0 1
vt 0 1
vt 0 1
vt 0 1
vt 0 1
vt 0 1
vt 0 1
vt 0 1
vt 0 1
vt 0 1
vt 0 1
vt 0 1
vt 0 1
vt 0 1
vt 0 1
vt 0 1
vt 0 1
vt 0 1
vt 0 1
vt 0 1
vt 0 1
vt 0 1
vt 0 1
vt 0 1
vt 0 1
vt 0 1
vt 0 1
vt 0 1
vt 0 1
vt 0 1
vt 0 1
vt 0 1
vt 0 1
vt 0 1
vt 0 1
vt 0 1
vt 0 1
vt 0 1
vt 0 1
vt 0 1
vt 0 1
vt 0 1
vt 0 1
vt 0 1
vt 0 1
vt 0 1
vt 0 1
vt 0 1
vt 0 1
vt 0 1
vt 0 1
vt 0 1
vt 0 1
vt 0 1
vt 0 1
vt 0 1
vt 0 1
vt 0 1
vt 0 1
vt 0 1
vt 0 1
vt 0 1
vt 0 1
vt 0 1
vt 0 1
vt 0 1
vt 0 1
vt 0 1
vt 0 1
vt 0 1
vt 0 1
vt 0 1
vt 0 1
vt 0 1
vt 0 1
vt 0 1
vt 0 1
vt 0 1
vt 0 1
vt 0 1
vt 0 1
vt 0 1
vt 0 1
vt 0 1
vt 0 1
vt 0 1
vt 0 1
vt 0 1
vt 0 1
vt 0 1
vt 0 1
vt 0 1
vt 0 1
vt 0 1
vt 0 1
vt 0 1
vt 0 1
vt 0 1
vt 0 1
vt 0 1
vt 0 1
vt 0 1
vt 0 1
vt 0 1
vt 0 1
vt 0 1
vt 0 1
vt 0 1
vt 0 1
vt 0 1
vt 0 1
vt 0 1
vt 0 1
vt 0 1
vt 0 1
vt 0 1
vt 0 1
vt 0 1
vt 0 1
vt 0 1
vt 0 1
vt 0 1
vt 0 1
vt 0 1
vt 0 1
vt 0 1
vt 0 1
vt 0 1
vt 0 1
vt 0 1
vt 0 1
vt 0 1
vt 0 1
vt 0 1
vt 0 1
vt 0 1
vt 0 1
vt 0 1
vt 0 1
vt 0 1
vt 0 1
vt 0 1
vt 0 1
vt 0 1
vt 0 1
vt 0 1
vt 0 1
vt 0 1
vt 0 1
vt 0 1
vt 0 1
vt 0 1
vt 0 1
vt 0 1
vt 0 1
vt 0 1
vt 0 1
vt 0 1
vt 0 1
vt 0 1
vt 0 1
vt 0 1
vt 0 1
vt 0 1
vt 0 1
vt 0 1
vt 0 1
vt 0 1
vt 0 1
vt 0 1
vt 0 1
vt 0 1
vt 0 1
vt 0 1
vt 0 1
vt 0 1
vt 0 1
vt 0 1
vt 0 1
vt 0 1
vt 0 1
vt 0 1
vt 0 1
vt 0 1
vt 0 1
vt 0 1
vt 0 1
vt 0 1
vt 0 1
vt 0 1
vt 0 1
vt 0 1
vt 0 1
vt 0 1
vt 0 1
vt 0 1
vt 0 1
vt 0 1
vt 0 1
vt 0 1
vt 0 1
vt 0 1
vt 0 1
vt 0 1
vt 0 1
vt 0 1
vt 0 1
vt 0 1
vt 0 1
vt 0 1
vt 0 1
vt 0 1
vt 0 1
vt 0 1
vt 0 1
vt 0 1
vt 0 1
vt 0 1
vt 0 1
vt 0 1
vt 0 1
vt 0 1
vt 0 1
vt 0 1
vt 0 1
vt 0 1
vt 0 1
vt 0 1
vt 0 1
vt 0 1
vt 0 1
vt 0 1
vt 0 1
vt 0 1
vt 0 1
vt 0 1
vt 0 1
vt 0 1
vt 0 1
vt 0 1
vt 0 1
vt 0 1
vt 0 1
vt 0 1
vt 0 1
vt 0 1
vt 0 1
vt 0 1
vt 0 1
vt 0 1
vt 0 1
vt 0 1
vt 0 1
vt 0 1
vt 0 1
vt 0 1
vt 0 1
vt 0 1
vt 0 1
vt 0 1
vt 0 1
vt 0 1
vt 0 1
vt 0 1
vt 0 1
vt 0 1
vt 0 1
vt 0 1
vt 0 1
vt 0 1
vt 0 1
vt 0 1
vt 0 1
vt 0 1
vt 0 1
vt 0 1
vt 0 1
vt 0 1
vt 0 1
vt 0 1
vt 0 1
vt 0 1
vt 0 1
vt 0 1
vt 0 1
vt 0 1
vt 0 1
vt 0 1
vt 0 1
vt 0 1
vt 0 1
vt 0 1
vt 0 1
vt 0 1
vt 0 1
vt 0 1
vt 0 1
vt 0 1
vt 0 1
vt 0 1
vt 0 1
vt 0 1
vt 0 1
vt 0 1
vt 0 1
vt 0 1
vt 0 1
vt 0 1
vt 0 1
vt 0 1
vt 0 1
vt 0 1
vt 0 1
vt 0 1
vt 0 1
vt 0 1
vt 0 1
vt 0 1
vt 0 1
vt 0 1
vt 0 1
vt 0 1
vt 0 1
vt 0 1
vt 0 1
vt 0 1
vt 0 1
vt 0 1
vt 0 1
vt 0 1
vt 0 1
vt 0 1
vt 0 1
vt 0 1
vt 0 1
vt 0 1
vt 0 1
vt 0 1
vt 0 1
vt 0 1
vt 0 1
vt 0 1
vt 0 1
vt 0 1
vt 0 1
vt 0 1
vt 0 1
vt 0 1
vt 0 1
vt 0 1
vt 0 1
vt 0 1
vt 0 1
vt 0 1
vt 0 1
vt 0 1
vt 0 1
vt 0 1
vt 0 1
vt 0 1
vt 0 1
vt 0 1
vt 0 1
vt 0 1
vt 0 1
vt 0 1
vt 0 1
vt 0 1
vt 0 1
vt 0 1
vt 0 1
vt 0 1
vt 0 1
vt 0 1
vt 0 1
vt 0 1
vt 0 1
vt 0 1
vt 0 1
vt 0 1
vt 0 1
vt 0 1
vt 0 1
vt 0 1
vt 0 1
vt 0 1
vt 0 1
vt 0 1
vt 0 1
vt 0 1
vt 0 1
vt 0 1
vt 0 1
vt 0 1
vt 0 1
vt 0 1
vt 0 1
vt 0 1
vt 0 1
vt 0 1
vt 0 1
vt 0 1
vt 0 1
vt 0 1
vt 0 1
vt 0 1
vt 0 1
vt 0 1
vt 0 1
vt 0 1
vt 0 1
vt 0 1
vt 0 1
vt 0 1
vt 0 1
vt 0 1
vt 0 1
vt 0 1
vt 0 1
vt 0 1
vt 0 1
vt 0 1
vt 0 1
vt 0 1
vt 0 1
vt 0 1
vt 0 1
vt 0 1
vt 0 1
vt 0 1
vt 0 1
vt 0 1
vt 0 1
vt 0 1
vt 0 1
vt 0 1
vt 0 1
vt 0 1
vt 0 1
vt 0 1
vt 0 1
vt 0 1
vt 0 1
vt 0 1
vt 0 1
vt 0 1
vt 0 1
vt 0 1
vt 0 1
vt 0 1
vt 0 1
vt 0 1
vt 0 1
vt 0 1
vt 0 1
vt 0 1
vt 0 1
vt 0 1
vt 0 1
vt 0 1
vt 0 1
vt 0 1
vt 0 1
vt 0 1
vt 0 1
vt 0 1
vt 0 1
vt 0 1
vt 0 1
vt 0 1
vt 0 1
vt 0 1
vt 0 1
vt 0 1
vt 0 1
vt 0 1
vt 0 1
vt 0 1
vt 0 1
vt 0 1
vt 0 1
vt 0 1
vt 0 1
vt 0 1
vt 0 1
vt 0 1
vt 0 1
vt 0 1
vt 0 1
vt 0 1
vt 0 1
vt 0 1
vt 0 1
vt 0 1
vt 0 1
vt 0 1
vt 0 1
vt 0 1
vt 0 1
vt 0 1
vt 0 1
vt 0 1
vt 0 1
vt 0 1
vt 0 1
vt 0 1
vt 0 1
vt 0 1
vt 0 1
vt 0 1
vt 0 1
vt 0 1
vt 0 1
vt 0 1
vt 0 1
vt 0 1
vt 0 1
vt 0 1
vt 0 1


usemtl Default_0

f 1/1/1 2/2/2 3/3/3
f 4/4/4 2/2/2 1/1/1
f 4/4/4 5/5/5 2/2/2
f 5/5/5 4/4/4 6/6/6
f 6/6/6 7/7/7 5/5/5
f 8/8/8 7/7/7 6/6/6
f 8/8/8 9/9/9 7/7/7
f 10/10/10 9/9/9 8/8/8
f 11/11/11 9/9/9 10/10/10
f 9/9/9 11/11/11 12/12/12
f 12/12/12 11/11/11 13/13/13
f 12/12/12 13/13/13 14/14/14
f 12/12/12 14/14/14 15/15/15
f 7/7/7 12/12/12 15/15/15
f 16/16/16 15/15/15 14/14/14
f 17/17/17 15/15/15 16/16/16
f 15/15/15 17/17/17 18/18/18
f 18/18/18 5/5/5 15/15/15
f 18/18/18 17/17/17 19/19/19
f 18/18/18 19/19/19 2/2/2
f 17/17/17 20/20/20 19/19/19
f 21/21/21 19/19/19 20/20/20
f 19/19/19 21/21/21 22/22/22
f 22/22/22 23/23/23 19/19/19
f 24/24/24 23/23/23 22/22/22
f 23/23/23 24/24/24 25/25/25
f 25/25/25 26/26/26 23/23/23
f 25/25/25 27/27/27 26/26/26
f 26/26/26 27/27/27 28/28/28
f 26/26/26 28/28/28 29/29/29
f 26/26/26 29/29/29 30/30/30
f 26/26/26 30/30/30 31/31/31
f 26/26/26 31/31/31 32/32/32
f 33/33/33 32/32/32 31/31/31
f 32/32/32 33/33/33 3/3/3
f 3/3/3 19/19/19 32/32/32
f 34/34/34 33/33/33 31/31/31
f 34/34/34 35/35/35 33/33/33
f 35/35/35 34/34/34 36/36/36
f 36/36/36 37/37/37 35/35/35
f 36/36/36 38/38/38 37/37/37
f 39/39/39 38/38/38 36/36/36
f 39/39/39 40/40/40 38/38/38
f 41/41/41 40/40/40 39/39/39
f 42/42/42 40/40/40 41/41/41
f 40/40/40 42/42/42 43/43/43
f 44/44/44 43/43/43 42/42/42
f 43/43/43 44/44/44 45/45/45
f 43/43/43 45/45/45 46/46/46
f 46/46/46 47/47/47 43/43/43
f 48/48/48 47/47/47 46/46/46
f 48/48/48 49/49/49 47/47/47
f 49/49/49 48/48/48 50/50/50
f 50/50/50 51/51/51 49/49/49
f 51/51/51 50/50/50 52/52/52
f 52/52/52 53/53/53 51/51/51
f 54/54/54 53/53/53 52/52/52
f 53/53/53 54/54/54 55/55/55
f 53/53/53 55/55/55 56/56/56
f 56/56/56 57/57/57 53/53/53
f 58/58/58 57/57/57 56/56/56
f 58/58/58 59/59/59 57/57/57
f 59/59/59 58/58/58 60/60/60
f 59/59/59 60/60/60 61/61/61
f 61/61/61 62/62/62 59/59/59
f 61/61/61 63/63/63 62/62/62
f 61/61/61 64/64/64 63/63/63
f 64/64/64 65/65/65 63/63/63
f 64/64/64 66/66/66 65/65/65
f 66/66/66 64/64/64 67/67/67
f 67/67/67 68/68/68 66/66/66
f 69/69/69 68/68/68 67/67/67
f 70/70/70 68/68/68 69/69/69
f 71/71/71 68/68/68 70/70/70
f 71/71/71 70/70/70 72/72/72
f 72/72/72 73/73/73 71/71/71
f 73/73/73 72/72/72 74/74/74
f 74/74/74 75/75/75 73/73/73
f 74/74/74 37/37/37 75/75/75
f 73/73/73 75/75/75 76/76/76
f 73/73/73 76/76/76 77/77/77
f 77/77/77 65/65/65 73/73/73
f 77/77/77 76/76/76 78/78/78
f 78/78/78 79/79/79 77/77/77
f 79/79/79 78/78/78 47/47/47
f 77/77/77 79/79/79 80/80/80
f 63/63/63 77/77/77 80/80/80
f 80/80/80 79/79/79 51/51/51
f 57/57/57 80/80/80 51/51/51
f 62/62/62 80/80/80 57/57/57
f 78/78/78 76/76/76 81/81/81
f 81/81/81 43/43/43 78/78/78
f 38/38/38 43/43/43 81/81/81
f 75/75/75 38/38/38 81/81/81
f 81/81/81 76/76/76 75/75/75
f 74/74/74 72/72/72 82/82/82
f 74/74/74 82/82/82 83/83/83
f 74/74/74 83/83/83 35/35/35
f 82/82/82 84/84/84 83/83/83
f 84/84/84 82/82/82 85/85/85
f 85/85/85 1/1/1 84/84/84
f 85/85/85 86/86/86 1/1/1
f 69/69/69 1/1/1 86/86/86
f 84/84/84 1/1/1 33/33/33
f 85/85/85 82/82/82 86/86/86
f 70/70/70 86/86/86 82/82/82
f 83/83/83 84/84/84 33/33/33
f 73/73/73 66/66/66 71/71/71
f 72/72/72 70/70/70 82/82/82
f 70/70/70 69/69/69 86/86/86
f 69/69/69 67/67/67 4/4/4
f 71/71/71 66/66/66 68/68/68
f 64/64/64 87/87/87 67/67/67
f 64/64/64 88/88/88 87/87/87
f 60/60/60 88/88/88 64/64/64
f 88/88/88 60/60/60 89/89/89
f 90/90/90 88/88/88 89/89/89
f 88/88/88 90/90/90 91/91/91
f 91/91/91 90/90/90 8/8/8
f 90/90/90 92/92/92 8/8/8
f 92/92/92 90/90/90 89/89/89
f 56/56/56 92/92/92 89/89/89
f 56/56/56 93/93/93 92/92/92
f 93/93/93 56/56/56 94/94/94
f 95/95/95 93/93/93 94/94/94
f 96/96/96 93/93/93 95/95/95
f 96/96/96 97/97/97 93/93/93
f 97/97/97 96/96/96 98/98/98
f 97/97/97 98/98/98 99/99/99
f 99/99/99 100/100/100 97/97/97
f 99/99/99 101/101/101 100/100/100
f 99/99/99 102/102/102 101/101/101
f 10/10/10 101/101/101 102/102/102
f 92/92/92 101/101/101 10/10/10
f 103/103/103 10/10/10 102/102/102
f 102/102/102 104/104/104 103/103/103
f 104/104/104 102/102/102 105/105/105
f 105/105/105 106/106/106 104/104/104
f 105/105/105 107/107/107 106/106/106
f 107/107/107 105/105/105 108/108/108
f 109/109/109 107/107/107 108/108/108
f 109/109/109 110/110/110 107/107/107
f 110/110/110 109/109/109 111/111/111
f 111/111/111 112/112/112 110/110/110
f 113/113/113 112/112/112 111/111/111
f 112/112/112 113/113/113 114/114/114
f 114/114/114 115/115/115 112/112/112
f 115/115/115 114/114/114 116/116/116
f 115/115/115 116/116/116 117/117/117
f 115/115/115 117/117/117 118/118/118
f 117/117/117 119/119/119 118/118/118
f 118/118/118 119/119/119 120/120/120
f 121/121/121 118/118/118 120/120/120
f 122/122/122 118/118/118 121/121/121
f 118/118/118 122/122/122 112/112/112
f 121/121/121 123/123/123 122/122/122
f 124/124/124 123/123/123 121/121/121
f 124/124/124 125/125/125 123/123/123
f 125/125/125 124/124/124 126/126/126
f 21/21/21 125/125/125 126/126/126
f 125/125/125 21/21/21 127/127/127
f 124/124/124 128/128/128 126/126/126
f 128/128/128 129/129/129 126/126/126
f 128/128/128 120/120/120 129/129/129
f 130/130/130 129/129/129 120/120/120
f 129/129/129 130/130/130 131/131/131
f 132/132/132 129/129/129 131/131/131
f 129/129/129 132/132/132 133/133/133
f 134/134/134 129/129/129 133/133/133
f 135/135/135 129/129/129 134/134/134
f 129/129/129 135/135/135 136/136/136
f 129/129/129 136/136/136 137/137/137
f 138/138/138 137/137/137 136/136/136
f 137/137/137 138/138/138 24/24/24
f 138/138/138 139/139/139 24/24/24
f 138/138/138 140/140/140 139/139/139
f 141/141/141 140/140/140 138/138/138
f 141/141/141 142/142/142 140/140/140
f 141/141/141 143/143/143 142/142/142
f 135/135/135 143/143/143 141/141/141
f 144/144/144 143/143/143 135/135/135
f 135/135/135 145/145/145 144/144/144
f 145/145/145 146/146/146 144/144/144
f 146/146/146 145/145/145 147/147/147
f 148/148/148 146/146/146 147/147/147
f 148/148/148 149/149/149 146/146/146
f 148/148/148 150/150/150 149/149/149
f 148/148/148 151/151/151 150/150/150
f 152/152/152 151/151/151 148/148/148
f 151/151/151 152/152/152 153/153/153
f 154/154/154 151/151/151 153/153/153
f 154/154/154 155/155/155 151/151/151
f 154/154/154 156/156/156 155/155/155
f 156/156/156 157/157/157 155/155/155
f 157/157/157 156/156/156 158/158/158
f 158/158/158 159/159/159 157/157/157
f 158/158/158 160/160/160 159/159/159
f 161/161/161 160/160/160 158/158/158
f 162/162/162 160/160/160 161/161/161
f 162/162/162 163/163/163 160/160/160
f 162/162/162 164/164/164 163/163/163
f 165/165/165 163/163/163 164/164/164
f 165/165/165 166/166/166 163/163/163
f 167/167/167 166/166/166 165/165/165
f 167/167/167 168/168/168 166/166/166
f 168/168/168 167/167/167 169/169/169
f 170/170/170 168/168/168 169/169/169
f 171/171/171 168/168/168 170/170/170
f 171/171/171 172/172/172 168/168/168
f 172/172/172 171/171/171 173/173/173
f 172/172/172 173/173/173 174/174/174
f 175/175/175 172/172/172 174/174/174
f 172/172/172 175/175/175 176/176/176
f 176/176/176 177/177/177 172/172/172
f 176/176/176 178/178/178 177/177/177
f 177/177/177 178/178/178 179/179/179
f 177/177/177 179/179/179 180/180/180
f 177/177/177 180/180/180 181/181/181
f 182/182/182 177/177/177 181/181/181
f 182/182/182 183/183/183 177/177/177
f 168/168/168 183/183/183 182/182/182
f 182/182/182 181/181/181 184/184/184
f 182/182/182 184/184/184 166/166/166
f 185/185/185 184/184/184 181/181/181
f 184/184/184 185/185/185 160/160/160
f 185/185/185 186/186/186 160/160/160
f 185/185/185 187/187/187 186/186/186
f 187/187/187 185/185/185 188/188/188
f 187/187/187 188/188/188 189/189/189
f 189/189/189 190/190/190 187/187/187
f 189/189/189 191/191/191 190/190/190
f 192/192/192 191/191/191 189/189/189
f 193/193/193 191/191/191 192/192/192
f 191/191/191 193/193/193 194/194/194
f 194/194/194 195/195/195 191/191/191
f 196/196/196 195/195/195 194/194/194
f 197/197/197 195/195/195 196/196/196
f 190/190/190 195/195/195 197/197/197
f 198/198/198 190/190/190 197/197/197
f 190/190/190 198/198/198 199/199/199
f 200/200/200 190/190/190 199/199/199
f 201/201/201 200/200/200 199/199/199
f 200/200/200 201/201/201 157/157/157
f 201/201/201 199/199/199 202/202/202
f 203/203/203 201/201/201 202/202/202
f 201/201/201 203/203/203 155/155/155
f 203/203/203 204/204/204 155/155/155
f 205/205/205 204/204/204 203/203/203
f 205/205/205 206/206/206 204/204/204
f 205/205/205 207/207/207 206/206/206
f 208/208/208 207/207/207 205/205/205
f 208/208/208 209/209/209 207/207/207
f 210/210/210 209/209/209 208/208/208
f 210/210/210 211/211/211 209/209/209
f 212/212/212 211/211/211 210/210/210
f 211/211/211 212/212/212 213/213/213
f 211/211/211 213/213/213 214/214/214
f 213/213/213 215/215/215 214/214/214
f 213/213/213 216/216/216 215/215/215
f 216/216/216 217/217/217 215/215/215
f 217/217/217 216/216/216 218/218/218
f 217/217/217 218/218/218 219/219/219
f 220/220/220 217/217/217 219/219/219
f 220/220/220 221/221/221 217/217/217
f 220/220/220 222/222/222 221/221/221
f 222/222/222 220/220/220 223/223/223
f 223/223/223 224/224/224 222/222/222
f 224/224/224 223/223/223 225/225/225
f 225/225/225 226/226/226 224/224/224
f 226/226/226 225/225/225 227/227/227
f 227/227/227 228/228/228 226/226/226
f 228/228/228 227/227/227 229/229/229
f 229/229/229 230/230/230 228/228/228
f 230/230/230 229/229/229 231/231/231
f 230/230/230 231/231/231 232/232/232
f 233/233/233 230/230/230 232/232/232
f 234/234/234 233/233/233 232/232/232
f 233/233/233 234/234/234 235/235/235
f 236/236/236 233/233/233 235/235/235
f 237/237/237 233/233/233 236/236/236
f 237/237/237 228/228/228 233/233/233
f 226/226/226 237/237/237 236/236/236
f 226/226/226 236/236/236 238/238/238
f 238/238/238 221/221/221 226/226/226
f 238/238/238 239/239/239 221/221/221
f 239/239/239 238/238/238 240/240/240
f 241/241/241 239/239/239 240/240/240
f 215/215/215 239/239/239 241/241/241
f 242/242/242 239/239/239 215/215/215
f 207/207/207 215/215/215 241/241/241
f 243/243/243 241/241/241 240/240/240
f 241/241/241 243/243/243 206/206/206
f 244/244/244 206/206/206 243/243/243
f 244/244/244 243/243/243 245/245/245
f 149/149/149 244/244/244 245/245/245
f 149/149/149 245/245/245 246/246/246
f 246/246/246 245/245/245 247/247/247
f 246/246/246 247/247/247 142/142/142
f 142/142/142 144/144/144 246/246/246
f 248/248/248 142/142/142 247/247/247
f 142/142/142 248/248/248 249/249/249
f 248/248/248 250/250/250 249/249/249
f 251/251/251 249/249/249 250/250/250
f 249/249/249 251/251/251 252/252/252
f 140/140/140 249/249/249 252/252/252
f 251/251/251 253/253/253 252/252/252
f 253/253/253 251/251/251 254/254/254
f 254/254/254 95/95/95 253/253/253
f 95/95/95 254/254/254 109/109/109
f 254/254/254 255/255/255 109/109/109
f 256/256/256 255/255/255 254/254/254
f 255/255/255 256/256/256 257/257/257
f 257/257/257 111/111/111 255/255/255
f 231/231/231 257/257/257 256/256/256
f 231/231/231 258/258/258 257/257/257
f 231/231/231 259/259/259 258/258/258
f 258/258/258 259/259/259 260/260/260
f 260/260/260 116/116/116 258/258/258
f 260/260/260 261/261/261 116/116/116
f 262/262/262 261/261/261 260/260/260
f 263/263/263 261/261/261 262/262/262
f 263/263/263 264/264/264 261/261/261
f 264/264/264 263/263/263 265/265/265
f 266/266/266 264/264/264 265/265/265
f 264/264/264 266/266/266 133/133/133
f 266/266/266 267/267/267 133/133/133
f 267/267/267 266/266/266 268/268/268
f 268/268/268 269/269/269 267/267/267
f 268/268/268 270/270/270 269/269/269
f 271/271/271 269/269/269 270/270/270
f 272/272/272 269/269/269 271/271/271
f 269/269/269 272/272/272 273/273/273
f 269/269/269 273/273/273 134/134/134
f 145/145/145 134/134/134 273/273/273
f 272/272/272 274/274/274 273/273/273
f 274/274/274 272/272/272 275/275/275
f 276/276/276 274/274/274 275/275/275
f 274/274/274 276/276/276 277/277/277
f 274/274/274 277/277/277 278/278/278
f 279/279/279 274/274/274 278/278/278
f 274/274/274 279/279/279 147/147/147
f 279/279/279 278/278/278 280/280/280
f 280/280/280 281/281/281 279/279/279
f 280/280/280 282/282/282 281/281/281
f 282/282/282 280/280/280 283/283/283
f 282/282/282 283/283/283 284/284/284
f 284/284/284 285/285/285 282/282/282
f 284/284/284 286/286/286 285/285/285
f 287/287/287 286/286/286 284/284/284
f 288/288/288 286/286/286 287/287/287
f 286/286/286 288/288/288 289/289/289
f 289/289/289 290/290/290 286/286/286
f 291/291/291 290/290/290 289/289/289
f 292/292/292 290/290/290 291/291/291
f 292/292/292 293/293/293 290/290/290
f 292/292/292 294/294/294 293/293/293
f 292/292/292 295/295/295 294/294/294
f 292/292/292 296/296/296 295/295/295
f 296/296/296 292/292/292 297/297/297
f 297/297/297 298/298/298 296/296/296
f 299/299/299 298/298/298 297/297/297
f 298/298/298 299/299/299 300/300/300
f 298/298/298 300/300/300 301/301/301
f 301/301/301 302/302/302 298/298/298
f 301/301/301 303/303/303 302/302/302
f 196/196/196 303/303/303 301/301/301
f 304/304/304 196/196/196 301/301/301
f 305/305/305 302/302/302 303/303/303
f 302/302/302 305/305/305 306/306/306
f 296/296/296 302/302/302 306/306/306
f 306/306/306 307/307/307 296/296/296
f 307/307/307 306/306/306 308/308/308
f 309/309/309 307/307/307 308/308/308
f 310/310/310 307/307/307 309/309/309
f 310/310/310 295/295/295 307/307/307
f 295/295/295 310/310/310 311/311/311
f 312/312/312 295/295/295 311/311/311
f 312/312/312 311/311/311 313/313/313
f 313/313/313 314/314/314 312/312/312
f 315/315/315 314/314/314 313/313/313
f 164/164/164 314/314/314 315/315/315
f 164/164/164 316/316/316 314/314/314
f 164/164/164 161/161/161 316/316/316
f 161/161/161 317/317/317 316/316/316
f 316/316/316 317/317/317 285/285/285
f 153/153/153 285/285/285 317/317/317
f 317/317/317 156/156/156 153/153/153
f 286/286/286 314/314/314 316/316/316
f 314/314/314 286/286/286 293/293/293
f 313/313/313 318/318/318 315/315/315
f 318/318/318 313/313/313 319/319/319
f 319/319/319 320/320/320 318/318/318
f 319/319/319 321/321/321 320/320/320
f 321/321/321 319/319/319 309/309/309
f 321/321/321 322/322/322 320/320/320
f 322/322/322 321/321/321 323/323/323
f 323/323/323 324/324/324 322/322/322
f 324/324/324 323/323/323 325/325/325
f 325/325/325 326/326/326 324/324/324
f 327/327/327 326/326/326 325/325/325
f 327/327/327 328/328/328 326/326/326
f 192/192/192 328/328/328 327/327/327
f 326/326/326 328/328/328 329/329/329
f 330/330/330 326/326/326 329/329/329
f 331/331/331 330/330/330 329/329/329
f 332/332/332 330/330/330 331/331/331
f 333/333/333 330/330/330 332/332/332
f 333/333/333 324/324/324 330/330/330
f 334/334/334 324/324/324 333/333/333
f 333/333/333 335/335/335 334/334/334
f 333/333/333 336/336/336 335/335/335
f 337/337/337 335/335/335 336/336/336
f 337/337/337 338/338/338 335/335/335
f 339/339/339 338/338/338 337/337/337
f 339/339/339 340/340/340 338/338/338
f 340/340/340 339/339/339 341/341/341
f 341/341/341 342/342/342 340/340/340
f 343/343/343 342/342/342 341/341/341
f 343/343/343 344/344/344 342/342/342
f 344/344/344 343/343/343 345/345/345
f 344/344/344 345/345/345 346/346/346
f 346/346/346 347/347/347 344/344/344
f 346/346/346 348/348/348 347/347/347
f 346/346/346 349/349/349 348/348/348
f 350/350/350 348/348/348 349/349/349
f 348/348/348 350/350/350 351/351/351
f 352/352/352 348/348/348 351/351/351
f 348/348/348 352/352/352 170/170/170
f 352/352/352 173/173/173 170/170/170
f 353/353/353 173/173/173 352/352/352
f 173/173/173 353/353/353 354/354/354
f 354/354/354 355/355/355 173/173/173
f 354/354/354 356/356/356 355/355/355
f 357/357/357 356/356/356 354/354/354
f 357/357/357 358/358/358 356/356/356
f 357/357/357 359/359/359 358/358/358
f 359/359/359 357/357/357 360/360/360
f 360/360/360 361/361/361 359/359/359
f 362/362/362 361/361/361 360/360/360
f 363/363/363 361/361/361 362/362/362
f 361/361/361 363/363/363 364/364/364
f 364/364/364 358/358/358 361/361/361
f 358/358/358 364/364/364 365/365/365
f 366/366/366 358/358/358 365/365/365
f 367/367/367 358/358/358 366/366/366
f 366/366/366 368/368/368 367/367/367
f 368/368/368 369/369/369 367/367/367
f 369/369/369 368/368/368 370/370/370
f 370/370/370 371/371/371 369/369/369
f 370/370/370 372/372/372 371/371/371
f 373/373/373 372/372/372 370/370/370
f 373/373/373 374/374/374 372/372/372
f 374/374/374 373/373/373 375/375/375
f 375/375/375 376/376/376 374/374/374
f 377/377/377 376/376/376 375/375/375
f 376/376/376 377/377/377 378/378/378
f 379/379/379 376/376/376 378/378/378
f 380/380/380 376/376/376 379/379/379
f 380/380/380 381/381/381 376/376/376
f 381/381/381 380/380/380 382/382/382
f 381/381/381 382/382/382 383/383/383
f 383/383/383 372/372/372 381/381/381
f 384/384/384 383/383/383 382/382/382
f 371/371/371 383/383/383 384/384/384
f 371/371/371 384/384/384 385/385/385
f 385/385/385 386/386/386 371/371/371
f 385/385/385 387/387/387 386/386/386
f 388/388/388 387/387/387 385/385/385
f 389/389/389 387/387/387 388/388/388
f 390/390/390 387/387/387 389/389/389
f 387/387/387 390/390/390 391/391/391
f 390/390/390 392/392/392 391/391/391
f 390/390/390 393/393/393 392/392/392
f 393/393/393 394/394/394 392/392/392
f 395/395/395 394/394/394 393/393/393
f 395/395/395 396/396/396 394/394/394
f 396/396/396 395/395/395 397/397/397
f 396/396/396 397/397/397 398/398/398
f 341/341/341 396/396/396 398/398/398
f 398/398/398 397/397/397 399/399/399
f 399/399/399 400/400/400 398/398/398
f 400/400/400 399/399/399 401/401/401
f 401/401/401 345/345/345 400/400/400
f 402/402/402 345/345/345 401/401/401
f 345/345/345 402/402/402 349/349/349
f 402/402/402 401/401/401 350/350/350
f 403/403/403 350/350/350 401/401/401
f 401/401/401 404/404/404 403/403/403
f 397/397/397 404/404/404 401/401/401
f 405/405/405 403/403/403 404/404/404
f 406/406/406 403/403/403 405/405/405
f 407/407/407 403/403/403 406/406/406
f 407/407/407 351/351/351 403/403/403
f 351/351/351 407/407/407 408/408/408
f 408/408/408 407/407/407 409/409/409
f 409/409/409 410/410/410 408/408/408
f 411/411/411 410/410/410 409/409/409
f 411/411/411 412/412/412 410/410/410
f 413/413/413 412/412/412 411/411/411
f 414/414/414 412/412/412 413/413/413
f 415/415/415 412/412/412 414/414/414
f 415/415/415 414/414/414 416/416/416
f 417/417/417 415/415/415 416/416/416
f 415/415/415 417/417/417 418/418/418
f 419/419/419 415/415/415 418/418/418
f 415/415/415 419/419/419 353/353/353
f 353/353/353 408/408/408 415/415/415
f 418/418/418 360/360/360 419/419/419
f 420/420/420 418/418/418 417/417/417
f 421/421/421 418/418/418 420/420/420
f 418/418/418 421/421/421 422/422/422
f 418/418/418 422/422/422 423/423/423
f 418/418/418 423/423/423 362/362/362
f 424/424/424 362/362/362 423/423/423
f 423/423/423 425/425/425 424/424/424
f 425/425/425 423/423/423 426/426/426
f 427/427/427 425/425/425 426/426/426
f 428/428/428 425/425/425 427/427/427
f 428/428/428 429/429/429 425/425/425
f 428/428/428 430/430/430 429/429/429
f 431/431/431 430/430/430 428/428/428
f 431/431/431 432/432/432 430/430/430
f 432/432/432 431/431/431 433/433/433
f 433/433/433 434/434/434 432/432/432
f 433/433/433 435/435/435 434/434/434
f 436/436/436 435/435/435 433/433/433
f 435/435/435 436/436/436 437/437/437
f 435/435/435 437/437/437 438/438/438
f 439/439/439 438/438/438 437/437/437
f 440/440/440 438/438/438 439/439/439
f 440/440/440 441/441/441 438/438/438
f 441/441/441 440/440/440 442/442/442
f 443/443/443 441/441/441 442/442/442
f 441/441/441 443/443/443 444/444/444
f 441/441/441 444/444/444 429/429/429
f 441/441/441 429/429/429 434/434/434
f 445/445/445 429/429/429 444/444/444
f 446/446/446 445/445/445 444/444/444
f 447/447/447 445/445/445 446/446/446
f 425/425/425 445/445/445 447/447/447
f 448/448/448 447/447/447 446/446/446
f 448/448/448 449/449/449 447/447/447
f 450/450/450 449/449/449 448/448/448
f 451/451/451 449/449/449 450/450/450
f 452/452/452 449/449/449 451/451/451
f 453/453/453 449/449/449 452/452/452
f 449/449/449 453/453/453 363/363/363
f 449/449/449 363/363/363 424/424/424
f 452/452/452 454/454/454 453/453/453
f 453/453/453 454/454/454 455/455/455
f 453/453/453 455/455/455 364/364/364
f 454/454/454 456/456/456 455/455/455
f 454/454/454 457/457/457 456/456/456
f 457/457/457 454/454/454 458/458/458
f 457/457/457 458/458/458 459/459/459
f 459/459/459 460/460/460 457/457/457
f 459/459/459 461/461/461 460/460/460
f 462/462/462 461/461/461 459/459/459
f 463/463/463 461/461/461 462/462/462
f 464/464/464 461/461/461 463/463/463
f 463/463/463 465/465/465 464/464/464
f 439/439/439 465/465/465 463/463/463
f 463/463/463 466/466/466 439/439/439
f 466/466/466 463/463/463 467/467/467
f 468/468/468 466/466/466 467/467/467
f 466/466/466 468/468/468 440/440/440
f 468/468/468 467/467/467 469/469/469
f 442/442/442 468/468/468 469/469/469
f 442/442/442 469/469/469 470/470/470
f 469/469/469 471/471/471 470/470/470
f 471/471/471 469/469/469 472/472/472
f 472/472/472 473/473/473 471/471/471
f 474/474/474 473/473/473 472/472/472
f 474/474/474 475/475/475 473/473/473
f 475/475/475 474/474/474 476/476/476
f 477/477/477 475/475/475 476/476/476
f 477/477/477 478/478/478 475/475/475
f 479/479/479 478/478/478 477/477/477
f 480/480/480 478/478/478 479/479/479
f 480/480/480 481/481/481 478/478/478
f 481/481/481 480/480/480 482/482/482
f 482/482/482 446/446/446 481/481/481
f 446/446/446 482/482/482 483/483/483
f 483/483/483 482/482/482 484/484/484
f 484/484/484 485/485/485 483/483/483
f 485/485/485 484/484/484 486/486/486
f 486/486/486 487/487/487 485/485/485
f 487/487/487 486/486/486 488/488/488
f 488/488/488 489/489/489 487/487/487
f 489/489/489 488/488/488 34/34/34
f 34/34/34 490/490/490 489/489/489
f 489/489/489 490/490/490 491/491/491
f 489/489/489 491/491/491 492/492/492
f 489/489/489 492/492/492 493/493/493
f 492/492/492 494/494/494 493/493/493
f 493/493/493 494/494/494 495/495/495
f 496/496/496 493/493/493 495/495/495
f 493/493/493 496/496/496 487/487/487
f 495/495/495 497/497/497 496/496/496
f 495/495/495 498/498/498 497/497/497
f 499/499/499 498/498/498 495/495/495
f 499/499/499 500/500/500 498/498/498
f 500/500/500 499/499/499 501/501/501
f 502/502/502 500/500/500 501/501/501
f 502/502/502 503/503/503 500/500/500
f 502/502/502 504/504/504 503/503/503
f 504/504/504 502/502/502 505/505/505
f 505/505/505 506/506/506 504/504/504
f 505/505/505 507/507/507 506/506/506
f 508/508/508 507/507/507 505/505/505
f 509/509/509 507/507/507 508/508/508
f 507/507/507 509/509/509 510/510/510
f 511/511/511 507/507/507 510/510/510
f 512/512/512 507/507/507 511/511/511
f 511/511/511 513/513/513 512/512/512
f 511/511/511 514/514/514 513/513/513
f 515/515/515 514/514/514 511/511/511
f 516/516/516 514/514/514 515/515/515
f 516/516/516 517/517/517 514/514/514
f 518/518/518 517/517/517 516/516/516
f 518/518/518 519/519/519 517/517/517
f 486/486/486 519/519/519 518/518/518
f 519/519/519 486/486/486 520/520/520
f 520/520/520 521/521/521 519/519/519
f 522/522/522 521/521/521 520/520/520
f 521/521/521 522/522/522 523/523/523
f 521/521/521 523/523/523 513/513/513
f 523/523/523 524/524/524 513/513/513
f 525/525/525 513/513/513 524/524/524
f 524/524/524 526/526/526 525/525/525
f 526/526/526 524/524/524 522/522/522
f 527/527/527 526/526/526 522/522/522
f 526/526/526 527/527/527 528/528/528
f 526/526/526 528/528/528 529/529/529
f 529/529/529 528/528/528 530/530/530
f 530/530/530 531/531/531 529/529/529
f 531/531/531 530/530/530 532/532/532
f 531/531/531 532/532/532 533/533/533
f 533/533/533 534/534/534 531/531/531
f 534/534/534 533/533/533 535/535/535
f 534/534/534 535/535/535 506/506/506
f 512/512/512 534/534/534 506/506/506
f 512/512/512 525/525/525 534/534/534
f 529/529/529 534/534/534 525/525/525
f 533/533/533 503/503/503 535/535/535
f 503/503/503 533/533/533 532/532/532
f 503/503/503 532/532/532 536/536/536
f 503/503/503 536/536/536 537/537/537
f 538/538/538 537/537/537 536/536/536
f 539/539/539 537/537/537 538/538/538
f 537/537/537 539/539/539 498/498/498
f 538/538/538 458/458/458 539/539/539
f 539/539/539 458/458/458 540/540/540
f 451/451/451 539/539/539 540/540/540
f 539/539/539 451/451/451 541/541/541
f 541/541/541 497/497/497 539/539/539
f 541/541/541 542/542/542 497/497/497
f 451/451/451 542/542/542 541/541/541
f 454/454/454 451/451/451 540/540/540
f 536/536/536 543/543/543 538/538/538
f 544/544/544 543/543/543 536/536/536
f 544/544/544 545/545/545 543/543/543
f 545/545/545 544/544/544 546/546/546
f 546/546/546 547/547/547 545/545/545
f 546/546/546 474/474/474 547/547/547
f 548/548/548 474/474/474 546/546/546
f 549/549/549 548/548/548 546/546/546
f 530/530/530 548/548/548 549/549/549
f 548/548/548 530/530/530 550/550/550
f 548/548/548 550/550/550 476/476/476
f 530/530/530 551/551/551 550/550/550
f 551/551/551 477/477/477 550/550/550
f 551/551/551 527/527/527 477/477/477
f 547/547/547 474/474/474 552/552/552
f 553/553/553 547/547/547 552/552/552
f 553/553/553 552/552/552 554/554/554
f 553/553/553 554/554/554 543/543/543
f 543/543/543 554/554/554 459/459/459
f 552/552/552 467/467/467 554/554/554
f 467/467/467 552/552/552 472/472/472
f 467/467/467 462/462/462 554/554/554
f 547/547/547 553/553/553 545/545/545
f 544/544/544 549/549/549 546/546/546
f 545/545/545 553/553/553 543/543/543
f 549/549/549 544/544/544 536/536/536
f 538/538/538 543/543/543 459/459/459
f 549/549/549 536/536/536 532/532/532
f 530/530/530 549/549/549 532/532/532
f 529/529/529 531/531/531 534/534/534
f 551/551/551 530/530/530 528/528/528
f 528/528/528 527/527/527 551/551/551
f 527/527/527 522/522/522 555/555/555
f 527/527/527 555/555/555 479/479/479
f 556/556/556 479/479/479 555/555/555
f 555/555/555 557/557/557 556/556/556
f 557/557/557 555/555/555 520/520/520
f 556/556/556 557/557/557 484/484/484
f 556/556/556 484/484/484 480/480/480
f 525/525/525 526/526/526 529/529/529
f 522/522/522 524/524/524 523/523/523
f 522/522/522 520/520/520 555/555/555
f 513/513/513 519/519/519 521/521/521
f 520/520/520 486/486/486 557/557/557
f 558/558/558 518/518/518 516/516/516
f 558/558/558 488/488/488 518/518/518
f 558/558/558 559/559/559 488/488/488
f 560/560/560 559/559/559 558/558/558
f 559/559/559 560/560/560 561/561/561
f 559/559/559 561/561/561 36/36/36
f 36/36/36 561/561/561 562/562/562
f 560/560/560 562/562/562 561/561/561
f 39/39/39 562/562/562 560/560/560
f 39/39/39 560/560/560 563/563/563
f 564/564/564 563/563/563 560/560/560
f 564/564/564 565/565/565 563/563/563
f 565/565/565 564/564/564 566/566/566
f 566/566/566 42/42/42 565/565/565
f 509/509/509 42/42/42 566/566/566
f 566/566/566 567/567/567 509/509/509
f 564/564/564 567/567/567 566/566/566
f 516/516/516 567/567/567 564/564/564
f 563/563/563 565/565/565 41/41/41
f 560/560/560 516/516/516 564/564/564
f 488/488/488 559/559/559 36/36/36
f 558/558/558 516/516/516 560/560/560
f 517/517/517 519/519/519 514/514/514
f 516/516/516 515/515/515 567/567/567
f 515/515/515 510/510/510 567/567/567
f 519/519/519 513/513/513 514/514/514
f 512/512/512 513/513/513 525/525/525
f 511/511/511 510/510/510 515/515/515
f 509/509/509 567/567/567 510/510/510
f 508/508/508 568/568/568 509/509/509
f 568/568/568 45/45/45 509/509/509
f 45/45/45 568/568/568 569/569/569
f 569/569/569 568/568/568 502/502/502
f 569/569/569 502/502/502 50/50/50
f 505/505/505 568/568/568 508/508/508
f 506/506/506 507/507/507 512/512/512
f 535/535/535 504/504/504 506/506/506
f 505/505/505 502/502/502 568/568/568
f 504/504/504 535/535/535 503/503/503
f 537/537/537 500/500/500 503/503/503
f 50/50/50 502/502/502 501/501/501
f 501/501/501 570/570/570 50/50/50
f 571/571/571 570/570/570 501/501/501
f 572/572/572 570/570/570 571/571/571
f 572/572/572 52/52/52 570/570/570
f 573/573/573 572/572/572 571/571/571
f 29/29/29 572/572/572 573/573/573
f 29/29/29 54/54/54 572/572/572
f 571/571/571 494/494/494 573/573/573
f 574/574/574 494/494/494 571/571/571
f 494/494/494 574/574/574 499/499/499
f 494/494/494 491/491/491 573/573/573
f 491/491/491 30/30/30 573/573/573
f 571/571/571 501/501/501 574/574/574
f 574/574/574 501/501/501 499/499/499
f 500/500/500 537/537/537 498/498/498
f 498/498/498 539/539/539 497/497/497
f 496/496/496 497/497/497 542/542/542
f 485/485/485 496/496/496 542/542/542
f 494/494/494 499/499/499 495/495/495
f 491/491/491 494/494/494 492/492/492
f 30/30/30 491/491/491 490/490/490
f 489/489/489 493/493/493 487/487/487
f 518/518/518 488/488/488 486/486/486
f 487/487/487 496/496/496 485/485/485
f 557/557/557 486/486/486 484/484/484
f 485/485/485 542/542/542 483/483/483
f 483/483/483 542/542/542 448/448/448
f 575/575/575 481/481/481 446/446/446
f 575/575/575 576/576/576 481/481/481
f 575/575/575 577/577/577 576/576/576
f 577/577/577 575/575/575 578/578/578
f 578/578/578 443/443/443 577/577/577
f 443/443/443 470/470/470 577/577/577
f 470/470/470 579/579/579 577/577/577
f 579/579/579 576/576/576 577/577/577
f 576/576/576 579/579/579 580/580/580
f 579/579/579 581/581/581 580/580/580
f 471/471/471 581/581/581 579/579/579
f 581/581/581 473/473/473 580/580/580
f 576/576/576 580/580/580 481/481/481
f 578/578/578 575/575/575 446/446/446
f 480/480/480 484/484/484 482/482/482
f 481/481/481 580/580/580 478/478/478
f 556/556/556 480/480/480 479/479/479
f 527/527/527 479/479/479 477/477/477
f 475/475/475 478/478/478 580/580/580
f 550/550/550 477/477/477 476/476/476
f 476/476/476 474/474/474 548/548/548
f 580/580/580 473/473/473 475/475/475
f 552/552/552 474/474/474 472/472/472
f 471/471/471 473/473/473 581/581/581
f 579/579/579 470/470/470 471/471/471
f 469/469/469 467/467/467 472/472/472
f 464/464/464 465/465/465 582/582/582
f 464/464/464 582/582/582 460/460/460
f 460/460/460 582/582/582 583/583/583
f 460/460/460 583/583/583 584/584/584
f 585/585/585 584/584/584 583/583/583
f 584/584/584 585/585/585 586/586/586
f 584/584/584 586/586/586 587/587/587
f 584/584/584 587/587/587 456/456/456
f 588/588/588 456/456/456 587/587/587
f 588/588/588 587/587/587 370/370/370
f 587/587/587 589/589/589 370/370/370
f 590/590/590 589/589/589 587/587/587
f 591/591/591 589/589/589 590/590/590
f 591/591/591 592/592/592 589/589/589
f 592/592/592 591/591/591 593/593/593
f 377/377/377 592/592/592 593/593/593
f 377/377/377 593/593/593 594/594/594
f 595/595/595 594/594/594 593/593/593
f 596/596/596 594/594/594 595/595/595
f 594/594/594 596/596/596 597/597/597
f 594/594/594 597/597/597 378/378/378
f 596/596/596 598/598/598 597/597/597
f 599/599/599 598/598/598 596/596/596
f 599/599/599 420/420/420 598/598/598
f 596/596/596 600/600/600 599/599/599
f 600/600/600 601/601/601 599/599/599
f 602/602/602 601/601/601 600/600/600
f 422/422/422 601/601/601 602/602/602
f 603/603/603 422/422/422 602/602/602
f 603/603/603 604/604/604 422/422/422
f 604/604/604 603/603/603 605/605/605
f 606/606/606 604/604/604 605/605/605
f 606/606/606 607/607/607 604/604/604
f 606/606/606 608/608/608 607/607/607
f 609/609/609 608/608/608 606/606/606
f 609/609/609 585/585/585 608/608/608
f 585/585/585 609/609/609 610/610/610
f 609/609/609 611/611/611 610/610/610
f 605/605/605 611/611/611 609/609/609
f 591/591/591 610/610/610 611/611/611
f 603/603/603 591/591/591 611/611/611
f 608/608/608 437/437/437 607/607/607
f 608/608/608 612/612/612 437/437/437
f 608/608/608 583/583/583 612/612/612
f 465/465/465 437/437/437 612/612/612
f 604/604/604 607/607/607 613/613/613
f 614/614/614 604/604/604 613/613/613
f 613/613/613 426/426/426 614/614/614
f 613/613/613 607/607/607 615/615/615
f 613/613/613 615/615/615 431/431/431
f 613/613/613 431/431/431 427/427/427
f 615/615/615 607/607/607 436/436/436
f 609/609/609 606/606/606 605/605/605
f 611/611/611 605/605/605 603/603/603
f 614/614/614 422/422/422 604/604/604
f 603/603/603 602/602/602 616/616/616
f 616/616/616 593/593/593 603/603/603
f 600/600/600 616/616/616 602/602/602
f 595/595/595 616/616/616 600/600/600
f 421/421/421 599/599/599 601/601/601
f 597/597/597 598/598/598 617/617/617
f 617/617/617 379/379/379 597/597/597
f 379/379/379 617/617/617 618/618/618
f 619/619/619 379/379/379 618/618/618
f 619/619/619 618/618/618 620/620/620
f 380/380/380 619/619/619 620/620/620
f 380/380/380 620/620/620 621/621/621
f 620/620/620 622/622/622 621/621/621
f 620/620/620 623/623/623 622/622/622
f 623/623/623 411/411/411 622/622/622
f 623/623/623 624/624/624 411/411/411
f 623/623/623 618/618/618 624/624/624
f 618/618/618 416/416/416 624/624/624
f 618/618/618 598/598/598 416/416/416
f 624/624/624 416/416/416 413/413/413
f 622/622/622 411/411/411 625/625/625
f 626/626/626 622/622/622 625/625/625
f 625/625/625 627/627/627 626/626/626
f 628/628/628 626/626/626 627/627/627
f 628/628/628 629/629/629 626/626/626
f 628/628/628 630/630/630 629/629/629
f 631/631/631 630/630/630 628/628/628
f 630/630/630 631/631/631 385/385/385
f 631/631/631 628/628/628 632/632/632
f 631/631/631 632/632/632 633/633/633
f 634/634/634 631/631/631 633/633/633
f 631/631/631 634/634/634 388/388/388
f 633/633/633 635/635/635 634/634/634
f 633/633/633 405/405/405 635/635/635
f 395/395/395 634/634/634 635/635/635
f 389/389/389 634/634/634 395/395/395
f 635/635/635 404/404/404 395/395/395
f 632/632/632 405/405/405 633/633/633
f 382/382/382 629/629/629 630/630/630
f 621/621/621 629/629/629 382/382/382
f 629/629/629 621/621/621 626/626/626
f 632/632/632 628/628/628 627/627/627
f 627/627/627 406/406/406 632/632/632
f 411/411/411 406/406/406 627/627/627
f 625/625/625 411/411/411 627/627/627
f 621/621/621 622/622/622 626/626/626
f 620/620/620 618/618/618 623/623/623
f 617/617/617 598/598/598 618/618/618
f 596/596/596 595/595/595 600/600/600
f 616/616/616 595/595/595 593/593/593
f 603/603/603 593/593/593 591/591/591
f 592/592/592 373/373/373 589/589/589
f 610/610/610 591/591/591 590/590/590
f 590/590/590 586/586/586 610/610/610
f 586/586/586 590/590/590 587/587/587
f 586/586/586 585/585/585 610/610/610
f 608/608/608 585/585/585 583/583/583
f 582/582/582 612/612/612 583/583/583
f 465/465/465 612/612/612 582/582/582
f 462/462/462 467/467/467 463/463/463
f 459/459/459 554/554/554 462/462/462
f 461/461/461 464/464/464 460/460/460
f 460/460/460 584/584/584 457/457/457
f 458/458/458 538/538/538 459/459/459
f 540/540/540 458/458/458 454/454/454
f 456/456/456 457/457/457 584/584/584
f 455/455/455 456/456/456 588/588/588
f 455/455/455 588/588/588 365/365/365
f 365/365/365 588/588/588 368/368/368
f 452/452/452 451/451/451 454/454/454
f 450/450/450 542/542/542 451/451/451
f 542/542/542 450/450/450 448/448/448
f 447/447/447 449/449/449 424/424/424
f 483/483/483 448/448/448 446/446/446
f 444/444/444 578/578/578 446/446/446
f 578/578/578 444/444/444 443/443/443
f 470/470/470 443/443/443 442/442/442
f 468/468/468 442/442/442 440/440/440
f 441/441/441 434/434/434 438/438/438
f 439/439/439 466/466/466 440/440/440
f 465/465/465 439/439/439 437/437/437
f 607/607/607 437/437/437 436/436/436
f 433/433/433 615/615/615 436/436/436
f 435/435/435 438/438/438 434/434/434
f 429/429/429 432/432/432 434/434/434
f 433/433/433 431/431/431 615/615/615
f 430/430/430 432/432/432 429/429/429
f 445/445/445 425/425/425 429/429/429
f 428/428/428 427/427/427 431/431/431
f 427/427/427 426/426/426 613/613/613
f 423/423/423 614/614/614 426/426/426
f 447/447/447 424/424/424 425/425/425
f 423/423/423 422/422/422 614/614/614
f 422/422/422 421/421/421 601/601/601
f 599/599/599 421/421/421 420/420/420
f 420/420/420 417/417/417 598/598/598
f 417/417/417 416/416/416 598/598/598
f 413/413/413 416/416/416 414/414/414
f 411/411/411 624/624/624 413/413/413
f 412/412/412 415/415/415 410/410/410
f 409/409/409 406/406/406 411/411/411
f 410/410/410 415/415/415 408/408/408
f 409/409/409 407/407/407 406/406/406
f 406/406/406 405/405/405 632/632/632
f 404/404/404 635/635/635 405/405/405
f 343/343/343 398/398/398 400/400/400
f 399/399/399 397/397/397 401/401/401
f 397/397/397 395/395/395 404/404/404
f 394/394/394 396/396/396 341/341/341
f 395/395/395 393/393/393 389/389/389
f 394/394/394 636/636/636 392/392/392
f 394/394/394 339/339/339 636/636/636
f 339/339/339 637/637/637 636/636/636
f 637/637/637 638/638/638 636/636/636
f 637/637/637 639/639/639 638/638/638
f 637/637/637 337/337/337 639/639/639
f 640/640/640 639/639/639 337/337/337
f 639/639/639 640/640/640 331/331/331
f 331/331/331 638/638/638 639/639/639
f 638/638/638 331/331/331 179/179/179
f 391/391/391 636/636/636 638/638/638
f 641/641/641 391/391/391 638/638/638
f 386/386/386 391/391/391 641/641/641
f 641/641/641 642/642/642 386/386/386
f 642/642/642 641/641/641 175/175/175
f 643/643/643 642/642/642 175/175/175
f 643/643/643 369/369/369 642/642/642
f 175/175/175 355/355/355 643/643/643
f 175/175/175 641/641/641 178/178/178
f 178/178/178 641/641/641 638/638/638
f 636/636/636 391/391/391 392/392/392
f 389/389/389 393/393/393 390/390/390
f 388/388/388 634/634/634 389/389/389
f 631/631/631 388/388/388 385/385/385
f 386/386/386 387/387/387 391/391/391
f 371/371/371 386/386/386 642/642/642
f 385/385/385 384/384/384 630/630/630
f 382/382/382 630/630/630 384/384/384
f 382/382/382 380/380/380 621/621/621
f 379/379/379 619/619/619 380/380/380
f 597/597/597 379/379/379 378/378/378
f 378/378/378 377/377/377 594/594/594
f 375/375/375 592/592/592 377/377/377
f 376/376/376 381/381/381 374/374/374
f 375/375/375 373/373/373 592/592/592
f 374/374/374 381/381/381 372/372/372
f 370/370/370 589/589/589 373/373/373
f 371/371/371 372/372/372 383/383/383
f 642/642/642 369/369/369 371/371/371
f 370/370/370 368/368/368 588/588/588
f 367/367/367 369/369/369 643/643/643
f 643/643/643 356/356/356 367/367/367
f 365/365/365 368/368/368 366/366/366
f 455/455/455 365/365/365 364/364/364
f 453/453/453 364/364/364 363/363/363
f 424/424/424 363/363/363 362/362/362
f 362/362/362 360/360/360 418/418/418
f 360/360/360 357/357/357 419/419/419
f 361/361/361 358/358/358 359/359/359
f 358/358/358 367/367/367 356/356/356
f 357/357/357 354/354/354 419/419/419
f 643/643/643 355/355/355 356/356/356
f 354/354/354 353/353/353 419/419/419
f 408/408/408 353/353/353 352/352/352
f 352/352/352 351/351/351 408/408/408
f 351/351/351 350/350/350 403/403/403
f 349/349/349 402/402/402 350/350/350
f 644/644/644 347/347/347 348/348/348
f 347/347/347 644/644/644 645/645/645
f 646/646/646 347/347/347 645/645/645
f 646/646/646 645/645/645 647/647/647
f 648/648/648 646/646/646 647/647/647
f 648/648/648 649/649/649 646/646/646
f 649/649/649 648/648/648 335/335/335
f 648/648/648 650/650/650 335/335/335
f 651/651/651 650/650/650 648/648/648
f 651/651/651 652/652/652 650/650/650
f 653/653/653 652/652/652 651/651/651
f 652/652/652 653/653/653 654/654/654
f 654/654/654 655/655/655 652/652/652
f 654/654/654 320/320/320 655/655/655
f 656/656/656 320/320/320 654/654/654
f 320/320/320 656/656/656 657/657/657
f 656/656/656 658/658/658 657/657/657
f 656/656/656 659/659/659 658/658/658
f 659/659/659 656/656/656 660/660/660
f 645/645/645 659/659/659 660/660/660
f 660/660/660 656/656/656 653/653/653
f 660/660/660 653/653/653 647/647/647
f 658/658/658 659/659/659 645/645/645
f 658/658/658 645/645/645 661/661/661
f 657/657/657 658/658/658 661/661/661
f 661/661/661 318/318/318 657/657/657
f 654/654/654 653/653/653 656/656/656
f 653/653/653 651/651/651 647/647/647
f 652/652/652 655/655/655 650/650/650
f 650/650/650 655/655/655 334/334/334
f 322/322/322 334/334/334 655/655/655
f 646/646/646 649/649/649 342/342/342
f 648/648/648 647/647/647 651/651/651
f 660/660/660 647/647/647 645/645/645
f 661/661/661 645/645/645 644/644/644
f 169/169/169 661/661/661 644/644/644
f 169/169/169 644/644/644 348/348/348
f 646/646/646 344/344/344 347/347/347
f 349/349/349 346/346/346 345/345/345
f 345/345/345 343/343/343 400/400/400
f 344/344/344 646/646/646 342/342/342
f 341/341/341 398/398/398 343/343/343
f 340/340/340 342/342/342 649/649/649
f 339/339/339 394/394/394 341/341/341
f 338/338/338 340/340/340 649/649/649
f 337/337/337 637/637/637 339/339/339
f 335/335/335 338/338/338 649/649/649
f 337/337/337 336/336/336 640/640/640
f 336/336/336 332/332/332 640/640/640
f 335/335/335 650/650/650 334/334/334
f 333/333/333 332/332/332 336/336/336
f 331/331/331 640/640/640 332/332/332
f 179/179/179 331/331/331 329/329/329
f 189/189/189 329/329/329 328/328/328
f 329/329/329 189/189/189 180/180/180
f 327/327/327 325/325/325 662/662/662
f 193/193/193 327/327/327 662/662/662
f 662/662/662 325/325/325 663/663/663
f 663/663/663 664/664/664 662/662/662
f 663/663/663 321/321/321 664/664/664
f 664/664/664 321/321/321 308/308/308
f 305/305/305 664/664/664 308/308/308
f 305/305/305 662/662/662 664/664/664
f 324/324/324 326/326/326 330/330/330
f 325/325/325 323/323/323 663/663/663
f 322/322/322 324/324/324 334/334/334
f 663/663/663 323/323/323 321/321/321
f 320/320/320 322/322/322 655/655/655
f 318/318/318 320/320/320 657/657/657
f 309/309/309 319/319/319 313/313/313
f 661/661/661 315/315/315 318/318/318
f 315/315/315 661/661/661 167/167/167
f 294/294/294 312/312/312 314/314/314
f 310/310/310 313/313/313 311/311/311
f 309/309/309 313/313/313 310/310/310
f 308/308/308 321/321/321 309/309/309
f 308/308/308 306/306/306 305/305/305
f 662/662/662 305/305/305 303/303/303
f 662/662/662 303/303/303 194/194/194
f 304/304/304 301/301/301 300/300/300
f 304/304/304 300/300/300 665/665/665
f 666/666/666 304/304/304 665/665/665
f 197/197/197 304/304/304 666/666/666
f 665/665/665 667/667/667 666/666/666
f 667/667/667 665/665/665 668/668/668
f 669/669/669 667/667/667 668/668/668
f 669/669/669 670/670/670 667/667/667
f 670/670/670 669/669/669 671/671/671
f 670/670/670 671/671/671 672/672/672
f 670/670/670 672/672/672 673/673/673
f 199/199/199 673/673/673 672/672/672
f 199/199/199 674/674/674 673/673/673
f 667/667/667 673/673/673 674/674/674
f 675/675/675 672/672/672 671/671/671
f 202/202/202 672/672/672 675/675/675
f 675/675/675 676/676/676 202/202/202
f 677/677/677 676/676/676 675/675/675
f 678/678/678 676/676/676 677/677/677
f 676/676/676 678/678/678 679/679/679
f 679/679/679 678/678/678 680/680/680
f 681/681/681 679/679/679 680/680/680
f 679/679/679 681/681/681 205/205/205
f 681/681/681 682/682/682 205/205/205
f 683/683/683 682/682/682 681/681/681
f 682/682/682 683/683/683 684/684/684
f 684/684/684 210/210/210 682/682/682
f 685/685/685 684/684/684 683/683/683
f 686/686/686 684/684/684 685/685/685
f 686/686/686 212/212/212 684/684/684
f 686/686/686 687/687/687 212/212/212
f 688/688/688 687/687/687 686/686/686
f 688/688/688 689/689/689 687/687/687
f 688/688/688 690/690/690 689/689/689
f 691/691/691 690/690/690 688/688/688
f 692/692/692 690/690/690 691/691/691
f 693/693/693 690/690/690 692/692/692
f 693/693/693 694/694/694 690/690/690
f 280/280/280 694/694/694 693/693/693
f 280/280/280 693/693/693 695/695/695
f 695/695/695 696/696/696 280/280/280
f 695/695/695 697/697/697 696/696/696
f 692/692/692 697/697/697 695/695/695
f 697/697/697 692/692/692 698/698/698
f 692/692/692 699/699/699 698/698/698
f 698/698/698 699/699/699 700/700/700
f 700/700/700 701/701/701 698/698/698
f 702/702/702 701/701/701 700/700/700
f 703/703/703 701/701/701 702/702/702
f 703/703/703 704/704/704 701/701/701
f 704/704/704 703/703/703 705/705/705
f 706/706/706 704/704/704 705/705/705
f 704/704/704 706/706/706 707/707/707
f 707/707/707 706/706/706 284/284/284
f 705/705/705 287/287/287 706/706/706
f 705/705/705 703/703/703 708/708/708
f 708/708/708 288/288/288 705/705/705
f 709/709/709 288/288/288 708/708/708
f 710/710/710 709/709/709 708/708/708
f 710/710/710 711/711/711 709/709/709
f 712/712/712 711/711/711 710/710/710
f 711/711/711 712/712/712 668/668/668
f 711/711/711 299/299/299 709/709/709
f 711/711/711 665/665/665 299/299/299
f 289/289/289 709/709/709 299/299/299
f 712/712/712 710/710/710 708/708/708
f 708/708/708 703/703/703 712/712/712
f 703/703/703 713/713/713 712/712/712
f 703/703/703 714/714/714 713/713/713
f 671/671/671 713/713/713 714/714/714
f 671/671/671 714/714/714 715/715/715
f 716/716/716 671/671/671 715/715/715
f 717/717/717 716/716/716 715/715/715
f 717/717/717 718/718/718 716/716/716
f 717/717/717 719/719/719 718/718/718
f 717/717/717 702/702/702 719/719/719
f 714/714/714 702/702/702 717/717/717
f 718/718/718 719/719/719 720/720/720
f 721/721/721 718/718/718 720/720/720
f 722/722/722 718/718/718 721/721/721
f 723/723/723 718/718/718 722/722/722
f 723/723/723 724/724/724 718/718/718
f 724/724/724 723/723/723 680/680/680
f 724/724/724 677/677/677 718/718/718
f 723/723/723 722/722/722 681/681/681
f 721/721/721 683/683/683 722/722/722
f 721/721/721 725/725/725 683/683/683
f 721/721/721 726/726/726 725/725/725
f 725/725/725 726/726/726 691/691/691
f 699/699/699 691/691/691 726/726/726
f 726/726/726 727/727/727 699/699/699
f 726/726/726 720/720/720 727/727/727
f 720/720/720 700/700/700 727/727/727
f 721/721/721 720/720/720 726/726/726
f 720/720/720 719/719/719 700/700/700
f 677/677/677 716/716/716 718/718/718
f 714/714/714 717/717/717 715/715/715
f 712/712/712 713/713/713 669/669/669
f 701/701/701 704/704/704 707/707/707
f 701/701/701 707/707/707 283/283/283
f 696/696/696 701/701/701 283/283/283
f 703/703/703 702/702/702 714/714/714
f 700/700/700 719/719/719 702/702/702
f 701/701/701 696/696/696 698/698/698
f 700/700/700 699/699/699 727/727/727
f 697/697/697 698/698/698 696/696/696
f 728/728/728 690/690/690 694/694/694
f 728/728/728 694/694/694 277/277/277
f 277/277/277 689/689/689 728/728/728
f 692/692/692 695/695/695 693/693/693
f 691/691/691 699/699/699 692/692/692
f 691/691/691 688/688/688 725/725/725
f 725/725/725 688/688/688 685/685/685
f 690/690/690 728/728/728 689/689/689
f 689/689/689 277/277/277 687/687/687
f 687/687/687 277/277/277 729/729/729
f 729/729/729 730/730/730 687/687/687
f 731/731/731 730/730/730 729/729/729
f 731/731/731 732/732/732 730/730/730
f 732/732/732 731/731/731 733/733/733
f 732/732/732 733/733/733 219/219/219
f 733/733/733 734/734/734 219/219/219
f 735/735/735 734/734/734 733/733/733
f 275/275/275 734/734/734 735/735/735
f 219/219/219 734/734/734 736/736/736
f 271/271/271 736/736/736 734/734/734
f 271/271/271 737/737/737 736/736/736
f 736/736/736 737/737/737 225/225/225
f 738/738/738 225/225/225 737/737/737
f 739/739/739 738/738/738 737/737/737
f 739/739/739 740/740/740 738/738/738
f 740/740/740 739/739/739 265/265/265
f 265/265/265 741/741/741 740/740/740
f 740/740/740 741/741/741 227/227/227
f 738/738/738 740/740/740 227/227/227
f 266/266/266 739/739/739 737/737/737
f 270/270/270 266/266/266 737/737/737
f 733/733/733 731/731/731 735/735/735
f 735/735/735 731/731/731 742/742/742
f 735/735/735 742/742/742 743/743/743
f 276/276/276 735/735/735 743/743/743
f 742/742/742 277/277/277 743/743/743
f 218/218/218 730/730/730 732/732/732
f 731/731/731 729/729/729 742/742/742
f 687/687/687 730/730/730 218/218/218
f 277/277/277 742/742/742 729/729/729
f 218/218/218 212/212/212 687/687/687
f 686/686/686 685/685/685 688/688/688
f 683/683/683 725/725/725 685/685/685
f 681/681/681 722/722/722 683/683/683
f 681/681/681 680/680/680 723/723/723
f 724/724/724 680/680/680 678/678/678
f 677/677/677 724/724/724 678/678/678
f 716/716/716 677/677/677 675/675/675
f 202/202/202 676/676/676 679/679/679
f 675/675/675 671/671/671 716/716/716
f 671/671/671 669/669/669 713/713/713
f 673/673/673 667/667/667 670/670/670
f 668/668/668 712/712/712 669/669/669
f 665/665/665 711/711/711 668/668/668
f 674/674/674 666/666/666 667/667/667
f 674/674/674 198/198/198 666/666/666
f 665/665/665 300/300/300 299/299/299
f 299/299/299 297/297/297 291/291/291
f 302/302/302 296/296/296 298/298/298
f 296/296/296 307/307/307 295/295/295
f 295/295/295 312/312/312 294/294/294
f 294/294/294 314/314/314 293/293/293
f 292/292/292 291/291/291 297/297/297
f 299/299/299 291/291/291 289/289/289
f 286/286/286 290/290/290 293/293/293
f 709/709/709 289/289/289 288/288/288
f 287/287/287 705/705/705 288/288/288
f 706/706/706 287/287/287 284/284/284
f 316/316/316 285/285/285 286/286/286
f 285/285/285 153/153/153 282/282/282
f 283/283/283 707/707/707 284/284/284
f 280/280/280 696/696/696 283/283/283
f 153/153/153 281/281/281 282/282/282
f 281/281/281 148/148/148 279/279/279
f 694/694/694 280/280/280 278/278/278
f 694/694/694 278/278/278 277/277/277
f 276/276/276 743/743/743 277/277/277
f 735/735/735 276/276/276 275/275/275
f 275/275/275 272/272/272 734/734/734
f 147/147/147 273/273/273 274/274/274
f 271/271/271 734/734/734 272/272/272
f 737/737/737 271/271/271 270/270/270
f 269/269/269 134/134/134 267/267/267
f 266/266/266 270/270/270 268/268/268
f 265/265/265 739/739/739 266/266/266
f 265/265/265 263/263/263 741/741/741
f 741/741/741 263/263/263 229/229/229
f 261/261/261 264/264/264 131/131/131
f 229/229/229 263/263/263 262/262/262
f 259/259/259 229/229/229 262/262/262
f 131/131/131 116/116/116 261/261/261
f 119/119/119 116/116/116 131/131/131
f 259/259/259 262/262/262 260/260/260
f 116/116/116 257/257/257 258/258/258
f 256/256/256 234/234/234 231/231/231
f 254/254/254 234/234/234 256/256/256
f 252/252/252 253/253/253 744/744/744
f 139/139/139 252/252/252 744/744/744
f 745/745/745 139/139/139 744/744/744
f 745/745/745 744/744/744 27/27/27
f 24/24/24 745/745/745 27/27/27
f 746/746/746 27/27/27 744/744/744
f 27/27/27 746/746/746 54/54/54
f 744/744/744 55/55/55 746/746/746
f 744/744/744 94/94/94 55/55/55
f 253/253/253 94/94/94 744/744/744
f 251/251/251 250/250/250 254/254/254
f 254/254/254 250/250/250 235/235/235
f 250/250/250 747/747/747 235/235/235
f 250/250/250 247/247/247 747/747/747
f 240/240/240 235/235/235 747/747/747
f 248/248/248 247/247/247 250/250/250
f 245/245/245 747/747/747 247/247/247
f 245/245/245 243/243/243 747/747/747
f 240/240/240 747/747/747 243/243/243
f 239/239/239 242/242/242 221/221/221
f 238/238/238 236/236/236 240/240/240
f 236/236/236 235/235/235 240/240/240
f 235/235/235 234/234/234 254/254/254
f 232/232/232 231/231/231 234/234/234
f 231/231/231 229/229/229 259/259/259
f 228/228/228 230/230/230 233/233/233
f 227/227/227 741/741/741 229/229/229
f 237/237/237 226/226/226 228/228/228
f 227/227/227 225/225/225 738/738/738
f 226/226/226 221/221/221 224/224/224
f 736/736/736 225/225/225 223/223/223
f 736/736/736 223/223/223 220/220/220
f 222/222/222 224/224/224 221/221/221
f 242/242/242 217/217/217 221/221/221
f 736/736/736 220/220/220 219/219/219
f 218/218/218 732/732/732 219/219/219
f 212/212/212 218/218/218 216/216/216
f 242/242/242 215/215/215 217/217/217
f 214/214/214 215/215/215 207/207/207
f 212/212/212 216/216/216 213/213/213
f 210/210/210 684/684/684 212/212/212
f 211/211/211 214/214/214 209/209/209
f 682/682/682 210/210/210 208/208/208
f 207/207/207 209/209/209 214/214/214
f 682/682/682 208/208/208 205/205/205
f 206/206/206 207/207/207 241/241/241
f 244/244/244 204/204/204 206/206/206
f 244/244/244 748/748/748 204/204/204
f 244/244/244 151/151/151 748/748/748
f 203/203/203 679/679/679 205/205/205
f 155/155/155 204/204/204 748/748/748
f 202/202/202 679/679/679 203/203/203
f 202/202/202 199/199/199 672/672/672
f 198/198/198 674/674/674 199/199/199
f 198/198/198 197/197/197 666/666/666
f 196/196/196 304/304/304 197/197/197
f 196/196/196 194/194/194 303/303/303
f 662/662/662 194/194/194 193/193/193
f 192/192/192 327/327/327 193/193/193
f 192/192/192 189/189/189 328/328/328
f 191/191/191 195/195/195 190/190/190
f 190/190/190 200/200/200 187/187/187
f 159/159/159 187/187/187 200/200/200
f 188/188/188 180/180/180 189/189/189
f 186/186/186 187/187/187 159/159/159
f 188/188/188 185/185/185 181/181/181
f 181/181/181 180/180/180 188/188/188
f 329/329/329 180/180/180 179/179/179
f 179/179/179 178/178/178 638/638/638
f 172/172/172 177/177/177 183/183/183
f 175/175/175 178/178/178 176/176/176
f 174/174/174 355/355/355 175/175/175
f 174/174/174 173/173/173 355/355/355
f 168/168/168 172/172/172 183/183/183
f 173/173/173 171/171/171 170/170/170
f 348/348/348 170/170/170 169/169/169
f 661/661/661 169/169/169 167/167/167
f 168/168/168 182/182/182 166/166/166
f 315/315/315 167/167/167 165/165/165
f 163/163/163 166/166/166 184/184/184
f 315/315/315 165/165/165 164/164/164
f 160/160/160 163/163/163 184/184/184
f 162/162/162 161/161/161 164/164/164
f 161/161/161 158/158/158 317/317/317
f 160/160/160 186/186/186 159/159/159
f 200/200/200 157/157/157 159/159/159
f 317/317/317 158/158/158 156/156/156
f 157/157/157 201/201/201 155/155/155
f 748/748/748 151/151/151 155/155/155
f 153/153/153 156/156/156 154/154/154
f 153/153/153 152/152/152 281/281/281
f 152/152/152 148/148/148 281/281/281
f 150/150/150 151/151/151 244/244/244
f 150/150/150 244/244/244 149/149/149
f 146/146/146 149/149/149 246/246/246
f 279/279/279 148/148/148 147/147/147
f 147/147/147 145/145/145 273/273/273
f 144/144/144 146/146/146 246/246/246
f 144/144/144 142/142/142 143/143/143
f 140/140/140 142/142/142 249/249/249
f 140/140/140 252/252/252 139/139/139
f 24/24/24 139/139/139 745/745/745
f 138/138/138 136/136/136 141/141/141
f 135/135/135 141/141/141 136/136/136
f 134/134/134 145/145/145 135/135/135
f 267/267/267 134/134/134 133/133/133
f 133/133/133 132/132/132 264/264/264
f 132/132/132 131/131/131 264/264/264
f 119/119/119 131/131/131 130/130/130
f 137/137/137 126/126/126 129/129/129
f 126/126/126 137/137/137 22/22/22
f 127/127/127 123/123/123 125/125/125
f 123/123/123 127/127/127 749/749/749
f 110/110/110 123/123/123 749/749/749
f 106/106/106 110/110/110 749/749/749
f 14/14/14 749/749/749 127/127/127
f 103/103/103 749/749/749 14/14/14
f 127/127/127 20/20/20 14/14/14
f 121/121/121 128/128/128 124/124/124
f 123/123/123 110/110/110 122/122/122
f 121/121/121 120/120/120 128/128/128
f 120/120/120 119/119/119 130/130/130
f 119/119/119 117/117/117 116/116/116
f 114/114/114 257/257/257 116/116/116
f 112/112/112 115/115/115 118/118/118
f 114/114/114 113/113/113 257/257/257
f 257/257/257 113/113/113 111/111/111
f 122/122/122 110/110/110 112/112/112
f 111/111/111 109/109/109 255/255/255
f 108/108/108 96/96/96 109/109/109
f 105/105/105 98/98/98 108/108/108
f 106/106/106 107/107/107 110/110/110
f 749/749/749 104/104/104 106/106/106
f 105/105/105 102/102/102 98/98/98
f 103/103/103 104/104/104 749/749/749
f 101/101/101 92/92/92 100/100/100
f 99/99/99 98/98/98 102/102/102
f 98/98/98 96/96/96 108/108/108
f 93/93/93 97/97/97 100/100/100
f 95/95/95 109/109/109 96/96/96
f 94/94/94 253/253/253 95/95/95
f 100/100/100 92/92/92 93/93/93
f 88/88/88 91/91/91 87/87/87
f 87/87/87 91/91/91 6/6/6
f 87/87/87 6/6/6 67/67/67
f 66/66/66 73/73/73 65/65/65
f 63/63/63 65/65/65 77/77/77
f 63/63/63 80/80/80 62/62/62
f 64/64/64 61/61/61 60/60/60
f 60/60/60 58/58/58 89/89/89
f 62/62/62 57/57/57 59/59/59
f 58/58/58 56/56/56 89/89/89
f 55/55/55 94/94/94 56/56/56
f 746/746/746 55/55/55 54/54/54
f 54/54/54 52/52/52 572/572/572
f 53/53/53 57/57/57 51/51/51
f 570/570/570 52/52/52 50/50/50
f 79/79/79 49/49/49 51/51/51
f 48/48/48 569/569/569 50/50/50
f 47/47/47 49/49/49 79/79/79
f 46/46/46 569/569/569 48/48/48
f 47/47/47 78/78/78 43/43/43
f 46/46/46 45/45/45 569/569/569
f 509/509/509 45/45/45 44/44/44
f 44/44/44 42/42/42 509/509/509
f 565/565/565 42/42/42 41/41/41
f 563/563/563 41/41/41 39/39/39
f 43/43/43 38/38/38 40/40/40
f 562/562/562 39/39/39 36/36/36
f 37/37/37 38/38/38 75/75/75
f 37/37/37 74/74/74 35/35/35
f 36/36/36 34/34/34 488/488/488
f 83/83/83 33/33/33 35/35/35
f 31/31/31 490/490/490 34/34/34
f 31/31/31 30/30/30 490/490/490
f 30/30/30 29/29/29 573/573/573
f 28/28/28 54/54/54 29/29/29
f 28/28/28 27/27/27 54/54/54
f 23/23/23 26/26/26 32/32/32
f 27/27/27 25/25/25 24/24/24
f 24/24/24 22/22/22 137/137/137
f 23/23/23 32/32/32 19/19/19
f 22/22/22 21/21/21 126/126/126
f 127/127/127 21/21/21 20/20/20
f 17/17/17 16/16/16 20/20/20
f 16/16/16 14/14/14 20/20/20
f 13/13/13 103/103/103 14/14/14
f 11/11/11 103/103/103 13/13/13
f 10/10/10 103/103/103 11/11/11
f 8/8/8 92/92/92 10/10/10
f 12/12/12 7/7/7 9/9/9
f 6/6/6 91/91/91 8/8/8
f 15/15/15 5/5/5 7/7/7
f 6/6/6 4/4/4 67/67/67
f 18/18/18 2/2/2 5/5/5
f 4/4/4 1/1/1 69/69/69
f 1/1/1 3/3/3 33/33/33
f 2/2/2 19/19/19 3/3/3
