# Exported from 3D Builder
mtllib wheel_2.mtl

o Object.1
v -0.020000 49.949997 0.050000
v -9.760000 48.990002 10.030001
v -9.760000 48.990002 0.050000
v 21.180000 21.180000 60.019997
v 24.930000 16.670000 60.019997
v 28.280001 28.269999 60.019997
v 33.230000 22.230000 60.019997
v -19.119999 46.160004 0.050000
v -11.680000 58.779999 30.030001
v -19.119999 46.160004 10.030001
v -49.010002 9.760000 10.030001
v -49.010002 9.760000 0.050000
v -46.180000 19.110001 0.050000
v -27.760000 41.560001 0.050000
v 11.490001 27.700001 60.019997
v 15.280000 36.910000 60.019997
v 5.830000 29.419998 60.019997
v 7.800000 39.209999 60.019997
v 0.550000 0.120000 0.050000
v 0.460000 0.070000 0.000000
v 0.480000 0.095000 0.025000
v 0.500000 0.070000 0.050000
v -30.009998 -0.020000 0.050000
v -29.440001 -5.830000 0.050000
v -39.990002 -0.020000 0.050000
v -39.220001 -7.790000 0.050000
v 9.760000 -48.990002 0.050000
v 9.760000 -48.990002 10.030001
v 19.119999 -46.160004 0.050000
v 0.460000 0.095000 0.013000
v -0.020000 -49.949997 0.050000
v -46.180000 19.110001 10.030001
v 42.389999 -42.369999 30.030001
v 49.869999 -33.310001 30.030001
v 41.570000 -27.750000 60.019997
v -29.440001 -5.830000 10.030001
v -30.009998 -0.020000 10.030001
v -41.570000 27.750000 0.050000
v -41.570000 27.750000 10.030001
v 16.670000 24.920002 60.019997
v 22.240000 33.209999 60.019997
v 11.680000 -58.779999 30.030001
v 55.389999 -22.950001 30.030001
v 46.180000 -19.110001 60.019997
v 19.119999 -46.160004 10.030001
v -36.919998 15.280000 10.030001
v -39.220001 7.790000 10.030001
v 46.180000 19.110001 60.019997
v 49.010002 9.760000 60.019997
v 58.800003 11.680000 30.030001
v -39.220001 -7.790000 10.030001
v -39.990002 -0.020000 10.030001
v 55.389999 22.950001 30.030001
v -35.340000 35.320000 10.030001
v -35.340000 35.320000 0.050000
v -27.760000 41.560001 10.030001
v 22.959999 -55.370003 30.030001
v 27.760000 -41.560001 0.050000
v -0.020000 39.980000 60.019997
v -7.800000 39.209999 10.030001
v -0.020000 49.949997 10.030001
v -41.570000 -27.750000 10.030001
v -46.180000 -19.110001 10.030001
v -36.919998 -15.280000 10.030001
v 33.320000 -49.860001 30.030001
v 27.709999 11.490001 60.019997
v 0.460000 -0.020000 0.000000
v 0.460000 0.043000 0.038000
v 29.440001 5.830000 60.019997
v 36.919998 15.280000 60.019997
v 0.416000 0.000000 0.032000
v 0.457000 0.016000 0.050000
v -24.930000 -16.670000 0.050000
v -33.230000 -22.180000 0.050000
v -27.709999 -11.490001 0.050000
v -4.630000 -1.890000 49.990002
v -4.630000 -1.890000 60.019997
v -4.920000 -0.980000 60.019997
v 0.460000 0.120000 0.000000
v 39.220001 7.790000 60.019997
v 30.009998 -0.020000 60.019997
v 39.990002 -0.020000 60.019997
v -36.919998 -15.280000 0.050000
v 49.970001 -0.020000 0.050000
v 49.970001 -0.020000 10.030001
v 49.010002 9.760000 0.050000
v 0.460000 0.170000 60.019997
v 0.482000 0.115000 60.019997
v 0.500000 0.120000 60.019997
v 3.530000 3.530000 60.019997
v -0.020000 39.980000 10.030001
v -0.020000 39.980000 0.050000
v -7.800000 39.209999 0.050000
v 0.395000 0.000000 0.019000
v 7.800000 39.209999 0.050000
v 15.280000 36.910000 0.050000
v 5.830000 29.419998 0.050000
v -15.280000 36.910000 0.050000
v -15.280000 36.910000 10.030001
v 1.900000 4.630000 60.019997
v -0.020000 0.550000 60.019997
v 0.980000 4.920000 60.019997
v -0.020000 0.020000 60.019997
v -24.930000 -16.670000 10.030001
v -27.709999 -11.490001 10.030001
v 0.478000 0.066000 60.019997
v 0.457000 0.016000 60.019997
v 0.500000 0.070000 60.019997
v 46.180000 19.110001 0.050000
v 0.260000 0.000000 60.019997
v 0.490000 0.095000 60.019997
v -3.530000 -3.530000 60.019997
v -3.530000 -3.530000 49.990002
v -2.330000 -4.390000 49.990002
v -4.770000 1.440000 10.030001
v -4.890000 -0.730000 10.030001
v 0.127000 0.000000 60.019997
v -2.760000 -4.150000 60.019997
v 4.920000 0.980000 60.019997
v -0.020000 -30.000000 0.050000
v -7.800000 -39.209999 0.050000
v -5.830000 -29.419998 0.050000
v 27.760000 -41.560001 10.030001
v -15.280000 -36.910000 0.050000
v -11.490001 -27.700001 0.050000
v 41.570000 27.750000 0.050000
v 46.180000 19.110001 10.030001
v -16.670000 24.920002 0.050000
v -22.190001 33.209999 0.050000
v -11.490001 27.700001 0.050000
v -22.190001 -33.209999 0.050000
v -16.670000 -24.920002 0.050000
v 41.570000 -27.750000 0.050000
v -1.440000 -4.770000 60.019997
v -0.020000 -30.000000 10.030001
v -5.830000 -29.419998 10.030001
v 46.180000 -19.110001 0.050000
v 7.800000 -39.209999 10.030001
v -11.490001 -27.700001 10.030001
v 49.869999 33.310001 30.030001
v 49.010002 -9.760000 0.050000
v 58.800003 -11.680000 30.030001
v -16.670000 -24.920002 10.030001
v 0.477000 0.106000 0.029000
v 0.474000 0.117000 0.032000
v 42.389999 42.369999 30.030001
v 4.390000 2.330000 60.019997
v 49.010002 -9.760000 10.030001
v -9.760000 48.990002 60.019997
v -19.119999 46.160004 49.990002
v -9.760000 48.990002 49.990002
v 0.550000 -0.020000 60.019997
v -0.020000 49.949997 60.019997
v -0.500000 -4.960000 10.030001
v 39.220001 -7.790000 60.019997
v 29.440001 -5.830000 60.019997
v -0.020000 -39.980000 0.050000
v 41.570000 27.750000 10.030001
v -0.550000 -0.020000 60.019997
v -0.500000 -0.020000 60.019997
v -0.550000 -0.020000 59.970001
v -5.830000 29.419998 0.050000
v 49.010002 9.760000 10.030001
v -7.800000 -39.209999 10.030001
v -15.280000 -36.910000 10.030001
v -22.959999 55.370003 30.030001
v -33.320000 49.860001 30.030001
v -27.760000 41.560001 60.019997
v 59.949997 -0.020000 30.030001
v -0.020000 -39.980000 10.030001
v -19.119999 46.160004 60.019997
v 39.220001 7.790000 10.030001
v -16.670000 24.920002 10.030001
v -11.490001 27.700001 10.030001
v 24.930000 -16.670000 60.019997
v 33.230000 -22.180000 60.019997
v 27.709999 -11.490001 60.019997
v -5.830000 29.419998 10.030001
v -0.020000 -49.949997 10.030001
v 0.500000 0.120000 0.050000
v 36.919998 -15.280000 60.019997
v -0.020000 30.000000 0.050000
v -0.020000 30.000000 10.030001
v 33.320000 49.860001 30.030001
v 27.760000 41.560001 0.050000
v 4.970000 -0.500000 60.019997
v -0.980000 4.920000 10.030001
v 46.180000 -19.110001 10.030001
v 41.570000 -27.750000 10.030001
v 35.340000 -35.320000 10.030001
v -22.190001 33.209999 49.990002
v -15.280000 36.910000 49.990002
v -27.760000 41.560001 49.990002
v 36.919998 -15.280000 10.030001
v 39.220001 -7.790000 10.030001
v -5.010000 -0.020000 49.990002
v -5.010000 -0.020000 60.019997
v -28.280001 -28.269999 0.050000
v -21.180000 -21.180000 0.050000
v 0.460000 0.115000 0.022000
v 0.460000 0.170000 0.050000
v -0.020000 49.949997 49.990002
v -33.230000 -22.180000 10.030001
v -28.280001 -28.269999 10.030001
v -7.800000 39.209999 49.990002
v -0.020000 39.980000 49.990002
v -29.440001 -5.830000 49.990002
v 35.340000 -35.320000 60.019997
v -21.180000 -21.180000 10.030001
v -7.800000 39.209999 60.019997
v -24.930000 -16.670000 49.990002
v 0.490000 0.095000 0.050000
v 0.482000 0.115000 0.050000
v -22.190001 -33.209999 10.030001
v 0.478000 0.066000 0.050000
v -27.760000 -41.560001 10.030001
v -15.280000 36.910000 60.019997
v -28.280001 28.269999 0.050000
v -16.670000 -24.920002 49.990002
v 0.020000 -0.020000 0.050000
v 4.150000 -2.760000 60.019997
v 3.530000 -3.530000 60.019997
v 0.500000 -0.070000 60.019997
v 4.630000 -1.890000 60.019997
v 0.460000 -0.170000 60.019997
v 0.980000 -4.920000 60.019997
v 1.900000 -4.630000 60.019997
v -0.980000 -4.920000 49.990002
v 0.020000 -0.020000 60.019997
v 29.440001 -5.830000 0.050000
v 30.009998 -0.020000 0.050000
v 39.990002 -0.020000 0.050000
v 39.220001 -7.790000 0.050000
v 36.919998 -15.280000 0.050000
v -11.490001 -27.700001 49.990002
v 0.460000 -0.120000 60.019997
v 0.500000 -0.020000 60.019997
v -0.020000 -5.010000 49.990002
v 22.959999 55.370003 30.030001
v -0.020000 -5.010000 60.019997
v 30.009998 -0.020000 10.030001
v 29.440001 -5.830000 10.030001
v 19.119999 46.160004 0.050000
v -0.020000 30.000000 60.019997
v -0.020000 30.000000 49.990002
v 39.990002 -0.020000 10.030001
v 4.150000 2.760000 0.050000
v 4.920000 0.980000 0.050000
v 11.680000 58.779999 30.030001
v 9.760000 48.990002 0.050000
v -11.490001 27.700001 60.019997
v -16.670000 24.920002 60.019997
v -16.670000 24.920002 49.990002
v -11.490001 27.700001 49.990002
v -22.190001 33.209999 10.030001
v -5.830000 29.419998 60.019997
v -5.830000 29.419998 49.990002
v -28.280001 28.269999 10.030001
v 1.900000 4.630000 0.050000
v 27.709999 -11.490001 0.050000
v 0.260000 0.000000 0.050000
v 0.127000 0.000000 0.050000
v 33.230000 -22.180000 0.050000
v -35.340000 35.320000 49.990002
v -28.280001 28.269999 49.990002
v -27.709999 -11.490001 49.990002
v -30.009998 -0.020000 49.990002
v 27.709999 -11.490001 10.030001
v -33.230000 22.230000 0.050000
v -24.930000 16.670000 0.050000
v -21.180000 21.180000 0.050000
v -1.900000 4.630000 0.050000
v -0.980000 4.920000 0.050000
v -0.120000 0.550000 0.050000
v 24.930000 -16.670000 0.050000
v 24.930000 -16.670000 10.030001
v 9.760000 48.990002 10.030001
v -35.340000 35.320000 60.019997
v -22.190001 33.209999 60.019997
v 0.460000 -0.020000 0.100000
v 0.500000 0.020000 0.050000
v -21.180000 21.180000 10.030001
v -33.230000 22.230000 10.030001
v -28.280001 28.269999 60.019997
v 0.240000 0.000000 59.994999
v 19.119999 46.160004 10.030001
v -21.180000 21.180000 60.019997
v -24.930000 16.670000 49.990002
v -21.180000 21.180000 49.990002
v 28.280001 -28.269999 10.030001
v 27.760000 41.560001 10.030001
v -30.009998 -0.020000 60.019997
v -29.440001 -5.830000 60.019997
v -33.230000 22.230000 49.990002
v -1.900000 4.630000 10.030001
v 35.340000 35.320000 10.030001
v -29.440001 5.830000 49.990002
v -33.230000 22.230000 60.019997
v -39.990002 -0.020000 49.990002
v -39.220001 -7.790000 49.990002
v -39.220001 -7.790000 60.019997
v -39.990002 -0.020000 60.019997
v 7.800000 39.209999 10.030001
v 22.240000 33.209999 10.030001
v 49.010002 -9.760000 60.019997
v 46.180000 -19.110001 49.990002
v -36.919998 -15.280000 60.019997
v -36.919998 -15.280000 49.990002
v 35.340000 35.320000 0.050000
v -21.180000 -21.180000 49.990002
v -24.930000 -16.670000 60.019997
v -21.180000 -21.180000 60.019997
v 22.240000 -33.209999 60.019997
v 28.280001 -28.269999 60.019997
v 16.670000 -24.920002 60.019997
v 21.180000 -21.180000 60.019997
v -27.709999 -11.490001 60.019997
v 49.010002 -9.760000 49.990002
v -33.230000 -22.180000 49.990002
v 15.280000 -36.910000 60.019997
v 11.490001 -27.700001 60.019997
v -0.020000 -30.000000 49.990002
v 5.830000 -29.419998 49.990002
v -5.830000 -29.419998 60.019997
v -0.020000 -30.000000 60.019997
v -5.830000 -29.419998 49.990002
v -11.490001 -27.700001 60.019997
v -16.670000 -24.920002 60.019997
v -27.760000 -41.560001 0.050000
v -35.340000 -35.320000 0.050000
v -35.340000 -35.320000 10.030001
v 49.970001 -0.020000 60.019997
v -7.800000 -39.209999 49.990002
v -7.800000 -39.209999 60.019997
v -15.280000 -36.910000 60.019997
v -15.280000 -36.910000 49.990002
v -0.020000 -39.980000 49.990002
v -0.020000 -39.980000 60.019997
v 7.800000 -39.209999 60.019997
v 5.830000 -29.419998 60.019997
v -24.930000 16.670000 10.030001
v -3.840000 3.140000 10.030001
v 33.230000 22.230000 10.030001
v -27.709999 11.490001 10.030001
v -29.440001 5.830000 10.030001
v 21.180000 -21.180000 10.030001
v 16.670000 -24.920002 10.030001
v 2.760000 -4.150000 10.030001
v 3.840000 -3.140000 10.030001
v 39.990002 -0.020000 49.990002
v 39.220001 -7.790000 49.990002
v 49.970001 -0.020000 49.990002
v 33.230000 22.230000 0.050000
v 24.930000 16.670000 0.050000
v 28.280001 28.269999 0.050000
v 22.240000 33.209999 0.050000
v 16.670000 24.920002 0.050000
v 21.180000 21.180000 0.050000
v 4.770000 -1.440000 10.030001
v 5.010000 -0.020000 10.030001
v -4.770000 1.440000 60.019997
v -4.150000 2.760000 60.019997
v -4.770000 1.440000 49.990002
v -41.570000 -27.750000 49.990002
v -35.340000 -35.320000 49.990002
v -28.280001 -28.269999 49.990002
v 28.280001 28.269999 10.030001
v -35.340000 -35.320000 60.019997
v -33.230000 -22.180000 60.019997
v -4.150000 2.760000 0.050000
v -22.190001 -33.209999 49.990002
v -27.760000 -41.560001 49.990002
v 41.570000 -27.750000 49.990002
v 11.490001 27.700001 0.050000
v -28.280001 -28.269999 60.019997
v 35.340000 -35.320000 49.990002
v 15.280000 36.910000 10.030001
v 3.140000 -3.840000 0.050000
v 36.919998 -15.280000 49.990002
v -27.760000 -41.560001 60.019997
v -33.320000 -49.860001 30.030001
v -22.959999 -55.370003 30.030001
v -22.190001 -33.209999 60.019997
v -0.020000 0.550000 0.050000
v -0.020000 5.010000 0.050000
v 3.530000 3.530000 0.050000
v 4.770000 -1.440000 0.050000
v 0.980000 4.920000 10.030001
v 4.920000 0.980000 10.030001
v 0.500000 -0.070000 0.050000
v 0.550000 -0.020000 0.050000
v -0.070000 0.460000 59.970001
v -0.070000 0.500000 60.019997
v -24.930000 16.670000 60.019997
v 30.009998 -0.020000 49.990002
v 29.440001 -5.830000 49.990002
v 5.830000 29.419998 10.030001
v -2.760000 4.150000 0.050000
v -3.530000 3.530000 60.019997
v -0.120000 0.550000 60.019997
v 11.490001 27.700001 10.030001
v 5.010000 -0.020000 0.050000
v -0.120000 0.460000 59.970001
v -19.119999 -46.160004 60.019997
v 16.670000 24.920002 10.030001
v -0.120000 0.460000 60.019997
v -9.760000 -48.990002 60.019997
v -9.760000 -48.990002 49.990002
v 21.180000 21.180000 10.030001
v 4.150000 -2.760000 0.050000
v 0.460000 -0.170000 0.050000
v -0.020000 -59.930000 30.030001
v -0.020000 -49.949997 60.019997
v -11.680000 -58.779999 30.030001
v -0.550000 0.120000 60.019997
v -0.500000 0.070000 60.019997
v -0.550000 0.070000 59.970001
v -0.980000 4.920000 60.019997
v 3.530000 3.530000 10.030001
v -19.119999 -46.160004 49.990002
v -0.500000 0.020000 60.019997
v 36.919998 15.280000 0.050000
v 27.709999 11.490001 0.050000
v 36.919998 15.280000 10.030001
v 24.930000 16.670000 10.030001
v -0.500000 0.120000 60.019997
v 27.709999 11.490001 10.030001
v -0.460000 0.170000 60.019997
v -2.760000 4.150000 60.019997
v -0.120000 0.460000 0.050000
v -0.120000 0.460000 0.000000
v -0.070000 0.500000 0.050000
v 0.460000 -0.120000 0.050000
v 0.500000 -0.020000 0.050000
v 0.460000 -0.070000 0.000000
v -27.709999 11.490001 60.019997
v -36.919998 15.280000 60.019997
v -29.440001 5.830000 60.019997
v -39.220001 7.790000 60.019997
v -19.119999 -46.160004 0.050000
v -0.070000 0.460000 0.000000
v 0.460000 -0.120000 0.000000
v -9.760000 -48.990002 0.050000
v -0.020000 0.020000 0.050000
v 29.440001 5.830000 0.050000
v 0.480000 -0.070000 0.025000
v 39.220001 7.790000 0.050000
v 29.440001 5.830000 10.030001
v -1.440000 4.770000 49.990002
v -3.840000 3.140000 49.990002
v 0.480000 4.960000 49.990002
v -0.460000 0.170000 0.050000
v -9.760000 -48.990002 10.030001
v -0.500000 0.020000 0.050000
v -4.920000 0.980000 0.050000
v -0.020000 -49.949997 49.990002
v 9.760000 -48.990002 49.990002
v 7.800000 -39.209999 49.990002
v -0.550000 -0.020000 0.050000
v -27.709999 11.490001 49.990002
v 0.980000 -4.920000 0.050000
v -0.980000 -4.920000 0.050000
v -49.010002 -9.760000 60.019997
v -49.010002 -9.760000 49.990002
v -49.970001 -0.020000 60.019997
v -41.570000 27.750000 49.990002
v -46.180000 19.110001 49.990002
v -36.919998 15.280000 49.990002
v 4.390000 2.330000 10.030001
v -27.709999 11.490001 0.050000
v -36.919998 15.280000 0.050000
v -39.220001 7.790000 49.990002
v -29.440001 5.830000 0.050000
v -46.180000 -19.110001 49.990002
v -46.180000 -19.110001 60.019997
v -49.970001 -0.020000 49.990002
v -19.119999 -46.160004 10.030001
v 49.010002 9.760000 49.990002
v -46.180000 19.110001 60.019997
v -49.010002 9.760000 60.019997
v 1.440000 -4.770000 10.030001
v -41.570000 27.750000 60.019997
v 46.180000 19.110001 49.990002
v -41.570000 -27.750000 60.019997
v 41.570000 27.750000 60.019997
v -2.330000 -4.390000 10.030001
v 41.570000 27.750000 49.990002
v 33.230000 22.230000 49.990002
v 28.280001 -28.269999 0.050000
v 21.180000 -21.180000 0.050000
v 35.340000 -35.320000 0.050000
v 22.240000 -33.209999 10.030001
v -39.220001 7.790000 0.050000
v -49.010002 9.760000 49.990002
v 27.760000 41.560001 60.019997
v -58.800003 -11.680000 30.030001
v 33.230000 -22.180000 10.030001
v -59.949997 -0.020000 30.030001
v 35.340000 35.320000 60.019997
v 39.220001 7.790000 49.990002
v -55.389999 -22.950001 30.030001
v -0.020000 59.930000 30.030001
v -49.869999 -33.310001 30.030001
v 19.119999 46.160004 60.019997
v 27.709999 -11.490001 49.990002
v 24.930000 -16.670000 49.990002
v -49.970001 -0.020000 10.030001
v -42.389999 -42.369999 30.030001
v -4.970000 -0.500000 0.050000
v -4.630000 -1.890000 0.050000
v 9.760000 48.990002 60.019997
v 9.760000 48.990002 49.990002
v -4.150000 -2.760000 10.030001
v 19.119999 46.160004 49.990002
v 33.230000 -22.180000 49.990002
v -3.530000 -3.530000 0.050000
v -3.530000 -3.530000 10.030001
v 15.280000 -36.910000 10.030001
v 22.240000 -33.209999 0.050000
v -1.900000 -4.630000 0.050000
v 16.670000 -24.920002 0.050000
v -42.389999 42.369999 30.030001
v 11.490001 -27.700001 0.050000
v -49.970001 -0.020000 0.050000
v -49.010002 -9.760000 0.050000
v 15.280000 -36.910000 0.050000
v -49.010002 -9.760000 10.030001
v 11.490001 -27.700001 10.030001
v 5.830000 -29.419998 0.050000
v 5.830000 -29.419998 10.030001
v -46.180000 -19.110001 0.050000
v -58.800003 11.680000 30.030001
v -55.389999 22.950001 30.030001
v 7.800000 -39.209999 0.050000
v 27.760000 41.560001 49.990002
v 22.240000 33.209999 49.990002
v 7.800000 39.209999 49.990002
v -41.570000 -27.750000 0.050000
v -49.869999 33.310001 30.030001
v -0.550000 -0.020000 0.000000
v -0.500000 -0.020000 0.050000
v 35.340000 35.320000 49.990002
v 36.919998 15.280000 49.990002
v 0.460000 -0.120000 59.970001
v 0.460000 0.020000 59.970001
v 0.500000 0.020000 60.019997
v 28.280001 28.269999 49.990002
v 0.460000 -0.020000 59.970001
v 0.460000 -0.070000 59.970001
v 21.180000 21.180000 49.990002
v 24.930000 16.670000 49.990002
v 0.480000 -0.070000 59.994999
v 5.830000 29.419998 49.990002
v 11.490001 27.700001 49.990002
v 16.670000 24.920002 49.990002
v 15.280000 36.910000 49.990002
v 4.390000 2.330000 49.990002
v 4.920000 0.980000 49.990002
v 27.709999 11.490001 49.990002
v 3.530000 3.530000 49.990002
v 29.440001 5.830000 49.990002
v 2.100000 -4.460000 49.990002
v 16.670000 -24.920002 49.990002
v 3.840000 -3.140000 49.990002
v 2.330000 4.390000 49.990002
v 4.770000 -1.440000 49.990002
v 0.460000 0.120000 59.970001
v 0.460000 0.050000 60.005001
v 5.010000 -0.020000 49.990002
v 0.388000 0.013000 59.977997
v 21.180000 -21.180000 49.990002
v 28.280001 -28.269999 49.990002
v 15.280000 -36.910000 49.990002
v 19.119999 -46.160004 49.990002
v 22.240000 -33.209999 49.990002
v 11.490001 -27.700001 49.990002
v 9.760000 -48.990002 60.019997
v 19.119999 -46.160004 60.019997
v 27.760000 -41.560001 60.019997
v 27.760000 -41.560001 49.990002

usemtl color_16777215_0
f 1 2 3
f 4 5 6
f 7 6 5
f 8 9 3
f 3 10 8
f 11 12 13
f 10 14 8
f 15 16 17
f 16 18 17
f 19 20 21
f 19 22 20
f 23 24 25
f 26 25 24
f 27 28 29
f 21 20 30
f 31 28 27
f 13 32 11
f 33 34 35
f 36 24 23
f 36 23 37
f 32 13 38
f 32 38 39
f 40 41 15
f 42 27 29
f 43 44 35
f 28 45 29
f 46 47 32
f 48 49 50
f 35 34 43
f 25 26 51
f 25 51 52
f 53 48 50
f 20 22 30
f 54 55 14
f 54 14 56
f 42 29 57
f 56 14 10
f 58 57 29
f 3 2 10
f 45 58 29
f 4 6 40
f 6 41 40
f 16 15 41
f 59 17 18
f 2 60 10
f 61 60 2
f 62 63 64
f 1 61 2
f 58 65 57
f 66 7 5
f 22 67 68
f 69 70 66
f 33 65 58
f 71 67 72
f 73 74 75
f 76 77 78
f 79 21 30
f 70 69 80
f 7 66 70
f 81 82 69
f 24 75 83
f 24 83 26
f 84 85 86
f 51 26 83
f 51 83 64
f 22 68 30
f 87 88 89
f 87 89 90
f 91 92 93
f 91 93 60
f 72 68 71
f 94 71 68
f 95 96 97
f 92 95 97
f 98 99 60
f 98 60 93
f 100 101 90
f 102 101 100
f 87 90 101
f 101 103 87
f 104 73 75
f 104 75 105
f 106 107 108
f 105 75 36
f 24 36 75
f 86 109 50
f 110 107 106
f 106 111 110
f 76 112 77
f 61 91 60
f 60 99 10
f 112 113 114
f 56 10 99
f 115 116 37
f 36 37 116
f 111 88 110
f 117 110 88
f 114 118 112
f 109 53 50
f 108 119 111
f 120 121 122
f 123 58 45
f 122 124 125
f 126 53 109
f 127 126 109
f 128 129 130
f 124 131 125
f 132 125 131
f 43 34 133
f 127 109 86
f 134 118 114
f 135 120 122
f 135 122 136
f 133 137 43
f 28 138 45
f 136 122 125
f 136 125 139
f 22 68 72
f 126 140 53
f 137 141 142
f 139 125 132
f 139 132 143
f 79 144 145
f 146 140 126
f 147 89 119
f 90 89 147
f 89 111 119
f 137 148 141
f 149 150 151
f 108 152 119
f 149 151 153
f 136 154 135
f 142 43 137
f 155 82 156
f 81 156 82
f 80 69 82
f 142 141 84
f 120 157 121
f 124 122 121
f 158 126 127
f 159 160 161
f 98 93 162
f 162 130 98
f 127 86 163
f 121 164 165
f 121 165 124
f 166 167 168
f 142 84 169
f 157 170 164
f 157 164 121
f 84 86 50
f 163 86 85
f 166 168 171
f 163 172 127
f 85 172 163
f 173 128 130
f 173 130 174
f 175 176 177
f 174 130 162
f 174 162 178
f 164 170 179
f 79 180 144
f 155 156 181
f 156 177 181
f 178 162 182
f 178 182 183
f 28 179 138
f 170 138 179
f 84 50 169
f 184 146 185
f 186 119 152
f 178 187 174
f 144 79 30
f 141 148 84
f 85 84 148
f 137 188 148
f 188 137 133
f 188 133 189
f 189 133 190
f 144 21 79
f 191 192 193
f 194 195 188
f 189 194 188
f 85 148 195
f 78 196 76
f 180 19 21
f 78 197 196
f 145 180 79
f 74 73 198
f 83 75 74
f 198 73 199
f 199 132 198
f 145 200 79
f 168 193 150
f 168 150 171
f 149 171 150
f 201 145 79
f 153 151 202
f 34 33 133
f 64 83 74
f 64 74 203
f 145 144 200
f 30 200 144
f 74 198 204
f 74 204 203
f 202 151 205
f 206 202 205
f 76 196 207
f 33 35 208
f 21 144 180
f 113 112 76
f 180 145 201
f 143 132 199
f 143 199 209
f 205 210 59
f 205 59 206
f 113 76 211
f 73 104 199
f 209 199 104
f 200 30 212
f 200 212 213
f 198 214 204
f 215 212 30
f 215 30 68
f 62 64 203
f 203 204 62
f 151 150 205
f 214 216 204
f 205 192 217
f 205 217 210
f 68 22 215
f 98 130 129
f 218 129 128
f 114 113 219
f 105 36 116
f 220 79 200
f 220 200 213
f 221 152 222
f 152 223 222
f 224 152 221
f 186 152 224
f 223 225 222
f 226 227 225
f 227 222 225
f 114 228 134
f 229 117 88
f 230 231 232
f 230 232 233
f 230 233 234
f 228 114 235
f 236 229 225
f 195 234 233
f 236 223 237
f 134 228 238
f 185 239 184
f 134 238 240
f 241 231 230
f 241 230 242
f 185 243 239
f 237 229 236
f 229 240 225
f 17 244 245
f 232 246 195
f 232 195 233
f 19 247 248
f 249 243 250
f 195 246 85
f 251 252 253
f 251 253 254
f 129 255 98
f 99 98 255
f 256 251 254
f 256 254 257
f 129 218 255
f 257 245 244
f 257 244 256
f 99 255 56
f 255 258 56
f 54 56 258
f 201 259 180
f 234 260 230
f 212 261 213
f 215 261 212
f 220 213 262
f 243 249 239
f 72 261 215
f 262 213 261
f 234 263 260
f 22 72 215
f 150 193 192
f 264 265 193
f 192 205 150
f 266 211 76
f 267 207 196
f 260 268 230
f 242 230 268
f 249 250 1
f 269 218 270
f 271 270 218
f 128 271 218
f 272 273 274
f 268 260 275
f 268 275 276
f 61 1 277
f 219 235 114
f 54 39 55
f 55 39 38
f 278 264 193
f 278 193 168
f 277 250 243
f 266 76 207
f 255 218 258
f 279 217 191
f 192 191 217
f 261 72 280
f 281 280 72
f 191 193 265
f 234 195 194
f 128 173 271
f 282 271 173
f 218 269 283
f 218 283 258
f 191 265 284
f 191 284 279
f 110 117 285
f 250 277 1
f 243 286 277
f 287 288 289
f 94 262 261
f 94 261 71
f 190 290 189
f 148 188 195
f 39 54 283
f 258 283 54
f 252 287 289
f 252 289 253
f 286 243 185
f 286 185 291
f 292 293 207
f 292 207 267
f 265 264 294
f 174 295 173
f 291 185 296
f 292 267 297
f 265 294 298
f 265 298 284
f 299 300 301
f 299 301 302
f 183 187 178
f 286 303 277
f 291 304 286
f 61 277 303
f 44 305 306
f 307 301 308
f 300 308 301
f 146 309 185
f 310 113 211
f 311 312 211
f 313 314 315
f 316 315 314
f 175 316 314
f 175 314 176
f 181 177 176
f 317 311 211
f 317 211 266
f 266 207 317
f 293 317 207
f 318 306 305
f 308 319 307
f 44 306 35
f 309 146 126
f 320 313 321
f 238 228 322
f 322 323 238
f 44 142 305
f 198 132 131
f 324 325 322
f 324 322 326
f 131 214 198
f 324 326 235
f 324 235 327
f 327 235 219
f 327 219 328
f 124 165 214
f 124 214 131
f 43 142 44
f 329 330 331
f 331 330 62
f 332 305 142
f 62 204 331
f 333 334 335
f 333 335 336
f 214 165 216
f 185 309 296
f 337 338 334
f 337 334 333
f 126 158 309
f 296 309 158
f 142 169 332
f 339 320 340
f 315 321 313
f 339 338 337
f 295 174 187
f 341 282 342
f 158 343 296
f 304 291 296
f 342 115 341
f 344 341 115
f 37 345 115
f 346 347 348
f 348 349 346
f 350 351 352
f 353 354 355
f 356 355 357
f 358 357 355
f 276 346 349
f 349 359 276
f 360 242 359
f 318 305 352
f 332 352 305
f 361 362 363
f 364 319 308
f 365 366 364
f 355 367 343
f 355 343 353
f 321 340 320
f 334 338 325
f 325 338 340
f 364 368 365
f 319 369 307
f 251 256 217
f 210 217 256
f 242 268 359
f 355 356 304
f 355 304 367
f 272 342 295
f 158 127 343
f 367 296 343
f 59 244 17
f 296 367 304
f 115 342 370
f 336 371 372
f 371 366 372
f 319 364 366
f 306 373 35
f 356 374 96
f 374 97 96
f 319 366 375
f 319 375 369
f 35 373 376
f 304 356 96
f 304 96 377
f 349 348 378
f 219 113 310
f 96 95 303
f 96 303 377
f 379 306 351
f 380 381 382
f 312 328 310
f 219 310 328
f 95 92 91
f 95 91 303
f 312 310 211
f 303 286 377
f 377 286 304
f 365 372 366
f 366 371 383
f 366 383 375
f 363 196 361
f 197 361 196
f 201 384 259
f 385 259 384
f 386 19 259
f 360 359 387
f 335 383 336
f 371 336 383
f 61 303 91
f 273 187 388
f 248 389 360
f 273 272 187
f 256 244 210
f 182 162 93
f 59 210 244
f 97 182 92
f 390 391 387
f 385 273 388
f 103 101 392
f 295 187 272
f 93 92 182
f 393 103 392
f 357 374 356
f 252 284 287
f 251 279 252
f 217 279 251
f 284 252 279
f 298 394 284
f 156 81 395
f 156 395 396
f 101 393 392
f 183 182 97
f 183 97 397
f 272 398 342
f 399 362 400
f 397 97 374
f 397 374 401
f 402 360 387
f 393 400 403
f 380 382 404
f 398 370 342
f 401 374 357
f 401 357 405
f 393 403 406
f 229 87 103
f 360 402 248
f 407 408 404
f 403 400 406
f 393 406 103
f 405 357 358
f 405 358 409
f 410 411 387
f 412 413 414
f 415 416 417
f 393 101 400
f 102 418 101
f 388 259 385
f 409 419 405
f 358 355 354
f 404 408 420
f 404 420 380
f 421 159 161
f 353 422 423
f 423 354 353
f 159 421 416
f 159 416 415
f 361 197 415
f 197 159 415
f 220 262 67
f 94 67 262
f 172 422 424
f 404 414 407
f 94 68 67
f 354 425 358
f 409 358 425
f 415 417 426
f 414 413 407
f 425 354 423
f 425 423 427
f 428 421 161
f 220 67 261
f 71 261 67
f 281 72 67
f 426 428 415
f 428 406 361
f 415 428 361
f 400 101 418
f 418 429 400
f 429 399 400
f 361 400 362
f 382 414 404
f 428 426 417
f 428 416 421
f 430 431 432
f 424 422 343
f 353 343 422
f 416 428 417
f 430 274 431
f 160 103 428
f 103 406 428
f 400 361 406
f 329 382 381
f 433 434 435
f 274 432 431
f 424 343 127
f 436 437 438
f 437 439 438
f 329 440 382
f 394 298 436
f 407 413 408
f 391 67 22
f 384 441 432
f 433 442 411
f 287 284 394
f 437 436 298
f 302 438 439
f 414 440 443
f 384 444 441
f 422 445 423
f 433 446 442
f 134 240 159
f 232 445 447
f 231 445 232
f 422 447 445
f 446 433 435
f 112 118 159
f 134 159 118
f 246 232 447
f 246 447 172
f 390 442 446
f 441 444 432
f 445 448 423
f 427 423 448
f 390 411 442
f 428 161 160
f 197 78 159
f 78 77 159
f 112 159 77
f 231 241 445
f 448 445 241
f 449 253 450
f 451 257 449
f 435 391 446
f 440 414 382
f 422 172 447
f 390 446 391
f 85 246 172
f 172 424 127
f 274 430 370
f 432 444 430
f 430 444 452
f 414 443 31
f 240 229 160
f 160 159 240
f 226 225 240
f 103 160 229
f 391 281 67
f 453 179 31
f 453 31 443
f 241 389 448
f 418 449 429
f 452 370 430
f 398 274 370
f 454 455 452
f 453 443 440
f 391 435 434
f 399 429 449
f 427 448 389
f 398 272 274
f 273 385 274
f 432 274 384
f 201 79 220
f 450 399 449
f 302 301 293
f 302 293 292
f 292 438 302
f 384 201 444
f 363 450 288
f 248 402 19
f 22 19 391
f 311 317 369
f 450 362 399
f 408 456 333
f 372 420 336
f 333 336 420
f 420 408 333
f 337 333 456
f 457 458 456
f 301 307 293
f 317 293 307
f 413 457 456
f 201 220 444
f 413 456 408
f 289 288 450
f 324 334 325
f 450 363 362
f 370 452 455
f 454 459 455
f 363 297 196
f 328 383 327
f 420 372 380
f 220 434 433
f 433 411 220
f 380 372 365
f 380 365 368
f 324 327 335
f 334 324 335
f 339 340 338
f 370 455 115
f 267 196 297
f 460 363 288
f 289 450 253
f 455 116 115
f 461 462 411
f 297 363 460
f 402 387 391
f 391 19 402
f 259 388 419
f 383 328 375
f 335 327 383
f 328 312 375
f 311 375 312
f 369 375 311
f 369 317 307
f 444 220 462
f 438 292 297
f 412 414 31
f 332 50 49
f 436 438 297
f 436 297 460
f 280 281 391
f 394 436 460
f 394 460 288
f 287 394 288
f 397 388 183
f 187 183 388
f 425 419 409
f 220 261 280
f 463 464 465
f 466 467 294
f 264 466 294
f 391 434 280
f 220 280 434
f 294 468 437
f 294 437 298
f 389 469 427
f 389 241 360
f 425 427 469
f 242 360 241
f 270 470 269
f 471 269 470
f 469 419 425
f 468 472 439
f 468 439 437
f 220 411 462
f 344 473 470
f 31 179 28
f 474 464 475
f 472 476 299
f 344 470 270
f 344 270 341
f 390 387 411
f 302 439 299
f 472 299 439
f 271 282 270
f 341 270 282
f 401 405 388
f 440 477 453
f 471 46 269
f 283 269 46
f 461 411 378
f 410 378 411
f 477 440 329
f 477 329 216
f 49 48 478
f 388 405 419
f 397 401 388
f 216 329 331
f 352 332 478
f 49 478 332
f 332 169 50
f 467 479 480
f 378 348 481
f 165 164 477
f 216 165 477
f 331 204 216
f 179 453 164
f 453 477 164
f 378 481 461
f 479 467 482
f 483 478 48
f 484 368 364
f 469 389 248
f 410 349 378
f 485 53 140
f 410 359 349
f 140 146 485
f 469 248 247
f 387 359 410
f 419 469 386
f 143 486 139
f 276 359 268
f 53 485 48
f 300 299 476
f 464 474 300
f 476 464 300
f 308 300 474
f 364 308 474
f 419 386 259
f 386 469 247
f 47 46 471
f 275 260 263
f 295 342 173
f 282 173 342
f 476 480 465
f 484 364 474
f 484 474 475
f 487 488 483
f 489 275 263
f 490 275 489
f 46 32 283
f 39 283 32
f 463 475 464
f 473 23 25
f 247 19 386
f 19 180 259
f 384 274 385
f 133 491 190
f 485 487 483
f 485 483 48
f 492 489 290
f 25 493 473
f 470 473 471
f 493 471 473
f 490 346 275
f 276 275 346
f 468 467 472
f 468 294 467
f 494 472 467
f 476 472 494
f 47 471 493
f 494 480 476
f 37 23 473
f 37 473 345
f 146 184 495
f 496 463 465
f 263 497 290
f 263 290 489
f 465 464 476
f 467 480 494
f 497 263 194
f 234 194 263
f 498 496 465
f 495 499 146
f 482 467 466
f 475 463 496
f 345 473 344
f 352 478 500
f 318 352 351
f 264 278 466
f 482 466 278
f 123 492 190
f 497 189 290
f 350 82 155
f 350 155 351
f 1 3 9
f 493 25 52
f 493 52 47
f 139 154 136
f 496 501 475
f 11 32 47
f 1 9 502
f 80 82 350
f 194 189 497
f 503 484 501
f 344 115 345
f 33 58 491
f 239 504 495
f 166 9 8
f 396 505 177
f 396 177 156
f 8 14 166
f 501 484 475
f 177 505 506
f 177 506 175
f 52 507 47
f 368 484 508
f 509 510 116
f 511 512 504
f 510 513 116
f 504 514 495
f 515 373 379
f 510 516 513
f 484 503 508
f 184 239 495
f 379 181 515
f 517 513 516
f 318 351 306
f 11 507 12
f 58 123 491
f 190 491 123
f 504 249 511
f 379 351 181
f 155 181 351
f 518 519 492
f 517 516 486
f 489 492 519
f 520 486 516
f 462 154 520
f 167 166 14
f 239 249 504
f 290 190 492
f 520 154 486
f 519 521 489
f 167 14 522
f 153 511 249
f 462 461 154
f 523 521 519
f 490 489 521
f 461 481 154
f 524 525 496
f 202 512 153
f 519 526 523
f 167 522 168
f 116 513 105
f 104 105 513
f 513 517 104
f 55 522 14
f 521 347 490
f 346 490 347
f 524 527 525
f 209 104 517
f 502 249 1
f 347 521 523
f 347 523 528
f 524 496 498
f 143 209 517
f 9 149 153
f 528 523 529
f 528 529 530
f 9 153 502
f 171 149 9
f 166 171 9
f 120 135 529
f 530 529 135
f 154 139 486
f 517 486 143
f 531 496 525
f 528 530 481
f 530 135 481
f 154 481 135
f 63 531 527
f 532 533 13
f 153 249 502
f 120 529 157
f 534 157 529
f 526 534 529
f 529 523 526
f 498 532 524
f 534 138 157
f 170 157 138
f 496 531 501
f 481 348 528
f 526 518 138
f 526 138 534
f 278 168 522
f 535 514 536
f 512 537 514
f 202 537 512
f 531 538 501
f 347 528 348
f 519 518 526
f 63 538 531
f 511 153 512
f 525 527 531
f 482 522 539
f 454 452 540
f 138 518 45
f 123 45 492
f 538 503 501
f 518 492 45
f 514 504 512
f 459 454 540
f 508 503 538
f 522 482 278
f 540 541 459
f 495 514 535
f 27 42 31
f 533 479 482
f 495 535 542
f 452 541 540
f 485 146 499
f 520 459 462
f 412 31 42
f 539 533 482
f 330 508 538
f 532 480 479
f 465 480 532
f 62 330 538
f 516 510 459
f 510 509 459
f 509 455 459
f 533 532 479
f 62 538 63
f 543 483 488
f 542 488 487
f 225 223 544
f 499 495 542
f 532 498 465
f 524 507 527
f 499 542 487
f 499 487 485
f 452 444 541
f 459 541 462
f 459 520 516
f 522 55 38
f 524 12 507
f 488 7 543
f 545 546 152
f 462 541 444
f 542 535 536
f 488 542 547
f 539 522 38
f 63 527 51
f 527 507 51
f 52 51 507
f 11 47 507
f 51 64 63
f 488 547 6
f 488 6 7
f 455 509 116
f 38 533 539
f 152 548 237
f 38 13 533
f 549 152 237
f 330 329 508
f 12 532 13
f 524 532 12
f 4 550 551
f 4 551 5
f 152 549 552
f 152 552 223
f 508 329 381
f 547 542 536
f 223 552 237
f 547 536 41
f 547 41 6
f 544 223 552
f 368 508 380
f 381 380 508
f 254 449 257
f 553 245 451
f 257 451 245
f 285 117 229
f 245 553 17
f 15 17 553
f 15 553 554
f 40 15 554
f 40 554 555
f 285 229 110
f 555 550 40
f 4 40 550
f 536 514 556
f 536 556 16
f 536 16 41
f 110 229 548
f 556 514 537
f 556 537 18
f 556 18 16
f 548 229 237
f 537 202 206
f 59 18 206
f 537 206 18
f 552 549 236
f 478 483 500
f 350 352 500
f 552 236 237
f 500 80 350
f 544 552 236
f 557 558 559
f 559 551 557
f 550 560 551
f 555 560 550
f 544 236 225
f 5 551 559
f 5 559 66
f 66 559 561
f 66 561 69
f 236 552 223
f 69 561 395
f 69 395 81
f 500 483 543
f 237 236 549
f 543 70 80
f 543 80 500
f 7 70 543
f 326 322 228
f 235 326 228
f 553 451 554
f 561 558 395
f 562 226 238
f 226 240 238
f 562 227 226
f 562 222 227
f 562 563 564
f 90 565 100
f 451 102 100
f 564 222 562
f 566 505 396
f 565 451 100
f 564 221 222
f 564 506 566
f 88 87 567
f 567 87 229
f 221 564 566
f 229 88 567
f 221 566 224
f 89 88 567
f 106 108 568
f 568 567 106
f 111 106 567
f 566 186 224
f 111 567 108
f 567 88 111
f 396 569 566
f 567 111 89
f 110 548 107
f 566 569 186
f 108 107 568
f 396 395 569
f 107 570 568
f 568 108 567
f 119 569 558
f 545 108 568
f 545 568 570
f 119 186 569
f 546 545 107
f 570 107 545
f 506 564 571
f 546 107 548
f 548 152 546
f 152 108 545
f 515 572 373
f 573 574 575
f 560 555 565
f 253 449 254
f 449 418 451
f 376 208 35
f 558 569 395
f 554 565 555
f 575 313 573
f 306 379 373
f 575 376 572
f 561 559 558
f 575 572 314
f 575 314 313
f 147 119 557
f 558 557 119
f 557 551 560
f 147 557 90
f 560 90 557
f 506 571 316
f 506 316 175
f 560 565 90
f 316 571 315
f 376 373 572
f 565 554 451
f 572 515 176
f 572 176 314
f 451 418 102
f 515 181 176
f 337 456 458
f 458 339 337
f 562 238 323
f 576 562 323
f 563 562 576
f 571 564 563
f 505 566 506
f 571 563 315
f 315 563 576
f 315 576 321
f 321 576 323
f 321 323 340
f 322 325 323
f 340 323 325
f 458 574 573
f 573 320 339
f 573 339 458
f 313 320 573
f 413 42 577
f 577 574 457
f 577 457 413
f 413 412 42
f 578 577 42
f 577 578 574
f 57 578 42
f 57 65 579
f 579 578 57
f 579 33 208
f 579 208 376
f 65 33 579
f 574 458 457
f 376 575 580
f 580 575 574
f 579 376 580
f 579 580 574
f 579 574 578
f 33 491 133

