{"asset":{"generator":"3D Builder","version":"2.0"},"scene":0,"scenes":[{"nodes":[0]}],"nodes":[{"mesh":0,"matrix":[39.370082855224609,0,0,0,0,-4.6932796067267191E-6,-39.370079040527344,0,0,39.370079040527344,-4.6932796067267191E-6,0,0,0.50989693403244019,-6.0784458355556126E-8,1]}],"meshes":[{"primitives":[{"attributes":{"POSITION":0},"mode":4,"indices":3,"material":0},{"attributes":{"POSITION":1},"mode":4,"indices":4,"material":1},{"attributes":{"POSITION":2},"mode":4,"indices":5,"material":2}]}],"materials":[{"name":"Default_Material","pbrMetallicRoughness":{"baseColorFactor":[0.52252161502838135,0.52252161502838135,0.52252161502838135,1],"metallicFactor":0,"roughnessFactor":1},"alphaMode":"OPAQUE"},{"name":"Matte__FF000000","pbrMetallicRoughness":{"baseColorFactor":[0,0,0,1],"metallicFactor":0,"roughnessFactor":1},"alphaMode":"OPAQUE"},{"name":"Matte__FFFFFFFF","pbrMetallicRoughness":{"baseColorFactor":[1,1,1,1],"metallicFactor":0,"roughnessFactor":1},"alphaMode":"OPAQUE"}],"accessors":[{"bufferView":0,"byteOffset":0,"count":194,"componentType":5126,"type":"VEC3","min":[-0.0050859451293945313,-0.0050873029977083206,-0.0050873029977083206],"max":[0.0050783008337020874,0.005076942965388298,0.005076942965388298]},{"bufferView":0,"byteOffset":2328,"count":384,"componentType":5126,"type":"VEC3","min":[-0.00634999992325902,-0.012951383367180824,-0.012951383367180824],"max":[0.006342355627566576,0.012951383367180824,0.012951383367180824]},{"bufferView":0,"byteOffset":6936,"count":320,"componentType":5126,"type":"VEC3","min":[-0.0038115289062261581,-0.00762577448040247,-0.00762577448040247],"max":[0.0038038843777030706,0.0076154144480824471,0.0076154144480824471]},{"bufferView":1,"byteOffset":0,"count":768,"componentType":5125,"type":"SCALAR"},{"bufferView":1,"byteOffset":3072,"count":1728,"componentType":5125,"type":"SCALAR"},{"bufferView":1,"byteOffset":9984,"count":960,"componentType":5125,"type":"SCALAR"}],"bufferViews":[{"buffer":0,"byteOffset":0,"byteLength":10776,"byteStride":12,"target":34962},{"buffer":0,"byteOffset":10776,"byteLength":13824,"target":34963}],"buffers":[{"byteLength":24600,"uri":"wheel.bin"}]}