# Exported by ZModeler 2.2.4 (Build 981) with WavefrontOBJ filter (Build 45)
# 

mtllib wheel.mtl

v 0.25 0 -0.509897
v -0.25 0.099476 -0.5001
v 0.25 0.099476 -0.5001
v -0.25 0 -0.509897
v -0.25 0 -0.299997
v 0.25 0.0585265 -0.294233
v -0.25 0.0585265 -0.294233
v 0.25 0 -0.299997
v -0.25 0.195129 -0.471083
v 0.25 0.195129 -0.471083
v 0.25 0.114804 -0.277161
v -0.25 0.114804 -0.277161
v -0.25 0.283284 -0.423964
v 0.25 0.283284 -0.423964
v 0.25 0.166669 -0.249439
v -0.25 0.166669 -0.249439
v -0.25 0.360552 -0.360552
v 0.25 0.360552 -0.360552
v 0.25 0.21213 -0.21213
v -0.25 0.21213 -0.21213
v -0.25 0.423964 -0.283284
v 0.25 0.423964 -0.283284
v 0.25 0.249438 -0.16667
v -0.25 0.249438 -0.16667
v -0.25 0.471083 -0.195129
v 0.25 0.471083 -0.195129
v 0.25 0.277161 -0.114804
v -0.25 0.277161 -0.114804
v -0.25 0.500099 -0.099476
v 0.25 0.500099 -0.099476
v 0.25 0.294233 -0.0585266
v -0.25 0.294233 -0.0585266
v -0.25 0.509897 -9.6921e-008
v 0.25 0.509897 -9.6921e-008
v 0.25 0.299997 -1.06096e-007
v -0.25 0.299997 -1.06096e-007
v -0.25 0.500099 0.0994759
v 0.25 0.500099 0.0994759
v 0.25 0.294233 0.0585264
v -0.25 0.294233 0.0585264
v -0.25 0.471083 0.195129
v 0.25 0.471083 0.195129
v 0.25 0.277161 0.114804
v -0.25 0.277161 0.114804
v -0.25 0.423964 0.283284
v 0.25 0.423964 0.283284
v 0.25 0.249438 0.166669
v -0.25 0.249438 0.166669
v -0.25 0.360552 0.360552
v 0.25 0.360552 0.360552
v 0.25 0.21213 0.21213
v -0.25 0.21213 0.21213
v -0.25 0.283284 0.423964
v 0.25 0.283284 0.423964
v 0.25 0.166669 0.249438
v -0.25 0.166669 0.249438
v -0.25 0.195129 0.471083
v 0.25 0.195129 0.471083
v 0.25 0.114804 0.277161
v -0.25 0.114804 0.277161
v -0.25 0.099476 0.500099
v 0.25 0.099476 0.500099
v 0.25 0.0585265 0.294233
v -0.25 0.0585265 0.294233
v -0.25 -4.45766e-008 0.509897
v 0.25 -4.45766e-008 0.509897
v 0.25 -2.62266e-008 0.299997
v -0.25 -2.62266e-008 0.299997
v -0.25 -0.0994761 0.500099
v 0.25 -0.0994761 0.500099
v 0.25 -0.0585266 0.294233
v -0.25 -0.0585266 0.294233
v -0.25 -0.195129 0.471083
v 0.25 -0.195129 0.471083
v 0.25 -0.114804 0.277161
v -0.25 -0.114804 0.277161
v -0.25 -0.283284 0.423964
v 0.25 -0.283284 0.423964
v 0.25 -0.166669 0.249438
v -0.25 -0.166669 0.249438
v -0.25 -0.360552 0.360551
v 0.25 -0.360552 0.360551
v 0.25 -0.21213 0.21213
v -0.25 -0.21213 0.21213
v -0.25 -0.423964 0.283283
v 0.25 -0.423964 0.283283
v 0.25 -0.249438 0.166669
v -0.25 -0.249438 0.166669
v -0.25 -0.471083 0.195129
v 0.25 -0.471083 0.195129
v 0.25 -0.277161 0.114804
v -0.25 -0.277161 0.114804
v -0.25 -0.500099 0.0994759
v 0.25 -0.500099 0.0994759
v 0.25 -0.294233 0.0585264
v -0.25 -0.294233 0.0585264
v -0.25 -0.509897 -1.2529e-007
v 0.25 -0.509897 -1.2529e-007
v 0.25 -0.299997 -1.22787e-007
v -0.25 -0.299997 -1.22787e-007
v -0.25 -0.500099 -0.0994761
v 0.25 -0.500099 -0.0994761
v 0.25 -0.294233 -0.0585267
v -0.25 -0.294233 -0.0585267
v -0.25 -0.471083 -0.195129
v 0.25 -0.471083 -0.195129
v 0.25 -0.277161 -0.114804
v -0.25 -0.277161 -0.114804
v -0.25 -0.423964 -0.283284
v 0.25 -0.423964 -0.283284
v 0.25 -0.249438 -0.16667
v -0.25 -0.249438 -0.16667
v -0.25 -0.360552 -0.360552
v 0.25 -0.360552 -0.360552
v 0.25 -0.21213 -0.21213
v -0.25 -0.21213 -0.21213
v -0.25 -0.283284 -0.423964
v 0.25 -0.283284 -0.423964
v 0.25 -0.166669 -0.249439
v -0.25 -0.166669 -0.249439
v -0.25 -0.195129 -0.471084
v 0.25 -0.195129 -0.471084
v 0.25 -0.114804 -0.277161
v -0.25 -0.114804 -0.277161
v -0.25 -0.0994759 -0.5001
v 0.25 -0.0994759 -0.5001
v 0.25 -0.0585265 -0.294233
v -0.25 -0.0585265 -0.294233
v 0.25 0 -0.509897
v 0.25 0.0585265 -0.294233
v 0.25 0 -0.299997
v 0.25 0.099476 -0.5001
v -0.25 0 -0.509897
v -0.25 0.0585265 -0.294233
v -0.25 0.099476 -0.5001
v -0.25 0 -0.299997
v 0.25 0.114804 -0.277161
v 0.25 0.195129 -0.471083
v -0.25 0.114804 -0.277161
v -0.25 0.195129 -0.471083
v 0.25 0.166669 -0.249439
v 0.25 0.283284 -0.423964
v -0.25 0.166669 -0.249439
v -0.25 0.283284 -0.423964
v 0.25 0.21213 -0.21213
v 0.25 0.360552 -0.360552
v -0.25 0.21213 -0.21213
v -0.25 0.360552 -0.360552
v 0.25 0.249438 -0.16667
v 0.25 0.423964 -0.283284
v -0.25 0.249438 -0.16667
v -0.25 0.423964 -0.283284
v 0.25 0.277161 -0.114804
v 0.25 0.471083 -0.195129
v -0.25 0.277161 -0.114804
v -0.25 0.471083 -0.195129
v 0.25 0.294233 -0.0585266
v 0.25 0.500099 -0.099476
v -0.25 0.294233 -0.0585266
v -0.25 0.500099 -0.099476
v 0.25 0.299997 -1.06096e-007
v 0.25 0.509897 -9.6921e-008
v -0.25 0.299997 -1.06096e-007
v -0.25 0.509897 -9.6921e-008
v 0.25 0.294233 0.0585264
v 0.25 0.500099 0.0994759
v -0.25 0.294233 0.0585264
v -0.25 0.500099 0.0994759
v 0.25 0.277161 0.114804
v 0.25 0.471083 0.195129
v -0.25 0.277161 0.114804
v -0.25 0.471083 0.195129
v 0.25 0.249438 0.166669
v 0.25 0.423964 0.283284
v -0.25 0.249438 0.166669
v -0.25 0.423964 0.283284
v 0.25 0.21213 0.21213
v 0.25 0.360552 0.360552
v -0.25 0.21213 0.21213
v -0.25 0.360552 0.360552
v 0.25 0.166669 0.249438
v 0.25 0.283284 0.423964
v -0.25 0.166669 0.249438
v -0.25 0.283284 0.423964
v 0.25 0.114804 0.277161
v 0.25 0.195129 0.471083
v -0.25 0.114804 0.277161
v -0.25 0.195129 0.471083
v 0.25 0.0585265 0.294233
v 0.25 0.099476 0.500099
v -0.25 0.0585265 0.294233
v -0.25 0.099476 0.500099
v 0.25 -2.62266e-008 0.299997
v 0.25 -4.45766e-008 0.509897
v -0.25 -2.62266e-008 0.299997
v -0.25 -4.45766e-008 0.509897
v 0.25 -0.0585266 0.294233
v 0.25 -0.0994761 0.500099
v -0.25 -0.0585266 0.294233
v -0.25 -0.0994761 0.500099
v 0.25 -0.114804 0.277161
v 0.25 -0.195129 0.471083
v -0.25 -0.114804 0.277161
v -0.25 -0.195129 0.471083
v 0.25 -0.166669 0.249438
v 0.25 -0.283284 0.423964
v -0.25 -0.166669 0.249438
v -0.25 -0.283284 0.423964
v 0.25 -0.21213 0.21213
v 0.25 -0.360552 0.360551
v -0.25 -0.21213 0.21213
v -0.25 -0.360552 0.360551
v 0.25 -0.249438 0.166669
v 0.25 -0.423964 0.283283
v -0.25 -0.249438 0.166669
v -0.25 -0.423964 0.283283
v 0.25 -0.277161 0.114804
v 0.25 -0.471083 0.195129
v -0.25 -0.277161 0.114804
v -0.25 -0.471083 0.195129
v 0.25 -0.294233 0.0585264
v 0.25 -0.500099 0.0994759
v -0.25 -0.294233 0.0585264
v -0.25 -0.500099 0.0994759
v 0.25 -0.299997 -1.22787e-007
v 0.25 -0.509897 -1.2529e-007
v -0.25 -0.299997 -1.22787e-007
v -0.25 -0.509897 -1.2529e-007
v 0.25 -0.294233 -0.0585267
v 0.25 -0.500099 -0.0994761
v -0.25 -0.294233 -0.0585267
v -0.25 -0.500099 -0.0994761
v 0.25 -0.277161 -0.114804
v 0.25 -0.471083 -0.195129
v -0.25 -0.277161 -0.114804
v -0.25 -0.471083 -0.195129
v 0.25 -0.249438 -0.16667
v 0.25 -0.423964 -0.283284
v -0.25 -0.249438 -0.16667
v -0.25 -0.423964 -0.283284
v 0.25 -0.21213 -0.21213
v 0.25 -0.360552 -0.360552
v -0.25 -0.21213 -0.21213
v -0.25 -0.360552 -0.360552
v 0.25 -0.166669 -0.249439
v 0.25 -0.283284 -0.423964
v -0.25 -0.166669 -0.249439
v -0.25 -0.283284 -0.423964
v 0.25 -0.114804 -0.277161
v 0.25 -0.195129 -0.471084
v -0.25 -0.114804 -0.277161
v -0.25 -0.195129 -0.471084
v 0.25 -0.0585265 -0.294233
v 0.25 -0.0994759 -0.5001
v -0.25 -0.0585265 -0.294233
v -0.25 -0.0994759 -0.5001
v 0.149997 0.44721 -9.96611e-008
v 0.149997 0 -1.19209e-007
v 0.149997 0 -0.44721
v -0.15 0 -0.44721
v -0.15 0 -1.19209e-007
v -0.15 0.44721 -9.96611e-008
v 0.149997 -3.90963e-008 0.44721
v -0.15 -3.90963e-008 0.44721
v 0.149997 -0.44721 -1.24542e-007
v -0.15 -0.44721 -1.24542e-007
v -0.2 0 -0.2
v -0.2 0.0390181 -0.196157
v 0.2 0.0390181 -0.196157
v 0.2 0 -0.2
v -0.2 0.0765367 -0.184776
v 0.2 0.0765367 -0.184776
v -0.2 0.111114 -0.166294
v 0.2 0.111114 -0.166294
v -0.2 0.141421 -0.141421
v 0.2 0.141421 -0.141421
v -0.2 0.166294 -0.111114
v 0.2 0.166294 -0.111114
v -0.2 0.184776 -0.0765367
v 0.2 0.184776 -0.0765367
v -0.2 0.196157 -0.039018
v 0.2 0.196157 -0.039018
v -0.2 0.2 8.74228e-009
v 0.2 0.2 8.74228e-009
v -0.2 0.196157 0.0390181
v 0.2 0.196157 0.0390181
v -0.2 0.184776 0.0765367
v 0.2 0.184776 0.0765367
v -0.2 0.166294 0.111114
v 0.2 0.166294 0.111114
v -0.2 0.141421 0.141421
v 0.2 0.141421 0.141421
v -0.2 0.111114 0.166294
v 0.2 0.111114 0.166294
v -0.2 0.0765367 0.184776
v 0.2 0.0765367 0.184776
v -0.2 0.0390181 0.196157
v 0.2 0.0390181 0.196157
v -0.2 -1.74846e-008 0.2
v 0.2 -1.74846e-008 0.2
v -0.2 -0.0390181 0.196157
v 0.2 -0.0390181 0.196157
v -0.2 -0.0765367 0.184776
v 0.2 -0.0765367 0.184776
v -0.2 -0.111114 0.166294
v 0.2 -0.111114 0.166294
v -0.2 -0.141421 0.141421
v 0.2 -0.141421 0.141421
v -0.2 -0.166294 0.111114
v 0.2 -0.166294 0.111114
v -0.2 -0.184776 0.0765366
v 0.2 -0.184776 0.0765366
v -0.2 -0.196157 0.0390181
v 0.2 -0.196157 0.0390181
v -0.2 -0.2 -2.38498e-009
v 0.2 -0.2 -2.38498e-009
v -0.2 -0.196157 -0.0390181
v 0.2 -0.196157 -0.0390181
v -0.2 -0.184776 -0.0765367
v 0.2 -0.184776 -0.0765367
v -0.2 -0.166294 -0.111114
v 0.2 -0.166294 -0.111114
v -0.2 -0.141421 -0.141421
v 0.2 -0.141421 -0.141421
v -0.2 -0.111114 -0.166294
v 0.2 -0.111114 -0.166294
v -0.2 -0.0765367 -0.184776
v 0.2 -0.0765367 -0.184776
v -0.2 -0.039018 -0.196157
v 0.2 -0.039018 -0.196157
v 0.2 0 0
v 0.2 0 -0.2
v 0.2 0.0390181 -0.196157
v -0.2 0 0
v -0.2 0.0390181 -0.196157
v -0.2 0 -0.2
v 0.2 0.0765367 -0.184776
v -0.2 0.0765367 -0.184776
v 0.2 0.111114 -0.166294
v -0.2 0.111114 -0.166294
v 0.2 0.141421 -0.141421
v -0.2 0.141421 -0.141421
v 0.2 0.166294 -0.111114
v -0.2 0.166294 -0.111114
v 0.2 0.184776 -0.0765367
v -0.2 0.184776 -0.0765367
v 0.2 0.196157 -0.039018
v -0.2 0.196157 -0.039018
v 0.2 0.2 8.74228e-009
v -0.2 0.2 8.74228e-009
v 0.2 0.196157 0.0390181
v -0.2 0.196157 0.0390181
v 0.2 0.184776 0.0765367
v -0.2 0.184776 0.0765367
v 0.2 0.166294 0.111114
v -0.2 0.166294 0.111114
v 0.2 0.141421 0.141421
v -0.2 0.141421 0.141421
v 0.2 0.111114 0.166294
v -0.2 0.111114 0.166294
v 0.2 0.0765367 0.184776
v -0.2 0.0765367 0.184776
v 0.2 0.0390181 0.196157
v -0.2 0.0390181 0.196157
v 0.2 -1.74846e-008 0.2
v -0.2 -1.74846e-008 0.2
v 0.2 -0.0390181 0.196157
v -0.2 -0.0390181 0.196157
v 0.2 -0.0765367 0.184776
v -0.2 -0.0765367 0.184776
v 0.2 -0.111114 0.166294
v -0.2 -0.111114 0.166294
v 0.2 -0.141421 0.141421
v -0.2 -0.141421 0.141421
v 0.2 -0.166294 0.111114
v -0.2 -0.166294 0.111114
v 0.2 -0.184776 0.0765366
v -0.2 -0.184776 0.0765366
v 0.2 -0.196157 0.0390181
v -0.2 -0.196157 0.0390181
v 0.2 -0.2 -2.38498e-009
v -0.2 -0.2 -2.38498e-009
v 0.2 -0.196157 -0.0390181
v -0.2 -0.196157 -0.0390181
v 0.2 -0.184776 -0.0765367
v -0.2 -0.184776 -0.0765367
v 0.2 -0.166294 -0.111114
v -0.2 -0.166294 -0.111114
v 0.2 -0.141421 -0.141421
v -0.2 -0.141421 -0.141421
v 0.2 -0.111114 -0.166294
v -0.2 -0.111114 -0.166294
v 0.2 -0.0765367 -0.184776
v -0.2 -0.0765367 -0.184776
v 0.2 -0.039018 -0.196157
v -0.2 -0.039018 -0.196157


vn -0 0 -1
vn -0 0.19509 -0.980785
vn -0 0.19509 -0.980785
vn -0 0 -1
vn -0 0 1
vn -0 -0.19509 0.980785
vn -0 -0.19509 0.980785
vn -0 0 1
vn -0 0.382683 -0.92388
vn -0 0.382683 -0.92388
vn -0 -0.382683 0.92388
vn -0 -0.382683 0.92388
vn -0 0.55557 -0.83147
vn -0 0.55557 -0.83147
vn -0 -0.55557 0.83147
vn -0 -0.55557 0.83147
vn -0 0.707107 -0.707107
vn -0 0.707107 -0.707107
vn -0 -0.707107 0.707107
vn -0 -0.707107 0.707107
vn -0 0.83147 -0.55557
vn -0 0.83147 -0.55557
vn -0 -0.83147 0.55557
vn -0 -0.83147 0.55557
vn -0 0.92388 -0.382683
vn -0 0.92388 -0.382683
vn -0 -0.92388 0.382683
vn -0 -0.92388 0.382683
vn -0 0.980785 -0.19509
vn -0 0.980785 -0.19509
vn -0 -0.980785 0.19509
vn -0 -0.980785 0.19509
vn -0 1 4.37114e-008
vn -0 1 4.37114e-008
vn -0 -1 -4.37114e-008
vn -0 -1 -4.37114e-008
vn -0 0.980785 0.19509
vn -0 0.980785 0.19509
vn -0 -0.980785 -0.19509
vn -0 -0.980785 -0.19509
vn -0 0.92388 0.382684
vn -0 0.92388 0.382684
vn -0 -0.92388 -0.382684
vn -0 -0.92388 -0.382684
vn -0 0.83147 0.55557
vn -0 0.83147 0.55557
vn -0 -0.83147 -0.55557
vn -0 -0.83147 -0.55557
vn -0 0.707107 0.707107
vn -0 0.707107 0.707107
vn -0 -0.707107 -0.707107
vn -0 -0.707107 -0.707107
vn -0 0.55557 0.83147
vn -0 0.55557 0.83147
vn -0 -0.55557 -0.83147
vn -0 -0.55557 -0.83147
vn -0 0.382683 0.92388
vn -0 0.382683 0.92388
vn -0 -0.382683 -0.92388
vn -0 -0.382683 -0.92388
vn -0 0.19509 0.980785
vn -0 0.19509 0.980785
vn -0 -0.19509 -0.980785
vn -0 -0.19509 -0.980785
vn -0 -8.74228e-008 1
vn -0 -8.74228e-008 1
vn -0 8.74228e-008 -1
vn -0 8.74228e-008 -1
vn -0 -0.19509 0.980785
vn -0 -0.19509 0.980785
vn -0 0.19509 -0.980785
vn -0 0.19509 -0.980785
vn -0 -0.382683 0.92388
vn -0 -0.382683 0.92388
vn -0 0.382683 -0.92388
vn -0 0.382683 -0.92388
vn -0 -0.55557 0.83147
vn -0 -0.55557 0.83147
vn -0 0.55557 -0.83147
vn -0 0.55557 -0.83147
vn -0 -0.707107 0.707107
vn -0 -0.707107 0.707107
vn -0 0.707107 -0.707107
vn -0 0.707107 -0.707107
vn -0 -0.83147 0.55557
vn -0 -0.83147 0.55557
vn -0 0.83147 -0.55557
vn -0 0.83147 -0.55557
vn -0 -0.92388 0.382683
vn -0 -0.92388 0.382683
vn -0 0.92388 -0.382683
vn -0 0.92388 -0.382683
vn -0 -0.980785 0.19509
vn -0 -0.980785 0.19509
vn -0 0.980785 -0.19509
vn -0 0.980785 -0.19509
vn -0 -1 -1.19249e-008
vn -0 -1 -1.19249e-008
vn -0 1 1.19249e-008
vn -0 1 1.19249e-008
vn -0 -0.980785 -0.19509
vn -0 -0.980785 -0.19509
vn -0 0.980785 0.19509
vn -0 0.980785 0.19509
vn -0 -0.923879 -0.382684
vn -0 -0.923879 -0.382684
vn -0 0.923879 0.382684
vn -0 0.923879 0.382684
vn -0 -0.831469 -0.55557
vn -0 -0.831469 -0.55557
vn -0 0.831469 0.55557
vn -0 0.831469 0.55557
vn -0 -0.707107 -0.707107
vn -0 -0.707107 -0.707107
vn -0 0.707107 0.707107
vn -0 0.707107 0.707107
vn -0 -0.55557 -0.83147
vn -0 -0.55557 -0.83147
vn -0 0.55557 0.83147
vn -0 0.55557 0.83147
vn -0 -0.382683 -0.92388
vn -0 -0.382683 -0.92388
vn -0 0.382683 0.92388
vn -0 0.382683 0.92388
vn -0 -0.19509 -0.980785
vn -0 -0.19509 -0.980785
vn -0 0.19509 0.980785
vn -0 0.19509 0.980785
vn 1 0 0
vn 1 0 0
vn 1 0 0
vn 1 0 0
vn -1 0 0
vn -1 0 0
vn -1 0 0
vn -1 0 0
vn 1 0 0
vn 1 0 0
vn -1 0 0
vn -1 0 0
vn 1 0 0
vn 1 0 0
vn -1 0 0
vn -1 0 0
vn 1 0 0
vn 1 0 0
vn -1 0 0
vn -1 0 0
vn 1 0 0
vn 1 0 0
vn -1 0 0
vn -1 0 0
vn 1 0 0
vn 1 0 0
vn -1 0 0
vn -1 0 0
vn 1 0 0
vn 1 0 0
vn -1 0 0
vn -1 0 0
vn 1 0 0
vn 1 0 0
vn -1 0 0
vn -1 0 0
vn 1 0 0
vn 1 0 0
vn -1 0 0
vn -1 0 0
vn 1 0 0
vn 1 0 0
vn -1 0 0
vn -1 0 0
vn 1 0 0
vn 1 0 0
vn -1 0 0
vn -1 0 0
vn 1 0 0
vn 1 0 0
vn -1 0 0
vn -1 0 0
vn 1 0 0
vn 1 0 0
vn -1 0 0
vn -1 0 0
vn 1 0 0
vn 1 0 0
vn -1 0 0
vn -1 0 0
vn 1 0 0
vn 1 0 0
vn -1 0 0
vn -1 0 0
vn 1 0 0
vn 1 0 0
vn -1 0 0
vn -1 0 0
vn 1 0 0
vn 1 0 0
vn -1 0 0
vn -1 0 0
vn 1 0 0
vn 1 0 0
vn -1 0 0
vn -1 0 0
vn 1 0 0
vn 1 0 0
vn -1 0 0
vn -1 0 0
vn 1 0 0
vn 1 0 0
vn -1 0 0
vn -1 0 0
vn 1 0 0
vn 1 0 0
vn -1 0 0
vn -1 0 0
vn 1 0 0
vn 1 0 0
vn -1 0 0
vn -1 0 0
vn 1 0 0
vn 1 0 0
vn -1 0 0
vn -1 0 0
vn 1 0 0
vn 1 0 0
vn -1 0 0
vn -1 0 0
vn 1 0 0
vn 1 0 0
vn -1 0 0
vn -1 0 0
vn 1 0 0
vn 1 0 0
vn -1 0 0
vn -1 0 0
vn 1 0 0
vn 1 0 0
vn -1 0 0
vn -1 0 0
vn 1 0 0
vn 1 0 0
vn -1 0 0
vn -1 0 0
vn 1 0 0
vn 1 0 0
vn -1 0 0
vn -1 0 0
vn 1 0 0
vn 1 0 0
vn -1 0 0
vn -1 0 0
vn 1 0 0
vn 1 0 0
vn -1 0 0
vn -1 0 0
vn 1 0 0
vn 1 0 0
vn 1 0 0
vn -1 0 0
vn -1 0 0
vn -1 0 0
vn 1 0 0
vn -1 0 0
vn 1 0 0
vn -1 0 0
vn -0 0 -1
vn -0 0.19509 -0.980785
vn -0 0.19509 -0.980785
vn -0 0 -1
vn -0 0.382683 -0.92388
vn -0 0.382683 -0.92388
vn -0 0.55557 -0.83147
vn -0 0.55557 -0.83147
vn -0 0.707107 -0.707107
vn -0 0.707107 -0.707107
vn -0 0.83147 -0.55557
vn -0 0.83147 -0.55557
vn -0 0.92388 -0.382683
vn -0 0.92388 -0.382683
vn -0 0.980785 -0.19509
vn -0 0.980785 -0.19509
vn -0 1 4.37114e-008
vn -0 1 4.37114e-008
vn -0 0.980785 0.19509
vn -0 0.980785 0.19509
vn -0 0.92388 0.382684
vn -0 0.92388 0.382684
vn -0 0.83147 0.55557
vn -0 0.83147 0.55557
vn -0 0.707107 0.707107
vn -0 0.707107 0.707107
vn -0 0.55557 0.83147
vn -0 0.55557 0.83147
vn -0 0.382683 0.92388
vn -0 0.382683 0.92388
vn -0 0.19509 0.980785
vn -0 0.19509 0.980785
vn -0 -8.74228e-008 1
vn -0 -8.74228e-008 1
vn -0 -0.19509 0.980785
vn -0 -0.19509 0.980785
vn -0 -0.382683 0.92388
vn -0 -0.382683 0.92388
vn -0 -0.55557 0.83147
vn -0 -0.55557 0.83147
vn -0 -0.707107 0.707107
vn -0 -0.707107 0.707107
vn -0 -0.83147 0.55557
vn -0 -0.83147 0.55557
vn -0 -0.92388 0.382683
vn -0 -0.92388 0.382683
vn -0 -0.980785 0.19509
vn -0 -0.980785 0.19509
vn -0 -1 -1.19249e-008
vn -0 -1 -1.19249e-008
vn -0 -0.980785 -0.19509
vn -0 -0.980785 -0.19509
vn -0 -0.923879 -0.382684
vn -0 -0.923879 -0.382684
vn -0 -0.831469 -0.55557
vn -0 -0.831469 -0.55557
vn -0 -0.707107 -0.707107
vn -0 -0.707107 -0.707107
vn -0 -0.55557 -0.83147
vn -0 -0.55557 -0.83147
vn -0 -0.382683 -0.92388
vn -0 -0.382683 -0.92388
vn -0 -0.19509 -0.980785
vn -0 -0.19509 -0.980785
vn 1 0 0
vn 1 0 0
vn 1 0 0
vn -1 0 0
vn -1 0 0
vn -1 0 0
vn 1 0 0
vn -1 0 0
vn 1 0 0
vn -1 0 0
vn 1 0 0
vn -1 0 0
vn 1 0 0
vn -1 0 0
vn 1 0 0
vn -1 0 0
vn 1 0 0
vn -1 0 0
vn 1 0 0
vn -1 0 0
vn 1 0 0
vn -1 0 0
vn 1 0 0
vn -1 0 0
vn 1 0 0
vn -1 0 0
vn 1 0 0
vn -1 0 0
vn 1 0 0
vn -1 0 0
vn 1 0 0
vn -1 0 0
vn 1 0 0
vn -1 0 0
vn 1 0 0
vn -1 0 0
vn 1 0 0
vn -1 0 0
vn 1 0 0
vn -1 0 0
vn 1 0 0
vn -1 0 0
vn 1 0 0
vn -1 0 0
vn 1 0 0
vn -1 0 0
vn 1 0 0
vn -1 0 0
vn 1 0 0
vn -1 0 0
vn 1 0 0
vn -1 0 0
vn 1 0 0
vn -1 0 0
vn 1 0 0
vn -1 0 0
vn 1 0 0
vn -1 0 0
vn 1 0 0
vn -1 0 0
vn 1 0 0
vn -1 0 0
vn 1 0 0
vn -1 0 0
vn 1 0 0
vn -1 0 0


vt 0 1
vt 1 0.901825
vt 0 0.901825
vt 1 1
vt 1 1
vt 0 0.901825
vt 1 0.901825
vt 0 1
vt 1 0.80365
vt 0 0.80365
vt 0 0.80365
vt 1 0.80365
vt 1 0.705476
vt 0 0.705476
vt 0 0.705476
vt 1 0.705476
vt 1 0.607301
vt 0 0.607301
vt 0 0.607301
vt 1 0.607301
vt 1 0.509126
vt 0 0.509126
vt 0 0.509126
vt 1 0.509126
vt 1 0.410951
vt 0 0.410951
vt 0 0.410951
vt 1 0.410951
vt 1 0.312777
vt 0 0.312777
vt 0 0.312777
vt 1 0.312777
vt 1 0.214602
vt 0 0.214602
vt 0 0.214602
vt 1 0.214602
vt 1 0.116427
vt 0 0.116427
vt 0 0.116427
vt 1 0.116427
vt 1 0.0182523
vt 0 0.0182523
vt 0 0.0182523
vt 1 0.0182523
vt 1 -0.0799226
vt 0 -0.0799226
vt 0 -0.0799226
vt 1 -0.0799226
vt 1 -0.178097
vt 0 -0.178097
vt 0 -0.178097
vt 1 -0.178097
vt 1 -0.276272
vt 0 -0.276272
vt 0 -0.276272
vt 1 -0.276272
vt 1 -0.374447
vt 0 -0.374447
vt 0 -0.374447
vt 1 -0.374447
vt 1 -0.472622
vt 0 -0.472622
vt 0 -0.472622
vt 1 -0.472622
vt 1 -0.570796
vt 0 -0.570796
vt 0 -0.570796
vt 1 -0.570796
vt 1 -0.668971
vt 0 -0.668971
vt 0 -0.668971
vt 1 -0.668971
vt 1 -0.767146
vt 0 -0.767146
vt 0 -0.767146
vt 1 -0.767146
vt 1 -0.865321
vt 0 -0.865321
vt 0 -0.865321
vt 1 -0.865321
vt 1 -0.963495
vt 0 -0.963495
vt 0 -0.963495
vt 1 -0.963495
vt 1 -1.06167
vt 0 -1.06167
vt 0 -1.06167
vt 1 -1.06167
vt 1 -1.15985
vt 0 -1.15985
vt 0 -1.15985
vt 1 -1.15985
vt 1 -1.25802
vt 0 -1.25802
vt 0 -1.25802
vt 1 -1.25802
vt 1 -1.35619
vt 0 -1.35619
vt 0 -1.35619
vt 1 -1.35619
vt 1 -1.45437
vt 0 -1.45437
vt 0 -1.45437
vt 1 -1.45437
vt 1 -1.55254
vt 0 -1.55254
vt 0 -1.55254
vt 1 -1.55254
vt 1 -1.65072
vt 0 -1.65072
vt 0 -1.65072
vt 1 -1.65072
vt 1 -1.74889
vt 0 -1.74889
vt 0 -1.74889
vt 1 -1.74889
vt 1 -1.84707
vt 0 -1.84707
vt 0 -1.84707
vt 1 -1.84707
vt 1 -1.94524
vt 0 -1.94524
vt 0 -1.94524
vt 1 -1.94524
vt 1 -2.04342
vt 0 -2.04342
vt 0 -2.04342
vt 1 -2.04342
vt 0 1
vt 0.0981748 0
vt 0 0
vt 0.0981748 1
vt 0 1
vt 0.0981748 0
vt 0.0981748 1
vt 0 0
vt 0.19635 0
vt 0.19635 1
vt 0.19635 0
vt 0.19635 1
vt 0.294524 0
vt 0.294524 1
vt 0.294524 0
vt 0.294524 1
vt 0.392699 0
vt 0.392699 1
vt 0.392699 0
vt 0.392699 1
vt 0.490874 0
vt 0.490874 1
vt 0.490874 0
vt 0.490874 1
vt 0.589049 0
vt 0.589049 1
vt 0.589049 0
vt 0.589049 1
vt 0.687223 0
vt 0.687223 1
vt 0.687223 0
vt 0.687223 1
vt 0.785398 0
vt 0.785398 1
vt 0.785398 0
vt 0.785398 1
vt 0.883573 0
vt 0.883573 1
vt 0.883573 0
vt 0.883573 1
vt 0.981748 0
vt 0.981748 1
vt 0.981748 0
vt 0.981748 1
vt 1.07992 0
vt 1.07992 1
vt 1.07992 0
vt 1.07992 1
vt 1.1781 0
vt 1.1781 1
vt 1.1781 0
vt 1.1781 1
vt 1.27627 0
vt 1.27627 1
vt 1.27627 0
vt 1.27627 1
vt 1.37445 0
vt 1.37445 1
vt 1.37445 0
vt 1.37445 1
vt 1.47262 0
vt 1.47262 1
vt 1.47262 0
vt 1.47262 1
vt 1.5708 0
vt 1.5708 1
vt 1.5708 0
vt 1.5708 1
vt 1.66897 0
vt 1.66897 1
vt 1.66897 0
vt 1.66897 1
vt 1.76715 0
vt 1.76715 1
vt 1.76715 0
vt 1.76715 1
vt 1.86532 0
vt 1.86532 1
vt 1.86532 0
vt 1.86532 1
vt 1.9635 0
vt 1.9635 1
vt 1.9635 0
vt 1.9635 1
vt 2.06167 0
vt 2.06167 1
vt 2.06167 0
vt 2.06167 1
vt 2.15985 0
vt 2.15985 1
vt 2.15985 0
vt 2.15985 1
vt 2.25802 0
vt 2.25802 1
vt 2.25802 0
vt 2.25802 1
vt 2.35619 0
vt 2.35619 1
vt 2.35619 0
vt 2.35619 1
vt 2.45437 0
vt 2.45437 1
vt 2.45437 0
vt 2.45437 1
vt 2.55254 0
vt 2.55254 1
vt 2.55254 0
vt 2.55254 1
vt 2.65072 0
vt 2.65072 1
vt 2.65072 0
vt 2.65072 1
vt 2.74889 0
vt 2.74889 1
vt 2.74889 0
vt 2.74889 1
vt 2.84707 0
vt 2.84707 1
vt 2.84707 0
vt 2.84707 1
vt 2.94524 0
vt 2.94524 1
vt 2.94524 0
vt 2.94524 1
vt 3.04342 0
vt 3.04342 1
vt 3.04342 0
vt 3.04342 1
vt 0.5 0
vt 0.5 0.5
vt 1 0.5
vt 1 0.5
vt 0.5 0.5
vt 0.5 0
vt 0 0.5
vt 0 0.5
vt 0.5 1
vt 0.5 1
vt 1 1
vt 1 0.901825
vt 0 0.901825
vt 0 1
vt 1 0.80365
vt 0 0.80365
vt 1 0.705476
vt 0 0.705476
vt 1 0.607301
vt 0 0.607301
vt 1 0.509126
vt 0 0.509126
vt 1 0.410951
vt 0 0.410951
vt 1 0.312777
vt 0 0.312777
vt 1 0.214602
vt 0 0.214602
vt 1 0.116427
vt 0 0.116427
vt 1 0.0182523
vt 0 0.0182523
vt 1 -0.0799226
vt 0 -0.0799226
vt 1 -0.178097
vt 0 -0.178097
vt 1 -0.276272
vt 0 -0.276272
vt 1 -0.374447
vt 0 -0.374447
vt 1 -0.472622
vt 0 -0.472622
vt 1 -0.570796
vt 0 -0.570796
vt 1 -0.668971
vt 0 -0.668971
vt 1 -0.767146
vt 0 -0.767146
vt 1 -0.865321
vt 0 -0.865321
vt 1 -0.963495
vt 0 -0.963495
vt 1 -1.06167
vt 0 -1.06167
vt 1 -1.15985
vt 0 -1.15985
vt 1 -1.25802
vt 0 -1.25802
vt 1 -1.35619
vt 0 -1.35619
vt 1 -1.45437
vt 0 -1.45437
vt 1 -1.55254
vt 0 -1.55254
vt 1 -1.65072
vt 0 -1.65072
vt 1 -1.74889
vt 0 -1.74889
vt 1 -1.84707
vt 0 -1.84707
vt 1 -1.94524
vt 0 -1.94524
vt 1 -2.04342
vt 0 -2.04342
vt 0.5 0.5
vt 1 0.5
vt 0.990393 0.402455
vt 0.5 0.5
vt 0.990393 0.402455
vt 1 0.5
vt 0.96194 0.308658
vt 0.96194 0.308658
vt 0.915735 0.222215
vt 0.915735 0.222215
vt 0.853553 0.146447
vt 0.853553 0.146447
vt 0.777785 0.0842652
vt 0.777785 0.0842652
vt 0.691342 0.0380602
vt 0.691342 0.0380602
vt 0.597545 0.00960732
vt 0.597545 0.00960732
vt 0.5 0
vt 0.5 0
vt 0.402455 0.00960737
vt 0.402455 0.00960737
vt 0.308658 0.0380602
vt 0.308658 0.0380602
vt 0.222215 0.0842652
vt 0.222215 0.0842652
vt 0.146447 0.146447
vt 0.146447 0.146447
vt 0.0842652 0.222215
vt 0.0842652 0.222215
vt 0.0380602 0.308658
vt 0.0380602 0.308658
vt 0.00960734 0.402455
vt 0.00960734 0.402455
vt 0 0.5
vt 0 0.5
vt 0.00960737 0.597545
vt 0.00960737 0.597545
vt 0.0380602 0.691342
vt 0.0380602 0.691342
vt 0.0842652 0.777785
vt 0.0842652 0.777785
vt 0.146447 0.853553
vt 0.146447 0.853553
vt 0.222215 0.915735
vt 0.222215 0.915735
vt 0.308658 0.96194
vt 0.308658 0.96194
vt 0.402455 0.990393
vt 0.402455 0.990393
vt 0.5 1
vt 0.5 1
vt 0.597545 0.990393
vt 0.597545 0.990393
vt 0.691342 0.96194
vt 0.691342 0.96194
vt 0.777785 0.915735
vt 0.777785 0.915735
vt 0.853554 0.853553
vt 0.853554 0.853553
vt 0.915735 0.777785
vt 0.915735 0.777785
vt 0.96194 0.691342
vt 0.96194 0.691342
vt 0.990393 0.597545
vt 0.990393 0.597545


usemtl Default_Material

f 267/267/267 268/268/268 269/269/269 270/270/270
f 268/268/268 271/271/271 272/272/272 269/269/269
f 271/271/271 273/273/273 274/274/274 272/272/272
f 273/273/273 275/275/275 276/276/276 274/274/274
f 275/275/275 277/277/277 278/278/278 276/276/276
f 277/277/277 279/279/279 280/280/280 278/278/278
f 279/279/279 281/281/281 282/282/282 280/280/280
f 281/281/281 283/283/283 284/284/284 282/282/282
f 283/283/283 285/285/285 286/286/286 284/284/284
f 285/285/285 287/287/287 288/288/288 286/286/286
f 287/287/287 289/289/289 290/290/290 288/288/288
f 289/289/289 291/291/291 292/292/292 290/290/290
f 291/291/291 293/293/293 294/294/294 292/292/292
f 293/293/293 295/295/295 296/296/296 294/294/294
f 295/295/295 297/297/297 298/298/298 296/296/296
f 297/297/297 299/299/299 300/300/300 298/298/298
f 299/299/299 301/301/301 302/302/302 300/300/300
f 301/301/301 303/303/303 304/304/304 302/302/302
f 303/303/303 305/305/305 306/306/306 304/304/304
f 305/305/305 307/307/307 308/308/308 306/306/306
f 307/307/307 309/309/309 310/310/310 308/308/308
f 309/309/309 311/311/311 312/312/312 310/310/310
f 311/311/311 313/313/313 314/314/314 312/312/312
f 313/313/313 315/315/315 316/316/316 314/314/314
f 315/315/315 317/317/317 318/318/318 316/316/316
f 317/317/317 319/319/319 320/320/320 318/318/318
f 319/319/319 321/321/321 322/322/322 320/320/320
f 321/321/321 323/323/323 324/324/324 322/322/322
f 323/323/323 325/325/325 326/326/326 324/324/324
f 325/325/325 327/327/327 328/328/328 326/326/326
f 327/327/327 329/329/329 330/330/330 328/328/328
f 329/329/329 267/267/267 270/270/270 330/330/330
f 331/331/331 332/332/332 333/333/333
f 334/334/334 335/335/335 336/336/336
f 331/331/331 333/333/333 337/337/337
f 334/334/334 338/338/338 335/335/335
f 331/331/331 337/337/337 339/339/339
f 334/334/334 340/340/340 338/338/338
f 331/331/331 339/339/339 341/341/341
f 334/334/334 342/342/342 340/340/340
f 331/331/331 341/341/341 343/343/343
f 334/334/334 344/344/344 342/342/342
f 331/331/331 343/343/343 345/345/345
f 334/334/334 346/346/346 344/344/344
f 331/331/331 345/345/345 347/347/347
f 334/334/334 348/348/348 346/346/346
f 331/331/331 347/347/347 349/349/349
f 334/334/334 350/350/350 348/348/348
f 331/331/331 349/349/349 351/351/351
f 334/334/334 352/352/352 350/350/350
f 331/331/331 351/351/351 353/353/353
f 334/334/334 354/354/354 352/352/352
f 331/331/331 353/353/353 355/355/355
f 334/334/334 356/356/356 354/354/354
f 331/331/331 355/355/355 357/357/357
f 334/334/334 358/358/358 356/356/356
f 331/331/331 357/357/357 359/359/359
f 334/334/334 360/360/360 358/358/358
f 331/331/331 359/359/359 361/361/361
f 334/334/334 362/362/362 360/360/360
f 331/331/331 361/361/361 363/363/363
f 334/334/334 364/364/364 362/362/362
f 331/331/331 363/363/363 365/365/365
f 334/334/334 366/366/366 364/364/364
f 331/331/331 365/365/365 367/367/367
f 334/334/334 368/368/368 366/366/366
f 331/331/331 367/367/367 369/369/369
f 334/334/334 370/370/370 368/368/368
f 331/331/331 369/369/369 371/371/371
f 334/334/334 372/372/372 370/370/370
f 331/331/331 371/371/371 373/373/373
f 334/334/334 374/374/374 372/372/372
f 331/331/331 373/373/373 375/375/375
f 334/334/334 376/376/376 374/374/374
f 331/331/331 375/375/375 377/377/377
f 334/334/334 378/378/378 376/376/376
f 331/331/331 377/377/377 379/379/379
f 334/334/334 380/380/380 378/378/378
f 331/331/331 379/379/379 381/381/381
f 334/334/334 382/382/382 380/380/380
f 331/331/331 381/381/381 383/383/383
f 334/334/334 384/384/384 382/382/382
f 331/331/331 383/383/383 385/385/385
f 334/334/334 386/386/386 384/384/384
f 331/331/331 385/385/385 387/387/387
f 334/334/334 388/388/388 386/386/386
f 331/331/331 387/387/387 389/389/389
f 334/334/334 390/390/390 388/388/388
f 331/331/331 389/389/389 391/391/391
f 334/334/334 392/392/392 390/390/390
f 331/331/331 391/391/391 393/393/393
f 334/334/334 394/394/394 392/392/392
f 331/331/331 393/393/393 395/395/395
f 334/334/334 396/396/396 394/394/394
f 331/331/331 395/395/395 332/332/332
f 334/334/334 336/336/336 396/396/396
usemtl Matte__FF000000

f 1/1/1 2/2/2 3/3/3
f 4/4/4 2/2/2 1/1/1
f 5/5/5 6/6/6 7/7/7
f 8/8/8 6/6/6 5/5/5
f 3/3/3 9/9/9 10/10/10
f 2/2/2 9/9/9 3/3/3
f 7/7/7 11/11/11 12/12/12
f 6/6/6 11/11/11 7/7/7
f 10/10/10 13/13/13 14/14/14
f 9/9/9 13/13/13 10/10/10
f 12/12/12 15/15/15 16/16/16
f 11/11/11 15/15/15 12/12/12
f 14/14/14 17/17/17 18/18/18
f 13/13/13 17/17/17 14/14/14
f 16/16/16 19/19/19 20/20/20
f 15/15/15 19/19/19 16/16/16
f 18/18/18 21/21/21 22/22/22
f 17/17/17 21/21/21 18/18/18
f 20/20/20 23/23/23 24/24/24
f 19/19/19 23/23/23 20/20/20
f 22/22/22 25/25/25 26/26/26
f 21/21/21 25/25/25 22/22/22
f 24/24/24 27/27/27 28/28/28
f 23/23/23 27/27/27 24/24/24
f 26/26/26 29/29/29 30/30/30
f 25/25/25 29/29/29 26/26/26
f 28/28/28 31/31/31 32/32/32
f 27/27/27 31/31/31 28/28/28
f 30/30/30 33/33/33 34/34/34
f 29/29/29 33/33/33 30/30/30
f 32/32/32 35/35/35 36/36/36
f 31/31/31 35/35/35 32/32/32
f 34/34/34 37/37/37 38/38/38
f 33/33/33 37/37/37 34/34/34
f 36/36/36 39/39/39 40/40/40
f 35/35/35 39/39/39 36/36/36
f 38/38/38 41/41/41 42/42/42
f 37/37/37 41/41/41 38/38/38
f 40/40/40 43/43/43 44/44/44
f 39/39/39 43/43/43 40/40/40
f 42/42/42 45/45/45 46/46/46
f 41/41/41 45/45/45 42/42/42
f 44/44/44 47/47/47 48/48/48
f 43/43/43 47/47/47 44/44/44
f 46/46/46 49/49/49 50/50/50
f 45/45/45 49/49/49 46/46/46
f 48/48/48 51/51/51 52/52/52
f 47/47/47 51/51/51 48/48/48
f 50/50/50 53/53/53 54/54/54
f 49/49/49 53/53/53 50/50/50
f 52/52/52 55/55/55 56/56/56
f 51/51/51 55/55/55 52/52/52
f 54/54/54 57/57/57 58/58/58
f 53/53/53 57/57/57 54/54/54
f 56/56/56 59/59/59 60/60/60
f 55/55/55 59/59/59 56/56/56
f 58/58/58 61/61/61 62/62/62
f 57/57/57 61/61/61 58/58/58
f 60/60/60 63/63/63 64/64/64
f 59/59/59 63/63/63 60/60/60
f 62/62/62 65/65/65 66/66/66
f 61/61/61 65/65/65 62/62/62
f 64/64/64 67/67/67 68/68/68
f 63/63/63 67/67/67 64/64/64
f 66/66/66 69/69/69 70/70/70
f 65/65/65 69/69/69 66/66/66
f 68/68/68 71/71/71 72/72/72
f 67/67/67 71/71/71 68/68/68
f 70/70/70 73/73/73 74/74/74
f 69/69/69 73/73/73 70/70/70
f 72/72/72 75/75/75 76/76/76
f 71/71/71 75/75/75 72/72/72
f 74/74/74 77/77/77 78/78/78
f 73/73/73 77/77/77 74/74/74
f 76/76/76 79/79/79 80/80/80
f 75/75/75 79/79/79 76/76/76
f 78/78/78 81/81/81 82/82/82
f 77/77/77 81/81/81 78/78/78
f 80/80/80 83/83/83 84/84/84
f 79/79/79 83/83/83 80/80/80
f 82/82/82 85/85/85 86/86/86
f 81/81/81 85/85/85 82/82/82
f 84/84/84 87/87/87 88/88/88
f 83/83/83 87/87/87 84/84/84
f 86/86/86 89/89/89 90/90/90
f 85/85/85 89/89/89 86/86/86
f 88/88/88 91/91/91 92/92/92
f 87/87/87 91/91/91 88/88/88
f 90/90/90 93/93/93 94/94/94
f 89/89/89 93/93/93 90/90/90
f 92/92/92 95/95/95 96/96/96
f 91/91/91 95/95/95 92/92/92
f 94/94/94 97/97/97 98/98/98
f 93/93/93 97/97/97 94/94/94
f 96/96/96 99/99/99 100/100/100
f 95/95/95 99/99/99 96/96/96
f 98/98/98 101/101/101 102/102/102
f 97/97/97 101/101/101 98/98/98
f 100/100/100 103/103/103 104/104/104
f 99/99/99 103/103/103 100/100/100
f 102/102/102 105/105/105 106/106/106
f 101/101/101 105/105/105 102/102/102
f 104/104/104 107/107/107 108/108/108
f 103/103/103 107/107/107 104/104/104
f 106/106/106 109/109/109 110/110/110
f 105/105/105 109/109/109 106/106/106
f 108/108/108 111/111/111 112/112/112
f 107/107/107 111/111/111 108/108/108
f 110/110/110 113/113/113 114/114/114
f 109/109/109 113/113/113 110/110/110
f 112/112/112 115/115/115 116/116/116
f 111/111/111 115/115/115 112/112/112
f 114/114/114 117/117/117 118/118/118
f 113/113/113 117/117/117 114/114/114
f 116/116/116 119/119/119 120/120/120
f 115/115/115 119/119/119 116/116/116
f 118/118/118 121/121/121 122/122/122
f 117/117/117 121/121/121 118/118/118
f 120/120/120 123/123/123 124/124/124
f 119/119/119 123/123/123 120/120/120
f 122/122/122 125/125/125 126/126/126
f 121/121/121 125/125/125 122/122/122
f 124/124/124 127/127/127 128/128/128
f 123/123/123 127/127/127 124/124/124
f 126/126/126 4/4/4 1/1/1
f 125/125/125 4/4/4 126/126/126
f 128/128/128 8/8/8 5/5/5
f 127/127/127 8/8/8 128/128/128
f 129/129/129 130/130/130 131/131/131
f 132/132/132 130/130/130 129/129/129
f 133/133/133 134/134/134 135/135/135
f 136/136/136 134/134/134 133/133/133
f 132/132/132 137/137/137 130/130/130
f 138/138/138 137/137/137 132/132/132
f 135/135/135 139/139/139 140/140/140
f 134/134/134 139/139/139 135/135/135
f 138/138/138 141/141/141 137/137/137
f 142/142/142 141/141/141 138/138/138
f 140/140/140 143/143/143 144/144/144
f 139/139/139 143/143/143 140/140/140
f 142/142/142 145/145/145 141/141/141
f 146/146/146 145/145/145 142/142/142
f 144/144/144 147/147/147 148/148/148
f 143/143/143 147/147/147 144/144/144
f 146/146/146 149/149/149 145/145/145
f 150/150/150 149/149/149 146/146/146
f 148/148/148 151/151/151 152/152/152
f 147/147/147 151/151/151 148/148/148
f 150/150/150 153/153/153 149/149/149
f 154/154/154 153/153/153 150/150/150
f 152/152/152 155/155/155 156/156/156
f 151/151/151 155/155/155 152/152/152
f 154/154/154 157/157/157 153/153/153
f 158/158/158 157/157/157 154/154/154
f 156/156/156 159/159/159 160/160/160
f 155/155/155 159/159/159 156/156/156
f 158/158/158 161/161/161 157/157/157
f 162/162/162 161/161/161 158/158/158
f 160/160/160 163/163/163 164/164/164
f 159/159/159 163/163/163 160/160/160
f 162/162/162 165/165/165 161/161/161
f 166/166/166 165/165/165 162/162/162
f 164/164/164 167/167/167 168/168/168
f 163/163/163 167/167/167 164/164/164
f 166/166/166 169/169/169 165/165/165
f 170/170/170 169/169/169 166/166/166
f 168/168/168 171/171/171 172/172/172
f 167/167/167 171/171/171 168/168/168
f 170/170/170 173/173/173 169/169/169
f 174/174/174 173/173/173 170/170/170
f 172/172/172 175/175/175 176/176/176
f 171/171/171 175/175/175 172/172/172
f 174/174/174 177/177/177 173/173/173
f 178/178/178 177/177/177 174/174/174
f 176/176/176 179/179/179 180/180/180
f 175/175/175 179/179/179 176/176/176
f 178/178/178 181/181/181 177/177/177
f 182/182/182 181/181/181 178/178/178
f 180/180/180 183/183/183 184/184/184
f 179/179/179 183/183/183 180/180/180
f 182/182/182 185/185/185 181/181/181
f 186/186/186 185/185/185 182/182/182
f 184/184/184 187/187/187 188/188/188
f 183/183/183 187/187/187 184/184/184
f 186/186/186 189/189/189 185/185/185
f 190/190/190 189/189/189 186/186/186
f 188/188/188 191/191/191 192/192/192
f 187/187/187 191/191/191 188/188/188
f 190/190/190 193/193/193 189/189/189
f 194/194/194 193/193/193 190/190/190
f 192/192/192 195/195/195 196/196/196
f 191/191/191 195/195/195 192/192/192
f 194/194/194 197/197/197 193/193/193
f 198/198/198 197/197/197 194/194/194
f 196/196/196 199/199/199 200/200/200
f 195/195/195 199/199/199 196/196/196
f 198/198/198 201/201/201 197/197/197
f 202/202/202 201/201/201 198/198/198
f 200/200/200 203/203/203 204/204/204
f 199/199/199 203/203/203 200/200/200
f 202/202/202 205/205/205 201/201/201
f 206/206/206 205/205/205 202/202/202
f 204/204/204 207/207/207 208/208/208
f 203/203/203 207/207/207 204/204/204
f 206/206/206 209/209/209 205/205/205
f 210/210/210 209/209/209 206/206/206
f 208/208/208 211/211/211 212/212/212
f 207/207/207 211/211/211 208/208/208
f 210/210/210 213/213/213 209/209/209
f 214/214/214 213/213/213 210/210/210
f 212/212/212 215/215/215 216/216/216
f 211/211/211 215/215/215 212/212/212
f 214/214/214 217/217/217 213/213/213
f 218/218/218 217/217/217 214/214/214
f 216/216/216 219/219/219 220/220/220
f 215/215/215 219/219/219 216/216/216
f 218/218/218 221/221/221 217/217/217
f 222/222/222 221/221/221 218/218/218
f 220/220/220 223/223/223 224/224/224
f 219/219/219 223/223/223 220/220/220
f 222/222/222 225/225/225 221/221/221
f 226/226/226 225/225/225 222/222/222
f 224/224/224 227/227/227 228/228/228
f 223/223/223 227/227/227 224/224/224
f 226/226/226 229/229/229 225/225/225
f 230/230/230 229/229/229 226/226/226
f 228/228/228 231/231/231 232/232/232
f 227/227/227 231/231/231 228/228/228
f 230/230/230 233/233/233 229/229/229
f 234/234/234 233/233/233 230/230/230
f 232/232/232 235/235/235 236/236/236
f 231/231/231 235/235/235 232/232/232
f 234/234/234 237/237/237 233/233/233
f 238/238/238 237/237/237 234/234/234
f 236/236/236 239/239/239 240/240/240
f 235/235/235 239/239/239 236/236/236
f 238/238/238 241/241/241 237/237/237
f 242/242/242 241/241/241 238/238/238
f 240/240/240 243/243/243 244/244/244
f 239/239/239 243/243/243 240/240/240
f 242/242/242 245/245/245 241/241/241
f 246/246/246 245/245/245 242/242/242
f 244/244/244 247/247/247 248/248/248
f 243/243/243 247/247/247 244/244/244
f 246/246/246 249/249/249 245/245/245
f 250/250/250 249/249/249 246/246/246
f 248/248/248 251/251/251 252/252/252
f 247/247/247 251/251/251 248/248/248
f 250/250/250 253/253/253 249/249/249
f 254/254/254 253/253/253 250/250/250
f 252/252/252 255/255/255 256/256/256
f 251/251/251 255/255/255 252/252/252
f 254/254/254 131/131/131 253/253/253
f 129/129/129 131/131/131 254/254/254
f 256/256/256 136/136/136 133/133/133
f 255/255/255 136/136/136 256/256/256
usemtl Matte__FFFFFFFF

f 257/257/257 258/258/258 259/259/259
f 260/260/260 261/261/261 262/262/262
f 263/263/263 258/258/258 257/257/257
f 262/262/262 261/261/261 264/264/264
f 265/265/265 258/258/258 263/263/263
f 264/264/264 261/261/261 266/266/266
f 259/259/259 258/258/258 265/265/265
f 266/266/266 261/261/261 260/260/260
