# Exported by ZModeler 2.2.4 (Build 981) with WavefrontOBJ filter (Build 45)
# 

mtllib chassi.mtl

v -0.9 -4.4 1.85
v -2 -4.4 1.85
v -2 -3.91227 1.89804
v -0.9 -3.91227 1.89804
v -2 -4.4 2.05
v -0.9 -4.4 2.05
v -0.9 -3.95129 2.09419
v -2 -3.95129 2.09419
v -2 -3.44329 2.0403
v -0.9 -3.44329 2.0403
v -0.9 -3.51983 2.22508
v -2 -3.51983 2.22508
v -2 -3.01107 2.27133
v -0.9 -3.01107 2.27133
v -0.9 -3.12219 2.43762
v -2 -3.12219 2.43762
v -2 -2.63223 2.58223
v -0.9 -2.63223 2.58223
v -0.9 -2.77365 2.72365
v -2 -2.77365 2.72365
v -2 -2.32133 2.96107
v -0.9 -2.32133 2.96107
v -0.9 -2.48762 3.07219
v -2 -2.48762 3.07219
v -2 -2.0903 3.39329
v -0.9 -2.0903 3.39329
v -0.9 -2.27508 3.46983
v -2 -2.27508 3.46983
v -2 -1.94804 3.86227
v -0.9 -1.94804 3.86227
v -0.9 -2.14419 3.90129
v -2 -2.14419 3.90129
v -2 -1.9 4.35
v -0.9 -1.9 4.35
v -0.9 -2.1 4.35
v -2 -2.1 4.35
v -2 -1.9 5.4
v -0.9 -1.9 5.4
v -0.9 -2.1 5.5
v -2 -2.1 5.5
v -2 -2.1 5.5
v -0.9 -2.1 5.5
v -0.9 -4.4 2.05
v -2 -4.4 2.05
v -2 -4.4 1.85
v -0.9 -4.4 1.85
v -2 -4.4 1.85
v -2 -4.4 2.05
v -2 -3.95129 2.09419
v -2 -3.91227 1.89804
v -2 -3.51983 2.22508
v -2 -3.44329 2.0403
v -2 -3.12219 2.43762
v -2 -3.01107 2.27133
v -2 -2.77365 2.72365
v -2 -2.63223 2.58223
v -2 -2.48762 3.07219
v -2 -2.32133 2.96107
v -2 -2.27508 3.46983
v -2 -2.0903 3.39329
v -2 -2.14419 3.90129
v -2 -1.94804 3.86227
v -2 -2.1 4.35
v -2 -1.9 4.35
v -0.9 -1.9 4.35
v -0.9 -1.9 5.4
v -0.9 -2.1 5.5
v -0.9 -2.1 4.35
v -2 -2.1 5.5
v -2 -1.9 5.4
v 2 -4.4 1.85
v 0.9 -4.4 1.85
v 0.9 -3.91227 1.89804
v 2 -3.91227 1.89804
v 0.9 -4.4 2.05
v 2 -4.4 2.05
v 2 -3.95129 2.09419
v 0.9 -3.95129 2.09419
v 0.9 -3.44329 2.0403
v 2 -3.44329 2.0403
v 2 -3.51983 2.22508
v 0.9 -3.51983 2.22508
v 0.9 -3.01107 2.27133
v 2 -3.01107 2.27133
v 2 -3.12219 2.43762
v 0.9 -3.12219 2.43762
v 0.9 -2.63223 2.58223
v 2 -2.63223 2.58223
v 2 -2.77365 2.72365
v 0.9 -2.77365 2.72365
v 0.9 -2.32133 2.96107
v 2 -2.32133 2.96107
v 2 -2.48762 3.07219
v 0.9 -2.48762 3.07219
v 0.9 -2.0903 3.39329
v 2 -2.0903 3.39329
v 2 -2.27508 3.46983
v 0.9 -2.27508 3.46983
v 0.9 -1.94804 3.86227
v 2 -1.94804 3.86227
v 2 -2.14419 3.90129
v 0.9 -2.14419 3.90129
v 0.9 -1.9 4.35
v 2 -1.9 4.35
v 2 -2.1 4.35
v 0.9 -2.1 4.35
v 0.9 -1.9 5.4
v 2 -1.9 5.4
v 2 -2.1 5.5
v 0.9 -2.1 5.5
v 0.9 -2.1 5.5
v 2 -2.1 5.5
v 2 -4.4 2.05
v 0.9 -4.4 2.05
v 0.9 -4.4 1.85
v 2 -4.4 1.85
v 2 -4.4 1.85
v 2 -3.91227 1.89804
v 2 -3.95129 2.09419
v 2 -4.4 2.05
v 2 -3.44329 2.0403
v 2 -3.51983 2.22508
v 2 -3.01107 2.27133
v 2 -3.12219 2.43762
v 2 -2.63223 2.58223
v 2 -2.77365 2.72365
v 2 -2.32133 2.96107
v 2 -2.48762 3.07219
v 2 -2.0903 3.39329
v 2 -2.27508 3.46983
v 2 -1.94804 3.86227
v 2 -2.14419 3.90129
v 2 -1.9 4.35
v 2 -2.1 4.35
v 2 -1.9 5.4
v 2 -2.1 5.5
v 0.9 -1.9 4.35
v 0.9 -2.1 4.35
v 0.9 -2.1 5.5
v 0.9 -1.9 5.4
v 0.8 -1.65 0.75
v 1 -1.85 0.75
v 1 -2 -1.7
v 0.8 -1.8 -1.7
v -0.8 -1.65 0.75
v -0.8 -1.8 -1.7
v -1 -1.85 0.75
v -1 -2 -1.7
v -1 -3.05 0.7
v -1 -3.1 -0.3
v 1 -3.05 0.7
v -1 -3.05 0.7
v -1 -3.1 -0.3
v 1 -3.1 -0.3
v 1 -3.05 0.7
v 1 -3.1 -0.3
v -1 -3.1 -0.3
v -1 -2 -1.7
v -1 -2 -1.7
v -1 -3.1 -0.3
v -1 -2 -1.7
v -1 -3.3 -1.1
v -1 -3.3 -1.1
v 1 -3.3 -1.1
v 1 -3.3 -1.1
v 1 -2 -1.7
v 1 -3.3 -1.1
v 1 -2 -1.7
v -1 -3.3 -1.1
v -1 -2 -1.7
v -1 -2 -1.7
v -1 -3.3 -1.1
v -1 -2 -1.7
v -1 -3.4 -1.3
v -1 -3.4 -1.3
v 1 -3.4 -1.3
v 1 -2 -1.7
v 1 -3.4 -1.3
v 1 -2 -1.7
v 1 -3.4 -1.3
v 1 -2 -1.7
v -1 -3.4 -1.3
v -1 -2 -1.7
v -1 -2 -1.7
v -1 -3.4 -1.3
v -1 -2 -1.7
v -1 -3.5 -1.35
v -1 -3.5 -1.35
v 1 -3.5 -1.35
v 1 -2 -1.7
v 1 -3.5 -1.35
v 1 -2 -1.7
v 1 -3.5 -1.35
v 1 -2 -1.7
v -1 -3.5 -1.35
v -1 -2 -1.7
v -1 -2 -1.7
v -1 -3.5 -1.35
v -1 -2 -1.7
v -1 -3.7 -1.4
v -1 -3.7 -1.4
v 1 -3.7 -1.4
v 1 -2 -1.7
v 1 -3.7 -1.4
v 1 -2 -1.7
v 1 -3.7 -1.4
v 1 -2 -1.7
v 0.8 -1.8 -1.7
v 1 -2 -1.7
v 1 -2.12 -2.3
v 0.8 -1.92 -2.3
v -0.8 -1.8 -1.7
v -0.8 -1.92 -2.3
v -1 -2 -1.7
v -1 -2.12 -2.3
v -1 -3.7 -1.4
v -1 -3.7 -2.3
v 1 -3.7 -1.4
v -1 -3.7 -1.4
v -1 -3.7 -2.3
v 1 -3.7 -2.3
v 1 -3.7 -2.3
v 1 -2.4 -2.8
v 0.8 -2.2 -2.8
v -0.8 -2.2 -2.8
v -1 -2.4 -2.8
v -1 -3.7 -2.8
v -1 -3.7 -2.8
v 1 -3.7 -2.8
v 1 -3.7 -2.8
v 1 -2.7 -3.1
v 0.8 -2.5 -3.1
v -0.8 -2.5 -3.1
v -1 -2.7 -3.1
v -1 -3.7 -3.1
v -1 -3.7 -3.1
v 1 -3.7 -3.1
v 1 -3.7 -3.1
v 0.9 -2.9 -3.17997
v 0.8 -2.7 -3.17997
v -0.8 -2.7 -3.17997
v -0.9 -2.9 -3.17997
v -0.9 -3.4 -3.17997
v 0.9 -3.4 -3.17997
v 0.8 -2.7 -3.17997
v 0.9 -2.9 -3.17997
v 0.0999999 -2.9 -3.17997
v -0.8 -2.7 -3.17997
v -0.9 -2.9 -3.17997
v -0.9 -3.4 -3.17997
v 0.9 -3.4 -3.17997
v 1.8 1.4 5
v 1.8 1.3 5.1
v 2 1.3 4.9
v 1.9 1.4 4.9
v -1.8 1.4 5
v -1.9 1.4 4.9
v -1.8 1.3 5.1
v -2 1.3 4.9
v -1.8 1.2 5.1
v -2 1.2 4.9
v -1.8 1.1 5
v -1.9 1.1 4.9
v 1.8 1.1 5
v 1.9 1.1 4.9
v 1.8 1.2 5.1
v 2 1.2 4.9
v 1.9 1.4 4.9
v 2 1.3 4.9
v 2 1.3 1.5
v 1.9 1.4 1.5
v -1.9 1.4 4.9
v -1.9 1.4 1.5
v -2 1.3 4.9
v -2 1.3 1.5
v -2 1.2 4.9
v -2 1.2 1.5
v -1.9 1.1 4.9
v -1.9 1.1 1.5
v 1.9 1.1 4.9
v 1.9 1.1 1.5
v 2 1.2 4.9
v 2 1.2 1.5
v 1.8 1.3 1.3
v 1.8 1.4 1.4
v -1.8 1.4 1.4
v -1.8 1.3 1.3
v -1.8 1.2 1.3
v -1.8 1.1 1.4
v 1.8 1.1 1.4
v 1.8 1.2 1.3
v 0.5 1.3 1
v 0.5 1.4 1.1
v -0.5 1.4 1.1
v -0.5 1.3 1
v -0.5 1.2 1
v -0.5 1.1 1.1
v 0.5 1.1 1.1
v 0.5 1.2 1
v 1.8 1.3 5.1
v 1.8 1.4 5
v -0 1.25 5.1
v 0.5 1.4 1.1
v 0.5 1.3 1
v -0 1.25 1
v -1.8 1.4 5
v -0.5 1.4 1.1
v -1.8 1.3 5.1
v -0.5 1.3 1
v -1.8 1.2 5.1
v -0.5 1.2 1
v -1.8 1.1 5
v -0.5 1.1 1.1
v 1.8 1.1 5
v 0.5 1.1 1.1
v 1.8 1.2 5.1
v 0.5 1.2 1
v -1.8 -3.04212 1.1
v -1.7 -3.04212 0.951691
v -1.7 -3.7 0.951691
v -1.8 -3.7 1.1
v -1 -3.04212 0.7
v -1 -3.7 0.7
v 1 -3.04212 0.7
v 1 -3.7 0.7
v 1.7 -3.04212 0.951691
v 1.7 -3.7 0.951691
v 1.8 -3.04212 1.1
v 1.8 -3.7 1.1
v -1.8 -1.65 1.15
v -1.7 -1.65 1.00169
v -1 -1.65 0.75
v 1 -1.65 0.75
v 1.7 -1.65 1.00169
v 1.8 -1.65 1.15
v 1.8 1.1 1.6
v 1.8 1.1 4.8
v 1.8 -1.9 5.05
v 1.7 1.1 4.9
v 1.7 -1.9 5.15
v -1.7 1.1 4.9
v -1.7 -1.9 5.15
v -1.8 1.1 4.8
v -1.8 -1.9 5.05
v -1.8 1.1 1.6
v -1.7 1.1 1.45169
v -0.5 1.1 1.2
v 0.5 1.1 1.2
v 1.7 1.1 1.45169
v 1.8 -1.65 1.15
v 1.8 -1.9 5.05
v 1.8 -1.9 5.05
v 1.8 -1.65 1.15
v 1.8 -1.9 5.05
v 1.8 -2.1 3.6
v -1.8 -1.9 5.05
v -1.8 -1.65 1.15
v -1.8 -2.1 3.6
v -1.8 -1.9 5.05
v -1.8 -2.1 3.6
v -1.8 -1.9 5.05
v 1.8 -1.65 1.15
v 1.8 -2.1 3.6
v 1.8 -2.1 3.6
v 1.8 -1.65 1.15
v 1.8 -2.1 3.6
v 1.8 -2.5 2.9
v -1.8 -2.1 3.6
v -1.8 -1.65 1.15
v -1.8 -2.5 2.9
v -1.8 -2.1 3.6
v -1.8 -2.5 2.9
v -1.8 -2.1 3.6
v 1.8 -1.65 1.15
v 1.8 -2.5 2.9
v 1.8 -2.5 2.9
v 1.8 -1.65 1.15
v 1.8 -2.5 2.9
v 1.8 -3.1 2.3
v -1.8 -2.5 2.9
v -1.8 -1.65 1.15
v -1.8 -3.1 2.3
v -1.8 -2.5 2.9
v -1.8 -3.1 2.3
v -1.8 -2.5 2.9
v 1.8 -1.65 1.15
v 1.8 -3.1 2.3
v 1.8 -3.1 2.3
v 1.8 -1.65 1.15
v 1.8 -3.1 2.3
v 1.8 -3.04212 1.1
v -1.8 -3.1 2.3
v -1.8 -1.65 1.15
v -1.8 -3.04212 1.1
v -1.8 -3.1 2.3
v -1.8 -3.04212 1.1
v -1.8 -3.1 2.3
v 1.8 -3.04212 1.1
v 1.8 -3.1 2.3
v 1.8 -3.1 2.3
v 1.8 -3.04212 1.1
v 1.8 -3.1 2.3
v 1.8 -3.7 2.1
v -1.8 -3.1 2.3
v -1.8 -3.04212 1.1
v -1.8 -3.7 2.1
v -1.8 -3.1 2.3
v -1.8 -3.7 2.1
v -1.8 -3.1 2.3
v 1.8 -3.04212 1.1
v 1.8 -3.7 2.1
v 1.8 -3.7 2.1
v 1.8 -3.04212 1.1
v 1.8 -3.7 2.1
v 1.8 -3.7 1.1
v -1.8 -3.7 2.1
v -1.8 -3.04212 1.1
v -1.8 -3.7 1.1
v -1.8 -3.7 2.1
v -1.8 -3.7 1.1
v -1.8 -3.7 2.1
v -1.22929 -3.7 0.0707107
v -1.2 -3.7 0
v -1.2 3.72529e-009 0
v -1.22929 3.72529e-009 0.0707107
v -1.3 -3.7 0.1
v -1.3 3.72529e-009 0.1
v -1.37071 -3.7 0.0707107
v -1.37071 3.72529e-009 0.0707107
v -1.4 -3.7 -8.74228e-009
v -1.4 3.72529e-009 -8.74228e-009
v -1.37071 -3.7 -0.0707107
v -1.37071 3.72529e-009 -0.0707107
v -1.3 -3.7 -0.1
v -1.3 3.72529e-009 -0.1
v -1.22929 -3.7 -0.0707107
v -1.22929 3.72529e-009 -0.0707107
v -1.3 0.3 -0.2
v -1.3 0.140001 -0.0600024
v -1.37071 0.140001 -0.060002
v -1.37071 0.270711 -0.2
v -1.3 0.212132 0.0121321
v -1.3 0.3 -0.2
v -1.37071 0.270711 -0.2
v -1.37071 0.191421 -0.0085786
v -1.3 -3.57746e-009 0.1
v -1.37071 -3.22819e-009 0.0707107
v -1.4 0.14 -0.0600012
v -1.4 0.2 -0.2
v -1.4 0.2 -0.2
v -1.4 0.141421 -0.0585786
v -1.4 -2.38498e-009 1.49012e-008
v -1.4 0.14 -0.0600012
v -1.37071 0.14 -0.0600003
v -1.37071 0.129289 -0.2
v -1.37071 0.129289 -0.2
v -1.37071 0.0914213 -0.108579
v -1.37071 -1.54176e-009 -0.0707107
v -1.3 0.14 -0.06
v -1.3 0.1 -0.2
v -1.3 0.1 -0.2
v -1.3 0.0707107 -0.129289
v -1.3 -1.19249e-009 -0.1
v -1.22929 0.14 -0.0600003
v -1.22929 0.129289 -0.2
v -1.22929 0.129289 -0.2
v -1.22929 0.0914214 -0.108579
v -1.22929 -1.54176e-009 -0.0707107
v -1.2 0.14 -0.0600012
v -1.2 0.2 -0.2
v -1.2 0.2 -0.2
v -1.2 0.141421 -0.0585786
v -1.2 -2.38498e-009 1.49012e-008
v -1.2 0.14 -0.0600012
v -1.22929 0.140001 -0.060002
v -1.22929 0.270711 -0.2
v -1.22929 0.270711 -0.2
v -1.22929 0.191421 -0.00857858
v -1.22929 -3.22819e-009 0.0707107
v -1.15858 -2.4 0.141421
v -1.1 -2.4 0
v -1.1 -0.4 0
v -1.15858 -0.4 0.141421
v -1.3 -2.4 0.2
v -1.3 -0.4 0.2
v -1.44142 -2.4 0.141421
v -1.44142 -0.4 0.141421
v -1.5 -2.4 -1.74846e-008
v -1.5 -0.4 -1.74846e-008
v -1.44142 -2.4 -0.141421
v -1.44142 -0.4 -0.141421
v -1.3 -2.4 -0.2
v -1.3 -0.4 -0.2
v -1.15858 -2.4 -0.141421
v -1.15858 -0.4 -0.141421
v -1.15858 -2.4 0.141421
v -1.3 -2.4 0
v -1.1 -2.4 0
v -1.1 -0.4 0
v -1.3 -0.4 0
v -1.15858 -0.4 0.141421
v -1.3 -2.4 0.2
v -1.3 -0.4 0.2
v -1.44142 -2.4 0.141421
v -1.44142 -0.4 0.141421
v -1.5 -2.4 -1.74846e-008
v -1.5 -0.4 -1.74846e-008
v -1.44142 -2.4 -0.141421
v -1.44142 -0.4 -0.141421
v -1.3 -2.4 -0.2
v -1.3 -0.4 -0.2
v -1.15858 -2.4 -0.141421
v -1.15858 -0.4 -0.141421
v 0.9 -2.6 -3
v 0.9 -1.9 5.15
v 0.9 -4.4 5.15
v 0.9 -4.4 -3
v 0.9 -2.6 -3
v 0.9 -4.4 -3
v -0.9 -4.4 -3
v -0.9 -2.6 -3
v -0.9 -2.6 -3
v -0.9 -4.4 -3
v -0.9 -4.4 5.15
v -0.9 -1.9 5.15
v 0.9 -1.9 5.15
v -0.9 -1.9 5.15
v -0.9 -4.4 5.15
v 0.9 -4.4 5.15
v 0.9 -4.4 -3
v 0.9 -4.4 5.15
v -0.9 -4.4 5.15
v -0.9 -4.4 -3
v 1.9 -3.7 1.97
v 1.9 -3.9 1.91
v 1.9 -3.9 0.7
v 1.9 -3.7 0.7
v 1.9 -3.7 1.97
v 1.9 -3.7 0.7
v -1.9 -3.7 0.7
v -1.9 -3.7 1.97
v -1.9 -3.7 1.97
v -1.9 -3.7 0.7
v -1.9 -3.9 0.7
v -1.9 -3.9 1.91
v 1.9 -3.9 1.91
v -1.9 -3.9 1.91
v -1.9 -3.9 0.7
v 1.9 -3.9 0.7
v 1.9 -3.7 0.7
v 1.9 -3.9 0.7
v -1.9 -3.9 0.7
v -1.9 -3.7 0.7
v -0.9 -4.2 1.87
v -0.9 -4.2 0.7
v -1.9 -4.2 0.7
v -1.9 -4.2 1.87
v -1.9 -4.2 1.87
v -1.9 -4.2 0.7
v -1.9 -4.4 0.7
v -1.9 -4.4 1.85
v -0.9 -4.4 1.85
v -1.9 -4.4 1.85
v -1.9 -4.4 0.7
v -0.9 -4.4 0.7
v -0.9 -4.2 0.7
v -0.9 -4.4 0.7
v -1.9 -4.4 0.7
v -1.9 -4.2 0.7
v -1.29142 -3.89142 -0.0707107
v -1.31213 -3.91213 0
v -1.4 -3.7 0
v -1.37071 -3.7 -0.0707107
v -1.1 -3.97071 -0.0707107
v -1.1 -4 0
v -1.24142 -3.84142 -0.1
v -1.3 -3.7 -0.1
v -1.1 -3.9 -0.1
v -1.19142 -3.79142 -0.0707107
v -1.22929 -3.7 -0.0707107
v -1.1 -3.82929 -0.0707107
v -1.17071 -3.77071 8.74228e-009
v -1.2 -3.7 8.74228e-009
v -1.1 -3.8 8.74228e-009
v -1.19142 -3.79142 0.0707107
v -1.22929 -3.7 0.0707107
v -1.1 -3.82929 0.0707107
v -1.24142 -3.84142 0.1
v -1.3 -3.7 0.1
v -1.1 -3.9 0.1
v -1.29142 -3.89142 0.0707107
v -1.37071 -3.7 0.0707107
v -1.1 -3.97071 0.0707107
v -1.1 -3.82929 -0.0707107
v -0.9 -3.82929 -0.0707107
v -0.9 -3.9 -0.1
v -1.1 -3.9 -0.1
v -1.1 -3.8 4.37114e-009
v -0.9 -3.8 4.37114e-009
v -1.1 -3.82929 0.0707107
v -0.9 -3.82929 0.0707107
v -1.1 -3.9 0.1
v -0.9 -3.9 0.1
v -1.1 -3.97071 0.0707107
v -0.9 -3.97071 0.0707107
v -1.1 -4 -1.19249e-009
v -0.9 -4 -1.19249e-009
v -1.1 -3.97071 -0.0707107
v -0.9 -3.97071 -0.0707107
v -0.5 -3.9 -3.4
v -0.5 -4.3 -3.4
v -0.5 -4.3 -3
v -0.5 -3.9 -3
v -0.5 -3.9 -3.4
v -0.5 -3.9 -3
v 0.5 -3.9 -3
v 0.5 -3.9 -3.4
v 0.5 -3.9 -3.4
v 0.5 -3.9 -3
v 0.5 -4.3 -3
v 0.5 -4.3 -3.4
v -0.5 -4.3 -3.4
v 0.5 -4.3 -3.4
v 0.5 -4.3 -3
v -0.5 -4.3 -3
v -0.7 -3.9 -4.1
v 0.7 -3.9 -4.1
v 0.7 -4.4 -3.9
v -0.7 -4.4 -3.9
v -0.7 -3.9 -4.1
v -0.7 -4.4 -3.9
v -0.7 -4.4 -3.4
v -0.7 -3.7 -3.4
v -0.7 -3.9 -4.1
v -0.7 -3.7 -3.4
v 0.7 -3.7 -3.4
v 0.7 -3.9 -4.1
v -0.7 -3.7 -3.4
v -0.7 -4.4 -3.4
v 0.7 -4.4 -3.4
v 0.7 -3.7 -3.4
v 0.7 -3.9 -4.1
v 0.7 -3.7 -3.4
v 0.7 -4.4 -3.4
v 0.7 -4.4 -3.9
v -0.7 -4.4 -3.9
v 0.7 -4.4 -3.9
v 0.7 -4.4 -3.4
v -0.7 -4.4 -3.4
v 0.1 -4.5 -2.1
v 0.1 -4.5 4.1
v 0.1 -4.7 4.1
v 0.1 -4.7 -2.1
v 0.1 -4.5 -2.1
v -0.1 -4.5 -2.1
v -0.1 -4.5 4.1
v 0.1 -4.5 4.1
v -0.1 -4.5 -2.1
v -0.1 -4.7 -2.1
v -0.1 -4.7 4.1
v -0.1 -4.5 4.1
v 0.1 -4.7 -2.1
v 0.1 -4.7 4.1
v -0.1 -4.7 4.1
v -0.1 -4.7 -2.1
v -2 -4.3 -2.4
v 2 -4.3 -2.4
v 2 -4.9 -2.4
v -2 -4.9 -2.4
v -2 -4.3 -2.4
v -2 -4.9 -2.4
v -2 -4.9 -2.1
v -2 -4.3 -2.1
v -2 -4.3 -2.4
v -2 -4.3 -2.1
v 2 -4.3 -2.1
v 2 -4.3 -2.4
v -2 -4.3 -2.1
v -2 -4.9 -2.1
v 2 -4.9 -2.1
v 2 -4.3 -2.1
v 2 -4.3 -2.4
v 2 -4.3 -2.1
v 2 -4.9 -2.1
v 2 -4.9 -2.4
v -2 -4.9 -2.4
v 2 -4.9 -2.4
v 2 -4.9 -2.1
v -2 -4.9 -2.1
v -2 -4.20866 3.88806
v 2 -4.20866 3.88806
v 2 -4.4 3.85
v -2 -4.4 3.85
v -2 -4.04645 3.99645
v 2 -4.04645 3.99645
v -2 -3.93806 4.15866
v 2 -3.93806 4.15866
v -2 -3.9 4.35
v 2 -3.9 4.35
v -2 -3.93806 4.54134
v 2 -3.93806 4.54134
v -2 -4.04645 4.70355
v 2 -4.04645 4.70355
v -2 -4.20866 4.81194
v 2 -4.20866 4.81194
v -2 -4.4 4.85
v 2 -4.4 4.85
v -2 -4.59134 4.81194
v 2 -4.59134 4.81194
v -2 -4.75355 4.70355
v 2 -4.75355 4.70355
v -2 -4.86194 4.54134
v 2 -4.86194 4.54134
v -2 -4.9 4.35
v 2 -4.9 4.35
v -2 -4.86194 4.15866
v 2 -4.86194 4.15866
v -2 -4.75355 3.99645
v 2 -4.75355 3.99645
v -2 -4.59134 3.88806
v 2 -4.59134 3.88806
v 2 -4.4 4.35
v 2 -4.4 3.85
v 2 -4.20866 3.88806
v -2 -4.4 4.35
v -2 -4.20866 3.88806
v -2 -4.4 3.85
v 2 -4.04645 3.99645
v -2 -4.04645 3.99645
v 2 -3.93806 4.15866
v -2 -3.93806 4.15866
v 2 -3.9 4.35
v -2 -3.9 4.35
v 2 -3.93806 4.54134
v -2 -3.93806 4.54134
v 2 -4.04645 4.70355
v -2 -4.04645 4.70355
v 2 -4.20866 4.81194
v -2 -4.20866 4.81194
v 2 -4.4 4.85
v -2 -4.4 4.85
v 2 -4.59134 4.81194
v -2 -4.59134 4.81194
v 2 -4.75355 4.70355
v -2 -4.75355 4.70355
v 2 -4.86194 4.54134
v -2 -4.86194 4.54134
v 2 -4.9 4.35
v -2 -4.9 4.35
v 2 -4.86194 4.15866
v -2 -4.86194 4.15866
v 2 -4.75355 3.99645
v -2 -4.75355 3.99645
v 2 -4.59134 3.88806
v -2 -4.59134 3.88806
v -0.2 -4.4 4.9
v 0.2 -4.4 4.9
v 0.2 -4.6 4.9
v -0.2 -4.6 4.9
v -0.2 -4.4 4.9
v -0.2 -4.6 4.9
v -0.2 -4.6 6
v -0.2 -4.4 6
v -0.2 -4.4 4.9
v -0.2 -4.4 6
v 0.2 -4.4 6
v 0.2 -4.4 4.9
v -0.2 -4.4 6
v -0.2 -4.6 6
v 0.2 -4.6 6
v 0.2 -4.4 6
v 0.2 -4.4 4.9
v 0.2 -4.4 6
v 0.2 -4.6 6
v 0.2 -4.6 4.9
v -0.2 -4.6 4.9
v 0.2 -4.6 4.9
v 0.2 -4.6 6
v -0.2 -4.6 6


vn -0 0.0980231 -0.995187
vn -0 0.0980231 -0.995187
vn -0 0.162805 -0.986659
vn -0 0.227166 -0.97386
vn -0 -0.0980089 0.995189
vn -0 -0.0980089 0.995189
vn -0 -0.162804 0.986664
vn -0 -0.227177 0.973859
vn -0 0.352161 -0.935943
vn -0 0.412794 -0.910825
vn -0 -0.352174 0.935943
vn -0 -0.412794 0.910825
vn -0 0.52799 -0.849252
vn -0 0.582552 -0.812796
vn -0 -0.527984 0.849263
vn -0 -0.582548 0.812805
vn -0 0.683523 -0.729932
vn -0 0.729932 -0.683523
vn -0 -0.683523 0.729935
vn -0 -0.729935 0.683523
vn -0 0.812796 -0.582552
vn -0 0.849252 -0.52799
vn -0 -0.812805 0.582547
vn -0 -0.849263 0.527984
vn -0 0.910825 -0.412794
vn -0 0.935943 -0.352161
vn -0 -0.910825 0.412794
vn -0 -0.935942 0.352174
vn -0 0.97386 -0.227166
vn -0 0.986659 -0.162805
vn -0 -0.973858 0.227177
vn -0 -0.986663 0.162804
vn -0 0.997859 -0.0654185
vn -0 0.999466 -0.0327092
vn -0 -0.99786 0.0654092
vn -0 -0.999466 0.0327046
vn -0 0.939237 0.34328
vn -0 0.727079 0.686561
vn -0 -1 0
vn -0 -1 0
vn -0 0.447216 0.894432
vn -0 0.447216 0.894432
vn -0 -1 0
vn -0 -1 0
vn -0 -1 0
vn -0 -1 0
vn -1 0 0
vn -1 0 0
vn -1 0 0
vn -1 0 0
vn -1.00001 0 0
vn -1.00001 0 0
vn -1.00001 0 0
vn -1.00001 0 0
vn -1.00001 0 0
vn -1.00001 0 0
vn -1.00001 0 0
vn -1.00001 0 0
vn -1.00001 0 0
vn -1.00001 0 0
vn -1.00001 0 0
vn -1.00001 0 0
vn -1.00001 0 0
vn -1 0 0
vn 1 0 0
vn 1 0 0
vn 1 0 0
vn 1.00001 0 0
vn -1 0 0
vn -1 0 0
vn -0 0.0980231 -0.995187
vn -0 0.0980231 -0.995187
vn -0 0.162805 -0.986659
vn -0 0.227166 -0.97386
vn -0 -0.0980089 0.995189
vn -0 -0.0980089 0.995189
vn -0 -0.162804 0.986664
vn -0 -0.227177 0.973859
vn -0 0.352161 -0.935943
vn -0 0.412794 -0.910825
vn -0 -0.352174 0.935943
vn -0 -0.412794 0.910825
vn -0 0.52799 -0.849252
vn -0 0.582552 -0.812796
vn -0 -0.527984 0.849263
vn -0 -0.582548 0.812805
vn -0 0.683523 -0.729932
vn -0 0.729932 -0.683523
vn -0 -0.683523 0.729935
vn -0 -0.729935 0.683523
vn -0 0.812796 -0.582552
vn -0 0.849252 -0.52799
vn -0 -0.812805 0.582547
vn -0 -0.849263 0.527984
vn -0 0.910825 -0.412794
vn -0 0.935943 -0.352161
vn -0 -0.910825 0.412794
vn -0 -0.935942 0.352174
vn -0 0.97386 -0.227166
vn -0 0.986659 -0.162805
vn -0 -0.973858 0.227177
vn -0 -0.986663 0.162804
vn -0 0.997859 -0.0654185
vn -0 0.999466 -0.0327092
vn -0 -0.99786 0.0654092
vn -0 -0.999466 0.0327046
vn -0 0.939237 0.34328
vn -0 0.727079 0.686561
vn -0 -1 0
vn -0 -1 0
vn -0 0.447216 0.894432
vn -0 0.447216 0.894432
vn -0 -1 0
vn -0 -1 0
vn -0 -1 0
vn -0 -1 0
vn 1 0 0
vn 1 0 0
vn 1 0 0
vn 1 0 0
vn 1.00001 0 0
vn 1.00001 0 0
vn 1.00001 0 0
vn 1.00001 0 0
vn 1.00001 0 0
vn 1.00001 0 0
vn 1.00001 0 0
vn 1.00001 0 0
vn 1.00001 0 0
vn 1.00001 0 0
vn 1.00001 0 0
vn 1.00001 0 0
vn 1 0 0
vn 1.00001 0 0
vn 1 0 0
vn 1 0 0
vn -1 0 0
vn -1.00001 0 0
vn -1 0 0
vn -1 0 0
vn 0.504895 0.861576 -0.0527495
vn 0.967466 0.252531 -0.0154611
vn 0.923704 0.382401 -0.0234123
vn 0.252447 0.965809 -0.0591311
vn -0.252447 0.965809 -0.0591311
vn -0.504895 0.861576 -0.0527495
vn -0.862533 0.505063 -0.0309222
vn -0.967468 0.252531 -0.0154611
vn -1.00001 0 0
vn -1 0 0
vn -0 -0.998766 0.0499383
vn -0 -0.998766 0.0499383
vn -0 -0.993412 0.114621
vn -0 -0.983839 0.179093
vn 1.00001 0 0
vn 1.00001 0 0
vn -0 0 0
vn -0 0 0
vn -0 0 0
vn -1.00001 0 0
vn -1.00001 0 0
vn -1.00001 0 0
vn -0 -0.949946 0.31242
vn -0 -0.924573 0.381011
vn 1 0 0
vn -0 0 0
vn -0 0 0
vn -0 0 0
vn -0 0 0
vn -0 0 0
vn -0 0 0
vn -1 0 0
vn -1 0 0
vn -1 0 0
vn -0 -0.780872 0.624698
vn -0 -0.624698 0.780872
vn 1 0 0
vn 1 0 0
vn -0 0 0
vn -0 0 0
vn -0 0 0
vn -0 0 0
vn -0 0 0
vn -0 0 0
vn -1 0 0
vn -1 0 0
vn -1 0 0
vn -0 -0.38101 0.924573
vn -0 -0.31242 0.949946
vn 1 0 0
vn 1 0 0
vn -0 0 0
vn -0 0 0
vn -0 0 0
vn -0 0 0
vn -0 0 0
vn -0 0 0
vn -1.00001 0 0
vn -1.00001 0 0
vn -1.00001 0 0
vn -0 -0.242537 0.970148
vn -0 -0.242537 0.970148
vn 1.00001 0 0
vn 1.00001 0 0
vn -0 0 0
vn -0 0 0
vn -0 0 0
vn 0.499592 0.849445 -0.169889
vn 0.966775 0.250683 -0.0501366
vn 0.919819 0.374227 -0.117889
vn 0.363924 0.875701 -0.31736
vn -0.249796 0.9495 -0.1899
vn -0.373012 0.867092 -0.330199
vn -0.859414 0.501366 -0.100273
vn -0.915941 0.368022 -0.160058
vn -1.00001 0 0
vn -1.00001 0 0
vn -0 -1 0
vn -0 -1 0
vn -0 -1 0
vn -0 -1 0
vn 1 0 0
vn 0.904732 0.349935 -0.242943
vn 0.321586 0.756742 -0.569152
vn -0.337738 0.745887 -0.574103
vn -0.897325 0.337912 -0.283971
vn -1.00001 0 0
vn -0 -1 0
vn -0 -1.00001 0
vn 1 0 0
vn 0.682431 0.262294 -0.682272
vn 0.252864 0.517183 -0.817671
vn -0.265502 0.521621 -0.810825
vn -0.7616 0.215529 -0.611172
vn -0.662744 -0.0758991 -0.744991
vn -0 -1.00001 0
vn 0.197021 -0.47797 -0.856002
vn 1.00001 0 0
vn 0.503564 0.187538 -0.843363
vn 0.208044 0.363149 -0.908213
vn -0.242091 0.306172 -0.920684
vn -0.545251 0.0616538 -0.836011
vn -0.220559 -0.181922 -0.958265
vn 0.441117 -0.0909611 -0.892834
vn -0 0 -1
vn -0 0 -1
vn -0 0 -1
vn -0 0 -1
vn -0 0 -1
vn -0 0 -1
vn -0 0 -1
vn 0.427098 0.796979 0.427099
vn 0.692708 0.200814 0.692709
vn 0.647575 0.401627 0.647576
vn 0.213549 0.953309 0.21355
vn -0.213549 0.953309 0.21355
vn -0.427102 0.796985 0.427103
vn -0.647575 0.401628 0.647576
vn -0.692708 0.200814 0.692709
vn -0.692708 -0.200814 0.692709
vn -0.647575 -0.401627 0.647576
vn -0.427098 -0.796979 0.427099
vn -0.213549 -0.953309 0.21355
vn 0.213549 -0.953309 0.21355
vn 0.427102 -0.796985 0.427103
vn 0.647575 -0.401628 0.647576
vn 0.692708 -0.200814 0.692709
vn 0.505452 0.862858 0
vn 0.967542 0.252726 0
vn 0.842555 0.380864 -0.380863
vn 0.349136 0.911712 -0.216536
vn -0.252726 0.96754 0
vn -0.36846 0.923493 -0.106816
vn -0.86286 0.505451 0
vn -0.866431 0.353066 -0.353065
vn -0.967542 -0.252726 0
vn -0.842555 -0.380864 -0.380863
vn -0.505452 -0.862858 0
vn -0.349136 -0.911712 -0.216536
vn 0.252726 -0.96754 0
vn 0.36846 -0.923493 -0.106816
vn 0.86286 -0.505451 0
vn 0.866431 -0.353066 -0.353065
vn 0.452397 0.33896 -0.824897
vn 0.165788 0.916656 -0.363687
vn -0.245556 0.90563 -0.345743
vn -0.468482 0.364136 -0.80495
vn -0.452397 -0.33896 -0.824897
vn -0.165788 -0.916656 -0.363687
vn 0.245556 -0.90563 -0.345743
vn 0.468482 -0.364136 -0.80495
vn 0.195032 0.497695 -0.84514
vn 0.0576965 0.96653 -0.250018
vn -0.115392 0.858285 -0.500032
vn -0.217787 0.24885 -0.943746
vn -0.195032 -0.497695 -0.84514
vn -0.0576965 -0.96653 -0.250018
vn 0.115392 -0.858285 -0.500032
vn 0.217787 -0.24885 -0.943746
vn -0.0106285 0.382627 0.923846
vn -0.0098676 0.633954 0.773314
vn -0 1.83624e-008 1
vn -0.0354618 0.633499 -0.772939
vn -0.038193 0.38193 -0.923411
vn -0 1.83809e-008 -1.00001
vn 0.00986761 0.633954 0.773314
vn 0.0354618 0.633499 -0.772939
vn 0.0106285 0.382627 0.923846
vn 0.038193 0.38193 -0.923411
vn 0.0106285 -0.382627 0.923846
vn 0.038193 -0.38193 -0.923411
vn 0.0098676 -0.633954 0.773314
vn 0.0354618 -0.633499 -0.772939
vn -0.00986761 -0.633954 0.773314
vn -0.0354618 -0.633499 -0.772939
vn -0.0106285 -0.382627 0.923846
vn -0.038193 -0.38193 -0.923411
vn -0.829115 0.00669207 -0.559045
vn -0.614147 0.0129651 -0.78909
vn -0.696128 0 -0.717926
vn -0.829131 0 -0.559056
vn -0.171687 0.0175043 -0.985
vn -0.228585 0 -0.97353
vn 0.171721 0.0178623 -0.984989
vn 0.114292 0 -0.993454
vn 0.614157 0.0153687 -0.789035
vn 0.525016 0 -0.8511
vn 0.829059 0.013384 -0.559006
vn 0.829131 0 -0.559056
vn -0.936441 0.0274129 -0.349757
vn -0.612687 0.0740664 -0.786849
vn -0.147792 0.103659 -0.983574
vn 0.170817 0.108062 -0.979367
vn 0.594943 0.0946584 -0.798179
vn 0.900108 0.0523144 -0.432527
vn 0.98065 0.0316164 -0.193211
vn 0.862252 0.042061 0.504732
vn 0.967411 0.0210307 0.252368
vn 0.252209 0.0803609 0.96433
vn 0.504418 0.0717065 0.860479
vn -0.504418 0.0717065 0.860479
vn -0.252209 0.0803609 0.96433
vn -0.96741 0.0210307 0.252368
vn -0.862258 0.0420614 0.504737
vn -0.920153 0.0632328 -0.386423
vn -0.480392 0.154203 -0.863396
vn -0.0674468 0.173053 -0.982606
vn 0.179614 0.178551 -0.967405
vn 0.660521 0.121248 -0.740957
vn -0 0 0
vn -0 0 0
vn -0 0 0
vn 1 0 0
vn 1 0 0
vn 1 0 0
vn -1 0 0
vn -1 0 0
vn -1 0 0
vn -0 0 0
vn -0 0 0
vn -0 0 0
vn -0 0 0
vn -0 0 0
vn -0 0 0
vn 1.00001 0 0
vn 1.00001 0 0
vn 1.00001 0 0
vn -1.00001 0 0
vn -1.00001 0 0
vn -1.00001 0 0
vn -0 0 0
vn -0 0 0
vn -0 0 0
vn -0 0 0
vn -0 0 0
vn -0 0 0
vn 1 0 0
vn 1 0 0
vn 1 0 0
vn -1 0 0
vn -1 0 0
vn -1 0 0
vn -0 0 0
vn -0 0 0
vn -0 0 0
vn -0 0 0
vn -0 0 0
vn -0 0 0
vn 1.00001 0 0
vn 1.00001 0 0
vn 1.00001 0 0
vn -1.00001 0 0
vn -1.00001 0 0
vn -1.00001 0 0
vn -0 0 0
vn -0 0 0
vn -0 0 0
vn -0 0 0
vn -0 0 0
vn -0 0 0
vn 1 0 0
vn 1 0 0
vn 1 0 0
vn -1 0 0
vn -1 0 0
vn -1 0 0
vn -0 0 0
vn -0 0 0
vn -0 0 0
vn -0 0 0
vn -0 0 0
vn -0 0 0
vn 1.00001 0 0
vn 1.00001 0 0
vn 1.00001 0 0
vn -1.00001 0 0
vn -1.00001 0 0
vn -1.00001 0 0
vn -0 0 0
vn -0 0 0
vn -0 0 0
vn 0.797175 0 0.603753
vn 0.990608 0 -0.136777
vn 0.990608 0 0.136777
vn 0.603749 0 0.797177
vn 0.136776 0 0.99061
vn -0.136776 0 0.990611
vn -0.603749 0 0.797178
vn -0.797175 0 0.603753
vn -0.990608 0 0.136777
vn -0.990608 0 -0.136777
vn -0.797174 0 -0.603753
vn -0.603749 0 -0.797178
vn -0.136776 0 -0.99061
vn 0.136776 0 -0.99061
vn 0.603749 0 -0.797177
vn 0.797175 0 -0.603753
vn 0.00912199 -0.682967 -0.730396
vn -0.0885106 -0.681028 -0.72689
vn 0.0976363 -0.703868 -0.703589
vn 0.455573 -0.685616 -0.567805
vn 4.20226e-007 0.70711 0.70711
vn 0.126537 0.916456 0.379609
vn -0.581446 0.751659 0.311349
vn -0.714738 0.467183 0.520472
vn -0.126536 0.379608 0.916455
vn -0.77978 0.239586 0.57841
vn 0.547493 -0.665724 -0.507015
vn -0.000964044 -0.92153 -0.388326
vn -0.384198 0.876906 0.288854
vn -0.998377 -0.0403752 0.0403758
vn -0.98902 -0.0565644 -0.136557
vn -1.20746e-005 0.919149 0.393924
vn 0.370275 0.921707 0.115626
vn 0.489971 0.860964 -0.13666
vn -0.779778 -0.578409 -0.239585
vn -0.71474 -0.520478 -0.467186
vn -0.581446 -0.311349 -0.751661
vn 0.125896 0.970363 -0.206271
vn 0.159478 0.88279 -0.441899
vn -0.357408 -0.862862 -0.357408
vn 5.92922e-007 -0.707109 -0.707109
vn 0.126535 -0.379607 -0.916456
vn -0.130028 0.981065 -0.143578
vn -0.49076 0.871283 0.00571255
vn 0.581447 -0.751662 -0.311347
vn 0.714741 -0.467187 -0.520477
vn 0.779781 -0.239586 -0.578408
vn -0.551949 0.832277 0.0518008
vn 0.000965498 0.92153 0.388326
vn 0.385259 -0.821187 -0.420994
vn 0.998377 0.040375 -0.0403753
vn 0.989017 0.0565636 0.136556
vn -2.05582e-005 -0.919149 -0.393924
vn -0.333767 -0.771267 -0.542002
vn -0.419113 -0.638608 -0.6454
vn 0.779781 0.57841 0.239587
vn 0.714743 0.520476 0.467187
vn 0.581444 0.311347 0.751657
vn 0.797177 0 0.603756
vn 0.990602 0 -0.136777
vn 0.990602 0 0.136777
vn 0.603753 0 0.79718
vn 0.136776 0 0.990605
vn -0.136776 0 0.990605
vn -0.603753 0 0.797181
vn -0.797178 0 0.603756
vn -0.990602 0 0.136777
vn -0.990602 0 -0.136777
vn -0.797177 0 -0.603756
vn -0.603753 0 -0.797181
vn -0.136776 0 -0.990605
vn 0.136776 0 -0.990605
vn 0.603753 0 -0.79718
vn 0.797177 0 -0.603756
vn -0 -1.00001 0
vn -0 -1.00001 0
vn -0 -1.00001 0
vn -0 1.00001 0
vn -0 1.00001 0
vn -0 1.00001 0
vn -0 -1 0
vn -0 1 0
vn -0 -1 0
vn -0 1 0
vn -0 -1.00001 0
vn -0 1.00001 0
vn -0 -1 0
vn -0 1 0
vn -0 -1 0
vn -0 1 0
vn -0 -1.00001 0
vn -0 1.00001 0
vn 1 0 0
vn 1 0 0
vn 1 0 0
vn 1 0 0
vn -0 0 -1
vn -0 0 -1
vn -0 0 -1
vn -0 0 -1
vn -1 0 0
vn -1 0 0
vn -1 0 0
vn -1 0 0
vn -0 0 1
vn -0 0 1
vn -0 0 1
vn -0 0 1
vn -0 -1 0
vn -0 -1 0
vn -0 -1 0
vn -0 -1 0
vn 1.00001 0 0
vn 1.00001 0 0
vn 1.00001 0 0
vn 1.00001 0 0
vn -0 1.00001 0
vn -0 1.00001 0
vn -0 1.00001 0
vn -0 1.00001 0
vn -1.00001 0 0
vn -1.00001 0 0
vn -1.00001 0 0
vn -1.00001 0 0
vn -0 -1 0
vn -0 -1 0
vn -0 -1 0
vn -0 -1 0
vn -0 0 -1.00001
vn -0 0 -1.00001
vn -0 0 -1.00001
vn -0 0 -1.00001
vn -0 1 0
vn -0 1 0
vn -0 1 0
vn -0 1 0
vn -1 0 0
vn -1 0 0
vn -1 0 0
vn -1.00001 0 0
vn -0 -1.00001 0
vn -0 -1.00001 0
vn -0 -1.00001 0
vn -0 -1.00001 0
vn -0 0 -1
vn -0 0 -1
vn -0 0 -1
vn -0 0 -1
vn -0.520474 -0.467183 -0.714742
vn -0.70711 -0.70711 9.21043e-008
vn -0.916457 -0.379609 -0.126536
vn -0.578403 -0.239583 -0.77978
vn -0.311347 -0.75166 -0.581448
vn -0.379608 -0.916455 0.126536
vn -0.0403737 0.0403749 -0.998371
vn 0.136555 0.0565632 -0.989022
vn -0.0565628 -0.136555 -0.989022
vn 0.467184 0.520475 -0.714744
vn 0.751661 0.311349 -0.581448
vn 0.239583 0.578404 -0.779782
vn 0.707112 0.707112 3.39635e-007
vn 0.916458 0.37961 0.126536
vn 0.379609 0.916458 -0.126536
vn 0.520475 0.467184 0.714743
vn 0.578404 0.239583 0.779781
vn 0.311348 0.751661 0.581448
vn 0.0403743 -0.0403741 0.998372
vn -0.136555 -0.0565631 0.989022
vn 0.0565631 0.136555 0.989022
vn -0.467183 -0.520474 0.714742
vn -0.75166 -0.311348 0.581446
vn -0.239582 -0.578403 0.77978
vn -0 0.603749 -0.797176
vn -0 0.797176 -0.603748
vn -0 0.136774 -0.990603
vn -0 -0.136774 -0.990603
vn -0 0.990604 -0.136773
vn -0 0.990604 0.136773
vn -0 0.797176 0.603748
vn -0 0.603749 0.797176
vn -0 0.136774 0.990603
vn -0 -0.136774 0.990603
vn -0 -0.603749 0.797176
vn -0 -0.797176 0.603748
vn -0 -0.990604 0.136773
vn -0 -0.990604 -0.136773
vn -0 -0.797176 -0.603748
vn -0 -0.603749 -0.797176
vn -1 0 0
vn -1 0 0
vn -1 0 0
vn -1 0 0
vn -0 1 0
vn -0 1 0
vn -0 1 0
vn -0 1 0
vn 1 0 0
vn 1 0 0
vn 1 0 0
vn 1 0 0
vn -0 -1 0
vn -0 -1 0
vn -0 -1 0
vn -0 -1 0
vn -0 -0.371394 -0.928484
vn -0 -0.371394 -0.928484
vn -0 -0.371394 -0.928484
vn -0 -0.371394 -0.928484
vn -1.00001 0 0
vn -1.00001 0 0
vn -1.00001 0 0
vn -1.00001 0 0
vn -0 0.96153 -0.274723
vn -0 0.96153 -0.274723
vn -0 0.96153 -0.274723
vn -0 0.96153 -0.274723
vn -0 0 1.00001
vn -0 0 1.00001
vn -0 0 1.00001
vn -0 0 1.00001
vn 1.00001 0 0
vn 1.00001 0 0
vn 1.00001 0 0
vn 1.00001 0 0
vn -0 -1 0
vn -0 -1 0
vn -0 -1 0
vn -0 -1 0
vn 1.00001 0 0
vn 1.00001 0 0
vn 1.00001 0 0
vn 1.00001 0 0
vn -0 1 0
vn -0 1 0
vn -0 1 0
vn -0 1 0
vn -1.00001 0 0
vn -1.00001 0 0
vn -1.00001 0 0
vn -1.00001 0 0
vn -0 -1 0
vn -0 -1 0
vn -0 -1 0
vn -0 -1 0
vn -0 0 -1.00001
vn -0 0 -1.00001
vn -0 0 -1.00001
vn -0 0 -1.00001
vn -1.00001 0 0
vn -1.00001 0 0
vn -1.00001 0 0
vn -1.00001 0 0
vn -0 1.00001 0
vn -0 1.00001 0
vn -0 1.00001 0
vn -0 1.00001 0
vn -0 0 1.00001
vn -0 0 1.00001
vn -0 0 1.00001
vn -0 0 1.00001
vn 1.00001 0 0
vn 1.00001 0 0
vn 1.00001 0 0
vn 1.00001 0 0
vn -0 -1.00001 0
vn -0 -1.00001 0
vn -0 -1.00001 0
vn -0 -1.00001 0
vn -0 0.320724 -0.947176
vn -0 0.442973 -0.896543
vn -0 0.0661587 -0.997809
vn -0 -0.0661587 -0.997809
vn -0 0.658779 -0.752341
vn -0 0.752341 -0.658779
vn -0 0.896543 -0.442973
vn -0 0.947176 -0.320724
vn -0 0.997809 -0.0661587
vn -0 0.997809 0.0661587
vn -0 0.947176 0.320724
vn -0 0.896543 0.442973
vn -0 0.752341 0.658779
vn -0 0.658779 0.752341
vn -0 0.442973 0.896543
vn -0 0.320724 0.947176
vn -0 0.0661587 0.997809
vn -0 -0.0661587 0.997809
vn -0 -0.320724 0.947176
vn -0 -0.442973 0.896543
vn -0 -0.658781 0.752345
vn -0 -0.752342 0.658779
vn -0 -0.896541 0.442969
vn -0 -0.94718 0.320724
vn -0 -0.997816 0.0661604
vn -0 -0.997812 -0.0661579
vn -0 -0.947181 -0.320725
vn -0 -0.896544 -0.442971
vn -0 -0.75234 -0.658779
vn -0 -0.65878 -0.752345
vn -0 -0.442972 -0.896543
vn -0 -0.320724 -0.947176
vn 1 0 0
vn 1 0 0
vn 1 0 0
vn -1 0 0
vn -1 0 0
vn -1 0 0
vn 1 0 0
vn -1 0 0
vn 1 0 0
vn -1 0 0
vn 1 0 0
vn -1 0 0
vn 1 0 0
vn -1 0 0
vn 1 0 0
vn -1 0 0
vn 1 0 0
vn -1 0 0
vn 1 0 0
vn -1 0 0
vn 1 0 0
vn -1 0 0
vn 1 0 0
vn -1 0 0
vn 1.00001 0 0
vn -1.00001 0 0
vn 1.00001 0 0
vn -1.00001 0 0
vn 1 0 0
vn -1 0 0
vn 1 0 0
vn -1 0 0
vn 1 0 0
vn -1 0 0
vn -0 0 -1
vn -0 0 -1
vn -0 0 -1
vn -0 0 -1
vn -1 0 0
vn -1 0 0
vn -1 0 0
vn -1 0 0
vn -0 1 0
vn -0 1 0
vn -0 1 0
vn -0 1 0
vn -0 0 1
vn -0 0 1
vn -0 0 1
vn -0 0 1
vn 1 0 0
vn 1 0 0
vn 1 0 0
vn 1 0 0
vn -0 -1 0
vn -0 -1 0
vn -0 -1 0
vn -0 -1 0


vt 0.5 1
vt 1 1
vt 1 0.901825
vt 0.5 0.901825
vt 1 1
vt 0.5 1
vt 0.5 0.901825
vt 1 0.901825
vt 1 0.80365
vt 0.5 0.80365
vt 0.5 0.80365
vt 1 0.80365
vt 1 0.705476
vt 0.5 0.705476
vt 0.5 0.705476
vt 1 0.705476
vt 1 0.607301
vt 0.5 0.607301
vt 0.5 0.607301
vt 1 0.607301
vt 1 0.509126
vt 0.5 0.509126
vt 0.5 0.509126
vt 1 0.509126
vt 1 0.410951
vt 0.5 0.410951
vt 0.5 0.410951
vt 1 0.410951
vt 1 0.312777
vt 0.5 0.312777
vt 0.5 0.312777
vt 1 0.312777
vt 1 0.214602
vt 0.5 0.214602
vt 0.5 0.214602
vt 1 0.214602
vt 1 0.116427
vt 0.5 0.116427
vt 0.5 0.116427
vt 1 0.116427
vt 1 0.0182523
vt 0.5 0.0182523
vt 0.5 -2.04342
vt 1 -2.04342
vt 1 1
vt 0.5 1
vt 0 1
vt 0 0
vt 0.0981748 0
vt 0.0981748 1
vt 0.19635 0
vt 0.19635 1
vt 0.294524 0
vt 0.294524 1
vt 0.392699 0
vt 0.392699 1
vt 0.490874 0
vt 0.490874 1
vt 0.589049 0
vt 0.589049 1
vt 0.687223 0
vt 0.687223 1
vt 0.785398 0
vt 0.785398 1
vt 0.785398 1
vt 0.883573 1
vt 0.883573 0
vt 0.785398 0
vt 0.883573 0
vt 0.883573 1
vt 0 1
vt 0.5 1
vt 0.5 0.901825
vt 0 0.901825
vt 0.5 1
vt 0 1
vt 0 0.901825
vt 0.5 0.901825
vt 0.5 0.80365
vt 0 0.80365
vt 0 0.80365
vt 0.5 0.80365
vt 0.5 0.705476
vt 0 0.705476
vt 0 0.705476
vt 0.5 0.705476
vt 0.5 0.607301
vt 0 0.607301
vt 0 0.607301
vt 0.5 0.607301
vt 0.5 0.509126
vt 0 0.509126
vt 0 0.509126
vt 0.5 0.509126
vt 0.5 0.410951
vt 0 0.410951
vt 0 0.410951
vt 0.5 0.410951
vt 0.5 0.312777
vt 0 0.312777
vt 0 0.312777
vt 0.5 0.312777
vt 0.5 0.214602
vt 0 0.214602
vt 0 0.214602
vt 0.5 0.214602
vt 0.5 0.116427
vt 0 0.116427
vt 0 0.116427
vt 0.5 0.116427
vt 0.5 0.0182523
vt 0 0.0182523
vt 0 -2.04342
vt 0.5 -2.04342
vt 0.5 1
vt 0 1
vt 0 1
vt 0.0981748 1
vt 0.0981748 0
vt 0 0
vt 0.19635 1
vt 0.19635 0
vt 0.294524 1
vt 0.294524 0
vt 0.392699 1
vt 0.392699 0
vt 0.490874 1
vt 0.490874 0
vt 0.589049 1
vt 0.589049 0
vt 0.687223 1
vt 0.687223 0
vt 0.785398 1
vt 0.785398 0
vt 0.883573 1
vt 0.883573 0
vt 0.785398 1
vt 0.785398 0
vt 0.883573 0
vt 0.883573 1
vt 0.1 0.476401
vt 0.1 1
vt 0.2 1
vt 0.2 0.476401
vt 0.1 -0.0471976
vt 0.2 -0.0471976
vt 0.1 -0.570796
vt 0.2 -0.570796
vt 0.1 -1.0944
vt 0.2 -1.0944
vt 0.1 -1.61799
vt 0.1 -1.0944
vt 0.2 -1.0944
vt 0.2 -1.61799
vt 0.1 -1.61799
vt 0.2 -1.61799
vt 0.2 -1.0944
vt 0.2 -0.570796
vt 0.3 -0.570796
vt 0.2 -1.0944
vt 0.3 -0.570796
vt 0.3 -1.0944
vt 0.3 -1.0944
vt 0.3 -1.61799
vt 0.3 -1.61799
vt 0.2 1
vt 0.3 -1.61799
vt 0.3 1
vt 0.3 -1.0944
vt 0.3 -0.570796
vt 0.4 -0.570796
vt 0.3 -1.0944
vt 0.4 -0.570796
vt 0.4 -1.0944
vt 0.4 -1.0944
vt 0.4 -1.61799
vt 0.3 1
vt 0.4 -1.61799
vt 0.3 1
vt 0.4 -1.61799
vt 0.4 1
vt 0.4 -1.0944
vt 0.4 -0.570796
vt 0.5 -0.570796
vt 0.4 -1.0944
vt 0.5 -0.570796
vt 0.5 -1.0944
vt 0.5 -1.0944
vt 0.5 -1.61799
vt 0.4 1
vt 0.5 -1.61799
vt 0.4 1
vt 0.5 -1.61799
vt 0.5 1
vt 0.5 -1.0944
vt 0.5 -0.570796
vt 0.6 -0.570796
vt 0.5 -1.0944
vt 0.6 -0.570796
vt 0.6 -1.0944
vt 0.6 -1.0944
vt 0.6 -1.61799
vt 0.5 1
vt 0.6 -1.61799
vt 0.5 1
vt 0.6 -1.61799
vt 0.6 1
vt 0.6 0.476401
vt 0.6 1
vt 0.7 1
vt 0.7 0.476401
vt 0.6 -0.0471976
vt 0.7 -0.0471976
vt 0.6 -0.570796
vt 0.7 -0.570796
vt 0.6 -1.0944
vt 0.7 -1.0944
vt 0.6 -1.61799
vt 0.6 -1.0944
vt 0.7 -1.0944
vt 0.7 -1.61799
vt 0.7 -1.61799
vt 0.8 1
vt 0.8 0.476401
vt 0.8 -0.0471976
vt 0.8 -0.570796
vt 0.8 -1.0944
vt 0.8 -1.0944
vt 0.8 -1.61799
vt 0.8 -1.61799
vt 0.9 1
vt 0.9 0.476401
vt 0.9 -0.0471976
vt 0.9 -0.570796
vt 0.9 -1.0944
vt 0.9 -1.0944
vt 0.9 -1.61799
vt 0.9 -1.61799
vt 1 1
vt 1 0.476401
vt 1 -0.0471976
vt 1 -0.570796
vt 1 -1.0944
vt 1 -1.61799
vt 0.75 0.0669873
vt 1 0.5
vt 0.5 0.5
vt 0.25 0.0669873
vt 0 0.5
vt 0.25 0.933013
vt 0.75 0.933013
vt 0 0.607301
vt 0 1
vt 0.125 1
vt 0.125 0.607301
vt 0 0.214602
vt 0.125 0.214602
vt 0 -0.178097
vt 0.125 -0.178097
vt 0 -0.570796
vt 0.125 -0.570796
vt 0 -0.963495
vt 0.125 -0.963495
vt 0 -1.35619
vt 0.125 -1.35619
vt 0 -1.74889
vt 0.125 -1.74889
vt 0.625 0.607301
vt 0.625 1
vt 0.75 1
vt 0.75 0.607301
vt 0.625 0.214602
vt 0.75 0.214602
vt 0.625 -0.178097
vt 0.75 -0.178097
vt 0.625 -0.570796
vt 0.75 -0.570796
vt 0.625 -0.963495
vt 0.75 -0.963495
vt 0.625 -1.35619
vt 0.75 -1.35619
vt 0.625 -1.74889
vt 0.75 -1.74889
vt 0.875 1
vt 0.875 0.607301
vt 0.875 0.214602
vt 0.875 -0.178097
vt 0.875 -0.570796
vt 0.875 -0.963495
vt 0.875 -1.35619
vt 0.875 -1.74889
vt 1 1
vt 1 0.607301
vt 1 0.214602
vt 1 -0.178097
vt 1 -0.570796
vt 1 -0.963495
vt 1 -1.35619
vt 1 -1.74889
vt 1 0.5
vt 0.853553 0.146447
vt 0.5 0.5
vt 0.853553 0.146447
vt 1 0.5
vt 0.5 0.5
vt 0.5 0
vt 0.5 0
vt 0.146447 0.146447
vt 0.146447 0.146447
vt 0 0.5
vt 0 0.5
vt 0.146447 0.853553
vt 0.146447 0.853553
vt 0.5 1
vt 0.5 1
vt 0.853554 0.853553
vt 0.853554 0.853553
vt 0.8 -0.570796
vt 0.8 -0.884956
vt 0.7 -0.884956
vt 0.7 -0.570796
vt 0.8 -1.19911
vt 0.7 -1.19911
vt 0.8 -1.51327
vt 0.7 -1.51327
vt 0.8 -1.82743
vt 0.7 -1.82743
vt 0.8 1
vt 0.7 1
vt 0.9 -0.570796
vt 0.9 -0.884956
vt 0.9 -1.19911
vt 0.9 -1.51327
vt 0.9 -1.82743
vt 0.9 1
vt 1 1
vt 1 0.685841
vt 0.9 0.685841
vt 1 0.371681
vt 0.9 0.371681
vt 1 0.0575222
vt 0.9 0.0575222
vt 1 -0.256637
vt 0.9 -0.256637
vt 1 -0.570796
vt 1 -0.884956
vt 1 -1.19911
vt 1 -1.51327
vt 1 -1.82743
vt 0.8 1
vt 0.8 0.685841
vt 0.7 0.685841
vt 0.8 1
vt 0.7 0.685841
vt 0.7 1
vt 0.8 -0.256637
vt 0.8 -0.570796
vt 0.7 -0.570796
vt 0.8 -0.256637
vt 0.7 -0.570796
vt 0.7 -0.256637
vt 0.8 1
vt 0.8 0.685841
vt 0.7 0.685841
vt 0.8 1
vt 0.7 0.685841
vt 0.7 1
vt 0.8 -0.256637
vt 0.8 -0.570796
vt 0.7 -0.570796
vt 0.8 -0.256637
vt 0.7 -0.570796
vt 0.7 -0.256637
vt 0.8 1
vt 0.8 0.685841
vt 0.7 0.685841
vt 0.8 1
vt 0.7 0.685841
vt 0.7 1
vt 0.8 -0.256637
vt 0.8 -0.570796
vt 0.7 -0.570796
vt 0.8 -0.256637
vt 0.7 -0.570796
vt 0.7 -0.256637
vt 0.8 1
vt 0.8 0.685841
vt 0.7 0.685841
vt 0.8 1
vt 0.7 0.685841
vt 0.7 1
vt 0.8 -0.256637
vt 0.8 -0.570796
vt 0.7 -0.570796
vt 0.8 -0.256637
vt 0.7 -0.570796
vt 0.7 -0.256637
vt 0.8 1
vt 0.8 0.685841
vt 0.7 0.685841
vt 0.8 1
vt 0.7 0.685841
vt 0.7 1
vt 0.8 -0.256637
vt 0.8 -0.570796
vt 0.7 -0.570796
vt 0.8 -0.256637
vt 0.7 -0.570796
vt 0.7 -0.256637
vt 0.8 1
vt 0.8 0.685841
vt 0.7 0.685841
vt 0.8 1
vt 0.7 0.685841
vt 0.7 1
vt 0.8 -0.256637
vt 0.8 -0.570796
vt 0.7 -0.570796
vt 0.8 -0.256637
vt 0.7 -0.570796
vt 0.7 -0.256637
vt 0 0.607301
vt 0 1
vt 1 1
vt 1 0.607301
vt 0 0.214602
vt 1 0.214602
vt 0 -0.178097
vt 1 -0.178097
vt 0 -0.570796
vt 1 -0.570796
vt 0 -0.963495
vt 1 -0.963495
vt 0 -1.35619
vt 1 -1.35619
vt 0 -1.74889
vt 1 -1.74889
vt 3.14159 1
vt 2.35619 1
vt 2.35619 0.875
vt 3.14159 0.875
vt 3.92699 1
vt 3.14159 1
vt 3.14159 0.875
vt 3.92699 0.875
vt 4.71239 1
vt 4.71239 0.875
vt 2.35619 0.75
vt 3.14159 0.75
vt 3.14159 0.75
vt 3.92699 0.75
vt 4.71239 0.75
vt 2.35619 0.75
vt 2.35619 0.625
vt 3.14159 0.625
vt 3.14159 0.625
vt 3.92699 0.625
vt 4.71239 0.625
vt 2.35619 0.5
vt 3.14159 0.5
vt 3.14159 0.5
vt 3.92699 0.5
vt 4.71239 0.5
vt 2.35619 0.375
vt 3.14159 0.375
vt 3.14159 0.375
vt 3.92699 0.375
vt 4.71239 0.375
vt 2.35619 0.25
vt 3.14159 0.25
vt 3.14159 0.25
vt 3.92699 0.25
vt 4.71239 0.25
vt 2.35619 0.25
vt 2.35619 0.125
vt 3.14159 0.125
vt 3.14159 0.125
vt 3.92699 0.125
vt 4.71239 0.125
vt 0 0.607301
vt 0 1
vt 1 1
vt 1 0.607301
vt 0 0.214602
vt 1 0.214602
vt 0 -0.178097
vt 1 -0.178097
vt 0 -0.570796
vt 1 -0.570796
vt 0 -0.963495
vt 1 -0.963495
vt 0 -1.35619
vt 1 -1.35619
vt 0 -1.74889
vt 1 -1.74889
vt 0.853553 0.146447
vt 0.5 0.5
vt 1 0.5
vt 1 0.5
vt 0.5 0.5
vt 0.853553 0.146447
vt 0.5 0
vt 0.5 0
vt 0.146447 0.146447
vt 0.146447 0.146447
vt 0 0.5
vt 0 0.5
vt 0.146447 0.853553
vt 0.146447 0.853553
vt 0.5 1
vt 0.5 1
vt 0.853554 0.853553
vt 0.853554 0.853553
vt 1 1
vt 1 0
vt 0 0
vt 0 1
vt 1 1
vt 1 0
vt 0 0
vt 0 1
vt 1 1
vt 1 0
vt 0 0
vt 0 1
vt 1 1
vt 1 0
vt 0 0
vt 0 1
vt 1 1
vt 0 1
vt 0 0
vt 1 0
vt 1 1
vt 1 0
vt 0 0
vt 0 1
vt 1 1
vt 1 0
vt 0 0
vt 0 1
vt 1 1
vt 1 0
vt 0 0
vt 0 1
vt 1 1
vt 1 0
vt 0 0
vt 0 1
vt 1 1
vt 0 1
vt 0 0
vt 1 0
vt 1 1
vt 1 0
vt 0 0
vt 0 1
vt 1 1
vt 1 0
vt 0 0
vt 0 1
vt 1 1
vt 1 0
vt 0 0
vt 0 1
vt 1 1
vt 0 1
vt 0 0
vt 1 0
vt 5.49779 0.875
vt 5.49779 1
vt 4.71239 1
vt 4.71239 0.875
vt 0 0.875
vt 0 1
vt 5.49779 0.75
vt 4.71239 0.75
vt 0 0.75
vt 5.49779 0.625
vt 4.71239 0.625
vt 0 0.625
vt 5.49779 0.5
vt 4.71239 0.5
vt 0 0.5
vt 5.49779 0.375
vt 4.71239 0.375
vt 0 0.375
vt 5.49779 0.25
vt 4.71239 0.25
vt 0 0.25
vt 5.49779 0.125
vt 4.71239 0.125
vt 0 0.125
vt 1 0.607301
vt 0 0.607301
vt 0 1
vt 1 1
vt 1 0.214602
vt 0 0.214602
vt 1 -0.178097
vt 0 -0.178097
vt 1 -0.570796
vt 0 -0.570796
vt 1 -0.963495
vt 0 -0.963495
vt 1 -1.35619
vt 0 -1.35619
vt 1 -1.74889
vt 0 -1.74889
vt 1 1
vt 1 0
vt 0 0
vt 0 1
vt 1 1
vt 1 0
vt 0 0
vt 0 1
vt 1 1
vt 1 0
vt 0 0
vt 0 1
vt 1 1
vt 0 1
vt 0 0
vt 1 0
vt 1 1
vt 1 0
vt 0 0
vt 0 1
vt 1 1
vt 1 0
vt 0 0
vt 0 1
vt 1 1
vt 1 0
vt 0 0
vt 0 1
vt 1 1
vt 1 0
vt 0 0
vt 0 1
vt 1 1
vt 1 0
vt 0 0
vt 0 1
vt 1 1
vt 0 1
vt 0 0
vt 1 0
vt 1 1
vt 1 0
vt 0 0
vt 0 1
vt 1 1
vt 1 0
vt 0 0
vt 0 1
vt 1 1
vt 1 0
vt 0 0
vt 0 1
vt 1 1
vt 0 1
vt 0 0
vt 1 0
vt 1 1
vt 1 0
vt 0 0
vt 0 1
vt 1 1
vt 1 0
vt 0 0
vt 0 1
vt 1 1
vt 1 0
vt 0 0
vt 0 1
vt 1 1
vt 1 0
vt 0 0
vt 0 1
vt 1 1
vt 1 0
vt 0 0
vt 0 1
vt 1 1
vt 0 1
vt 0 0
vt 1 0
vt 1 0.80365
vt 0 0.80365
vt 0 1
vt 1 1
vt 1 0.607301
vt 0 0.607301
vt 1 0.410951
vt 0 0.410951
vt 1 0.214602
vt 0 0.214602
vt 1 0.0182523
vt 0 0.0182523
vt 1 -0.178097
vt 0 -0.178097
vt 1 -0.374447
vt 0 -0.374447
vt 1 -0.570796
vt 0 -0.570796
vt 1 -0.767146
vt 0 -0.767146
vt 1 -0.963495
vt 0 -0.963495
vt 1 -1.15985
vt 0 -1.15985
vt 1 -1.35619
vt 0 -1.35619
vt 1 -1.55254
vt 0 -1.55254
vt 1 -1.74889
vt 0 -1.74889
vt 1 -1.94524
vt 0 -1.94524
vt 0.5 0.5
vt 1 0.5
vt 0.96194 0.308658
vt 0.5 0.5
vt 0.96194 0.308658
vt 1 0.5
vt 0.853553 0.146447
vt 0.853553 0.146447
vt 0.691342 0.0380602
vt 0.691342 0.0380602
vt 0.5 0
vt 0.5 0
vt 0.308658 0.0380602
vt 0.308658 0.0380602
vt 0.146447 0.146447
vt 0.146447 0.146447
vt 0.0380602 0.308658
vt 0.0380602 0.308658
vt 0 0.5
vt 0 0.5
vt 0.0380602 0.691342
vt 0.0380602 0.691342
vt 0.146447 0.853553
vt 0.146447 0.853553
vt 0.308658 0.96194
vt 0.308658 0.96194
vt 0.5 1
vt 0.5 1
vt 0.691342 0.96194
vt 0.691342 0.96194
vt 0.853554 0.853553
vt 0.853554 0.853553
vt 0.96194 0.691342
vt 0.96194 0.691342
vt 1 1
vt 1 0
vt 0 0
vt 0 1
vt 1 1
vt 1 0
vt 0 0
vt 0 1
vt 1 1
vt 1 0
vt 0 0
vt 0 1
vt 1 1
vt 1 0
vt 0 0
vt 0 1
vt 1 1
vt 1 0
vt 0 0
vt 0 1
vt 1 1
vt 0 1
vt 0 0
vt 1 0


usemtl lataria

f 1/1/1 2/2/2 3/3/3
f 1/1/1 3/3/3 4/4/4
f 5/5/5 6/6/6 7/7/7
f 5/5/5 7/7/7 8/8/8
f 4/4/4 3/3/3 9/9/9
f 4/4/4 9/9/9 10/10/10
f 8/8/8 7/7/7 11/11/11
f 8/8/8 11/11/11 12/12/12
f 10/10/10 9/9/9 13/13/13
f 10/10/10 13/13/13 14/14/14
f 12/12/12 11/11/11 15/15/15
f 12/12/12 15/15/15 16/16/16
f 14/14/14 13/13/13 17/17/17
f 14/14/14 17/17/17 18/18/18
f 16/16/16 15/15/15 19/19/19
f 16/16/16 19/19/19 20/20/20
f 18/18/18 17/17/17 21/21/21
f 18/18/18 21/21/21 22/22/22
f 20/20/20 19/19/19 23/23/23
f 20/20/20 23/23/23 24/24/24
f 22/22/22 21/21/21 25/25/25
f 22/22/22 25/25/25 26/26/26
f 24/24/24 23/23/23 27/27/27
f 24/24/24 27/27/27 28/28/28
f 26/26/26 25/25/25 29/29/29
f 26/26/26 29/29/29 30/30/30
f 28/28/28 27/27/27 31/31/31
f 28/28/28 31/31/31 32/32/32
f 30/30/30 29/29/29 33/33/33
f 30/30/30 33/33/33 34/34/34
f 32/32/32 31/31/31 35/35/35
f 32/32/32 35/35/35 36/36/36
f 34/34/34 33/33/33 37/37/37
f 34/34/34 37/37/37 38/38/38
f 36/36/36 35/35/35 39/39/39
f 36/36/36 39/39/39 40/40/40
f 38/38/38 37/37/37 41/41/41
f 38/38/38 41/41/41 42/42/42
f 43/43/43 44/44/44 45/45/45
f 43/43/43 45/45/45 46/46/46
f 47/47/47 48/48/48 49/49/49
f 47/47/47 49/49/49 50/50/50
f 50/50/50 49/49/49 51/51/51
f 50/50/50 51/51/51 52/52/52
f 52/52/52 51/51/51 53/53/53
f 52/52/52 53/53/53 54/54/54
f 54/54/54 53/53/53 55/55/55
f 54/54/54 55/55/55 56/56/56
f 56/56/56 55/55/55 57/57/57
f 56/56/56 57/57/57 58/58/58
f 58/58/58 57/57/57 59/59/59
f 58/58/58 59/59/59 60/60/60
f 60/60/60 59/59/59 61/61/61
f 60/60/60 61/61/61 62/62/62
f 62/62/62 61/61/61 63/63/63
f 62/62/62 63/63/63 64/64/64
f 65/65/65 66/66/66 67/67/67
f 65/65/65 67/67/67 68/68/68
f 64/64/64 63/63/63 69/69/69
f 64/64/64 69/69/69 70/70/70
f 71/71/71 72/72/72 73/73/73
f 71/71/71 73/73/73 74/74/74
f 75/75/75 76/76/76 77/77/77
f 75/75/75 77/77/77 78/78/78
f 74/74/74 73/73/73 79/79/79
f 74/74/74 79/79/79 80/80/80
f 78/78/78 77/77/77 81/81/81
f 78/78/78 81/81/81 82/82/82
f 80/80/80 79/79/79 83/83/83
f 80/80/80 83/83/83 84/84/84
f 82/82/82 81/81/81 85/85/85
f 82/82/82 85/85/85 86/86/86
f 84/84/84 83/83/83 87/87/87
f 84/84/84 87/87/87 88/88/88
f 86/86/86 85/85/85 89/89/89
f 86/86/86 89/89/89 90/90/90
f 88/88/88 87/87/87 91/91/91
f 88/88/88 91/91/91 92/92/92
f 90/90/90 89/89/89 93/93/93
f 90/90/90 93/93/93 94/94/94
f 92/92/92 91/91/91 95/95/95
f 92/92/92 95/95/95 96/96/96
f 94/94/94 93/93/93 97/97/97
f 94/94/94 97/97/97 98/98/98
f 96/96/96 95/95/95 99/99/99
f 96/96/96 99/99/99 100/100/100
f 98/98/98 97/97/97 101/101/101
f 98/98/98 101/101/101 102/102/102
f 100/100/100 99/99/99 103/103/103
f 100/100/100 103/103/103 104/104/104
f 102/102/102 101/101/101 105/105/105
f 102/102/102 105/105/105 106/106/106
f 104/104/104 103/103/103 107/107/107
f 104/104/104 107/107/107 108/108/108
f 106/106/106 105/105/105 109/109/109
f 106/106/106 109/109/109 110/110/110
f 108/108/108 107/107/107 111/111/111
f 108/108/108 111/111/111 112/112/112
f 113/113/113 114/114/114 115/115/115
f 113/113/113 115/115/115 116/116/116
f 117/117/117 118/118/118 119/119/119
f 117/117/117 119/119/119 120/120/120
f 118/118/118 121/121/121 122/122/122
f 118/118/118 122/122/122 119/119/119
f 121/121/121 123/123/123 124/124/124
f 121/121/121 124/124/124 122/122/122
f 123/123/123 125/125/125 126/126/126
f 123/123/123 126/126/126 124/124/124
f 125/125/125 127/127/127 128/128/128
f 125/125/125 128/128/128 126/126/126
f 127/127/127 129/129/129 130/130/130
f 127/127/127 130/130/130 128/128/128
f 129/129/129 131/131/131 132/132/132
f 129/129/129 132/132/132 130/130/130
f 131/131/131 133/133/133 134/134/134
f 131/131/131 134/134/134 132/132/132
f 133/133/133 135/135/135 136/136/136
f 133/133/133 136/136/136 134/134/134
f 137/137/137 138/138/138 139/139/139
f 137/137/137 139/139/139 140/140/140
f 141/141/141 142/142/142 143/143/143
f 141/141/141 143/143/143 144/144/144
f 145/145/145 141/141/141 144/144/144
f 145/145/145 144/144/144 146/146/146
f 147/147/147 145/145/145 146/146/146
f 147/147/147 146/146/146 148/148/148
f 149/149/149 147/147/147 148/148/148
f 149/149/149 148/148/148 150/150/150
f 151/151/151 152/152/152 153/153/153
f 151/151/151 153/153/153 154/154/154
f 142/142/142 155/155/155 156/156/156
f 142/142/142 156/156/156 143/143/143
f 157/157/157 158/158/158 159/159/159
f 160/160/160 161/161/161 162/162/162
f 154/154/154 153/153/153 163/163/163
f 154/154/154 163/163/163 164/164/164
f 143/143/143 156/156/156 165/165/165
f 166/166/166 167/167/167 168/168/168
f 169/169/169 170/170/170 171/171/171
f 172/172/172 173/173/173 174/174/174
f 164/164/164 163/163/163 175/175/175
f 164/164/164 175/175/175 176/176/176
f 177/177/177 165/165/165 178/178/178
f 179/179/179 180/180/180 181/181/181
f 182/182/182 183/183/183 184/184/184
f 185/185/185 186/186/186 187/187/187
f 176/176/176 175/175/175 188/188/188
f 176/176/176 188/188/188 189/189/189
f 190/190/190 178/178/178 191/191/191
f 192/192/192 193/193/193 194/194/194
f 195/195/195 196/196/196 197/197/197
f 198/198/198 199/199/199 200/200/200
f 189/189/189 188/188/188 201/201/201
f 189/189/189 201/201/201 202/202/202
f 203/203/203 191/191/191 204/204/204
f 205/205/205 206/206/206 207/207/207
f 208/208/208 209/209/209 210/210/210
f 208/208/208 210/210/210 211/211/211
f 212/212/212 208/208/208 211/211/211
f 212/212/212 211/211/211 213/213/213
f 214/214/214 212/212/212 213/213/213
f 214/214/214 213/213/213 215/215/215
f 216/216/216 214/214/214 215/215/215
f 216/216/216 215/215/215 217/217/217
f 218/218/218 219/219/219 220/220/220
f 218/218/218 220/220/220 221/221/221
f 209/209/209 204/204/204 222/222/222
f 209/209/209 222/222/222 210/210/210
f 211/211/211 210/210/210 223/223/223
f 211/211/211 223/223/223 224/224/224
f 213/213/213 211/211/211 224/224/224
f 213/213/213 224/224/224 225/225/225
f 215/215/215 213/213/213 225/225/225
f 215/215/215 225/225/225 226/226/226
f 217/217/217 215/215/215 226/226/226
f 217/217/217 226/226/226 227/227/227
f 221/221/221 220/220/220 228/228/228
f 221/221/221 228/228/228 229/229/229
f 210/210/210 222/222/222 230/230/230
f 210/210/210 230/230/230 223/223/223
f 224/224/224 223/223/223 231/231/231
f 224/224/224 231/231/231 232/232/232
f 225/225/225 224/224/224 232/232/232
f 225/225/225 232/232/232 233/233/233
f 226/226/226 225/225/225 233/233/233
f 226/226/226 233/233/233 234/234/234
f 227/227/227 226/226/226 234/234/234
f 227/227/227 234/234/234 235/235/235
f 229/229/229 228/228/228 236/236/236
f 229/229/229 236/236/236 237/237/237
f 223/223/223 230/230/230 238/238/238
f 223/223/223 238/238/238 231/231/231
f 232/232/232 231/231/231 239/239/239
f 232/232/232 239/239/239 240/240/240
f 233/233/233 232/232/232 240/240/240
f 233/233/233 240/240/240 241/241/241
f 234/234/234 233/233/233 241/241/241
f 234/234/234 241/241/241 242/242/242
f 235/235/235 234/234/234 242/242/242
f 235/235/235 242/242/242 243/243/243
f 237/237/237 235/235/235 243/243/243
f 237/237/237 243/243/243 244/244/244
f 231/231/231 237/237/237 244/244/244
f 231/231/231 244/244/244 239/239/239
f 245/245/245 246/246/246 247/247/247
f 248/248/248 245/245/245 247/247/247
f 249/249/249 248/248/248 247/247/247
f 250/250/250 249/249/249 247/247/247
f 251/251/251 250/250/250 247/247/247
f 246/246/246 251/251/251 247/247/247
f 252/252/252 253/253/253 254/254/254
f 252/252/252 254/254/254 255/255/255
f 256/256/256 252/252/252 255/255/255
f 256/256/256 255/255/255 257/257/257
f 258/258/258 256/256/256 257/257/257
f 258/258/258 257/257/257 259/259/259
f 260/260/260 258/258/258 259/259/259
f 260/260/260 259/259/259 261/261/261
f 262/262/262 260/260/260 261/261/261
f 262/262/262 261/261/261 263/263/263
f 264/264/264 262/262/262 263/263/263
f 264/264/264 263/263/263 265/265/265
f 266/266/266 264/264/264 265/265/265
f 266/266/266 265/265/265 267/267/267
f 253/253/253 266/266/266 267/267/267
f 253/253/253 267/267/267 254/254/254
f 268/268/268 269/269/269 270/270/270
f 268/268/268 270/270/270 271/271/271
f 272/272/272 268/268/268 271/271/271
f 272/272/272 271/271/271 273/273/273
f 274/274/274 272/272/272 273/273/273
f 274/274/274 273/273/273 275/275/275
f 276/276/276 274/274/274 275/275/275
f 276/276/276 275/275/275 277/277/277
f 278/278/278 276/276/276 277/277/277
f 278/278/278 277/277/277 279/279/279
f 280/280/280 278/278/278 279/279/279
f 280/280/280 279/279/279 281/281/281
f 282/282/282 280/280/280 281/281/281
f 282/282/282 281/281/281 283/283/283
f 269/269/269 282/282/282 283/283/283
f 269/269/269 283/283/283 270/270/270
f 271/271/271 270/270/270 284/284/284
f 271/271/271 284/284/284 285/285/285
f 273/273/273 271/271/271 285/285/285
f 273/273/273 285/285/285 286/286/286
f 275/275/275 273/273/273 286/286/286
f 275/275/275 286/286/286 287/287/287
f 277/277/277 275/275/275 287/287/287
f 277/277/277 287/287/287 288/288/288
f 279/279/279 277/277/277 288/288/288
f 279/279/279 288/288/288 289/289/289
f 281/281/281 279/279/279 289/289/289
f 281/281/281 289/289/289 290/290/290
f 283/283/283 281/281/281 290/290/290
f 283/283/283 290/290/290 291/291/291
f 270/270/270 283/283/283 291/291/291
f 270/270/270 291/291/291 284/284/284
f 285/285/285 284/284/284 292/292/292
f 285/285/285 292/292/292 293/293/293
f 286/286/286 285/285/285 293/293/293
f 286/286/286 293/293/293 294/294/294
f 287/287/287 286/286/286 294/294/294
f 287/287/287 294/294/294 295/295/295
f 288/288/288 287/287/287 295/295/295
f 288/288/288 295/295/295 296/296/296
f 289/289/289 288/288/288 296/296/296
f 289/289/289 296/296/296 297/297/297
f 290/290/290 289/289/289 297/297/297
f 290/290/290 297/297/297 298/298/298
f 291/291/291 290/290/290 298/298/298
f 291/291/291 298/298/298 299/299/299
f 284/284/284 291/291/291 299/299/299
f 284/284/284 299/299/299 292/292/292
f 300/300/300 301/301/301 302/302/302
f 303/303/303 304/304/304 305/305/305
f 301/301/301 306/306/306 302/302/302
f 307/307/307 303/303/303 305/305/305
f 306/306/306 308/308/308 302/302/302
f 309/309/309 307/307/307 305/305/305
f 308/308/308 310/310/310 302/302/302
f 311/311/311 309/309/309 305/305/305
f 310/310/310 312/312/312 302/302/302
f 313/313/313 311/311/311 305/305/305
f 312/312/312 314/314/314 302/302/302
f 315/315/315 313/313/313 305/305/305
f 314/314/314 316/316/316 302/302/302
f 317/317/317 315/315/315 305/305/305
f 316/316/316 300/300/300 302/302/302
f 304/304/304 317/317/317 305/305/305
usemtl gabine

f 318/318/318 319/319/319 320/320/320
f 318/318/318 320/320/320 321/321/321
f 319/319/319 322/322/322 323/323/323
f 319/319/319 323/323/323 320/320/320
f 322/322/322 324/324/324 325/325/325
f 322/322/322 325/325/325 323/323/323
f 324/324/324 326/326/326 327/327/327
f 324/324/324 327/327/327 325/325/325
f 326/326/326 328/328/328 329/329/329
f 326/326/326 329/329/329 327/327/327
f 330/330/330 331/331/331 319/319/319
f 330/330/330 319/319/319 318/318/318
f 331/331/331 332/332/332 322/322/322
f 331/331/331 322/322/322 319/319/319
f 332/332/332 333/333/333 324/324/324
f 332/332/332 324/324/324 322/322/322
f 333/333/333 334/334/334 326/326/326
f 333/333/333 326/326/326 324/324/324
f 334/334/334 335/335/335 328/328/328
f 334/334/334 328/328/328 326/326/326
f 336/336/336 337/337/337 338/338/338
f 336/336/336 338/338/338 335/335/335
f 337/337/337 339/339/339 340/340/340
f 337/337/337 340/340/340 338/338/338
f 339/339/339 341/341/341 342/342/342
f 339/339/339 342/342/342 340/340/340
f 341/341/341 343/343/343 344/344/344
f 341/341/341 344/344/344 342/342/342
f 343/343/343 345/345/345 330/330/330
f 343/343/343 330/330/330 344/344/344
f 345/345/345 346/346/346 331/331/331
f 345/345/345 331/331/331 330/330/330
f 346/346/346 347/347/347 332/332/332
f 346/346/346 332/332/332 331/331/331
f 347/347/347 348/348/348 333/333/333
f 347/347/347 333/333/333 332/332/332
f 348/348/348 349/349/349 334/334/334
f 348/348/348 334/334/334 333/333/333
f 349/349/349 336/336/336 335/335/335
f 349/349/349 335/335/335 334/334/334
f 350/350/350 351/351/351 352/352/352
f 353/353/353 354/354/354 355/355/355
f 356/356/356 357/357/357 358/358/358
f 359/359/359 360/360/360 361/361/361
f 362/362/362 363/363/363 364/364/364
f 365/365/365 366/366/366 367/367/367
f 368/368/368 369/369/369 370/370/370
f 371/371/371 372/372/372 373/373/373
f 374/374/374 375/375/375 376/376/376
f 377/377/377 378/378/378 379/379/379
f 380/380/380 381/381/381 382/382/382
f 383/383/383 384/384/384 385/385/385
f 386/386/386 387/387/387 388/388/388
f 389/389/389 390/390/390 391/391/391
f 392/392/392 393/393/393 394/394/394
f 395/395/395 396/396/396 397/397/397
f 398/398/398 399/399/399 400/400/400
f 401/401/401 402/402/402 403/403/403
f 404/404/404 405/405/405 406/406/406
f 407/407/407 408/408/408 409/409/409
f 410/410/410 411/411/411 412/412/412
f 413/413/413 414/414/414 415/415/415
f 416/416/416 417/417/417 418/418/418
f 419/419/419 420/420/420 421/421/421
usemtl motor

f 422/422/422 423/423/423 424/424/424
f 422/422/422 424/424/424 425/425/425
f 426/426/426 422/422/422 425/425/425
f 426/426/426 425/425/425 427/427/427
f 428/428/428 426/426/426 427/427/427
f 428/428/428 427/427/427 429/429/429
f 430/430/430 428/428/428 429/429/429
f 430/430/430 429/429/429 431/431/431
f 432/432/432 430/430/430 431/431/431
f 432/432/432 431/431/431 433/433/433
f 434/434/434 432/432/432 433/433/433
f 434/434/434 433/433/433 435/435/435
f 436/436/436 434/434/434 435/435/435
f 436/436/436 435/435/435 437/437/437
f 423/423/423 436/436/436 437/437/437
f 423/423/423 437/437/437 424/424/424
f 438/438/438 439/439/439 440/440/440
f 438/438/438 440/440/440 441/441/441
f 442/442/442 443/443/443 444/444/444
f 442/442/442 444/444/444 445/445/445
f 446/446/446 442/442/442 445/445/445
f 446/446/446 445/445/445 447/447/447
f 441/441/441 440/440/440 448/448/448
f 441/441/441 448/448/448 449/449/449
f 445/445/445 444/444/444 450/450/450
f 445/445/445 450/450/450 451/451/451
f 447/447/447 445/445/445 451/451/451
f 447/447/447 451/451/451 452/452/452
f 450/450/450 453/453/453 454/454/454
f 450/450/450 454/454/454 455/455/455
f 451/451/451 449/449/449 456/456/456
f 451/451/451 456/456/456 457/457/457
f 452/452/452 451/451/451 457/457/457
f 452/452/452 457/457/457 458/458/458
f 455/455/455 454/454/454 459/459/459
f 455/455/455 459/459/459 460/460/460
f 457/457/457 456/456/456 461/461/461
f 457/457/457 461/461/461 462/462/462
f 458/458/458 457/457/457 462/462/462
f 458/458/458 462/462/462 463/463/463
f 460/460/460 459/459/459 464/464/464
f 460/460/460 464/464/464 465/465/465
f 462/462/462 460/460/460 466/466/466
f 462/462/462 466/466/466 467/467/467
f 463/463/463 462/462/462 467/467/467
f 463/463/463 467/467/467 468/468/468
f 465/465/465 464/464/464 469/469/469
f 465/465/465 469/469/469 470/470/470
f 467/467/467 466/466/466 471/471/471
f 467/467/467 471/471/471 472/472/472
f 468/468/468 467/467/467 472/472/472
f 468/468/468 472/472/472 473/473/473
f 471/471/471 474/474/474 475/475/475
f 471/471/471 475/475/475 476/476/476
f 472/472/472 470/470/470 477/477/477
f 472/472/472 477/477/477 478/478/478
f 473/473/473 472/472/472 478/478/478
f 473/473/473 478/478/478 479/479/479
f 476/476/476 475/475/475 439/439/439
f 476/476/476 439/439/439 438/438/438
f 478/478/478 477/477/477 443/443/443
f 478/478/478 443/443/443 442/442/442
f 479/479/479 478/478/478 442/442/442
f 479/479/479 442/442/442 446/446/446
f 480/480/480 481/481/481 482/482/482
f 480/480/480 482/482/482 483/483/483
f 484/484/484 480/480/480 483/483/483
f 484/484/484 483/483/483 485/485/485
f 486/486/486 484/484/484 485/485/485
f 486/486/486 485/485/485 487/487/487
f 488/488/488 486/486/486 487/487/487
f 488/488/488 487/487/487 489/489/489
f 490/490/490 488/488/488 489/489/489
f 490/490/490 489/489/489 491/491/491
f 492/492/492 490/490/490 491/491/491
f 492/492/492 491/491/491 493/493/493
f 494/494/494 492/492/492 493/493/493
f 494/494/494 493/493/493 495/495/495
f 481/481/481 494/494/494 495/495/495
f 481/481/481 495/495/495 482/482/482
f 496/496/496 497/497/497 498/498/498
f 499/499/499 500/500/500 501/501/501
f 502/502/502 497/497/497 496/496/496
f 501/501/501 500/500/500 503/503/503
f 504/504/504 497/497/497 502/502/502
f 503/503/503 500/500/500 505/505/505
f 506/506/506 497/497/497 504/504/504
f 505/505/505 500/500/500 507/507/507
f 508/508/508 497/497/497 506/506/506
f 507/507/507 500/500/500 509/509/509
f 510/510/510 497/497/497 508/508/508
f 509/509/509 500/500/500 511/511/511
f 512/512/512 497/497/497 510/510/510
f 511/511/511 500/500/500 513/513/513
f 498/498/498 497/497/497 512/512/512
f 513/513/513 500/500/500 499/499/499
f 514/514/514 515/515/515 516/516/516
f 514/514/514 516/516/516 517/517/517
f 518/518/518 519/519/519 520/520/520
f 518/518/518 520/520/520 521/521/521
f 522/522/522 523/523/523 524/524/524
f 522/522/522 524/524/524 525/525/525
f 526/526/526 527/527/527 528/528/528
f 526/526/526 528/528/528 529/529/529
f 530/530/530 531/531/531 532/532/532
f 530/530/530 532/532/532 533/533/533
f 534/534/534 535/535/535 536/536/536
f 534/534/534 536/536/536 537/537/537
f 538/538/538 539/539/539 540/540/540
f 538/538/538 540/540/540 541/541/541
f 542/542/542 543/543/543 544/544/544
f 542/542/542 544/544/544 545/545/545
f 546/546/546 547/547/547 548/548/548
f 546/546/546 548/548/548 549/549/549
f 550/550/550 551/551/551 552/552/552
f 550/550/550 552/552/552 553/553/553
f 554/554/554 555/555/555 556/556/556
f 554/554/554 556/556/556 557/557/557
f 558/558/558 559/559/559 560/560/560
f 558/558/558 560/560/560 561/561/561
f 562/562/562 563/563/563 564/564/564
f 562/562/562 564/564/564 565/565/565
f 566/566/566 567/567/567 568/568/568
f 566/566/566 568/568/568 569/569/569
f 570/570/570 571/571/571 572/572/572
f 570/570/570 572/572/572 573/573/573
f 574/574/574 575/575/575 571/571/571
f 574/574/574 571/571/571 570/570/570
f 576/576/576 570/570/570 573/573/573
f 576/576/576 573/573/573 577/577/577
f 578/578/578 574/574/574 570/570/570
f 578/578/578 570/570/570 576/576/576
f 579/579/579 576/576/576 577/577/577
f 579/579/579 577/577/577 580/580/580
f 581/581/581 578/578/578 576/576/576
f 581/581/581 576/576/576 579/579/579
f 582/582/582 579/579/579 580/580/580
f 582/582/582 580/580/580 583/583/583
f 584/584/584 581/581/581 579/579/579
f 584/584/584 579/579/579 582/582/582
f 585/585/585 582/582/582 583/583/583
f 585/585/585 583/583/583 586/586/586
f 587/587/587 584/584/584 582/582/582
f 587/587/587 582/582/582 585/585/585
f 588/588/588 585/585/585 586/586/586
f 588/588/588 586/586/586 589/589/589
f 590/590/590 587/587/587 585/585/585
f 590/590/590 585/585/585 588/588/588
f 591/591/591 588/588/588 589/589/589
f 591/591/591 589/589/589 592/592/592
f 593/593/593 590/590/590 588/588/588
f 593/593/593 588/588/588 591/591/591
f 571/571/571 591/591/591 592/592/592
f 571/571/571 592/592/592 572/572/572
f 575/575/575 593/593/593 591/591/591
f 575/575/575 591/591/591 571/571/571
f 594/594/594 595/595/595 596/596/596
f 594/594/594 596/596/596 597/597/597
f 598/598/598 599/599/599 595/595/595
f 598/598/598 595/595/595 594/594/594
f 600/600/600 601/601/601 599/599/599
f 600/600/600 599/599/599 598/598/598
f 602/602/602 603/603/603 601/601/601
f 602/602/602 601/601/601 600/600/600
f 604/604/604 605/605/605 603/603/603
f 604/604/604 603/603/603 602/602/602
f 606/606/606 607/607/607 605/605/605
f 606/606/606 605/605/605 604/604/604
f 608/608/608 609/609/609 607/607/607
f 608/608/608 607/607/607 606/606/606
f 597/597/597 596/596/596 609/609/609
f 597/597/597 609/609/609 608/608/608
f 610/610/610 611/611/611 612/612/612
f 610/610/610 612/612/612 613/613/613
f 614/614/614 615/615/615 616/616/616
f 614/614/614 616/616/616 617/617/617
f 618/618/618 619/619/619 620/620/620
f 618/618/618 620/620/620 621/621/621
f 622/622/622 623/623/623 624/624/624
f 622/622/622 624/624/624 625/625/625
f 626/626/626 627/627/627 628/628/628
f 626/626/626 628/628/628 629/629/629
f 630/630/630 631/631/631 632/632/632
f 630/630/630 632/632/632 633/633/633
f 634/634/634 635/635/635 636/636/636
f 634/634/634 636/636/636 637/637/637
f 638/638/638 639/639/639 640/640/640
f 638/638/638 640/640/640 641/641/641
f 642/642/642 643/643/643 644/644/644
f 642/642/642 644/644/644 645/645/645
f 646/646/646 647/647/647 648/648/648
f 646/646/646 648/648/648 649/649/649
f 650/650/650 651/651/651 652/652/652
f 650/650/650 652/652/652 653/653/653
f 654/654/654 655/655/655 656/656/656
f 654/654/654 656/656/656 657/657/657
f 658/658/658 659/659/659 660/660/660
f 658/658/658 660/660/660 661/661/661
f 662/662/662 663/663/663 664/664/664
f 662/662/662 664/664/664 665/665/665
f 666/666/666 667/667/667 668/668/668
f 666/666/666 668/668/668 669/669/669
f 670/670/670 671/671/671 672/672/672
f 670/670/670 672/672/672 673/673/673
f 674/674/674 675/675/675 676/676/676
f 674/674/674 676/676/676 677/677/677
f 678/678/678 679/679/679 680/680/680
f 678/678/678 680/680/680 681/681/681
f 682/682/682 683/683/683 684/684/684
f 682/682/682 684/684/684 685/685/685
f 686/686/686 687/687/687 688/688/688
f 686/686/686 688/688/688 689/689/689
f 690/690/690 691/691/691 692/692/692
f 690/690/690 692/692/692 693/693/693
f 694/694/694 695/695/695 691/691/691
f 694/694/694 691/691/691 690/690/690
f 696/696/696 697/697/697 695/695/695
f 696/696/696 695/695/695 694/694/694
f 698/698/698 699/699/699 697/697/697
f 698/698/698 697/697/697 696/696/696
f 700/700/700 701/701/701 699/699/699
f 700/700/700 699/699/699 698/698/698
f 702/702/702 703/703/703 701/701/701
f 702/702/702 701/701/701 700/700/700
f 704/704/704 705/705/705 703/703/703
f 704/704/704 703/703/703 702/702/702
f 706/706/706 707/707/707 705/705/705
f 706/706/706 705/705/705 704/704/704
f 708/708/708 709/709/709 707/707/707
f 708/708/708 707/707/707 706/706/706
f 710/710/710 711/711/711 709/709/709
f 710/710/710 709/709/709 708/708/708
f 712/712/712 713/713/713 711/711/711
f 712/712/712 711/711/711 710/710/710
f 714/714/714 715/715/715 713/713/713
f 714/714/714 713/713/713 712/712/712
f 716/716/716 717/717/717 715/715/715
f 716/716/716 715/715/715 714/714/714
f 718/718/718 719/719/719 717/717/717
f 718/718/718 717/717/717 716/716/716
f 720/720/720 721/721/721 719/719/719
f 720/720/720 719/719/719 718/718/718
f 693/693/693 692/692/692 721/721/721
f 693/693/693 721/721/721 720/720/720
f 722/722/722 723/723/723 724/724/724
f 725/725/725 726/726/726 727/727/727
f 722/722/722 724/724/724 728/728/728
f 725/725/725 729/729/729 726/726/726
f 722/722/722 728/728/728 730/730/730
f 725/725/725 731/731/731 729/729/729
f 722/722/722 730/730/730 732/732/732
f 725/725/725 733/733/733 731/731/731
f 722/722/722 732/732/732 734/734/734
f 725/725/725 735/735/735 733/733/733
f 722/722/722 734/734/734 736/736/736
f 725/725/725 737/737/737 735/735/735
f 722/722/722 736/736/736 738/738/738
f 725/725/725 739/739/739 737/737/737
f 722/722/722 738/738/738 740/740/740
f 725/725/725 741/741/741 739/739/739
f 722/722/722 740/740/740 742/742/742
f 725/725/725 743/743/743 741/741/741
f 722/722/722 742/742/742 744/744/744
f 725/725/725 745/745/745 743/743/743
f 722/722/722 744/744/744 746/746/746
f 725/725/725 747/747/747 745/745/745
f 722/722/722 746/746/746 748/748/748
f 725/725/725 749/749/749 747/747/747
f 722/722/722 748/748/748 750/750/750
f 725/725/725 751/751/751 749/749/749
f 722/722/722 750/750/750 752/752/752
f 725/725/725 753/753/753 751/751/751
f 722/722/722 752/752/752 754/754/754
f 725/725/725 755/755/755 753/753/753
f 722/722/722 754/754/754 723/723/723
f 725/725/725 727/727/727 755/755/755
f 756/756/756 757/757/757 758/758/758
f 756/756/756 758/758/758 759/759/759
f 760/760/760 761/761/761 762/762/762
f 760/760/760 762/762/762 763/763/763
f 764/764/764 765/765/765 766/766/766
f 764/764/764 766/766/766 767/767/767
f 768/768/768 769/769/769 770/770/770
f 768/768/768 770/770/770 771/771/771
f 772/772/772 773/773/773 774/774/774
f 772/772/772 774/774/774 775/775/775
f 776/776/776 777/777/777 778/778/778
f 776/776/776 778/778/778 779/779/779
