# Exported by ZModeler 2.2.4 (Build 981) with WavefrontOBJ filter (Build 45)
# 

mtllib chassi_2.mtl

v -1.7 -3.7 0.951691
v -1.8 -3.7 1.1
v -1.8 -3.04212 1.1
v -1.7 -3.04212 0.951691
v -1 -3.7 0.7
v -1 -3.04212 0.7
v 1 -3.7 0.7
v 1 -3.04212 0.7
v 1.7 -3.7 0.951691
v 1.7 -3.04212 0.951691
v 1.8 -3.7 1.1
v 1.8 -3.04212 1.1
v -1.8 -1.65 1.15
v -1.7 -1.65 1.00169
v -1 -1.65 0.75
v 1 -1.65 0.75
v 1.7 -1.65 1.00169
v 1.8 -1.65 1.15
v 1.8 -1.9 5.05
v 1.8 1.1 1.6
v 1.8 1.1 4.8
v 1.7 -1.9 5.15
v 1.7 1.1 4.9
v -1.7 -1.9 5.15
v -1.7 1.1 4.9
v -1.8 -1.9 5.05
v -1.8 1.1 4.8
v -1.8 1.1 1.6
v -1.7 1.1 1.45169
v -0.5 1.1 1.2
v 0.5 1.1 1.2
v 1.7 1.1 1.45169
v 1.8 -1.9 5.05
v 1.8 -2.1 3.6
v 1.8 -1.65 1.15
v 1.8 -1.9 5.05
v -1.8 -2.1 3.6
v -1.8 -1.9 5.05
v -1.8 -1.9 5.05
v -1.8 -1.65 1.15
v 1.8 -2.1 3.6
v 1.8 -2.5 2.9
v 1.8 -1.65 1.15
v 1.8 -2.1 3.6
v -1.8 -2.5 2.9
v -1.8 -2.1 3.6
v -1.8 -2.1 3.6
v -1.8 -1.65 1.15
v 1.8 -2.5 2.9
v 1.8 -3.1 2.3
v 1.8 -1.65 1.15
v 1.8 -2.5 2.9
v -1.8 -3.1 2.3
v -1.8 -2.5 2.9
v -1.8 -2.5 2.9
v -1.8 -1.65 1.15
v 1.8 -3.1 2.3
v 1.8 -3.04212 1.1
v 1.8 -1.65 1.15
v 1.8 -3.1 2.3
v -1.8 -3.04212 1.1
v -1.8 -3.1 2.3
v -1.8 -3.1 2.3
v -1.8 -1.65 1.15
v 1.8 -3.1 2.3
v 1.8 -3.7 2.1
v 1.8 -3.04212 1.1
v 1.8 -3.1 2.3
v -1.8 -3.7 2.1
v -1.8 -3.1 2.3
v -1.8 -3.1 2.3
v -1.8 -3.04212 1.1
v 1.8 -3.7 2.1
v 1.8 -3.7 1.1
v 1.8 -3.04212 1.1
v 1.8 -3.7 2.1
v -1.8 -3.7 1.1
v -1.8 -3.7 2.1
v -1.8 -3.7 2.1
v -1.8 -3.04212 1.1


vn -0.614192 0 -0.789164
vn -0.829131 0 -0.559056
vn -0.829093 0.0100382 -0.559031
vn -0.614155 0.014167 -0.789066
vn -0.171727 0 -0.985145
vn -0.171703 0.0176831 -0.98499
vn 0.171727 0 -0.985145
vn 0.171703 0.0176833 -0.98499
vn 0.614192 0 -0.789164
vn 0.614155 0.0141671 -0.789066
vn 0.829131 0 -0.559056
vn 0.829093 0.010038 -0.559031
vn -0.921208 0.03858 -0.387156
vn -0.612818 0.0782466 -0.78635
vn -0.170976 0.0974535 -0.980445
vn 0.170241 0.112446 -0.978973
vn 0.612691 0.0937723 -0.784743
vn 0.921214 0.0385802 -0.38716
vn 0.923554 0.0318468 0.382162
vn 0.95543 0.0476757 -0.291351
vn 0.923554 0.0318468 0.382162
vn 0.381885 0.0767516 0.921019
vn 0.381885 0.0767516 0.921019
vn -0.381885 0.0767516 0.921019
vn -0.381885 0.0767516 0.921019
vn -0.923549 0.0318465 0.382158
vn -0.923549 0.0318465 0.382158
vn -0.955433 0.0476757 -0.291351
vn -0.610111 0.127952 -0.781926
vn -0.169666 0.159148 -0.972572
vn 0.167837 0.188845 -0.967566
vn 0.608754 0.158851 -0.777302
vn 1 0 0
vn 1 0 0
vn 1 0 0
vn 1 0 0
vn -0 0 0
vn -0 0 0
vn -0 0 0
vn -0 0 0
vn 1.00001 0 0
vn 1.00001 0 0
vn 1.00001 0 0
vn 1.00001 0 0
vn -0 0 0
vn -0 0 0
vn -0 0 0
vn -0 0 0
vn 1 0 0
vn 1 0 0
vn 1 0 0
vn 1 0 0
vn -0 0 0
vn -0 0 0
vn -0 0 0
vn -0 0 0
vn 1.00001 0 0
vn 1.00001 0 0
vn 1.00001 0 0
vn 1.00001 0 0
vn -0 0 0
vn -0 0 0
vn -0 0 0
vn -0 0 0
vn 1 0 0
vn 1 0 0
vn 1 0 0
vn 1 0 0
vn -0 0 0
vn -0 0 0
vn -0 0 0
vn -0 0 0
vn 1.00001 0 0
vn 1.00001 0 0
vn 1.00001 0 0
vn 1.00001 0 0
vn -0 0 0
vn -0 0 0
vn -0 0 0
vn -0 0 0


vt 0.7 -0.884956
vt 0.7 -0.570796
vt 0.8 -0.570796
vt 0.8 -0.884956
vt 0.7 -1.19911
vt 0.8 -1.19911
vt 0.7 -1.51327
vt 0.8 -1.51327
vt 0.7 -1.82743
vt 0.8 -1.82743
vt 0.7 1
vt 0.8 1
vt 0.9 -0.570796
vt 0.9 -0.884956
vt 0.9 -1.19911
vt 0.9 -1.51327
vt 0.9 -1.82743
vt 0.9 1
vt 0.9 0.685841
vt 1 1
vt 1 0.685841
vt 0.9 0.371681
vt 1 0.371681
vt 0.9 0.0575222
vt 1 0.0575222
vt 0.9 -0.256637
vt 1 -0.256637
vt 1 -0.570796
vt 1 -0.884956
vt 1 -1.19911
vt 1 -1.51327
vt 1 -1.82743
vt 0.7 0.685841
vt 0.7 1
vt 0.8 1
vt 0.8 0.685841
vt 0.7 -0.570796
vt 0.7 -0.256637
vt 0.8 -0.256637
vt 0.8 -0.570796
vt 0.7 0.685841
vt 0.7 1
vt 0.8 1
vt 0.8 0.685841
vt 0.7 -0.570796
vt 0.7 -0.256637
vt 0.8 -0.256637
vt 0.8 -0.570796
vt 0.7 0.685841
vt 0.7 1
vt 0.8 1
vt 0.8 0.685841
vt 0.7 -0.570796
vt 0.7 -0.256637
vt 0.8 -0.256637
vt 0.8 -0.570796
vt 0.7 0.685841
vt 0.7 1
vt 0.8 1
vt 0.8 0.685841
vt 0.7 -0.570796
vt 0.7 -0.256637
vt 0.8 -0.256637
vt 0.8 -0.570796
vt 0.7 0.685841
vt 0.7 1
vt 0.8 1
vt 0.8 0.685841
vt 0.7 -0.570796
vt 0.7 -0.256637
vt 0.8 -0.256637
vt 0.8 -0.570796
vt 0.7 0.685841
vt 0.7 1
vt 0.8 1
vt 0.8 0.685841
vt 0.7 -0.570796
vt 0.7 -0.256637
vt 0.8 -0.256637
vt 0.8 -0.570796


usemtl gabine

f 1/1/1 2/2/2 3/3/3 4/4/4
f 5/5/5 1/1/1 4/4/4 6/6/6
f 7/7/7 5/5/5 6/6/6 8/8/8
f 9/9/9 7/7/7 8/8/8 10/10/10
f 11/11/11 9/9/9 10/10/10 12/12/12
f 4/4/4 3/3/3 13/13/13 14/14/14
f 6/6/6 4/4/4 14/14/14 15/15/15
f 8/8/8 6/6/6 15/15/15 16/16/16
f 10/10/10 8/8/8 16/16/16 17/17/17
f 12/12/12 10/10/10 17/17/17 18/18/18
f 19/19/19 18/18/18 20/20/20 21/21/21
f 22/22/22 19/19/19 21/21/21 23/23/23
f 24/24/24 22/22/22 23/23/23 25/25/25
f 26/26/26 24/24/24 25/25/25 27/27/27
f 13/13/13 26/26/26 27/27/27 28/28/28
f 14/14/14 13/13/13 28/28/28 29/29/29
f 15/15/15 14/14/14 29/29/29 30/30/30
f 16/16/16 15/15/15 30/30/30 31/31/31
f 17/17/17 16/16/16 31/31/31 32/32/32
f 18/18/18 17/17/17 32/32/32 20/20/20
f 33/33/33 34/34/34 35/35/35 36/36/36
f 37/37/37 38/38/38 39/39/39 40/40/40
f 41/41/41 42/42/42 43/43/43 44/44/44
f 45/45/45 46/46/46 47/47/47 48/48/48
f 49/49/49 50/50/50 51/51/51 52/52/52
f 53/53/53 54/54/54 55/55/55 56/56/56
f 57/57/57 58/58/58 59/59/59 60/60/60
f 61/61/61 62/62/62 63/63/63 64/64/64
f 65/65/65 66/66/66 67/67/67 68/68/68
f 69/69/69 70/70/70 71/71/71 72/72/72
f 73/73/73 74/74/74 75/75/75 76/76/76
f 77/77/77 78/78/78 79/79/79 80/80/80
