# Exported by ZModeler 2.2.4 (Build 981) with WavefrontOBJ filter (Build 45)
# 

mtllib chassi_1.mtl

v -2 -3.91227 1.89804
v -0.9 -3.91227 1.89804
v -0.9 -4.4 1.85
v -2 -4.4 1.85
v -0.9 -3.95129 2.09419
v -2 -3.95129 2.09419
v -2 -4.4 2.05
v -0.9 -4.4 2.05
v -2 -3.44329 2.0403
v -0.9 -3.44329 2.0403
v -0.9 -3.51983 2.22508
v -2 -3.51983 2.22508
v -2 -3.01107 2.27133
v -0.9 -3.01107 2.27133
v -0.9 -3.12219 2.43762
v -2 -3.12219 2.43762
v -2 -2.63223 2.58223
v -0.9 -2.63223 2.58223
v -0.9 -2.77365 2.72365
v -2 -2.77365 2.72365
v -2 -2.32133 2.96107
v -0.9 -2.32133 2.96107
v -0.9 -2.48762 3.07219
v -2 -2.48762 3.07219
v -2 -2.0903 3.39329
v -0.9 -2.0903 3.39329
v -0.9 -2.27508 3.46983
v -2 -2.27508 3.46983
v -2 -1.94804 3.86227
v -0.9 -1.94804 3.86227
v -0.9 -2.14419 3.90129
v -2 -2.14419 3.90129
v -2 -1.9 4.35
v -0.9 -1.9 4.35
v -0.9 -2.1 4.35
v -2 -2.1 4.35
v -2 -1.9 5.4
v -0.9 -1.9 5.4
v -0.9 -2.1 5.5
v -2 -2.1 5.5
v -2 -2.1 5.5
v -0.9 -2.1 5.5
v -0.9 -4.4 2.05
v -2 -4.4 2.05
v -2 -3.95129 2.09419
v -2 -3.91227 1.89804
v -2 -4.4 1.85
v -2 -4.4 2.05
v -2 -3.51983 2.22508
v -2 -3.44329 2.0403
v -2 -3.12219 2.43762
v -2 -3.01107 2.27133
v -2 -2.77365 2.72365
v -2 -2.63223 2.58223
v -2 -2.48762 3.07219
v -2 -2.32133 2.96107
v -2 -2.27508 3.46983
v -2 -2.0903 3.39329
v -2 -2.14419 3.90129
v -2 -1.94804 3.86227
v -2 -2.1 4.35
v -2 -1.9 4.35
v -0.9 -2.1 5.5
v -0.9 -2.1 4.35
v -0.9 -1.9 4.35
v -0.9 -1.9 5.4
v -2 -2.1 5.5
v -2 -1.9 5.4
v 0.9 -3.91227 1.89804
v 2 -3.91227 1.89804
v 2 -4.4 1.85
v 0.9 -4.4 1.85
v 2 -3.95129 2.09419
v 0.9 -3.95129 2.09419
v 0.9 -4.4 2.05
v 2 -4.4 2.05
v 0.9 -3.44329 2.0403
v 2 -3.44329 2.0403
v 2 -3.51983 2.22508
v 0.9 -3.51983 2.22508
v 0.9 -3.01107 2.27133
v 2 -3.01107 2.27133
v 2 -3.12219 2.43762
v 0.9 -3.12219 2.43762
v 0.9 -2.63223 2.58223
v 2 -2.63223 2.58223
v 2 -2.77365 2.72365
v 0.9 -2.77365 2.72365
v 0.9 -2.32133 2.96107
v 2 -2.32133 2.96107
v 2 -2.48762 3.07219
v 0.9 -2.48762 3.07219
v 0.9 -2.0903 3.39329
v 2 -2.0903 3.39329
v 2 -2.27508 3.46983
v 0.9 -2.27508 3.46983
v 0.9 -1.94804 3.86227
v 2 -1.94804 3.86227
v 2 -2.14419 3.90129
v 0.9 -2.14419 3.90129
v 0.9 -1.9 4.35
v 2 -1.9 4.35
v 2 -2.1 4.35
v 0.9 -2.1 4.35
v 0.9 -1.9 5.4
v 2 -1.9 5.4
v 2 -2.1 5.5
v 0.9 -2.1 5.5
v 0.9 -2.1 5.5
v 2 -2.1 5.5
v 2 -4.4 2.05
v 0.9 -4.4 2.05
v 2 -3.95129 2.09419
v 2 -4.4 2.05
v 2 -4.4 1.85
v 2 -3.91227 1.89804
v 2 -3.51983 2.22508
v 2 -3.44329 2.0403
v 2 -3.12219 2.43762
v 2 -3.01107 2.27133
v 2 -2.77365 2.72365
v 2 -2.63223 2.58223
v 2 -2.48762 3.07219
v 2 -2.32133 2.96107
v 2 -2.27508 3.46983
v 2 -2.0903 3.39329
v 2 -2.14419 3.90129
v 2 -1.94804 3.86227
v 2 -2.1 4.35
v 2 -1.9 4.35
v 2 -2.1 5.5
v 2 -1.9 5.4
v 0.9 -2.1 5.5
v 0.9 -1.9 5.4
v 0.9 -1.9 4.35
v 0.9 -2.1 4.35
v 1 -2 -1.7
v 0.8 -1.8 -1.7
v 0.8 -1.65 0.75
v 1 -1.85 0.75
v -0.8 -1.8 -1.7
v -0.8 -1.65 0.75
v -1 -2 -1.7
v -1 -1.85 0.75
v -1 -3.1 -0.3
v -1 -3.05 0.7
v 1 -3.1 -0.3
v 1 -3.05 0.7
v -1 -2 -1.7
v -1 -3.3 -1.1
v 1 -3.3 -1.1
v 1 -2 -1.7
v -1 -2 -1.7
v -1 -3.4 -1.3
v 1 -3.4 -1.3
v 1 -2 -1.7
v -1 -2 -1.7
v -1 -3.5 -1.35
v 1 -3.5 -1.35
v 1 -2 -1.7
v -1 -2 -1.7
v -1 -3.7 -1.4
v 1 -3.7 -1.4
v 1 -2 -1.7
v 1 -2.12 -2.3
v 0.8 -1.92 -2.3
v 0.8 -1.8 -1.7
v -0.8 -1.92 -2.3
v -0.8 -1.8 -1.7
v -1 -2.12 -2.3
v -1 -3.7 -2.3
v 1 -3.7 -2.3
v 1 -2.4 -2.8
v 0.8 -2.2 -2.8
v -0.8 -2.2 -2.8
v -1 -2.4 -2.8
v -1 -3.7 -2.8
v 1 -3.7 -2.8
v 1 -2.7 -3.1
v 0.8 -2.5 -3.1
v -0.8 -2.5 -3.1
v -1 -2.7 -3.1
v -1 -3.7 -3.1
v 1 -3.7 -3.1
v 0.9 -2.9 -3.17997
v 0.8 -2.7 -3.17997
v -0.8 -2.7 -3.17997
v -0.9 -2.9 -3.17997
v -0.9 -3.4 -3.17997
v 0.9 -3.4 -3.17997
v 0.9 -2.9 -3.17997
v 0.0999999 -2.9 -3.17997
v 0.8 -2.7 -3.17997
v -0.8 -2.7 -3.17997
v -0.9 -2.9 -3.17997
v -0.9 -3.4 -3.17997
v 0.9 -3.4 -3.17997
v 2 1.3 4.9
v 1.9 1.4 4.9
v 1.8 1.4 5
v 1.8 1.3 5.1
v -1.9 1.4 4.9
v -1.8 1.4 5
v -2 1.3 4.9
v -1.8 1.3 5.1
v -2 1.2 4.9
v -1.8 1.2 5.1
v -1.9 1.1 4.9
v -1.8 1.1 5
v 1.9 1.1 4.9
v 1.8 1.1 5
v 2 1.2 4.9
v 1.8 1.2 5.1
v 2 1.3 1.5
v 1.9 1.4 1.5
v 1.9 1.4 4.9
v 2 1.3 4.9
v -1.9 1.4 1.5
v -1.9 1.4 4.9
v -2 1.3 1.5
v -2 1.3 4.9
v -2 1.2 1.5
v -2 1.2 4.9
v -1.9 1.1 1.5
v -1.9 1.1 4.9
v 1.9 1.1 1.5
v 1.9 1.1 4.9
v 2 1.2 1.5
v 2 1.2 4.9
v 1.8 1.3 1.3
v 1.8 1.4 1.4
v -1.8 1.4 1.4
v -1.8 1.3 1.3
v -1.8 1.2 1.3
v -1.8 1.1 1.4
v 1.8 1.1 1.4
v 1.8 1.2 1.3
v 0.5 1.3 1
v 0.5 1.4 1.1
v -0.5 1.4 1.1
v -0.5 1.3 1
v -0.5 1.2 1
v -0.5 1.1 1.1
v 0.5 1.1 1.1
v 0.5 1.2 1
v 1.8 1.4 5
v -0 1.25 5.1
v 1.8 1.3 5.1
v 0.5 1.3 1
v -0 1.25 1
v 0.5 1.4 1.1
v -1.8 1.4 5
v -0.5 1.4 1.1
v -1.8 1.3 5.1
v -0.5 1.3 1
v -1.8 1.2 5.1
v -0.5 1.2 1
v -1.8 1.1 5
v -0.5 1.1 1.1
v 1.8 1.1 5
v 0.5 1.1 1.1
v 1.8 1.2 5.1
v 0.5 1.2 1


vn -0 0.19509 -0.980788
vn -0 0.19509 -0.980788
vn -0 -0.671556 -0.740959
vn -0 -0.671556 -0.740959
vn -0 -0.195095 0.980788
vn -0 -0.195095 0.980788
vn -0 -0.0980087 0.995187
vn -0 -0.0980087 0.995187
vn -0 0.382685 -0.923885
vn -0 0.382685 -0.923885
vn -0 -0.382691 0.923884
vn -0 -0.382691 0.923884
vn -0 0.555572 -0.831475
vn -0 0.555572 -0.831475
vn -0 -0.555564 0.831481
vn -0 -0.555564 0.831481
vn -0 0.70711 -0.70711
vn -0 0.70711 -0.70711
vn -0 -0.707109 0.707108
vn -0 -0.707109 0.707108
vn -0 0.831475 -0.555572
vn -0 0.831475 -0.555572
vn -0 -0.831481 0.555564
vn -0 -0.831481 0.555564
vn -0 0.923885 -0.382685
vn -0 0.923885 -0.382685
vn -0 -0.923884 0.382692
vn -0 -0.923884 0.382692
vn -0 0.980788 -0.19509
vn -0 0.980788 -0.19509
vn -0 -0.980788 0.195095
vn -0 -0.980788 0.195095
vn -0 0.998798 -0.0490705
vn -0 0.998798 -0.0490705
vn -0 -0.998802 0.0490635
vn -0 -0.998802 0.0490635
vn -0 0.850652 0.525731
vn -0 0.850652 0.525731
vn -0 -1.00001 0
vn -0 -1.00001 0
vn -0 0.447217 0.894433
vn -0 0.447217 0.894433
vn -0 -1 0
vn -0 -1 0
vn -1.00001 0 0
vn -1.00001 0 0
vn -1.00001 0 0
vn -1.00001 0 0
vn -1.00001 0 0
vn -1.00001 0 0
vn -1.00001 0 0
vn -1.00001 0 0
vn -1.00001 0 0
vn -1.00001 0 0
vn -1.00001 0 0
vn -1.00001 0 0
vn -1.00001 0 0
vn -1.00001 0 0
vn -1.00001 0 0
vn -1.00001 0 0
vn -1 0 0
vn -1 0 0
vn 1.00001 0 0
vn 1 0 0
vn 1 0 0
vn 1.00001 0 0
vn -1.00001 0 0
vn -1.00001 0 0
vn -0 0.19509 -0.980788
vn -0 0.19509 -0.980788
vn -0 -0.671556 -0.740959
vn -0 -0.671556 -0.740959
vn -0 -0.195095 0.980788
vn -0 -0.195095 0.980788
vn -0 -0.0980087 0.995187
vn -0 -0.0980087 0.995187
vn -0 0.382685 -0.923885
vn -0 0.382685 -0.923885
vn -0 -0.382691 0.923884
vn -0 -0.382691 0.923884
vn -0 0.555572 -0.831475
vn -0 0.555572 -0.831475
vn -0 -0.555564 0.831481
vn -0 -0.555564 0.831481
vn -0 0.70711 -0.70711
vn -0 0.70711 -0.70711
vn -0 -0.707109 0.707108
vn -0 -0.707109 0.707108
vn -0 0.831475 -0.555572
vn -0 0.831475 -0.555572
vn -0 -0.831481 0.555564
vn -0 -0.831481 0.555564
vn -0 0.923885 -0.382685
vn -0 0.923885 -0.382685
vn -0 -0.923884 0.382692
vn -0 -0.923884 0.382692
vn -0 0.980788 -0.19509
vn -0 0.980788 -0.19509
vn -0 -0.980788 0.195095
vn -0 -0.980788 0.195095
vn -0 0.998798 -0.0490705
vn -0 0.998798 -0.0490705
vn -0 -0.998802 0.0490635
vn -0 -0.998802 0.0490635
vn -0 0.850652 0.525731
vn -0 0.850652 0.525731
vn -0 -1.00001 0
vn -0 -1.00001 0
vn -0 0.447217 0.894433
vn -0 0.447217 0.894433
vn -0 -1 0
vn -0 -1 0
vn 1.00001 0 0
vn 1.00001 0 0
vn 1.00001 0 0
vn 1.00001 0 0
vn 1.00001 0 0
vn 1.00001 0 0
vn 1.00001 0 0
vn 1.00001 0 0
vn 1.00001 0 0
vn 1.00001 0 0
vn 1.00001 0 0
vn 1.00001 0 0
vn 1.00001 0 0
vn 1.00001 0 0
vn 1.00001 0 0
vn 1.00001 0 0
vn 1 0 0
vn 1 0 0
vn 1.00001 0 0
vn 1.00001 0 0
vn -1.00001 0 0
vn -1.00001 0 0
vn -1 0 0
vn -1 0 0
vn 0.967466 0.252531 -0.0154611
vn 0.382254 0.922338 -0.0564696
vn 0.382254 0.922338 -0.0564696
vn 0.923702 0.382401 -0.0234123
vn -0.382254 0.922338 -0.0564696
vn -0.382254 0.922338 -0.0564696
vn -0.923703 0.382401 -0.0234123
vn -0.923703 0.382401 -0.0234123
vn -0.448917 -0.883876 0.131297
vn -0.707109 -0.706234 0.0353117
vn 0.708788 -0.697769 0.103651
vn 0.707108 -0.706234 0.0353117
vn -0 0 0
vn -0 -0.937889 0.346948
vn 0.709223 -0.661199 0.244594
vn 1 0 0
vn -0 0 0
vn -0 -0.707109 0.707108
vn 0.725478 -0.486669 0.486669
vn 1 0 0
vn -0 0 0
vn -0 -0.346948 0.937889
vn 0.709223 -0.244594 0.661199
vn 1 0 0
vn -0.921999 0.379692 -0.0759385
vn -0.53567 -0.665588 0.519677
vn 0.785372 -0.487923 0.38096
vn 0.966779 0.250683 -0.0501366
vn 0.918094 0.371215 -0.13896
vn 0.368474 0.871438 -0.32378
vn 0.378151 0.90777 -0.181554
vn -0.368474 0.871438 -0.32378
vn -0.378151 0.90777 -0.181554
vn -0.918092 0.371215 -0.13896
vn -0.707111 -0.707107 0
vn 0.707114 -0.707107 0
vn 0.901256 0.344029 -0.263433
vn 0.329655 0.751367 -0.571648
vn -0.329655 0.751367 -0.571648
vn -0.901256 0.344029 -0.263433
vn -0.707113 -0.70711 0
vn 0.707113 -0.70711 0
vn 0.731175 0.216443 -0.646952
vn 0.251518 0.490619 -0.83429
vn -0.314231 0.523171 -0.792187
vn -0.775408 0.242602 -0.583013
vn -0.60237 -0.466298 -0.647861
vn 0.60237 -0.466298 -0.647861
vn 0.502266 0.0926369 -0.859746
vn 0.186504 0.282942 -0.940835
vn -0.313957 0.352501 -0.881583
vn -0.617418 0.150765 -0.772061
vn -0.333397 -0.137497 -0.932709
vn 0.333397 -0.137497 -0.932709
vn -0 0 -1
vn -0 0 -1
vn -0 0 -1
vn -0 0 -1
vn -0 0 -1
vn -0 0 -1
vn -0 0 -1
vn 0.673891 0.302906 0.673892
vn 0.325057 0.888075 0.325058
vn 0.325057 0.888075 0.325058
vn 0.673891 0.302906 0.673892
vn -0.325057 0.888075 0.325058
vn -0.325057 0.888075 0.325058
vn -0.673891 0.302906 0.673892
vn -0.673891 0.302906 0.673892
vn -0.673891 -0.302906 0.673892
vn -0.673891 -0.302906 0.673892
vn -0.325057 -0.888075 0.325058
vn -0.325057 -0.888075 0.325058
vn 0.325057 -0.888075 0.325058
vn 0.325057 -0.888075 0.325058
vn 0.673891 -0.302906 0.673892
vn 0.673891 -0.302906 0.673892
vn 0.85477 0.367004 -0.367003
vn 0.359429 0.91909 -0.16156
vn 0.382687 0.923886 0
vn 0.92388 0.382683 0
vn -0.359429 0.91909 -0.16156
vn -0.382687 0.923886 0
vn -0.85477 0.367004 -0.367003
vn -0.92388 0.382683 0
vn -0.85477 -0.367004 -0.367003
vn -0.92388 -0.382683 0
vn -0.359429 -0.91909 -0.16156
vn -0.382687 -0.923886 0
vn 0.359429 -0.91909 -0.16156
vn 0.382687 -0.923886 0
vn 0.85477 -0.367004 -0.367003
vn 0.92388 -0.382683 0
vn 0.460479 0.351551 -0.815099
vn 0.205599 0.911954 -0.355073
vn -0.205599 0.911954 -0.355073
vn -0.460479 0.351551 -0.815099
vn -0.460479 -0.351551 -0.815099
vn -0.205599 -0.911954 -0.355073
vn 0.205599 -0.911954 -0.355073
vn 0.460479 -0.351551 -0.815099
vn 0.208298 0.376687 -0.902624
vn 0.0873953 0.921379 -0.378713
vn -0.0873953 0.921379 -0.378713
vn -0.208298 0.376687 -0.902624
vn -0.208298 -0.376687 -0.902624
vn -0.0873953 -0.921379 -0.378713
vn 0.0873953 -0.921379 -0.378713
vn 0.208298 -0.376687 -0.902624
vn -0.0098676 0.633954 0.773314
vn -0 1.83624e-008 1
vn -0.0106285 0.382627 0.923846
vn -0.038193 0.38193 -0.923411
vn -0 1.83809e-008 -1.00001
vn -0.0354618 0.633499 -0.772939
vn 0.00986761 0.633954 0.773314
vn 0.0354618 0.633499 -0.772939
vn 0.0106285 0.382627 0.923846
vn 0.038193 0.38193 -0.923411
vn 0.0106285 -0.382627 0.923846
vn 0.038193 -0.38193 -0.923411
vn 0.0098676 -0.633954 0.773314
vn 0.0354618 -0.633499 -0.772939
vn -0.00986761 -0.633954 0.773314
vn -0.0354618 -0.633499 -0.772939
vn -0.0106285 -0.382627 0.923846
vn -0.038193 -0.38193 -0.923411


vt 1 0.901825
vt 0.5 0.901825
vt 0.5 1
vt 1 1
vt 0.5 0.901825
vt 1 0.901825
vt 1 1
vt 0.5 1
vt 1 0.80365
vt 0.5 0.80365
vt 0.5 0.80365
vt 1 0.80365
vt 1 0.705476
vt 0.5 0.705476
vt 0.5 0.705476
vt 1 0.705476
vt 1 0.607301
vt 0.5 0.607301
vt 0.5 0.607301
vt 1 0.607301
vt 1 0.509126
vt 0.5 0.509126
vt 0.5 0.509126
vt 1 0.509126
vt 1 0.410951
vt 0.5 0.410951
vt 0.5 0.410951
vt 1 0.410951
vt 1 0.312777
vt 0.5 0.312777
vt 0.5 0.312777
vt 1 0.312777
vt 1 0.214602
vt 0.5 0.214602
vt 0.5 0.214602
vt 1 0.214602
vt 1 0.116427
vt 0.5 0.116427
vt 0.5 0.116427
vt 1 0.116427
vt 1 0.0182523
vt 0.5 0.0182523
vt 0.5 -2.04342
vt 1 -2.04342
vt 0.0981748 0
vt 0.0981748 1
vt 0 1
vt 0 0
vt 0.19635 0
vt 0.19635 1
vt 0.294524 0
vt 0.294524 1
vt 0.392699 0
vt 0.392699 1
vt 0.490874 0
vt 0.490874 1
vt 0.589049 0
vt 0.589049 1
vt 0.687223 0
vt 0.687223 1
vt 0.785398 0
vt 0.785398 1
vt 0.883573 0
vt 0.785398 0
vt 0.785398 1
vt 0.883573 1
vt 0.883573 0
vt 0.883573 1
vt 0.5 0.901825
vt 0 0.901825
vt 0 1
vt 0.5 1
vt 0 0.901825
vt 0.5 0.901825
vt 0.5 1
vt 0 1
vt 0.5 0.80365
vt 0 0.80365
vt 0 0.80365
vt 0.5 0.80365
vt 0.5 0.705476
vt 0 0.705476
vt 0 0.705476
vt 0.5 0.705476
vt 0.5 0.607301
vt 0 0.607301
vt 0 0.607301
vt 0.5 0.607301
vt 0.5 0.509126
vt 0 0.509126
vt 0 0.509126
vt 0.5 0.509126
vt 0.5 0.410951
vt 0 0.410951
vt 0 0.410951
vt 0.5 0.410951
vt 0.5 0.312777
vt 0 0.312777
vt 0 0.312777
vt 0.5 0.312777
vt 0.5 0.214602
vt 0 0.214602
vt 0 0.214602
vt 0.5 0.214602
vt 0.5 0.116427
vt 0 0.116427
vt 0 0.116427
vt 0.5 0.116427
vt 0.5 0.0182523
vt 0 0.0182523
vt 0 -2.04342
vt 0.5 -2.04342
vt 0.0981748 0
vt 0 0
vt 0 1
vt 0.0981748 1
vt 0.19635 0
vt 0.19635 1
vt 0.294524 0
vt 0.294524 1
vt 0.392699 0
vt 0.392699 1
vt 0.490874 0
vt 0.490874 1
vt 0.589049 0
vt 0.589049 1
vt 0.687223 0
vt 0.687223 1
vt 0.785398 0
vt 0.785398 1
vt 0.883573 0
vt 0.883573 1
vt 0.883573 0
vt 0.883573 1
vt 0.785398 1
vt 0.785398 0
vt 0.2 1
vt 0.2 0.476401
vt 0.1 0.476401
vt 0.1 1
vt 0.2 -0.0471976
vt 0.1 -0.0471976
vt 0.2 -0.570796
vt 0.1 -0.570796
vt 0.2 -1.0944
vt 0.1 -1.0944
vt 0.2 -1.61799
vt 0.1 -1.61799
vt 0.3 -0.570796
vt 0.3 -1.0944
vt 0.3 -1.61799
vt 0.3 1
vt 0.4 -0.570796
vt 0.4 -1.0944
vt 0.4 -1.61799
vt 0.4 1
vt 0.5 -0.570796
vt 0.5 -1.0944
vt 0.5 -1.61799
vt 0.5 1
vt 0.6 -0.570796
vt 0.6 -1.0944
vt 0.6 -1.61799
vt 0.6 1
vt 0.7 1
vt 0.7 0.476401
vt 0.6 0.476401
vt 0.7 -0.0471976
vt 0.6 -0.0471976
vt 0.7 -0.570796
vt 0.7 -1.0944
vt 0.7 -1.61799
vt 0.8 1
vt 0.8 0.476401
vt 0.8 -0.0471976
vt 0.8 -0.570796
vt 0.8 -1.0944
vt 0.8 -1.61799
vt 0.9 1
vt 0.9 0.476401
vt 0.9 -0.0471976
vt 0.9 -0.570796
vt 0.9 -1.0944
vt 0.9 -1.61799
vt 1 1
vt 1 0.476401
vt 1 -0.0471976
vt 1 -0.570796
vt 1 -1.0944
vt 1 -1.61799
vt 1 0.5
vt 0.5 0.5
vt 0.75 0.0669873
vt 0.25 0.0669873
vt 0 0.5
vt 0.25 0.933013
vt 0.75 0.933013
vt 0.125 1
vt 0.125 0.607301
vt 0 0.607301
vt 0 1
vt 0.125 0.214602
vt 0 0.214602
vt 0.125 -0.178097
vt 0 -0.178097
vt 0.125 -0.570796
vt 0 -0.570796
vt 0.125 -0.963495
vt 0 -0.963495
vt 0.125 -1.35619
vt 0 -1.35619
vt 0.125 -1.74889
vt 0 -1.74889
vt 0.75 1
vt 0.75 0.607301
vt 0.625 0.607301
vt 0.625 1
vt 0.75 0.214602
vt 0.625 0.214602
vt 0.75 -0.178097
vt 0.625 -0.178097
vt 0.75 -0.570796
vt 0.625 -0.570796
vt 0.75 -0.963495
vt 0.625 -0.963495
vt 0.75 -1.35619
vt 0.625 -1.35619
vt 0.75 -1.74889
vt 0.625 -1.74889
vt 0.875 1
vt 0.875 0.607301
vt 0.875 0.214602
vt 0.875 -0.178097
vt 0.875 -0.570796
vt 0.875 -0.963495
vt 0.875 -1.35619
vt 0.875 -1.74889
vt 1 1
vt 1 0.607301
vt 1 0.214602
vt 1 -0.178097
vt 1 -0.570796
vt 1 -0.963495
vt 1 -1.35619
vt 1 -1.74889
vt 0.853553 0.146447
vt 0.5 0.5
vt 1 0.5
vt 1 0.5
vt 0.5 0.5
vt 0.853553 0.146447
vt 0.5 0
vt 0.5 0
vt 0.146447 0.146447
vt 0.146447 0.146447
vt 0 0.5
vt 0 0.5
vt 0.146447 0.853553
vt 0.146447 0.853553
vt 0.5 1
vt 0.5 1
vt 0.853554 0.853553
vt 0.853554 0.853553


usemtl lataria

f 1/1/1 2/2/2 3/3/3 4/4/4
f 5/5/5 6/6/6 7/7/7 8/8/8
f 9/9/9 10/10/10 2/2/2 1/1/1
f 11/11/11 12/12/12 6/6/6 5/5/5
f 13/13/13 14/14/14 10/10/10 9/9/9
f 15/15/15 16/16/16 12/12/12 11/11/11
f 17/17/17 18/18/18 14/14/14 13/13/13
f 19/19/19 20/20/20 16/16/16 15/15/15
f 21/21/21 22/22/22 18/18/18 17/17/17
f 23/23/23 24/24/24 20/20/20 19/19/19
f 25/25/25 26/26/26 22/22/22 21/21/21
f 27/27/27 28/28/28 24/24/24 23/23/23
f 29/29/29 30/30/30 26/26/26 25/25/25
f 31/31/31 32/32/32 28/28/28 27/27/27
f 33/33/33 34/34/34 30/30/30 29/29/29
f 35/35/35 36/36/36 32/32/32 31/31/31
f 37/37/37 38/38/38 34/34/34 33/33/33
f 39/39/39 40/40/40 36/36/36 35/35/35
f 41/41/41 42/42/42 38/38/38 37/37/37
f 4/4/4 3/3/3 43/43/43 44/44/44
f 45/45/45 46/46/46 47/47/47 48/48/48
f 49/49/49 50/50/50 46/46/46 45/45/45
f 51/51/51 52/52/52 50/50/50 49/49/49
f 53/53/53 54/54/54 52/52/52 51/51/51
f 55/55/55 56/56/56 54/54/54 53/53/53
f 57/57/57 58/58/58 56/56/56 55/55/55
f 59/59/59 60/60/60 58/58/58 57/57/57
f 61/61/61 62/62/62 60/60/60 59/59/59
f 63/63/63 64/64/64 65/65/65 66/66/66
f 67/67/67 68/68/68 62/62/62 61/61/61
f 69/69/69 70/70/70 71/71/71 72/72/72
f 73/73/73 74/74/74 75/75/75 76/76/76
f 77/77/77 78/78/78 70/70/70 69/69/69
f 79/79/79 80/80/80 74/74/74 73/73/73
f 81/81/81 82/82/82 78/78/78 77/77/77
f 83/83/83 84/84/84 80/80/80 79/79/79
f 85/85/85 86/86/86 82/82/82 81/81/81
f 87/87/87 88/88/88 84/84/84 83/83/83
f 89/89/89 90/90/90 86/86/86 85/85/85
f 91/91/91 92/92/92 88/88/88 87/87/87
f 93/93/93 94/94/94 90/90/90 89/89/89
f 95/95/95 96/96/96 92/92/92 91/91/91
f 97/97/97 98/98/98 94/94/94 93/93/93
f 99/99/99 100/100/100 96/96/96 95/95/95
f 101/101/101 102/102/102 98/98/98 97/97/97
f 103/103/103 104/104/104 100/100/100 99/99/99
f 105/105/105 106/106/106 102/102/102 101/101/101
f 107/107/107 108/108/108 104/104/104 103/103/103
f 109/109/109 110/110/110 106/106/106 105/105/105
f 72/72/72 71/71/71 111/111/111 112/112/112
f 113/113/113 114/114/114 115/115/115 116/116/116
f 117/117/117 113/113/113 116/116/116 118/118/118
f 119/119/119 117/117/117 118/118/118 120/120/120
f 121/121/121 119/119/119 120/120/120 122/122/122
f 123/123/123 121/121/121 122/122/122 124/124/124
f 125/125/125 123/123/123 124/124/124 126/126/126
f 127/127/127 125/125/125 126/126/126 128/128/128
f 129/129/129 127/127/127 128/128/128 130/130/130
f 131/131/131 129/129/129 130/130/130 132/132/132
f 133/133/133 134/134/134 135/135/135 136/136/136
f 137/137/137 138/138/138 139/139/139 140/140/140
f 138/138/138 141/141/141 142/142/142 139/139/139
f 141/141/141 143/143/143 144/144/144 142/142/142
f 143/143/143 145/145/145 146/146/146 144/144/144
f 145/145/145 147/147/147 148/148/148 146/146/146
f 147/147/147 137/137/137 140/140/140 148/148/148
f 149/149/149 150/150/150 145/145/145 143/143/143
f 150/150/150 151/151/151 147/147/147 145/145/145
f 151/151/151 152/152/152 137/137/137 147/147/147
f 153/153/153 154/154/154 150/150/150 149/149/149
f 154/154/154 155/155/155 151/151/151 150/150/150
f 155/155/155 156/156/156 152/152/152 151/151/151
f 157/157/157 158/158/158 154/154/154 153/153/153
f 158/158/158 159/159/159 155/155/155 154/154/154
f 159/159/159 160/160/160 156/156/156 155/155/155
f 161/161/161 162/162/162 158/158/158 157/157/157
f 162/162/162 163/163/163 159/159/159 158/158/158
f 163/163/163 164/164/164 160/160/160 159/159/159
f 165/165/165 166/166/166 167/167/167 164/164/164
f 166/166/166 168/168/168 169/169/169 167/167/167
f 168/168/168 170/170/170 161/161/161 169/169/169
f 170/170/170 171/171/171 162/162/162 161/161/161
f 171/171/171 172/172/172 163/163/163 162/162/162
f 172/172/172 165/165/165 164/164/164 163/163/163
f 173/173/173 174/174/174 166/166/166 165/165/165
f 174/174/174 175/175/175 168/168/168 166/166/166
f 175/175/175 176/176/176 170/170/170 168/168/168
f 176/176/176 177/177/177 171/171/171 170/170/170
f 177/177/177 178/178/178 172/172/172 171/171/171
f 178/178/178 173/173/173 165/165/165 172/172/172
f 179/179/179 180/180/180 174/174/174 173/173/173
f 180/180/180 181/181/181 175/175/175 174/174/174
f 181/181/181 182/182/182 176/176/176 175/175/175
f 182/182/182 183/183/183 177/177/177 176/176/176
f 183/183/183 184/184/184 178/178/178 177/177/177
f 184/184/184 179/179/179 173/173/173 178/178/178
f 185/185/185 186/186/186 180/180/180 179/179/179
f 186/186/186 187/187/187 181/181/181 180/180/180
f 187/187/187 188/188/188 182/182/182 181/181/181
f 188/188/188 189/189/189 183/183/183 182/182/182
f 189/189/189 190/190/190 184/184/184 183/183/183
f 190/190/190 185/185/185 179/179/179 184/184/184
f 191/191/191 192/192/192 193/193/193
f 193/193/193 192/192/192 194/194/194
f 194/194/194 192/192/192 195/195/195
f 195/195/195 192/192/192 196/196/196
f 196/196/196 192/192/192 197/197/197
f 197/197/197 192/192/192 191/191/191
f 198/198/198 199/199/199 200/200/200 201/201/201
f 199/199/199 202/202/202 203/203/203 200/200/200
f 202/202/202 204/204/204 205/205/205 203/203/203
f 204/204/204 206/206/206 207/207/207 205/205/205
f 206/206/206 208/208/208 209/209/209 207/207/207
f 208/208/208 210/210/210 211/211/211 209/209/209
f 210/210/210 212/212/212 213/213/213 211/211/211
f 212/212/212 198/198/198 201/201/201 213/213/213
f 214/214/214 215/215/215 216/216/216 217/217/217
f 215/215/215 218/218/218 219/219/219 216/216/216
f 218/218/218 220/220/220 221/221/221 219/219/219
f 220/220/220 222/222/222 223/223/223 221/221/221
f 222/222/222 224/224/224 225/225/225 223/223/223
f 224/224/224 226/226/226 227/227/227 225/225/225
f 226/226/226 228/228/228 229/229/229 227/227/227
f 228/228/228 214/214/214 217/217/217 229/229/229
f 230/230/230 231/231/231 215/215/215 214/214/214
f 231/231/231 232/232/232 218/218/218 215/215/215
f 232/232/232 233/233/233 220/220/220 218/218/218
f 233/233/233 234/234/234 222/222/222 220/220/220
f 234/234/234 235/235/235 224/224/224 222/222/222
f 235/235/235 236/236/236 226/226/226 224/224/224
f 236/236/236 237/237/237 228/228/228 226/226/226
f 237/237/237 230/230/230 214/214/214 228/228/228
f 238/238/238 239/239/239 231/231/231 230/230/230
f 239/239/239 240/240/240 232/232/232 231/231/231
f 240/240/240 241/241/241 233/233/233 232/232/232
f 241/241/241 242/242/242 234/234/234 233/233/233
f 242/242/242 243/243/243 235/235/235 234/234/234
f 243/243/243 244/244/244 236/236/236 235/235/235
f 244/244/244 245/245/245 237/237/237 236/236/236
f 245/245/245 238/238/238 230/230/230 237/237/237
f 246/246/246 247/247/247 248/248/248
f 249/249/249 250/250/250 251/251/251
f 252/252/252 247/247/247 246/246/246
f 251/251/251 250/250/250 253/253/253
f 254/254/254 247/247/247 252/252/252
f 253/253/253 250/250/250 255/255/255
f 256/256/256 247/247/247 254/254/254
f 255/255/255 250/250/250 257/257/257
f 258/258/258 247/247/247 256/256/256
f 257/257/257 250/250/250 259/259/259
f 260/260/260 247/247/247 258/258/258
f 259/259/259 250/250/250 261/261/261
f 262/262/262 247/247/247 260/260/260
f 261/261/261 250/250/250 263/263/263
f 248/248/248 247/247/247 262/262/262
f 263/263/263 250/250/250 249/249/249
