# Exported from 3D Builder
mtllib tractor.mtl

o Object.1
v -501.242279 -465.384583 276.938446
v -1110.473633 -465.307159 276.938934
v -1110.476807 -491.912048 547.065430
v -501.245453 -491.989502 547.064941
v -1110.487671 -576.075928 276.939667
v -501.256378 -576.153381 276.939178
v -501.259277 -600.626160 525.454651
v -1110.490479 -600.548706 525.455139
v -1110.486450 -570.700012 806.808228
v -501.255249 -570.777466 806.807739
v -501.268311 -673.116943 764.417236
v -1110.499634 -673.039490 764.417664
v -1110.502686 -698.652954 1046.191650
v -501.271301 -698.730408 1046.191040
v -501.283081 -790.829590 984.648499
v -1110.514282 -790.752136 984.648987
v -1110.524292 -870.841553 1256.010986
v -501.292999 -870.919006 1256.010376
v -501.303040 -949.244263 1177.686401
v -1110.534302 -949.166809 1177.687012
v -1110.550903 -1080.658691 1428.202393
v -501.319550 -1080.736084 1428.201782
v -501.327454 -1142.279907 1336.103638
v -1110.558716 -1142.202393 1336.104248
v -1110.581177 -1320.040161 1556.158569
v -501.349854 -1320.117676 1556.157959
v -501.355347 -1362.509521 1453.819092
v -1110.586670 -1362.432129 1453.819702
v -1110.614136 -1579.781128 1634.950317
v -501.382813 -1579.858643 1634.949707
v -501.385620 -1601.470581 1526.313354
v -1110.617065 -1601.393066 1526.313965
v -1110.648438 -1849.907349 1661.558594
v -501.417084 -1849.984741 1661.557983
v -501.417175 -1849.985718 1550.789185
v -1110.648438 -1849.908325 1550.789795
v -1110.722412 -2431.443604 1661.562500
v -501.491028 -2431.520996 1661.561890
v -501.498138 -2486.906250 1550.793457
v -1110.729370 -2486.828857 1550.794067
v -1110.729370 -2486.828857 1550.794067
v -501.498138 -2486.906250 1550.793457
v -501.256378 -576.153381 276.939178
v -1110.487671 -576.075928 276.939667
v -1110.473633 -465.307159 276.938934
v -501.242279 -465.384583 276.938446
v -1110.473633 -465.307159 276.938934
v -1110.487671 -576.075928 276.939667
v -1110.490479 -600.548706 525.455139
v -1110.476807 -491.912048 547.065430
v -1110.499634 -673.039490 764.417664
v -1110.486450 -570.700012 806.808228
v -1110.514282 -790.752136 984.648987
v -1110.502686 -698.652954 1046.191650
v -1110.534302 -949.166809 1177.687012
v -1110.524292 -870.841553 1256.010986
v -1110.558716 -1142.202393 1336.104248
v -1110.550903 -1080.658691 1428.202393
v -1110.586670 -1362.432129 1453.819702
v -1110.581177 -1320.040161 1556.158569
v -1110.617065 -1601.393066 1526.313965
v -1110.614136 -1579.781128 1634.950317
v -1110.648438 -1849.908325 1550.789795
v -1110.648438 -1849.907349 1661.558594
v -501.417084 -1849.984741 1661.557983
v -501.491028 -2431.520996 1661.561890
v -501.498138 -2486.906250 1550.793457
v -501.417175 -1849.985718 1550.789185
v -1110.729370 -2486.828857 1550.794067
v -1110.722412 -2431.443604 1661.562500
v 1104.913086 -465.588776 276.937134
v 495.681793 -465.511322 276.937592
v 495.678619 -492.116089 547.064087
v 1104.909912 -492.193542 547.063599
v 495.667694 -576.280151 276.938324
v 1104.899048 -576.357605 276.937836
v 1104.896240 -600.830322 525.453369
v 495.664795 -600.752869 525.453796
v 495.668823 -570.904236 806.806885
v 1104.900269 -570.981567 806.806396
v 1104.887085 -673.321106 764.415894
v 495.655792 -673.243652 764.416382
v 495.652771 -698.857178 1046.190308
v 1104.884033 -698.934631 1046.189697
v 1104.872437 -791.033630 984.647156
v 495.640991 -790.956177 984.647644
v 495.631073 -871.045776 1256.009644
v 1104.862427 -871.123230 1256.009033
v 1104.852417 -949.448303 1177.685059
v 495.621033 -949.370850 1177.685669
v 495.604523 -1080.862793 1428.201050
v 1104.835938 -1080.940308 1428.200439
v 1104.828003 -1142.484009 1336.102295
v 495.596619 -1142.406616 1336.102905
v 495.574219 -1320.244385 1556.157227
v 1104.805542 -1320.321533 1556.156616
v 1104.800049 -1362.713501 1453.817749
v 495.568726 -1362.636108 1453.818359
v 495.541260 -1579.985352 1634.948975
v 1104.772583 -1580.062744 1634.948364
v 1104.769775 -1601.674805 1526.312012
v 495.538452 -1601.597290 1526.312622
v 495.506989 -1850.111572 1661.557251
v 1104.738281 -1850.188965 1661.556641
v 1104.738281 -1850.189697 1550.787842
v 495.506897 -1850.112305 1550.788452
v 495.433044 -2431.647705 1661.561157
v 1104.664307 -2431.725098 1661.560547
v 1104.657349 -2487.110107 1550.792114
v 495.425964 -2487.032715 1550.792725
v 495.425964 -2487.032715 1550.792725
v 1104.657349 -2487.110107 1550.792114
v 1104.899048 -576.357605 276.937836
v 495.667694 -576.280151 276.938324
v 495.681793 -465.511322 276.937592
v 1104.913086 -465.588776 276.937134
v 1104.913086 -465.588776 276.937134
v 1104.909912 -492.193542 547.063599
v 1104.896240 -600.830322 525.453369
v 1104.899048 -576.357605 276.937836
v 1104.900269 -570.981567 806.806396
v 1104.887085 -673.321106 764.415894
v 1104.884033 -698.934631 1046.189697
v 1104.872437 -791.033630 984.647156
v 1104.862427 -871.123230 1256.009033
v 1104.852417 -949.448303 1177.685059
v 1104.835938 -1080.940308 1428.200439
v 1104.828003 -1142.484009 1336.102295
v 1104.805542 -1320.321533 1556.156616
v 1104.800049 -1362.713501 1453.817749
v 1104.772583 -1580.062744 1634.948364
v 1104.769775 -1601.674805 1526.312012
v 1104.738281 -1850.188965 1661.556641
v 1104.738281 -1850.189697 1550.787842
v 1104.664307 -2431.725098 1661.560547
v 1104.657349 -2487.110107 1550.792114
v 495.506989 -1850.111572 1661.557251
v 495.506897 -1850.112305 1550.788452
v 495.425964 -2487.032715 1550.792725
v 495.433044 -2431.647705 1661.561157
v 440.375763 143.734680 1800.005249
v 551.145020 143.719833 1689.236328
v 551.317383 1500.636963 1606.150757
v 440.548187 1500.651855 1716.919678
v -445.778961 143.847305 1800.005981
v -445.606537 1500.764404 1716.920410
v -556.548340 143.860596 1689.237305
v -556.375977 1500.777710 1606.151733
v -556.545410 171.548187 1024.624146
v -556.474976 725.391968 996.928406
v 551.147949 171.407394 1024.623169
v -556.545410 171.548187 1024.624146
v -556.474976 725.391968 996.928406
v 551.218384 725.251160 996.927429
v 551.147949 171.407394 1024.623169
v 551.218384 725.251160 996.927429
v -556.474976 725.391968 996.928406
v -556.375977 1500.777710 1606.151733
v -556.375977 1500.777710 1606.151733
v -556.474976 725.391968 996.928406
v -556.375977 1500.777710 1606.151733
v -556.418762 1168.466309 886.156677
v -556.418762 1168.466309 886.156677
v 551.274597 1168.325439 886.155701
v 551.274597 1168.325439 886.155701
v 551.317383 1500.636963 1606.150757
v 551.274597 1168.325439 886.155701
v 551.317383 1500.636963 1606.150757
v -556.418762 1168.466309 886.156677
v -556.375977 1500.777710 1606.151733
v -556.375977 1500.777710 1606.151733
v -556.418762 1168.466309 886.156677
v -556.375977 1500.777710 1606.151733
v -556.404724 1279.234741 830.771545
v -556.404724 1279.234741 830.771545
v 551.288635 1279.093994 830.770569
v 551.317383 1500.636963 1606.150757
v 551.288635 1279.093994 830.770569
v 551.317383 1500.636963 1606.150757
v 551.288635 1279.093994 830.770569
v 551.317383 1500.636963 1606.150757
v -556.404724 1279.234741 830.771545
v -556.375977 1500.777710 1606.151733
v -556.375977 1500.777710 1606.151733
v -556.404724 1279.234741 830.771545
v -556.375977 1500.777710 1606.151733
v -556.401245 1306.926636 775.386963
v -556.401245 1306.926636 775.386963
v 551.292114 1306.785767 775.385986
v 551.317383 1500.636963 1606.150757
v 551.292114 1306.785767 775.385986
v 551.317383 1500.636963 1606.150757
v 551.292114 1306.785767 775.385986
v 551.317383 1500.636963 1606.150757
v -556.401245 1306.926636 775.386963
v -556.375977 1500.777710 1606.151733
v -556.375977 1500.777710 1606.151733
v -556.401245 1306.926636 775.386963
v -556.375977 1500.777710 1606.151733
v -556.397827 1334.618042 664.617920
v -556.397827 1334.618042 664.617920
v 551.295532 1334.477173 664.616943
v 551.317383 1500.636963 1606.150757
v 551.295532 1334.477173 664.616943
v 551.317383 1500.636963 1606.150757
v 551.295532 1334.477173 664.616943
v 551.317383 1500.636963 1606.150757
v 440.548187 1500.651855 1716.919678
v 551.317383 1500.636963 1606.150757
v 551.359558 1832.942871 1539.687134
v 440.590363 1832.957764 1650.456055
v -445.606537 1500.764404 1716.920410
v -445.564362 1833.070435 1650.456787
v -556.375977 1500.777710 1606.151733
v -556.333801 1833.083740 1539.688110
v -556.397827 1334.618042 664.617920
v -556.334534 1833.077637 664.614624
v 551.295532 1334.477173 664.616943
v -556.397827 1334.618042 664.617920
v -556.334534 1833.077637 664.614624
v 551.358826 1832.936890 664.613647
v 551.358826 1832.936890 664.613647
v 551.394653 2109.863770 1384.609009
v 440.625427 2109.878662 1495.377930
v -445.529297 2109.991211 1495.378662
v -556.298706 2110.004639 1384.609985
v -556.299316 2109.999512 664.612793
v -556.299316 2109.999512 664.612793
v 551.394043 2109.858643 664.611816
v 551.394043 2109.858643 664.611816
v 551.415649 2276.015869 1218.454590
v 440.646423 2276.030762 1329.223511
v -445.508301 2276.143311 1329.224243
v -556.277710 2276.156738 1218.455566
v -556.278198 2276.152832 664.611694
v -556.278198 2276.152832 664.611694
v 551.415161 2276.011963 664.610779
v 551.415161 2276.011963 664.610779
v 496.036499 2320.312988 1107.685669
v 440.651917 2320.320801 1218.454468
v -445.502808 2320.433350 1218.455200
v -500.887573 2320.439697 1107.686401
v -500.887787 2320.437744 830.764587
v 496.036285 2320.311035 830.763733
v 440.651917 2320.320801 1218.454468
v 496.036499 2320.312988 1107.685669
v 52.959095 2320.369385 1107.686035
v -445.502808 2320.433350 1218.455200
v -500.887573 2320.439697 1107.686401
v -500.887787 2320.437744 830.764587
v 496.036285 2320.311035 830.763733
v 993.924805 -2210.160889 3489.244141
v 993.917725 -2265.545410 3433.860352
v 1104.701172 -2154.790771 3433.859375
v 1049.316528 -2154.783447 3489.243652
v -999.923340 -2209.907471 3489.245605
v -1055.301025 -2154.515869 3489.245605
v -999.930481 -2265.292236 3433.861816
v -1110.685547 -2154.509277 3433.861328
v -999.930481 -2265.292480 3378.477539
v -1110.685669 -2154.509521 3378.477051
v -999.923462 -2209.908691 3323.092529
v -1055.301147 -2154.517090 3323.092529
v 993.924683 -2210.161865 3323.091064
v 1049.316406 -2154.784424 3323.090576
v 993.917664 -2265.545898 3378.476074
v 1104.701050 -2154.791260 3378.475098
v 1049.316528 -2154.783447 3489.243652
v 1104.701172 -2154.790771 3433.859375
v 1104.940430 -271.721375 3433.847168
v 1049.555786 -271.713959 3489.231201
v -1055.301025 -2154.515869 3489.245605
v -1055.061768 -271.446472 3489.233154
v -1110.685547 -2154.509277 3433.861328
v -1110.446289 -271.439789 3433.849121
v -1110.685669 -2154.509521 3378.477051
v -1110.446411 -271.440216 3378.464600
v -1055.301147 -2154.517090 3323.092529
v -1055.061890 -271.447632 3323.080078
v 1049.316406 -2154.784424 3323.090576
v 1049.555664 -271.715118 3323.078125
v 1104.701050 -2154.791260 3378.475098
v 1104.940308 -271.721741 3378.462646
v 994.185120 -160.938492 3433.846680
v 994.178162 -216.322525 3489.230957
v -999.669983 -216.069122 3489.232422
v -999.663025 -160.685074 3433.848145
v -999.663086 -160.685501 3378.463623
v -999.670105 -216.070267 3323.079346
v 994.178040 -216.323685 3323.077881
v 994.185059 -160.938858 3378.462158
v 274.205536 5.306179 3433.845947
v 274.198578 -50.077801 3489.230469
v -279.648102 -50.007450 3489.230957
v -279.641144 5.376587 3433.846436
v -279.641174 5.376223 3378.461914
v -279.648254 -50.008602 3323.077881
v 274.198425 -50.078953 3323.077393
v 274.205505 5.305815 3378.461426
v 993.917725 -2265.545410 3433.860352
v 993.924805 -2210.160889 3489.244141
v -3.006421 -2265.418945 3406.168701
v 274.198578 -50.077801 3489.230469
v 274.205536 5.306179 3433.845947
v -2.717827 5.341202 3406.153809
v -999.923340 -2209.907471 3489.245605
v -279.648102 -50.007450 3489.230957
v -999.930481 -2265.292236 3433.861816
v -279.641144 5.376587 3433.846436
v -999.930481 -2265.292480 3378.477539
v -279.641174 5.376223 3378.461914
v -999.923462 -2209.908691 3323.092529
v -279.648254 -50.008602 3323.077881
v 993.924683 -2210.161865 3323.091064
v 274.198425 -50.078953 3323.077393
v 993.917664 -2265.545898 3378.476074
v 274.205505 5.305815 3378.461426
v -999.650940 -49.933033 1028.990356
v -944.255798 32.200005 1028.989746
v -944.256104 32.197453 664.626831
v -999.651245 -49.935581 664.627441
v -556.545410 171.548218 1028.988525
v -556.545715 171.545670 664.625610
v 551.147949 171.407425 1028.987549
v 551.147705 171.404877 664.624634
v 938.822937 31.960674 1028.988281
v 938.822632 31.958126 664.625244
v 994.197205 -50.186443 1028.988647
v 994.196899 -50.188992 664.625732
v -999.653809 -77.619919 1800.007935
v -944.258667 4.513659 1800.007202
v -556.548218 143.861389 1800.006104
v 551.145142 143.720596 1800.005127
v 938.820068 4.274332 1800.005737
v 994.194336 -77.873337 1800.006226
v 994.164001 -327.092468 3323.078613
v 993.938782 -2099.393066 3323.090332
v 993.919739 -2237.865723 1661.559326
v 938.546997 -2154.770264 3323.090820
v 938.528015 -2293.243164 1661.559814
v -944.531738 -2154.531250 3323.092285
v -944.550720 -2293.003662 1661.561279
v -999.909363 -2099.139648 3323.091797
v -999.928406 -2237.612061 1661.561035
v -999.684143 -326.839081 3323.080078
v -944.289001 -244.705475 3323.079590
v -279.655304 -105.393005 3323.078125
v 274.191376 -105.463348 3323.077637
v 938.789734 -244.944824 3323.078125
v 994.194336 -77.873337 1800.006226
v 993.919739 -2237.865723 1661.559326
v 993.919739 -2237.865723 1661.559326
v 994.194336 -77.873337 1800.006226
v 993.919739 -2237.865723 1661.559326
v 994.021667 -1434.792725 1550.785278
v -999.928406 -2237.612061 1661.561035
v -999.653809 -77.619919 1800.007935
v -999.826477 -1434.539307 1550.786987
v -999.928406 -2237.612061 1661.561035
v -999.826477 -1434.539307 1550.786987
v -999.928406 -2237.612061 1661.561035
v 994.194336 -77.873337 1800.006226
v 994.021667 -1434.792725 1550.785278
v 994.021667 -1434.792725 1550.785278
v 994.194336 -77.873337 1800.006226
v 994.021667 -1434.792725 1550.785278
v 994.070801 -1047.103516 1329.245117
v -999.826477 -1434.539307 1550.786987
v -999.653809 -77.619919 1800.007935
v -999.777344 -1046.850220 1329.246826
v -999.826477 -1434.539307 1550.786987
v -999.777344 -1046.850220 1329.246826
v -999.826477 -1434.539307 1550.786987
v 994.194336 -77.873337 1800.006226
v 994.070801 -1047.103516 1329.245117
v 994.070801 -1047.103516 1329.245117
v 994.194336 -77.873337 1800.006226
v 994.070801 -1047.103516 1329.245117
v 994.112793 -714.799438 996.936584
v -999.777344 -1046.850220 1329.246826
v -999.653809 -77.619919 1800.007935
v -999.735352 -714.546082 996.938293
v -999.777344 -1046.850220 1329.246826
v -999.735352 -714.546082 996.938293
v -999.777344 -1046.850220 1329.246826
v 994.194336 -77.873337 1800.006226
v 994.112793 -714.799438 996.936584
v 994.112793 -714.799438 996.936584
v 994.194336 -77.873337 1800.006226
v 994.112793 -714.799438 996.936584
v 994.197205 -50.186443 1028.988647
v -999.735352 -714.546082 996.938293
v -999.653809 -77.619919 1800.007935
v -999.650940 -49.933033 1028.990356
v -999.735352 -714.546082 996.938293
v -999.650940 -49.933033 1028.990356
v -999.735352 -714.546082 996.938293
v 994.197205 -50.186443 1028.988647
v 994.112793 -714.799438 996.936584
v 994.112793 -714.799438 996.936584
v 994.197205 -50.186443 1028.988647
v 994.112793 -714.799438 996.936584
v 994.126587 -604.033081 664.629456
v -999.735352 -714.546082 996.938293
v -999.650940 -49.933033 1028.990356
v -999.721619 -603.779602 664.631165
v -999.735352 -714.546082 996.938293
v -999.721619 -603.779602 664.631165
v -999.735352 -714.546082 996.938293
v 994.197205 -50.186443 1028.988647
v 994.126587 -604.033081 664.629456
v 994.126587 -604.033081 664.629456
v 994.197205 -50.186443 1028.988647
v 994.126587 -604.033081 664.629456
v 994.196899 -50.188992 664.625732
v -999.721619 -603.779602 664.631165
v -999.650940 -49.933033 1028.990356
v -999.651245 -49.935581 664.627441
v -999.721619 -603.779602 664.631165
v -999.651245 -49.935581 664.627441
v -999.721619 -603.779602 664.631165
v -683.492920 520.089844 664.623352
v -667.265747 559.250549 664.623108
v -667.264038 559.264771 2713.845703
v -683.491272 520.104187 2713.845947
v -722.657471 503.873169 664.623535
v -722.655823 503.887421 2713.846191
v -761.817932 520.099854 664.623413
v -761.816223 520.114136 2713.846191
v -778.035095 559.264587 664.623230
v -778.033386 559.278870 2713.845947
v -761.807983 598.425232 664.622925
v -761.806274 598.439514 2713.845703
v -722.643433 614.641968 664.622803
v -722.641724 614.656250 2713.845215
v -683.482971 598.415283 664.622864
v -683.481262 598.429565 2713.845459
v -722.634521 670.041809 2879.998047
v -722.644470 592.504333 2791.383789
v -761.806946 592.509094 2791.384033
v -761.797058 670.046631 2863.776123
v -722.649475 552.553345 2831.332520
v -722.634521 670.041809 2879.998047
v -761.797058 670.046631 2863.776123
v -761.810486 564.028748 2819.862793
v -722.655823 503.887421 2713.846191
v -761.816223 520.114136 2713.846191
v -778.029114 592.510742 2791.384033
v -778.019226 670.048462 2824.613770
v -778.019226 670.048462 2824.613770
v -778.029236 591.722839 2792.170166
v -778.033386 559.278870 2713.845947
v -778.029114 592.510742 2791.384033
v -761.806946 592.508179 2791.384033
v -761.797119 670.046082 2785.451660
v -761.797119 670.046082 2785.451660
v -761.803528 619.412964 2764.477783
v -761.806274 598.439514 2713.845703
v -722.644470 592.502991 2791.383789
v -722.634644 670.041016 2769.229492
v -722.634644 670.041016 2769.229492
v -722.639587 630.878052 2753.007568
v -722.641724 614.656250 2713.845215
v -683.481934 592.498230 2791.383789
v -683.472107 670.036133 2785.451416
v -683.472107 670.036133 2785.451416
v -683.478577 619.403015 2764.477539
v -683.481262 598.429565 2713.845459
v -667.259766 592.496643 2791.383789
v -667.249878 670.034363 2824.613525
v -667.249878 670.034363 2824.613525
v -667.259888 591.708740 2792.169922
v -667.264038 559.264771 2713.845703
v -667.259766 592.496643 2791.383789
v -683.481934 592.499146 2791.383789
v -683.472046 670.036682 2863.775879
v -683.472046 670.036682 2863.775879
v -683.485535 564.018799 2819.862549
v -683.491272 520.104187 2713.845947
v -644.334778 480.927460 1384.620728
v -611.880493 559.248535 1384.620239
v -611.879578 559.256226 2492.308105
v -644.333862 480.935181 2492.308594
v -722.663940 448.493805 1384.621094
v -722.663025 448.501495 2492.308838
v -800.984802 480.947357 1384.620850
v -800.983887 480.955078 2492.308838
v -833.419189 559.276672 1384.620483
v -833.418274 559.284424 2492.308350
v -800.964844 637.597717 1384.619873
v -800.963928 637.605408 2492.307861
v -722.635742 670.031433 1384.619629
v -722.634827 670.039124 2492.307373
v -644.314880 637.577820 1384.619751
v -644.313965 637.585510 2492.307617
v -644.334778 480.927460 1384.620728
v -722.649841 559.262634 1384.620361
v -611.880493 559.248535 1384.620239
v -611.879578 559.256226 2492.308105
v -722.648926 559.270325 2492.308105
v -644.333862 480.935181 2492.308594
v -722.663940 448.493805 1384.621094
v -722.663025 448.501495 2492.308838
v -800.984802 480.947357 1384.620850
v -800.983887 480.955078 2492.308838
v -833.419189 559.276672 1384.620483
v -833.418274 559.284424 2492.308350
v -800.964844 637.597717 1384.619873
v -800.963928 637.605408 2492.307861
v -722.635742 670.031433 1384.619629
v -722.634827 670.039124 2492.307373
v -644.314880 637.577820 1384.619751
v -644.313965 637.585510 2492.307617
v 496.023987 2220.638672 1273.839600
v 495.450653 -2293.186768 1661.560181
v 495.449493 -2293.196533 276.949707
v 496.023163 2220.632080 276.919861
v 496.023987 2220.638672 1273.839600
v 496.023163 2220.632080 276.919861
v -500.900909 2220.758789 276.920715
v -500.900085 2220.765381 1273.840332
v -500.900085 2220.765381 1273.840332
v -500.900909 2220.758789 276.920715
v -501.474579 -2293.069824 276.950562
v -501.473419 -2293.060059 1661.560913
v 495.450653 -2293.186768 1661.560181
v -501.473419 -2293.060059 1661.560913
v -501.474579 -2293.069824 276.950562
v 495.449493 -2293.196533 276.949707
v 496.023163 2220.632080 276.919861
v 495.449493 -2293.196533 276.949707
v -501.474579 -2293.069824 276.950562
v -500.900909 2220.758789 276.920715
v 1049.520508 -532.040344 664.628967
v 1049.524658 -498.810486 553.859436
v 1049.609741 171.340759 553.854980
v 1049.609863 171.341537 664.624268
v 1049.520508 -532.040344 664.628967
v 1049.609863 171.341537 664.624268
v -1055.007690 171.609009 664.625977
v -1055.097046 -531.772827 664.630676
v -1055.097046 -531.772827 664.630676
v -1055.007690 171.609009 664.625977
v -1055.007813 171.608246 553.856689
v -1055.092896 -498.543091 553.861145
v 1049.524658 -498.810486 553.859436
v -1055.092896 -498.543091 553.861145
v -1055.007813 171.608246 553.856689
v 1049.609741 171.340759 553.854980
v 1049.609863 171.341537 664.624268
v 1049.609741 171.340759 553.854980
v -1055.007813 171.608246 553.856689
v -1055.007690 171.609009 664.625977
v -501.243591 -476.460815 387.707336
v -501.161255 171.536682 387.703064
v -1055.007935 171.607086 387.703522
v -1055.090332 -476.390411 387.707794
v -1055.090332 -476.390411 387.707794
v -1055.007935 171.607086 387.703522
v -1055.008057 171.606308 276.934723
v -1055.089111 -465.314178 276.938904
v -501.242279 -465.384583 276.938446
v -1055.089111 -465.314178 276.938904
v -1055.008057 171.606308 276.934723
v -501.161346 171.535919 276.934265
v -501.161255 171.536682 387.703064
v -501.161346 171.535919 276.934265
v -1055.008057 171.606308 276.934723
v -1055.007935 171.607086 387.703522
v -717.893494 598.418884 558.606140
v -729.368652 559.257568 547.135193
v -778.035095 559.264587 664.623230
v -761.807983 598.425232 664.622925
v -611.876221 598.405151 514.691162
v -611.881226 559.242310 498.469940
v -690.199097 614.637268 586.298157
v -722.643433 614.641968 664.622803
v -611.874146 614.627075 553.853394
v -662.508789 598.412292 613.990479
v -683.482971 598.415283 664.622864
v -611.876221 598.405640 593.016357
v -651.043579 559.248169 625.460815
v -667.265747 559.250549 664.623108
v -611.881165 559.243103 609.238647
v -662.518738 520.086853 613.990967
v -683.492920 520.089844 664.623352
v -611.886169 520.080261 593.016846
v -690.213196 503.868500 586.298889
v -722.657471 503.873169 664.623535
v -611.888184 503.858337 553.854126
v -717.903442 520.093506 558.606628
v -761.817932 520.099854 664.623413
v -611.886230 520.079712 514.691650
v -611.876221 598.405640 593.016357
v -501.106842 598.391602 593.016296
v -501.104797 614.613037 553.853333
v -611.874146 614.627075 553.853394
v -611.881165 559.243103 609.238647
v -501.111786 559.229065 609.238586
v -611.886169 520.080261 593.016846
v -501.116791 520.066223 593.016785
v -611.888184 503.858337 553.854126
v -501.118896 503.844238 553.854065
v -611.886230 520.079712 514.691650
v -501.116852 520.065674 514.691589
v -611.881226 559.242310 498.469940
v -501.111877 559.228271 498.469849
v -611.876221 598.405151 514.691162
v -501.106903 598.391052 514.691101
v -279.333832 2442.270020 553.841125
v -279.334015 2442.268311 332.304016
v -279.362183 2220.730713 332.305450
v -279.362000 2220.732422 553.842529
v -279.333832 2442.270020 553.841125
v -279.362000 2220.732422 553.842529
v 274.484680 2220.662109 553.842041
v 274.512848 2442.199707 553.840637
v 274.512848 2442.199707 553.840637
v 274.484680 2220.662109 553.842041
v 274.484497 2220.660400 332.304993
v 274.512665 2442.197998 332.303528
v -279.334015 2442.268311 332.304016
v 274.512665 2442.197998 332.303528
v 274.484497 2220.660400 332.304993
v -279.362183 2220.730713 332.305450
v -390.053925 2829.974854 553.838623
v 385.331451 2829.876465 553.838013
v 385.317169 2719.105713 276.917175
v -390.068207 2719.204346 276.917847
v -390.053925 2829.974854 553.838623
v -390.068207 2719.204346 276.917847
v -390.103394 2442.282227 276.919708
v -390.103088 2442.284912 664.610474
v -390.053925 2829.974854 553.838623
v -390.103088 2442.284912 664.610474
v 385.282288 2442.186279 664.609863
v 385.331451 2829.876465 553.838013
v -390.103088 2442.284912 664.610474
v -390.103394 2442.282227 276.919708
v 385.281982 2442.183594 276.919037
v 385.282288 2442.186279 664.609863
v 385.331451 2829.876465 553.838013
v 385.282288 2442.186279 664.609863
v 385.281982 2442.183594 276.919037
v 385.317169 2719.105713 276.917175
v -390.068207 2719.204346 276.917847
v 385.317169 2719.105713 276.917175
v 385.281982 2442.183594 276.919037
v -390.103394 2442.282227 276.919708
v 52.882393 1722.228394 221.539688
v 52.445984 -1711.604370 221.562393
v 52.445889 -1711.605103 110.793594
v 52.882298 1722.227417 110.770882
v 52.882393 1722.228394 221.539688
v -57.886948 1722.242432 221.539780
v -58.323357 -1711.590332 221.562485
v 52.445984 -1711.604370 221.562393
v -57.886948 1722.242432 221.539780
v -57.887043 1722.241455 110.770973
v -58.323452 -1711.591064 110.793686
v -58.323357 -1711.590332 221.562485
v 52.882298 1722.227417 110.770882
v 52.445889 -1711.605103 110.793594
v -58.323452 -1711.591064 110.793686
v -57.887043 1722.241455 110.770973
v -1110.174438 1888.530151 332.308319
v 1105.212280 1888.248535 332.306488
v 1105.212036 1888.246094 0.000010
v -1110.174683 1888.527710 0.001850
v -1110.174438 1888.530151 332.308319
v -1110.174683 1888.527710 0.001850
v -1110.195801 1722.374512 0.002949
v -1110.195557 1722.376953 332.309418
v -1110.174438 1888.530151 332.308319
v -1110.195557 1722.376953 332.309418
v 1105.191162 1722.095337 332.307587
v 1105.212280 1888.248535 332.306488
v -1110.195557 1722.376953 332.309418
v -1110.195801 1722.374512 0.002949
v 1105.190918 1722.092896 0.001109
v 1105.191162 1722.095337 332.307587
v 1105.212280 1888.248535 332.306488
v 1105.191162 1722.095337 332.307587
v 1105.190918 1722.092896 0.001109
v 1105.212036 1888.246094 0.000010
v -1110.174683 1888.527710 0.001850
v 1105.212036 1888.246094 0.000010
v 1105.190918 1722.092896 0.001109
v -1110.195801 1722.374512 0.002949
v -1110.616943 -1594.073608 382.920044
v 1104.769897 -1594.355225 382.918213
v 1104.772339 -1573.276611 276.944458
v -1110.614380 -1572.994995 276.946289
v -1110.624512 -1654.104248 472.759979
v 1104.762207 -1654.385620 472.758148
v -1110.635864 -1743.942993 532.790100
v 1104.750854 -1744.224609 532.788269
v -1110.649292 -1849.915161 553.870178
v 1104.737427 -1850.196777 553.868347
v -1110.662720 -1955.887817 532.791504
v 1104.723999 -1956.169434 532.789673
v -1110.674316 -2045.727539 472.762573
v 1104.712402 -2046.008789 472.760742
v -1110.682007 -2105.759033 382.923431
v 1104.704712 -2106.040771 382.921600
v -1110.684692 -2126.839111 276.949921
v 1104.702026 -2127.120850 276.948120
v -1110.682251 -2105.760498 170.976212
v 1104.704468 -2106.042236 170.974365
v -1110.674561 -2045.729980 81.136208
v 1104.712158 -2046.011719 81.134369
v -1110.663208 -1955.891357 21.106356
v 1104.723511 -1956.172852 21.104515
v -1110.649780 -1849.918945 0.026369
v 1104.736938 -1850.200684 0.024528
v -1110.636353 -1743.946533 21.104952
v 1104.750366 -1744.228027 21.103113
v -1110.624756 -1654.106934 81.133621
v 1104.761963 -1654.388550 81.131783
v -1110.617188 -1594.075073 170.972824
v 1104.769653 -1594.356689 170.970978
v 1104.737183 -1850.198730 276.946289
v 1104.772339 -1573.276611 276.944458
v 1104.769897 -1594.355225 382.918213
v -1110.649536 -1849.916992 276.948120
v -1110.616943 -1594.073608 382.920044
v -1110.614380 -1572.994995 276.946289
v 1104.762207 -1654.385620 472.758148
v -1110.624512 -1654.104248 472.759979
v 1104.750854 -1744.224609 532.788269
v -1110.635864 -1743.942993 532.790100
v 1104.737427 -1850.196777 553.868347
v -1110.649292 -1849.915161 553.870178
v 1104.723999 -1956.169434 532.789673
v -1110.662720 -1955.887817 532.791504
v 1104.712402 -2046.008789 472.760742
v -1110.674316 -2045.727539 472.762573
v 1104.704712 -2106.040771 382.921600
v -1110.682007 -2105.759033 382.923431
v 1104.702026 -2127.120850 276.948120
v -1110.684692 -2126.839111 276.949921
v 1104.704468 -2106.042236 170.974365
v -1110.682251 -2105.760498 170.976212
v 1104.712158 -2046.011719 81.134369
v -1110.674561 -2045.729980 81.136208
v 1104.723511 -1956.172852 21.104515
v -1110.663208 -1955.891357 21.106356
v 1104.736938 -1850.200684 0.024528
v -1110.649780 -1849.918945 0.026369
v 1104.750366 -1744.228027 21.103113
v -1110.636353 -1743.946533 21.104952
v 1104.761963 -1654.388550 81.131783
v -1110.624756 -1654.106934 81.133621
v 1104.769653 -1594.356689 170.970978
v -1110.617188 -1594.075073 170.972824
v -113.764297 -2154.657959 276.949860
v 107.774384 -2154.686035 276.949677
v 107.774292 -2154.686768 166.180328
v -113.764389 -2154.658691 166.180511
v -113.764297 -2154.657959 276.949860
v -113.764389 -2154.658691 166.180511
v -113.841820 -2763.886963 166.184555
v -113.841728 -2763.886230 276.953857
v -113.764297 -2154.657959 276.949860
v -113.841728 -2763.886230 276.953857
v 107.696953 -2763.914551 276.953674
v 107.774384 -2154.686035 276.949677
v -113.841728 -2763.886230 276.953857
v -113.841820 -2763.886963 166.184555
v 107.696861 -2763.915283 166.184372
v 107.696953 -2763.914551 276.953674
v 107.774384 -2154.686035 276.949677
v 107.696953 -2763.914551 276.953674
v 107.696861 -2763.915283 166.184372
v 107.774292 -2154.686768 166.180328
v -113.764389 -2154.658691 166.180511
v 107.774292 -2154.686768 166.180328
v 107.696861 -2763.915283 166.184372
v -113.841820 -2763.886963 166.184555
v 219.115173 2331.442139 1163.070190
v 385.267548 2331.421143 1163.070068
v 385.267456 2331.420410 1052.301270
v 219.115082 2331.441162 1052.301392
v 219.115173 2331.442139 1163.070190
v 219.115082 2331.441162 1052.301392
v 219.101013 2220.672852 1079.994385
v 219.101059 2220.673096 1135.378662
v 219.115173 2331.442139 1163.070190
v 219.101059 2220.673096 1135.378662
v 385.253448 2220.651855 1135.378540
v 385.267548 2331.421143 1163.070068
v 385.267548 2331.421143 1163.070068
v 385.253448 2220.651855 1135.378540
v 385.253418 2220.651611 1079.994263
v 385.267456 2331.420410 1052.301270
v 219.115082 2331.441162 1052.301392
v 385.267456 2331.420410 1052.301270
v 385.253418 2220.651611 1079.994263
v 219.101013 2220.672852 1079.994385
v 772.655640 -88.910461 3461.538086
v 938.809631 -88.931580 3461.538086
v 938.809509 -88.932373 3350.769287
v 772.655518 -88.911240 3350.769287
v 772.655640 -88.910461 3461.538086
v 772.655518 -88.911240 3350.769287
v 772.641479 -199.679810 3378.462402
v 772.641541 -199.679382 3433.846924
v 772.655640 -88.910461 3461.538086
v 772.641541 -199.679382 3433.846924
v 938.795532 -199.700500 3433.846924
v 938.809631 -88.931580 3461.538086
v 938.809631 -88.931580 3461.538086
v 938.795532 -199.700500 3433.846924
v 938.795471 -199.700928 3378.462402
v 938.809509 -88.932373 3350.769287
v 772.655518 -88.911240 3350.769287
v 938.809509 -88.932373 3350.769287
v 938.795471 -199.700928 3378.462402
v 772.641479 -199.679810 3378.462402
v 495.741547 -33.490856 3461.538086
v 661.893372 -33.511974 3461.538086
v 661.893250 -33.512768 3350.769043
v 495.741455 -33.491642 3350.769043
v 495.741547 -33.490856 3461.538086
v 495.741455 -33.491642 3350.769043
v 495.727417 -144.260254 3378.462158
v 495.727448 -144.259827 3433.846680
v 495.741547 -33.490856 3461.538086
v 495.727448 -144.259827 3433.846680
v 661.879211 -144.280960 3433.846680
v 661.893372 -33.511974 3461.538086
v 661.893372 -33.511974 3461.538086
v 661.879211 -144.280960 3433.846680
v 661.879150 -144.281387 3378.462158
v 661.893250 -33.512768 3350.769043
v 495.741455 -33.491642 3350.769043
v 661.893250 -33.512768 3350.769043
v 661.879150 -144.281387 3378.462158
v 495.727417 -144.260254 3378.462158
v 883.117310 -2498.158203 1661.561279
v 716.968872 -2498.137207 1661.561401
v 716.968750 -2498.137939 1550.792603
v 883.117188 -2498.158936 1550.792480
v 883.117310 -2498.158203 1661.561279
v 883.117188 -2498.158936 1550.792480
v 883.131348 -2387.390381 1578.484009
v 883.131348 -2387.389893 1633.868286
v 883.117310 -2498.158203 1661.561279
v 883.131348 -2387.389893 1633.868286
v 716.982910 -2387.368652 1633.868408
v 716.968872 -2498.137207 1661.561401
v 716.968872 -2498.137207 1661.561401
v 716.982910 -2387.368652 1633.868408
v 716.982910 -2387.369141 1578.484131
v 716.968750 -2498.137939 1550.792603
v 883.117188 -2498.158936 1550.792480
v 716.968750 -2498.137939 1550.792603
v 716.982910 -2387.369141 1578.484131
v 883.131348 -2387.390381 1578.484009
v 661.613831 -2276.580078 3461.552734
v 495.459198 -2276.558838 3461.552734
v 495.459137 -2276.559570 3350.783936
v 661.613708 -2276.580811 3350.783936
v 661.613831 -2276.580078 3461.552734
v 661.613708 -2276.580811 3350.783936
v 661.627808 -2165.811768 3378.475586
v 661.627869 -2165.811279 3433.859863
v 661.613831 -2276.580078 3461.552734
v 661.627869 -2165.811279 3433.859863
v 495.473267 -2165.790283 3433.859863
v 495.459198 -2276.558838 3461.552734
v 495.459198 -2276.558838 3461.552734
v 495.473267 -2165.790283 3433.859863
v 495.473236 -2165.790771 3378.475586
v 495.459137 -2276.559570 3350.783936
v 661.613708 -2276.580811 3350.783936
v 495.459137 -2276.559570 3350.783936
v 495.473236 -2165.790771 3378.475586
v 661.627808 -2165.811768 3378.475586
v 938.531616 -2276.614990 3461.552490
v 772.383118 -2276.594238 3461.552490
v 772.382996 -2276.594971 3350.783691
v 938.531494 -2276.615967 3350.783691
v 938.531616 -2276.614990 3461.552490
v 938.531494 -2276.615967 3350.783691
v 938.545532 -2165.847168 3378.475342
v 938.545593 -2165.846680 3433.859619
v 938.531616 -2276.614990 3461.552490
v 938.545593 -2165.846680 3433.859619
v 772.397156 -2165.825439 3433.859619
v 772.383118 -2276.594238 3461.552490
v 772.383118 -2276.594238 3461.552490
v 772.397156 -2165.825439 3433.859619
v 772.397095 -2165.825928 3378.475342
v 772.382996 -2276.594971 3350.783691
v 938.531494 -2276.615967 3350.783691
v 772.382996 -2276.594971 3350.783691
v 772.397095 -2165.825928 3378.475342
v 938.545532 -2165.847168 3378.475342
v -223.965530 2331.498535 1163.070679
v -390.117950 2331.518555 1052.302002
v -390.117859 2331.519531 1163.070801
v -223.965622 2331.497559 1052.301880
v -223.965530 2331.498535 1163.070679
v -223.979126 2220.729004 1079.994873
v -223.965622 2331.497559 1052.301880
v -223.979080 2220.729248 1135.379150
v -223.965530 2331.498535 1163.070679
v -390.131409 2220.750488 1135.379272
v -223.979080 2220.729248 1135.379150
v -390.117859 2331.519531 1163.070801
v -390.117859 2331.519531 1163.070801
v -390.131439 2220.750244 1079.994995
v -390.131409 2220.750488 1135.379272
v -390.117950 2331.518555 1052.302002
v -223.965622 2331.497559 1052.301880
v -390.131439 2220.750244 1079.994995
v -390.117950 2331.518555 1052.302002
v -223.979126 2220.729004 1079.994873
v -778.115112 -88.713379 3461.539551
v -944.269226 -88.693039 3350.770752
v -944.269104 -88.692245 3461.539551
v -778.115234 -88.714157 3350.770752
v -778.115112 -88.713379 3461.539551
v -778.129272 -199.482727 3378.463867
v -778.115234 -88.714157 3350.770752
v -778.129211 -199.482300 3433.848389
v -778.115112 -88.713379 3461.539551
v -944.283203 -199.461166 3433.848389
v -778.129211 -199.482300 3433.848389
v -944.269104 -88.692245 3461.539551
v -944.269104 -88.692245 3461.539551
v -944.283264 -199.461594 3378.463867
v -944.283203 -199.461166 3433.848389
v -944.269226 -88.693039 3350.770752
v -778.115234 -88.714157 3350.770752
v -944.283264 -199.461594 3378.463867
v -944.269226 -88.693039 3350.770752
v -778.129272 -199.482727 3378.463867
v -501.186371 -33.364178 3461.538818
v -667.338806 -33.343845 3350.770020
v -667.338684 -33.343060 3461.538818
v -501.186462 -33.364971 3350.770020
v -501.186371 -33.364178 3461.538818
v -501.199982 -144.133530 3378.463135
v -501.186462 -33.364971 3350.770020
v -501.199951 -144.133163 3433.847656
v -501.186371 -33.364178 3461.538818
v -667.352844 -144.112030 3433.847656
v -501.199951 -144.133163 3433.847656
v -667.338684 -33.343060 3461.538818
v -667.338684 -33.343060 3461.538818
v -667.352905 -144.112396 3378.463135
v -667.352844 -144.112030 3433.847656
v -667.338806 -33.343845 3350.770020
v -501.186462 -33.364971 3350.770020
v -667.352905 -144.112396 3378.463135
v -667.338806 -33.343845 3350.770020
v -501.199982 -144.133530 3378.463135
v -889.192139 -2497.932861 1661.562744
v -723.038269 -2497.955078 1550.793823
v -723.038147 -2497.954102 1661.562622
v -889.192261 -2497.933838 1550.793945
v -889.192139 -2497.932861 1661.562744
v -889.178101 -2387.165039 1578.485474
v -889.192261 -2497.933838 1550.793945
v -889.178101 -2387.164551 1633.869751
v -889.192139 -2497.932861 1661.562744
v -723.024109 -2387.185547 1633.869629
v -889.178101 -2387.164551 1633.869751
v -723.038147 -2497.954102 1661.562622
v -723.038147 -2497.954102 1661.562622
v -723.024109 -2387.186035 1578.485352
v -723.024109 -2387.185547 1633.869629
v -723.038269 -2497.955078 1550.793823
v -889.192261 -2497.933838 1550.793945
v -723.024109 -2387.186035 1578.485352
v -723.038269 -2497.955078 1550.793823
v -889.178101 -2387.165039 1578.485474
v -667.623779 -2276.411133 3461.553711
v -501.471527 -2276.432861 3350.784912
v -501.471436 -2276.432129 3461.553711
v -667.623901 -2276.411865 3350.784912
v -667.623779 -2276.411133 3461.553711
v -667.609863 -2165.642822 3378.476563
v -667.623901 -2276.411865 3350.784912
v -667.609802 -2165.642578 3433.860840
v -667.623779 -2276.411133 3461.553711
v -501.457397 -2165.663574 3433.860840
v -667.609802 -2165.642578 3433.860840
v -501.471436 -2276.432129 3461.553711
v -501.471436 -2276.432129 3461.553711
v -501.457428 -2165.664063 3378.476563
v -501.457397 -2165.663574 3433.860840
v -501.471527 -2276.432861 3350.784912
v -667.623901 -2276.411865 3350.784912
v -501.457428 -2165.664063 3378.476563
v -501.471527 -2276.432861 3350.784912
v -667.609863 -2165.642822 3378.476563
v -944.547119 -2276.375977 3461.553955
v -778.393250 -2276.397705 3350.785156
v -778.393127 -2276.396973 3461.553955
v -944.547241 -2276.376709 3350.785156
v -944.547119 -2276.375977 3461.553955
v -944.533203 -2165.607666 3378.476807
v -944.547241 -2276.376709 3350.785156
v -944.533142 -2165.607422 3433.861084
v -944.547119 -2276.375977 3461.553955
v -778.379150 -2165.628662 3433.861084
v -944.533142 -2165.607422 3433.861084
v -778.393127 -2276.396973 3461.553955
v -778.393127 -2276.396973 3461.553955
v -778.379211 -2165.628906 3378.476807
v -778.379150 -2165.628662 3433.861084
v -778.393250 -2276.397705 3350.785156
v -944.547241 -2276.376709 3350.785156
v -778.379211 -2165.628906 3378.476807
v -778.393250 -2276.397705 3350.785156
v -944.533203 -2165.607666 3378.476807
v 117.459190 2109.919678 1495.378174
v -2.460719 2040.705200 1606.147583
v -2.478427 1902.243530 1495.379761
v -2.460811 2040.704468 1495.378784
v 117.459190 2109.919678 1495.378174
v -2.478427 1902.243530 1495.379761
v -122.363640 2109.950195 1495.378418
v -122.363640 2109.950195 1495.378418
v -122.662323 -257.718842 3489.231934
v -2.742301 -188.502899 3600.000488
v -2.724790 -50.042591 3489.230713
v -2.742393 -188.503616 3489.231445
v -122.662323 -257.718842 3489.231934
v -2.724790 -50.042591 3489.230713
v 117.159943 -257.749298 3489.231934
v 117.159943 -257.749298 3489.231934

usemtl lataria_0_0
f 1 2 3
f 1 3 4
f 5 6 7
f 5 7 8
f 4 3 9
f 4 9 10
f 8 7 11
f 8 11 12
f 10 9 13
f 10 13 14
f 12 11 15
f 12 15 16
f 14 13 17
f 14 17 18
f 16 15 19
f 16 19 20
f 18 17 21
f 18 21 22
f 20 19 23
f 20 23 24
f 22 21 25
f 22 25 26
f 24 23 27
f 24 27 28
f 26 25 29
f 26 29 30
f 28 27 31
f 28 31 32
f 30 29 33
f 30 33 34
f 32 31 35
f 32 35 36
f 34 33 37
f 34 37 38
f 36 35 39
f 36 39 40
f 38 37 41
f 38 41 42
f 43 44 45
f 43 45 46
f 47 48 49
f 47 49 50
f 50 49 51
f 50 51 52
f 52 51 53
f 52 53 54
f 54 53 55
f 54 55 56
f 56 55 57
f 56 57 58
f 58 57 59
f 58 59 60
f 60 59 61
f 60 61 62
f 62 61 63
f 62 63 64
f 65 66 67
f 65 67 68
f 64 63 69
f 64 69 70
f 71 72 73
f 71 73 74
f 75 76 77
f 75 77 78
f 74 73 79
f 74 79 80
f 78 77 81
f 78 81 82
f 80 79 83
f 80 83 84
f 82 81 85
f 82 85 86
f 84 83 87
f 84 87 88
f 86 85 89
f 86 89 90
f 88 87 91
f 88 91 92
f 90 89 93
f 90 93 94
f 92 91 95
f 92 95 96
f 94 93 97
f 94 97 98
f 96 95 99
f 96 99 100
f 98 97 101
f 98 101 102
f 100 99 103
f 100 103 104
f 102 101 105
f 102 105 106
f 104 103 107
f 104 107 108
f 106 105 109
f 106 109 110
f 108 107 111
f 108 111 112
f 113 114 115
f 113 115 116
f 117 118 119
f 117 119 120
f 118 121 122
f 118 122 119
f 121 123 124
f 121 124 122
f 123 125 126
f 123 126 124
f 125 127 128
f 125 128 126
f 127 129 130
f 127 130 128
f 129 131 132
f 129 132 130
f 131 133 134
f 131 134 132
f 133 135 136
f 133 136 134
f 137 138 139
f 137 139 140
f 141 142 143
f 141 143 144
f 145 141 144
f 145 144 146
f 147 145 146
f 147 146 148
f 149 147 148
f 149 148 150
f 151 152 153
f 151 153 154
f 142 155 156
f 142 156 143
f 157 158 159
f 160 161 162
f 154 153 163
f 154 163 164
f 143 156 165
f 166 167 168
f 169 170 171
f 172 173 174
f 164 163 175
f 164 175 176
f 177 165 178
f 179 180 181
f 182 183 184
f 185 186 187
f 176 175 188
f 176 188 189
f 190 178 191
f 192 193 194
f 195 196 197
f 198 199 200
f 189 188 201
f 189 201 202
f 203 191 204
f 205 206 207
f 208 209 210
f 208 210 211
f 212 208 211
f 212 211 213
f 214 212 213
f 214 213 215
f 216 214 215
f 216 215 217
f 218 219 220
f 218 220 221
f 209 204 222
f 209 222 210
f 211 210 223
f 211 223 224
f 213 211 224
f 213 224 225
f 215 213 225
f 215 225 226
f 217 215 226
f 217 226 227
f 221 220 228
f 221 228 229
f 210 222 230
f 210 230 223
f 224 223 231
f 224 231 232
f 225 224 232
f 225 232 233
f 226 225 233
f 226 233 234
f 227 226 234
f 227 234 235
f 229 228 236
f 229 236 237
f 223 230 238
f 223 238 231
f 232 231 239
f 232 239 240
f 233 232 240
f 233 240 241
f 234 233 241
f 234 241 242
f 235 234 242
f 235 242 243
f 237 235 243
f 237 243 244
f 231 237 244
f 231 244 239
f 245 246 247
f 248 245 247
f 249 248 247
f 250 249 247
f 251 250 247
f 246 251 247
f 252 253 254
f 252 254 255
f 256 252 255
f 256 255 257
f 258 256 257
f 258 257 259
f 260 258 259
f 260 259 261
f 262 260 261
f 262 261 263
f 264 262 263
f 264 263 265
f 266 264 265
f 266 265 267
f 253 266 267
f 253 267 254
f 268 269 270
f 268 270 271
f 272 268 271
f 272 271 273
f 274 272 273
f 274 273 275
f 276 274 275
f 276 275 277
f 278 276 277
f 278 277 279
f 280 278 279
f 280 279 281
f 282 280 281
f 282 281 283
f 269 282 283
f 269 283 270
f 271 270 284
f 271 284 285
f 273 271 285
f 273 285 286
f 275 273 286
f 275 286 287
f 277 275 287
f 277 287 288
f 279 277 288
f 279 288 289
f 281 279 289
f 281 289 290
f 283 281 290
f 283 290 291
f 270 283 291
f 270 291 284
f 285 284 292
f 285 292 293
f 286 285 293
f 286 293 294
f 287 286 294
f 287 294 295
f 288 287 295
f 288 295 296
f 289 288 296
f 289 296 297
f 290 289 297
f 290 297 298
f 291 290 298
f 291 298 299
f 284 291 299
f 284 299 292
f 300 301 302
f 303 304 305
f 301 306 302
f 307 303 305
f 306 308 302
f 309 307 305
f 308 310 302
f 311 309 305
f 310 312 302
f 313 311 305
f 312 314 302
f 315 313 305
f 314 316 302
f 317 315 305
f 316 300 302
f 304 317 305

usemtl gabine_0_0
f 318 319 320
f 318 320 321
f 319 322 323
f 319 323 320
f 322 324 325
f 322 325 323
f 324 326 327
f 324 327 325
f 326 328 329
f 326 329 327
f 330 331 319
f 330 319 318
f 331 332 322
f 331 322 319
f 332 333 324
f 332 324 322
f 333 334 326
f 333 326 324
f 334 335 328
f 334 328 326
f 336 337 338
f 336 338 335
f 337 339 340
f 337 340 338
f 339 341 342
f 339 342 340
f 341 343 344
f 341 344 342
f 343 345 330
f 343 330 344
f 345 346 331
f 345 331 330
f 346 347 332
f 346 332 331
f 347 348 333
f 347 333 332
f 348 349 334
f 348 334 333
f 349 336 335
f 349 335 334
f 350 351 352
f 353 354 355
f 356 357 358
f 359 360 361
f 362 363 364
f 365 366 367
f 368 369 370
f 371 372 373
f 374 375 376
f 377 378 379
f 380 381 382
f 383 384 385
f 386 387 388
f 389 390 391
f 392 393 394
f 395 396 397
f 398 399 400
f 401 402 403
f 404 405 406
f 407 408 409
f 410 411 412
f 413 414 415
f 416 417 418
f 419 420 421

usemtl motor_0_0
f 422 423 424
f 422 424 425
f 426 422 425
f 426 425 427
f 428 426 427
f 428 427 429
f 430 428 429
f 430 429 431
f 432 430 431
f 432 431 433
f 434 432 433
f 434 433 435
f 436 434 435
f 436 435 437
f 423 436 437
f 423 437 424
f 438 439 440
f 438 440 441
f 442 443 444
f 442 444 445
f 446 442 445
f 446 445 447
f 441 440 448
f 441 448 449
f 445 444 450
f 445 450 451
f 447 445 451
f 447 451 452
f 450 453 454
f 450 454 455
f 451 449 456
f 451 456 457
f 452 451 457
f 452 457 458
f 455 454 459
f 455 459 460
f 457 456 461
f 457 461 462
f 458 457 462
f 458 462 463
f 460 459 464
f 460 464 465
f 462 460 466
f 462 466 467
f 463 462 467
f 463 467 468
f 465 464 469
f 465 469 470
f 467 466 471
f 467 471 472
f 468 467 472
f 468 472 473
f 471 474 475
f 471 475 476
f 472 470 477
f 472 477 478
f 473 472 478
f 473 478 479
f 476 475 439
f 476 439 438
f 478 477 443
f 478 443 442
f 479 478 442
f 479 442 446
f 480 481 482
f 480 482 483
f 484 480 483
f 484 483 485
f 486 484 485
f 486 485 487
f 488 486 487
f 488 487 489
f 490 488 489
f 490 489 491
f 492 490 491
f 492 491 493
f 494 492 493
f 494 493 495
f 481 494 495
f 481 495 482
f 496 497 498
f 499 500 501
f 502 497 496
f 501 500 503
f 504 497 502
f 503 500 505
f 506 497 504
f 505 500 507
f 508 497 506
f 507 500 509
f 510 497 508
f 509 500 511
f 512 497 510
f 511 500 513
f 498 497 512
f 513 500 499
f 514 515 516
f 514 516 517
f 518 519 520
f 518 520 521
f 522 523 524
f 522 524 525
f 526 527 528
f 526 528 529
f 530 531 532
f 530 532 533
f 534 535 536
f 534 536 537
f 538 539 540
f 538 540 541
f 542 543 544
f 542 544 545
f 546 547 548
f 546 548 549
f 550 551 552
f 550 552 553
f 554 555 556
f 554 556 557
f 558 559 560
f 558 560 561
f 562 563 564
f 562 564 565
f 566 567 568
f 566 568 569
f 570 571 572
f 570 572 573
f 574 575 571
f 574 571 570
f 576 570 573
f 576 573 577
f 578 574 570
f 578 570 576
f 579 576 577
f 579 577 580
f 581 578 576
f 581 576 579
f 582 579 580
f 582 580 583
f 584 581 579
f 584 579 582
f 585 582 583
f 585 583 586
f 587 584 582
f 587 582 585
f 588 585 586
f 588 586 589
f 590 587 585
f 590 585 588
f 591 588 589
f 591 589 592
f 593 590 588
f 593 588 591
f 571 591 592
f 571 592 572
f 575 593 591
f 575 591 571
f 594 595 596
f 594 596 597
f 598 599 595
f 598 595 594
f 600 601 599
f 600 599 598
f 602 603 601
f 602 601 600
f 604 605 603
f 604 603 602
f 606 607 605
f 606 605 604
f 608 609 607
f 608 607 606
f 597 596 609
f 597 609 608
f 610 611 612
f 610 612 613
f 614 615 616
f 614 616 617
f 618 619 620
f 618 620 621
f 622 623 624
f 622 624 625
f 626 627 628
f 626 628 629
f 630 631 632
f 630 632 633
f 634 635 636
f 634 636 637
f 638 639 640
f 638 640 641
f 642 643 644
f 642 644 645
f 646 647 648
f 646 648 649
f 650 651 652
f 650 652 653
f 654 655 656
f 654 656 657
f 658 659 660
f 658 660 661
f 662 663 664
f 662 664 665
f 666 667 668
f 666 668 669
f 670 671 672
f 670 672 673
f 674 675 676
f 674 676 677
f 678 679 680
f 678 680 681
f 682 683 684
f 682 684 685
f 686 687 688
f 686 688 689
f 690 691 692
f 690 692 693
f 694 695 691
f 694 691 690
f 696 697 695
f 696 695 694
f 698 699 697
f 698 697 696
f 700 701 699
f 700 699 698
f 702 703 701
f 702 701 700
f 704 705 703
f 704 703 702
f 706 707 705
f 706 705 704
f 708 709 707
f 708 707 706
f 710 711 709
f 710 709 708
f 712 713 711
f 712 711 710
f 714 715 713
f 714 713 712
f 716 717 715
f 716 715 714
f 718 719 717
f 718 717 716
f 720 721 719
f 720 719 718
f 693 692 721
f 693 721 720
f 722 723 724
f 725 726 727
f 722 724 728
f 725 729 726
f 722 728 730
f 725 731 729
f 722 730 732
f 725 733 731
f 722 732 734
f 725 735 733
f 722 734 736
f 725 737 735
f 722 736 738
f 725 739 737
f 722 738 740
f 725 741 739
f 722 740 742
f 725 743 741
f 722 742 744
f 725 745 743
f 722 744 746
f 725 747 745
f 722 746 748
f 725 749 747
f 722 748 750
f 725 751 749
f 722 750 752
f 725 753 751
f 722 752 754
f 725 755 753
f 722 754 723
f 725 727 755
f 756 757 758
f 756 758 759
f 760 761 762
f 760 762 763
f 764 765 766
f 764 766 767
f 768 769 770
f 768 770 771
f 772 773 774
f 772 774 775
f 776 777 778
f 776 778 779

usemtl luzes_0_0
f 780 781 782
f 780 782 783
f 784 785 786
f 784 786 787
f 788 789 790
f 788 790 791
f 792 793 794
f 792 794 795
f 796 797 798
f 796 798 799
f 800 801 802
f 800 802 803
f 804 805 806
f 804 806 807
f 808 809 810
f 808 810 811
f 812 813 814
f 812 814 815
f 816 817 818
f 816 818 819
f 820 821 822
f 820 822 823
f 824 825 826
f 824 826 827
f 828 829 830
f 828 830 831
f 832 833 834
f 832 834 835
f 836 837 838
f 836 838 839
f 840 841 842
f 840 842 843
f 844 845 846
f 844 846 847
f 848 849 850
f 848 850 851
f 852 853 854
f 852 854 855
f 856 857 858
f 856 858 859
f 860 861 862
f 860 862 863
f 864 865 866
f 864 866 867
f 868 869 870
f 868 870 871
f 872 873 874
f 872 874 875
f 876 877 878
f 876 878 879
f 880 881 882
f 880 882 883
f 884 885 886
f 884 886 887
f 888 889 890
f 888 890 891
f 892 893 894
f 892 894 895
f 896 897 898
f 896 898 899
f 900 901 902
f 900 903 901
f 904 905 906
f 904 907 905
f 908 909 910
f 908 911 909
f 912 913 914
f 912 915 913
f 916 917 918
f 916 919 917
f 920 921 922
f 920 923 921
f 924 925 926
f 924 927 925
f 928 929 930
f 928 931 929
f 932 933 934
f 932 935 933
f 936 937 938
f 936 939 937
f 940 941 942
f 940 943 941
f 944 945 946
f 944 947 945
f 948 949 950
f 948 951 949
f 952 953 954
f 952 955 953
f 956 957 958
f 956 959 957
f 960 961 962
f 960 963 961
f 964 965 966
f 964 967 965
f 968 969 970
f 968 971 969
f 972 973 974
f 972 975 973
f 976 977 978
f 976 979 977
f 980 981 982
f 980 983 981
f 984 985 986
f 984 987 985
f 988 989 990
f 988 991 989
f 992 993 994
f 992 995 993
f 996 997 998
f 996 999 997
f 1000 1001 1002
f 1000 1003 1001
f 1004 1005 1006
f 1004 1007 1005
f 1008 1009 1010
f 1008 1011 1009
f 1012 1013 1014
f 1012 1015 1013
f 1016 1017 1018
f 1016 1019 1017

usemtl alinhamento_0_0
f 1020 1021 1022
f 1023 1024 1025
f 1026 1021 1020
f 1023 1027 1024
f 1022 1021 1026
f 1023 1025 1027
f 1028 1029 1030
f 1031 1032 1033
f 1034 1029 1028
f 1031 1035 1032
f 1030 1029 1034
f 1031 1033 1035

